<?xml version="1.0" encoding="utf-8"?>
<!-- Generator: Adobe Illustrator 18.1.1, SVG Export Plug-In . SVG Version: 6.00 Build 0)  -->
<svg version="1.1" id="Layer_1" xmlns="http://www.w3.org/2000/svg" xmlns:xlink="http://www.w3.org/1999/xlink" x="0px" y="0px"
	 viewBox="0 0 308 385.8" style="enable-background:new 0 0 308 385.8;" xml:space="preserve">
<style type="text/css">
	.st0{fill:#58BD98;}
	.st1{fill:#FFFFFF;}
	.st2{fill:#F6899C;}
	.st3{fill:#1A9169;}
	.st4{fill:#2AD19D;}
	.st5{fill:#F46B83;}
	.st6{fill:#17916A;}
	.st7{fill:#AA4660;}
	.st8{fill:#3A5D87;}
	.st9{fill:#527EBB;}
	.st10{fill:#D82908;}
	.st11{fill:#E85749;}
	.st12{fill:#C6AF75;}
	.st13{fill:#A17644;}
	.st14{fill:#79E2BC;}
	.st15{fill:#34B188;}
	.st16{fill:#FCED5E;}
	.st17{fill:#FDE49C;}
	.st18{fill:#E2CC8A;}
	.st19{fill:#D9C081;}
	.st20{fill:#626366;}
	.st21{fill:#CC486A;}
	.st22{fill:#CE5B79;}
	.st23{fill:#939598;}
	.st24{fill:#626467;}
	.st25{fill:#E6D0B8;}
	.st26{fill:#EE6D83;}
	.st27{fill:#5ABABA;}
	.st28{fill:#DEDEDE;}
	.st29{fill:#D1D3D4;}
	.st30{fill:#16A457;}
	.st31{fill:#929496;}
	.st32{fill:#EE6B82;}
	.st33{fill:#F66981;}
	.st34{fill:#16D19B;}
	.st35{fill:#24A45A;}
	.st36{opacity:0.21;}
	.st37{fill:#231F20;}
	.st38{fill-rule:evenodd;clip-rule:evenodd;fill:#FFFFFF;}
	.st39{fill:#F16D83;}
	.st40{fill-rule:evenodd;clip-rule:evenodd;fill:#F56980;}
	.st41{fill:#CCCCCC;}
	.st42{fill:#F36D85;}
	.st43{fill:#F4A6B7;}
	.st44{fill:#CBCBCB;}
	.st45{fill:#F06E85;}
	.st46{fill:#909294;}
	.st47{fill:#F56980;}
	.st48{opacity:0.3;}
	.st49{fill:#E2F2EB;}
</style>
<g>
	<g>
		<path class="st12" d="M283.3,233.9c-0.1,0-0.3,0-0.4,0H22.7c-0.1,0-0.3,0-0.4,0c-7,0-12.7,3-12.7,10.1c0,7.7,2.8,11.8,6.9,13.9
			l0,0c0,0,0,0,0,0c1.7,0.9,3.7,1.4,5.8,1.4h10.9c5.1,1,8.9,5.5,8.9,10.9c0,11.6-11,11.2-11.1,11.3c-5.4,0-9.7-0.7-9.7,4.7
			c0,11.1,5.3,14.7,10.6,14.7c0.6,0,1.7,0.1,1.7,0.1c10.6,0,178.7,0,207.8,0c0,0,1.3,0,2,0c5.4,0,9.8-4,9.8-14.8
			c0-5.4-4.4-4.8-9.8-4.8c-0.2,0-0.3,0-0.4,0c-0.1,0-0.2,0-0.4,0c-3.5,0-6.3-2.8-6.3-6.3s2.8-6.3,6.3-6.3c0.4,0,2.4,0,3.1,0
			c5,0,16.2,0,20.8,0c4.6,0,8.7-2.6,8.7-9.3h8.1c7,0,12.7-4.4,12.7-15.4C296,236.9,290.3,233.9,283.3,233.9z"/>
	</g>
	<g>
		<rect x="49.9" y="78" class="st13" width="3.3" height="127.2"/>
	</g>
	<g>
		<rect x="245.1" y="70.1" class="st13" width="3.3" height="147.4"/>
	</g>
	<g>
		<path class="st4" d="M247.3,148.6c0,0-33.5,0.3-33.5-40.3c0-32.9,33.5-107,33.5-107s33.5,74.1,33.5,107
			C280.8,148.9,247.3,148.6,247.3,148.6z"/>
	</g>
	<g>
		<path class="st14" d="M247.3,1.4v147.3c0,0,33.5,0.3,33.5-40.3C280.8,75.5,247.3,1.4,247.3,1.4z"/>
	</g>
	<g>
		<rect x="95.1" y="106" class="st13" width="3.3" height="120.2"/>
	</g>
	<g>
		<path class="st4" d="M96.8,135.6c0,0-30.8,0.3-30.8-37.1C65.9,68.2,96.8,0,96.8,0s30.8,68.2,30.8,98.5
			C127.6,135.9,96.8,135.6,96.8,135.6z"/>
	</g>
	<g>
		<path class="st14" d="M96.8,0v135.6c0,0,30.8,0.3,30.8-37.1C127.6,68.2,96.8,0,96.8,0z"/>
	</g>
	<g>
		<path class="st15" d="M264.9,207.3C264.9,207.3,264.9,207.3,264.9,207.3c-3.5-3-15.1-11.1-26.7,0.5c-13.2,13.2-25.7,0-25.7,0
			s-13.8-13.1-27.1,0.1c-13.2,13.2-25.7,0-25.7,0s-13.8-13.1-27.1,0.1c-13.2,13.2-25.5,0.1-25.5,0.1s-14-13.2-27.2,0
			c-13.2,13.2-25.7,0-25.7,0s-10.4-10.7-27.1-0.7c-6.6,4-13.4,15.4-15.1,26.7l1,9.8h252.5l0,0h24.1l1.6-12.3
			C275.6,216.3,258.9,201.1,264.9,207.3z"/>
	</g>
	<g>
		<path class="st4" d="M51.6,149.8c0,0-22.8,0.2-22.8-27.3c0-22.3,22.8-72.6,22.8-72.6s22.8,50.3,22.8,72.6
			C74.3,150,51.6,149.8,51.6,149.8z"/>
	</g>
	<g>
		<path class="st14" d="M51.6,49.8v100c0,0,22.8,0.2,22.8-27.3C74.3,100.1,51.6,49.8,51.6,49.8z"/>
	</g>
	<g>
		<circle class="st16" cx="193.4" cy="215.2" r="1.1"/>
	</g>
	<g>
		<circle class="st16" cx="167.3" cy="224.9" r="1.1"/>
	</g>
	<g>
		<circle class="st16" cx="84.4" cy="215.9" r="1.1"/>
	</g>
	<g>
		<circle class="st16" cx="270.5" cy="220" r="2"/>
	</g>
	<g>
		<path class="st17" d="M283.3,228.8c-0.1,0-0.3,0-0.4,0H22.7c-0.1,0-0.3,0-0.4,0c-7,0-12.7,5.7-12.7,12.7c0,4.9,2.8,9.2,6.9,11.3
			l0,0c0,0,0,0,0,0c1.7,0.9,3.7,1.4,5.8,1.4h10.9c5.1,1,8.9,5.5,8.9,10.9c0,11.6-11,11.2-11.1,11.3c-5.4,0-9.7,4.3-9.7,9.7
			s4.3,9.7,9.7,9.7c0.2,0,1.7,0.1,1.7,0.1c10.6,0,179.6,0,208.7,0h2c5.4,0,9.8-4.4,9.8-9.8s-4.4-9.8-9.8-9.8c-0.2,0-0.7,0-0.8,0
			c-3.5,0-6.3-2.8-6.3-6.3c0-3.5,2.8-6.3,6.3-6.3c0.4,0,2.4,0,3.1,0c5,0,16.2,0,20.8,0c4.6,0,8.7-2.6,8.7-9.3h8.1
			c7,0,12.7-5.7,12.7-12.7C296,234.5,290.3,228.8,283.3,228.8z"/>
	</g>
	<g>
		<circle class="st16" cx="104.2" cy="220" r="1.1"/>
	</g>
	<g>
		<ellipse class="st18" cx="69.9" cy="228.3" rx="4.1" ry="1.5"/>
	</g>
	<g>
		<path class="st19" d="M233.6,236.7c-0.1,0-0.2,0-0.4,0c0,0,0,0,0,0H32.5c0,0-0.1,0-0.1,0c0,0,0,0-0.1,0c-3.1,0-5.6,0.9-5.6,2.1
			c0,1.2,2.5,2.1,5.6,2.1c0,0,0.1,0,0.1,0c0,0,0,0,0,0h200.1c0.2,0,0.3,0,0.5-0.1c0.2,0,0.4,0,0.6,0c3.1,0,5.5-0.9,5.5-2.1
			S236.7,236.7,233.6,236.7z"/>
	</g>
	<g>
		<circle class="st16" cx="254.9" cy="215" r="2"/>
	</g>
	<g>
		<path class="st20" d="M220.6,239.1c-22.6,0-41-18.4-41-41s18.4-41,41-41s41,18.4,41,41S243.2,239.1,220.6,239.1z M220.6,167.7
			c-16.8,0-30.4,13.6-30.4,30.4s13.6,30.4,30.4,30.4c16.8,0,30.4-13.6,30.4-30.4S237.3,167.7,220.6,167.7z"/>
	</g>
	<g>
		<path class="st20" d="M82.7,239.1c-22.6,0-41-18.4-41-41s18.4-41,41-41s41,18.4,41,41S105.3,239.1,82.7,239.1z M82.7,167.7
			c-16.8,0-30.4,13.6-30.4,30.4s13.6,30.4,30.4,30.4s30.4-13.6,30.4-30.4S99.5,167.7,82.7,167.7z"/>
	</g>
	<g>
		<path class="st5" d="M154.2,202.7H78c-1.7,0-3.3-1-4-2.5s-0.6-3.3,0.4-4.7l38.9-51.8c0.8-1.1,2.2-1.8,3.6-1.8h77.7
			c1.7,0,3.3,1,4,2.5c0.8,1.5,0.6,3.4-0.5,4.7l-40.5,51.8C156.9,202,155.5,202.7,154.2,202.7z M87,193.7h65l33.4-42.9h-66.3
			L87,193.7z"/>
	</g>
	<g>
		<path class="st5" d="M220.6,202.7c-1.7,0-3.3-1-4.1-2.6l-33.4-70.9c-1-2.1-0.8-4.5,0.4-6.5c1.2-2,3.4-3.1,5.7-3.1h29
			c2.5,0,4.5,2,4.5,4.5s-2,4.5-4.5,4.5h-25.5l31.9,67.7c1.1,2.2,0.1,4.9-2.2,6C221.9,202.5,221.2,202.7,220.6,202.7z"/>
	</g>
	<g>
		<g>
			<path class="st21" d="M192.8,128.5h25.5c2.5,0,4.5-2,4.5-4.5c0-2.5-2-4.5-4.5-4.5h-29.6L192.8,128.5z"/>
		</g>
	</g>
	<g>
		<path class="st5" d="M152.3,200.8c-1.5,0-2.9-0.7-3.7-2l-46.7-70c-1.4-2.1-0.8-4.9,1.2-6.2c2.1-1.4,4.9-0.8,6.2,1.2l46.7,70
			c1.4,2.1,0.8,4.9-1.2,6.2C154.1,200.5,153.2,200.8,152.3,200.8z"/>
	</g>
	<g>
		<circle class="st5" cx="154.2" cy="198.2" r="12.9"/>
	</g>
	<g>
		<path class="st22" d="M139.1,218.4c-0.6,0-1.1-0.2-1.6-0.6c-1-0.9-1.2-2.4-0.3-3.5l15-17.8c0.9-1,2.4-1.2,3.5-0.3
			c1,0.9,1.2,2.4,0.3,3.5l-15,17.8C140.5,218.1,139.8,218.4,139.1,218.4z"/>
	</g>
	<g>
		<path class="st20" d="M146.6,219.8h-15c-1.4,0-2.5-1.1-2.5-2.5l0,0c0-1.4,1.1-2.5,2.5-2.5h15c1.4,0,2.5,1.1,2.5,2.5l0,0
			C149.1,218.7,148,219.8,146.6,219.8z"/>
	</g>
	<g>
		<line class="st1" x1="128.2" y1="125" x2="95.7" y2="125"/>
		<path class="st20" d="M128.2,128.6H95.7c-2,0-3.6-1.6-3.6-3.6s1.6-3.6,3.6-3.6h32.6c2,0,3.6,1.6,3.6,3.6S130.2,128.6,128.2,128.6z
			"/>
	</g>
	<g>
		<g>
			<path class="st23" d="M69.5,339.7v4.5h3.2v3.5h-3.2v9.4c0,0.7,0.1,1.2,0.4,1.5c0.3,0.3,0.7,0.5,1.2,0.5c0.3,0,0.6,0,0.9,0
				c0.3,0,0.5-0.1,0.9-0.1l0.4,3.6c-0.6,0.2-1.1,0.3-1.7,0.4c-0.5,0.1-1.1,0.1-1.8,0.1c-1.7,0-3-0.5-4-1.4c-0.9-0.9-1.4-2.4-1.4-4.5
				v-9.4h-2.7v-3.5h2.7v-4.5H69.5z"/>
		</g>
		<g>
			<path class="st23" d="M101.5,347.2l-1.9,0.2l-3.9,15.2h-4.2l-3.4-11h-0.1l-3.4,11h-4.2l-3.9-15.2l-1.9-0.2v-3h8.4v3l-2,0.4
				l1.7,8.5H83l3.5-11.8h3.3l3.5,11.9h0.1l1.7-8.5l-2-0.4v-3h8.4V347.2z"/>
		</g>
		<g>
			<path class="st23" d="M103.2,353.3c0-2.8,0.8-5,2.3-6.8c1.5-1.8,3.7-2.6,6.4-2.6c2.7,0,4.9,0.9,6.4,2.6c1.5,1.8,2.3,4,2.3,6.8
				v0.4c0,2.8-0.8,5-2.3,6.8c-1.5,1.7-3.7,2.6-6.4,2.6c-2.7,0-4.9-0.9-6.4-2.6c-1.5-1.7-2.3-4-2.3-6.8V353.3z M108.2,353.6
				c0,1.7,0.3,3,0.9,4.1c0.6,1,1.5,1.5,2.9,1.5c1.3,0,2.2-0.5,2.8-1.5c0.6-1,0.9-2.4,0.9-4v-0.4c0-1.6-0.3-3-0.9-4
				c-0.6-1-1.6-1.6-2.9-1.6s-2.2,0.5-2.8,1.6c-0.6,1-0.9,2.4-0.9,4V353.6z"/>
		</g>
		<g>
			<path class="st23" d="M157.8,347.2l-1.9,0.2l-3.9,15.2h-4.2l-3.4-11h-0.1l-3.4,11h-4.2l-3.9-15.2l-1.9-0.2v-3h8.4v3l-2,0.4
				l1.7,8.5h0.1l3.5-11.8h3.3l3.5,11.9h0.1l1.7-8.5l-2-0.4v-3h8.4V347.2z"/>
		</g>
		<g>
			<path class="st23" d="M159.2,359.7l2.4-0.5v-19.6L159,339v-3h7.6v10.5c0.6-0.9,1.3-1.5,2.1-2c0.8-0.5,1.8-0.7,2.8-0.7
				c1.9,0,3.5,0.6,4.6,1.9c1.1,1.3,1.6,3.3,1.6,5.9v7.5l2.4,0.5v3h-9.5v-3l2.2-0.5v-7.5c0-1.4-0.3-2.5-0.8-3.1
				c-0.5-0.6-1.3-0.9-2.3-0.9c-0.7,0-1.3,0.1-1.8,0.4c-0.5,0.3-1,0.6-1.3,1.1v10l2.2,0.5v3h-9.5V359.7z"/>
		</g>
		<g>
			<path class="st23" d="M190.4,363c-2.7,0-4.8-0.9-6.4-2.6c-1.6-1.7-2.4-3.9-2.4-6.5v-0.7c0-2.7,0.8-5,2.3-6.8s3.5-2.7,6.1-2.6
				c2.5,0,4.4,0.8,5.8,2.3c1.4,1.5,2.1,3.5,2.1,6.1v2.7h-11l0,0.1c0.1,1.2,0.5,2.2,1.2,3s1.7,1.2,2.9,1.2c1.1,0,2-0.1,2.8-0.3
				c0.7-0.2,1.5-0.6,2.4-1.1l1.3,3.1c-0.8,0.6-1.8,1.1-3,1.5C193.3,362.8,191.9,363,190.4,363z M190,347.7c-0.9,0-1.7,0.4-2.2,1.1
				c-0.5,0.7-0.9,1.6-1,2.8l0.1,0.1h6.1v-0.4c0-1.1-0.2-1.9-0.7-2.5C191.7,348,191,347.7,190,347.7z"/>
		</g>
		<g>
			<path class="st23" d="M209.1,363c-2.7,0-4.8-0.9-6.4-2.6c-1.6-1.7-2.4-3.9-2.4-6.5v-0.7c0-2.7,0.8-5,2.3-6.8s3.5-2.7,6.1-2.6
				c2.5,0,4.4,0.8,5.8,2.3c1.4,1.5,2.1,3.5,2.1,6.1v2.7h-11l0,0.1c0.1,1.2,0.5,2.2,1.2,3s1.7,1.2,2.9,1.2c1.1,0,2-0.1,2.8-0.3
				c0.7-0.2,1.5-0.6,2.4-1.1l1.3,3.1c-0.8,0.6-1.8,1.1-3,1.5C211.9,362.8,210.6,363,209.1,363z M208.6,347.7c-0.9,0-1.7,0.4-2.2,1.1
				c-0.5,0.7-0.9,1.6-1,2.8l0.1,0.1h6.1v-0.4c0-1.1-0.2-1.9-0.7-2.5C210.4,348,209.6,347.7,208.6,347.7z"/>
		</g>
		<g>
			<path class="st23" d="M218.3,339v-3h7.7v23.2l2.4,0.5v3h-9.8v-3l2.4-0.5v-19.6L218.3,339z"/>
		</g>
		<g>
			<path class="st23" d="M245.1,350.6h-3.3l-0.5-2.3c-0.3-0.3-0.8-0.5-1.3-0.7c-0.5-0.2-1.1-0.3-1.7-0.3c-0.9,0-1.6,0.2-2.1,0.6
				c-0.5,0.4-0.8,0.9-0.8,1.5c0,0.6,0.2,1,0.7,1.4c0.5,0.4,1.5,0.7,2.9,1c2.3,0.5,4,1.1,5.1,2c1.1,0.9,1.7,2.1,1.7,3.6
				c0,1.7-0.7,3-2.1,4.1c-1.4,1.1-3.3,1.6-5.6,1.6c-1.4,0-2.7-0.2-3.9-0.6c-1.2-0.4-2.2-1-3.2-1.8l-0.1-4.2h3.5l0.7,2.4
				c0.3,0.3,0.7,0.4,1.2,0.6c0.5,0.1,1,0.2,1.6,0.2c1,0,1.8-0.2,2.3-0.5c0.5-0.4,0.8-0.9,0.8-1.5c0-0.5-0.3-1-0.8-1.4
				c-0.5-0.4-1.5-0.8-3-1.1c-2.2-0.4-3.8-1.1-4.9-2c-1.1-0.9-1.7-2.1-1.7-3.6c0-1.5,0.6-2.9,1.9-4c1.3-1.1,3.1-1.7,5.5-1.7
				c1.4,0,2.8,0.2,4.1,0.6c1.3,0.4,2.3,0.9,3,1.5L245.1,350.6z"/>
		</g>
	</g>
</g>
</svg>
