<?xml version="1.0" encoding="utf-8"?>
<!-- Generator: Adobe Illustrator 18.1.1, SVG Export Plug-In . SVG Version: 6.00 Build 0)  -->
<svg version="1.1" id="Layer_1" xmlns="http://www.w3.org/2000/svg" xmlns:xlink="http://www.w3.org/1999/xlink" x="0px" y="0px"
	 viewBox="0 0 177.3 96.9" style="enable-background:new 0 0 177.3 96.9;" xml:space="preserve">
<style type="text/css">
	.st0{fill:#A4EEFF;}
	.st1{fill:#58BD98;}
	.st2{fill:#FFFFFF;}
	.st3{fill:#F6899C;}
	.st4{fill:#2AD19D;}
	.st5{fill:#F46B83;}
	.st6{fill:#1A9169;}
	.st7{fill:#17916A;}
	.st8{fill:#AA4660;}
	.st9{fill:#3A5D87;}
	.st10{fill:#527EBB;}
	.st11{fill:#D82908;}
	.st12{fill:#E85749;}
	.st13{fill:#C6AF75;}
	.st14{fill:none;stroke:#A17644;stroke-width:3.3156;stroke-miterlimit:10;}
	.st15{fill:#79E2BC;}
	.st16{fill:#34B188;}
	.st17{fill:#FCED5E;}
	.st18{fill:#FDE49C;}
	.st19{fill:#E2CC8A;}
	.st20{fill:#D9C081;}
	.st21{fill:none;stroke:#626366;stroke-width:10.5772;stroke-miterlimit:10;}
	.st22{fill:none;stroke:#F46B83;stroke-width:8.9907;stroke-linejoin:round;stroke-miterlimit:10;}
	.st23{fill:none;stroke:#F46B83;stroke-width:8.9907;stroke-linecap:round;stroke-miterlimit:10;}
	.st24{fill:#CC486A;}
	.st25{fill:none;stroke:#CE5B79;stroke-width:4.9592;stroke-linecap:round;stroke-miterlimit:10;}
	.st26{fill:#626366;}
	.st27{fill:#FFFFFF;stroke:#626366;stroke-width:7.1491;stroke-linecap:round;stroke-miterlimit:10;}
	.st28{fill:#939598;}
	.st29{fill:#A17644;}
	.st30{fill:#626467;}
	.st31{fill:#E6D0B8;}
	.st32{fill:#EE6D83;}
	.st33{fill:#5ABABA;}
	.st34{fill:#DEDEDE;}
	.st35{fill:#D1D3D4;}
	.st36{fill:none;stroke:#A17644;stroke-width:3.6673;stroke-miterlimit:10;}
	.st37{fill:#16A457;}
	.st38{fill:none;stroke:#2AD19D;stroke-width:20.1693;stroke-linecap:round;stroke-miterlimit:10;}
	.st39{fill:#929496;}
	.st40{fill:none;stroke:#2AD19D;stroke-width:19.8239;stroke-linecap:round;stroke-miterlimit:10;}
	.st41{fill:#EE6B82;}
	.st42{fill:none;stroke:#F46B83;stroke-width:7;stroke-linecap:round;stroke-miterlimit:10;}
	.st43{fill:#F66981;}
	.st44{fill:#16D19B;}
	.st45{fill:#24A45A;}
	.st46{opacity:0.21;fill:#231F20;}
	.st47{fill-rule:evenodd;clip-rule:evenodd;fill:#FFFFFF;}
	.st48{fill:#F16D83;}
	.st49{fill-rule:evenodd;clip-rule:evenodd;fill:#F56980;}
	.st50{fill:#CCCCCC;}
	.st51{fill:#F36D85;}
	.st52{fill:none;stroke:#F36D85;stroke-width:10.3615;stroke-linecap:round;stroke-linejoin:round;stroke-miterlimit:10;}
	.st53{fill:#F4A6B7;}
	.st54{fill:#CBCBCB;}
	.st55{fill:#F06E85;}
	.st56{fill:#909294;}
	.st57{fill:#F56980;}
	.st58{opacity:0.3;}
	.st59{fill:#E2F2EB;}
	.st60{fill:#BC4D65;}
	.st61{fill:#933850;}
	.st62{fill:none;stroke:#929496;stroke-width:2.3266;stroke-linecap:round;stroke-miterlimit:10;stroke-dasharray:4.0716,11.6331;}
	.st63{fill:none;stroke:#F46B83;stroke-width:3.4899;stroke-miterlimit:10;}
	.st64{fill:#58595B;}
	.st65{fill:#7F614C;}
	.st66{fill:#AD8463;}
	.st67{fill:#C9AD7B;}
	.st68{fill:#A58C65;}
	.st69{fill:none;}
	.st70{fill:#F1F1F2;}
	.st71{fill:#936E55;}
	.st72{fill:#A87B51;}
	.st73{fill:none;stroke:#BBBDBF;stroke-width:0.7556;stroke-miterlimit:10;}
	.st74{fill:#404041;}
	.st75{fill:#8E6442;}
	.st76{fill:none;stroke:#7A7A7A;stroke-width:0.383;stroke-miterlimit:10;}
</style>
<path class="st0" d="M168.4,79c-1,0-1.9,0.2-2.8,0.4c0.5-1.3,0.8-2.8,0.8-4.3c0-7-5.6-12.6-12.6-12.6c-1,0-2,0.1-3,0.4
	c0-0.2,0-0.3,0-0.5c0-12.4-10.1-22.5-22.5-22.5c-0.8,0-1.5,0-2.2,0.1c0.2-1.6,0.3-3.2,0.3-4.9C126.4,15.8,110.6,0,91.2,0
	C71.7,0,55.9,15.8,55.9,35.2c0,1.5,0.1,3.1,0.3,4.6c-4-2.4-8.8-3.9-13.8-3.9c-14.8,0-26.7,12-26.7,26.7c0,3,0.5,5.8,1.4,8.4
	c-1.2-0.4-2.5-0.6-3.9-0.6C5.9,70.5,0,76.4,0,83.7C0,91,5.9,96.9,13.2,96.9h155.2c4.9,0,8.9-4,8.9-8.9C177.3,83,173.3,79,168.4,79z"
	/>
</svg>
