<?xml version="1.0" encoding="utf-8"?>
<!-- Generator: Adobe Illustrator 18.1.1, SVG Export Plug-In . SVG Version: 6.00 Build 0)  -->
<svg version="1.1" id="Layer_1" xmlns="http://www.w3.org/2000/svg" xmlns:xlink="http://www.w3.org/1999/xlink" x="0px" y="0px"
	 viewBox="0 0 308 379.7" style="enable-background:new 0 0 308 379.7;" xml:space="preserve">
<style type="text/css">
	.st0{fill:#58BD98;}
	.st1{fill:#FFFFFF;}
	.st2{fill:#F6899C;}
	.st3{fill:#1A9169;}
	.st4{fill:#2AD19D;}
	.st5{fill:#F46B83;}
	.st6{fill:#17916A;}
	.st7{fill:#AA4660;}
	.st8{fill:#3A5D87;}
	.st9{fill:#527EBB;}
	.st10{fill:#D82908;}
	.st11{fill:#E85749;}
	.st12{fill:#C6AF75;}
	.st13{fill:#A17644;}
	.st14{fill:#79E2BC;}
	.st15{fill:#34B188;}
	.st16{fill:#FCED5E;}
	.st17{fill:#FDE49C;}
	.st18{fill:#E2CC8A;}
	.st19{fill:#D9C081;}
	.st20{fill:#626366;}
	.st21{fill:#CC486A;}
	.st22{fill:#CE5B79;}
	.st23{fill:#939598;}
	.st24{fill:#626467;}
	.st25{fill:#E6D0B8;}
	.st26{fill:#EE6D83;}
	.st27{fill:#5ABABA;}
	.st28{fill:#DEDEDE;}
	.st29{fill:#D1D3D4;}
	.st30{fill:#16A457;}
	.st31{fill:#929496;}
	.st32{fill:#EE6B82;}
	.st33{fill:#F66981;}
	.st34{fill:#16D19B;}
	.st35{fill:#24A45A;}
	.st36{opacity:0.21;}
	.st37{fill:#231F20;}
	.st38{fill-rule:evenodd;clip-rule:evenodd;fill:#FFFFFF;}
	.st39{fill:#F16D83;}
	.st40{fill-rule:evenodd;clip-rule:evenodd;fill:#F56980;}
	.st41{fill:#CCCCCC;}
	.st42{fill:#F36D85;}
	.st43{fill:#F4A6B7;}
	.st44{fill:#CBCBCB;}
	.st45{fill:#F06E85;}
	.st46{fill:#909294;}
	.st47{fill:#F56980;}
	.st48{opacity:0.3;}
	.st49{fill:#E2F2EB;}
</style>
<g>
	<g>
		<path class="st23" d="M96.3,333.6v4.5h3.2v3.5h-3.2v9.4c0,0.7,0.1,1.2,0.4,1.5c0.3,0.3,0.7,0.5,1.2,0.5c0.3,0,0.6,0,0.9,0
			c0.3,0,0.5-0.1,0.9-0.1l0.4,3.6c-0.6,0.2-1.1,0.3-1.7,0.4c-0.5,0.1-1.1,0.1-1.8,0.1c-1.7,0-3-0.5-4-1.4c-0.9-0.9-1.4-2.4-1.4-4.5
			v-9.4h-2.7v-3.5h2.7v-4.5H96.3z"/>
	</g>
	<g>
		<path class="st23" d="M128.3,341.1l-1.9,0.2l-3.9,15.2h-4.2l-3.4-11h-0.1l-3.4,11h-4.2l-3.9-15.2l-1.9-0.2v-3h8.4v3l-2,0.4
			l1.7,8.5h0.1l3.5-11.8h3.3l3.5,11.9h0.1l1.7-8.5l-2-0.4v-3h8.4V341.1z"/>
	</g>
	<g>
		<path class="st23" d="M130,347.2c0-2.8,0.8-5,2.3-6.8c1.5-1.8,3.7-2.6,6.4-2.6c2.7,0,4.9,0.9,6.4,2.6c1.5,1.8,2.3,4,2.3,6.8v0.4
			c0,2.8-0.8,5-2.3,6.8c-1.5,1.8-3.7,2.6-6.4,2.6c-2.7,0-4.9-0.9-6.4-2.6c-1.5-1.7-2.3-4-2.3-6.8V347.2z M135,347.5
			c0,1.7,0.3,3,0.9,4.1c0.6,1,1.5,1.5,2.9,1.5c1.3,0,2.2-0.5,2.8-1.5c0.6-1,0.9-2.4,0.9-4.1v-0.4c0-1.6-0.3-3-0.9-4
			c-0.6-1-1.6-1.6-2.9-1.6s-2.2,0.5-2.8,1.6c-0.6,1-0.9,2.4-0.9,4V347.5z"/>
	</g>
	<g>
		<path class="st23" d="M158.5,353.6l2.4-0.5v-11.5h-2.8v-3.5h2.8v-2.1c0-2.1,0.6-3.7,1.8-4.8c1.2-1.1,2.9-1.7,5-1.7
			c0.4,0,0.9,0,1.3,0.1s0.9,0.2,1.4,0.3l-0.4,3.7c-0.3,0-0.5-0.1-0.8-0.1c-0.3,0-0.6-0.1-0.9-0.1c-0.8,0-1.4,0.2-1.8,0.7
			c-0.4,0.4-0.6,1.1-0.6,1.9v2.1h3.7v3.5h-3.7v11.5l2.4,0.5v3h-9.8V353.6z"/>
	</g>
	<g>
		<path class="st23" d="M179.7,357c-2.7,0-4.8-0.9-6.4-2.6c-1.6-1.7-2.4-3.9-2.4-6.5v-0.7c0-2.7,0.8-5,2.3-6.8s3.5-2.7,6.1-2.6
			c2.5,0,4.4,0.8,5.8,2.3c1.4,1.5,2.1,3.5,2.1,6.1v2.7h-11l0,0.1c0.1,1.2,0.5,2.2,1.2,3s1.7,1.2,2.9,1.2c1.1,0,2-0.1,2.8-0.3
			c0.7-0.2,1.5-0.6,2.4-1.1l1.3,3.1c-0.8,0.6-1.8,1.1-3,1.5C182.6,356.8,181.2,357,179.7,357z M179.3,341.6c-0.9,0-1.7,0.4-2.2,1.1
			c-0.5,0.7-0.9,1.6-1,2.8l0.1,0.1h6.1v-0.4c0-1.1-0.2-1.9-0.7-2.5C181,341.9,180.3,341.6,179.3,341.6z"/>
	</g>
	<g>
		<path class="st23" d="M198.4,357c-2.7,0-4.8-0.9-6.4-2.6c-1.6-1.7-2.4-3.9-2.4-6.5v-0.7c0-2.7,0.8-5,2.3-6.8s3.5-2.7,6.1-2.6
			c2.5,0,4.4,0.8,5.8,2.3c1.4,1.5,2.1,3.5,2.1,6.1v2.7h-11l0,0.1c0.1,1.2,0.5,2.2,1.2,3s1.7,1.2,2.9,1.2c1.1,0,2-0.1,2.8-0.3
			c0.7-0.2,1.5-0.6,2.4-1.1l1.3,3.1c-0.8,0.6-1.8,1.1-3,1.5C201.2,356.8,199.9,357,198.4,357z M197.9,341.6c-0.9,0-1.7,0.4-2.2,1.1
			c-0.5,0.7-0.9,1.6-1,2.8l0.1,0.1h6.1v-0.4c0-1.1-0.2-1.9-0.7-2.5C199.7,341.9,198.9,341.6,197.9,341.6z"/>
	</g>
	<g>
		<path class="st23" d="M215.5,333.6v4.5h3.2v3.5h-3.2v9.4c0,0.7,0.1,1.2,0.4,1.5c0.3,0.3,0.7,0.5,1.2,0.5c0.3,0,0.6,0,0.9,0
			c0.3,0,0.5-0.1,0.9-0.1l0.4,3.6c-0.6,0.2-1.1,0.3-1.7,0.4c-0.5,0.1-1.1,0.1-1.8,0.1c-1.7,0-3-0.5-4-1.4c-0.9-0.9-1.4-2.4-1.4-4.5
			v-9.4h-2.7v-3.5h2.7v-4.5H215.5z"/>
	</g>
</g>
<g>
	<g>
		<path class="st12" d="M23.9,228.5c0.1,0,0.3,0,0.4,0H287c0.1,0,0.3,0,0.4,0c7.1,0,12.8,0.2,12.8,7.3c0,10.6-2.8,14.8-6.9,16.9l0,0
			c0,0,0,0,0,0c-1.8,0.9-3.8,1.4-5.9,1.4c0,0-5.9,0-11,0s-9,5.5-9,11c0,11.7,11.1,11.3,11.2,11.4c5.4,0,9.8,4.4,9.8,9.8
			c0,5.4-4.4,9.8-9.8,9.8c-0.6,0-213.7,0.1-214.4,0.1c-5.5,0-9.9-4.4-9.9-16.3c0-5.5,4.4-3.6,9.9-3.6c0.2,0,0.3,0,0.5,0
			c0.1,0,0.2,0,0.4,0c3.5,0,6.4-2.8,6.4-6.4c0-3.5-2.8-6.4-6.4-6.4c-0.4,0-2.4,0-3.1,0c-5,0-16.3,0-21,0c-4.7,0-8.8-2.6-8.8-9.4
			h-8.1c-7.1,0-12.8-5.7-12.8-12.8c0-0.3,0.1-7.9,0.1-7.9S17.7,228.5,23.9,228.5z"/>
	</g>
</g>
<g>
	<g>
		<rect x="37.5" y="75" class="st13" width="3.3" height="135.7"/>
	</g>
</g>
<g>
	<g>
		<rect x="258.5" y="88.2" class="st13" width="3.3" height="117.7"/>
	</g>
</g>
<g>
	<g>
		<path class="st14" d="M38.7,159.1c0,0,30.9,0.3,30.9-37.1c0-30.3-30.9-98.5-30.9-98.5S7.8,91.7,7.8,122
			C7.8,159.4,38.7,159.1,38.7,159.1z"/>
	</g>
</g>
<g>
	<g>
		<path class="st4" d="M38.7,23.5v135.6c0,0-30.9,0.3-30.9-37.1C7.8,91.7,38.7,23.5,38.7,23.5z"/>
	</g>
</g>
<g>
	<g>
		<rect x="68.5" y="143.4" class="st13" width="3.3" height="62.2"/>
	</g>
</g>
<g>
	<g>
		<path class="st4" d="M70.2,173.8c0,0-18.8,0.2-18.8-22.6c0-18.4,18.8-60,18.8-60s18.8,41.6,18.8,60
			C89,173.9,70.2,173.8,70.2,173.8z"/>
	</g>
</g>
<g>
	<g>
		<path class="st14" d="M70.2,91.1v82.6c0,0,18.8,0.2,18.8-22.6C89,132.7,70.2,91.1,70.2,91.1z"/>
	</g>
</g>
<g>
	<g>
		<path class="st14" d="M260.1,133.9c0,0,30.5,0.3,30.5-36.6c0-29.9-30.5-97.3-30.5-97.3s-30.5,67.4-30.5,97.3
			C229.6,134.2,260.1,133.9,260.1,133.9z"/>
	</g>
</g>
<g>
	<g>
		<path class="st4" d="M260.1,0v133.9c0,0-30.5,0.3-30.5-36.6C229.6,67.4,260.1,0,260.1,0z"/>
	</g>
</g>
<g>
	<g>
		<rect x="223.4" y="125.4" class="st13" width="3.3" height="117.7"/>
	</g>
</g>
<g>
	<g>
		<path class="st14" d="M225.1,171c0,0,21.4,0.2,21.4-25.7c0-21-21.4-68.2-21.4-68.2s-21.4,47.3-21.4,68.2
			C203.7,171.3,225.1,171,225.1,171z"/>
	</g>
</g>
<g>
	<g>
		<path class="st4" d="M225.1,77.1V171c0,0-21.4,0.2-21.4-25.7C203.7,124.4,225.1,77.1,225.1,77.1z"/>
	</g>
</g>
<g>
	<g>
		<g>
			<path class="st15" d="M37,198.5c0,0,17.8-11.4,29.3,0.1c13.1,13.1,25.4,0,25.4,0s13.7-13,26.7,0.1c13.1,13.1,25.4,0,25.4,0
				s13.7-13,26.7,0.1c13.1,13.1,25.2,0.1,25.2,0.1s13.8-13.1,26.9,0c13.1,13.1,25.4,0,25.4,0s10.2-10.5,26.7-0.6
				c6.5,3.9,14.2,15.2,15.9,26.4l-2,9.7H39.4l0,0H15.6l-0.2-8.9C21.9,215.6,28.5,205.6,37,198.5z"/>
		</g>
	</g>
	<g>
		<g>
			<circle class="st16" cx="267.2" cy="204.6" r="2"/>
		</g>
	</g>
	<g>
		<g>
			<circle class="st16" cx="110.6" cy="206" r="1.1"/>
		</g>
	</g>
	<g>
		<g>
			<circle class="st16" cx="136.4" cy="215.5" r="1.1"/>
		</g>
	</g>
	<g>
		<g>
			<circle class="st16" cx="218.3" cy="206.6" r="1.1"/>
		</g>
	</g>
	<g>
		<g>
			<circle class="st16" cx="34.4" cy="210.7" r="1.1"/>
		</g>
	</g>
	<g>
		<g>
			<circle class="st16" cx="276.2" cy="211.6" r="1.1"/>
		</g>
	</g>
	<g>
		<g>
			<circle class="st16" cx="198.7" cy="210.7" r="1.1"/>
		</g>
	</g>
	<g>
		<g>
			<circle class="st16" cx="49.8" cy="205.7" r="2"/>
		</g>
	</g>
</g>
<g>
	<g>
		<path class="st17" d="M23.9,222.1c0.1,0,0.3,0,0.4,0H287c0.1,0,0.3,0,0.4,0c7.1,0,12.8,5.7,12.8,12.8c0,5-2.8,9.2-6.9,11.4l0,0
			c0,0,0,0,0,0c-1.8,0.9-3.8,1.4-5.9,1.4c0,0-7.3,0-11,0s-9,5.5-9,11c0,11.7,11.1,11.3,11.2,11.4c5.4,0,9.8,4.4,9.8,9.8
			s-4.4,9.8-9.8,9.8c-0.6,0-213.7,0.1-214.4,0.1c-5.5,0-9.9-4.4-9.9-9.9s4.4-9.9,9.9-9.9c0.2,0,0.3,0,0.5,0c0.1,0,0.2,0,0.4,0
			c3.5,0,6.4-2.8,6.4-6.4s-2.8-6.4-6.4-6.4c-0.4,0-2.4,0-3.1,0c-5,0-16.3,0-21,0c-4.7,0-8.8-2.6-8.8-9.4h-8.1
			c-7.1,0-12.8-5.7-12.8-12.8C11.1,227.8,16.8,222.1,23.9,222.1z"/>
	</g>
</g>
<g>
	<g>
		<path class="st24" d="M66.6,198.2"/>
	</g>
</g>
<g>
	<g>
		<path class="st25" d="M177.2,99.7c5,2.8,9.1,5.2,9.8,5.5c1.8,0.9,3.5,4.2,3.5,4.2l7.3,27.9c0.7,1.6,0.9,3.4,0.4,5.2
			c-1.1,4.2-5.5,6.7-9.7,5.6c-3.6-1-6-4.3-5.9-7.9l-5.2-22.5l-2.9-1.7L177.2,99.7"/>
	</g>
</g>
<g>
	<g>
		<path class="st25" d="M125,117l-4.9,7.9c0,0-12.6,2.5-16.9,3.4c-3.9,0.5-6.9,3.9-6.8,7.9c0.1,4.3,3.7,7.7,8,7.6
			c0.4,0,0.8-0.1,1.2-0.1c0,0,16.9-3,18.7-3.4c2.1-0.4,3.7-1.3,4.7-2.4c0.4-0.5,2.3-3.8,4-6.2l-9-12.2"/>
	</g>
</g>
<g>
	<g>
		<path class="st26" d="M137,149.1l0.2-24.2l-4.1,6.7l-11.3-9.2c0,0,11.5-18.4,12.9-21.3c2.1-4.2,6.9-7.9,14.3-9.5
			c5.8-1.2,13.3,0,15.8,1.2c2.5,1.2,3.7,1.9,12.5,6.9c1.6,0.9,3.1,1.7,4.4,2.5l-7.1,13.9l-4.7-2.6c0.5,1.6-0.2,38.7-0.2,38.7"/>
	</g>
</g>
<g>
	<g>
		<path class="st19" d="M83,240.3h118.8c2.3,0,5.8-0.9,6.7-4.2c1-3.3-2.8-4.2-5.1-4.2H88c-2.3,0-6.9,1.9-8,4.2
			C79,238.4,80.7,240.3,83,240.3z"/>
	</g>
</g>
<g>
	<g>
		<path class="st25" d="M186.7,230.8c1.3,1.7,2.3,3,2.9,3.8c1.7,2.3,4.4,3.9,7.4,3.9c5,0,9.1-4.1,9.1-9.1c0-2.6-1.1-5-2.9-6.7
			l-1.7-2.5"/>
	</g>
</g>
<g>
	<g>
		<path class="st25" d="M186.7,230.8c-7.4-10-23.4-33-25.3-35.2c-2.5-2.9-3.7-7.1-4-9l20.2-4.6l1.2,4.4l22.8,33.7L186.7,230.8z"/>
	</g>
</g>
<g>
	<g>
		<path class="st27" d="M118.3,173.4c0.6-0.7,18.7-24.3,18.7-24.3l32.7,3l8.2,29.9l-20.4,4.5c-0.4-1.9-7-22.8-7-22.8l-15.9,21.1
			L118.3,173.4z"/>
	</g>
</g>
<g>
	<g>
		<path class="st25" d="M103.2,221.4c2.5-10.8,7.6-33,9.5-38.6c0.8-2.4,4.9-8.6,5.6-9.3l16.3,11.4l-5,6.7l-8.7,35.3"/>
	</g>
</g>
<g>
	<g>
		<path class="st25" d="M103.2,221.4c-0.5,2.2-0.9,4-1.2,5c0,0.1,0,0.1-0.1,0.2c0,0,0,0.1,0,0.1c-0.1,0.5-0.2,0.8-0.2,0.8l0,0
			c-0.7,4.6,2.3,9.1,6.9,10.2c4.6,1.1,9.3-1.5,10.9-5.8l0,0l1.2-5L103.2,221.4z"/>
	</g>
</g>
<g>
	<g>
		<path class="st24" d="M98.4,143.9l7.3-1.2c1.6-0.3,2.7-1.8,2.4-3.4l-3.2-19.4c-0.3-1.6-1.8-2.7-3.4-2.4l-7.3,1.2
			c-1.6,0.3-2.7,1.8-2.4,3.4l3.2,19.4C95.3,143.1,96.8,144.2,98.4,143.9z"/>
	</g>
</g>
<g>
	<g>
		<path class="st28" d="M97.7,140.6l7.6-1.3c0.6-0.1,1.1-0.7,1-1.3l-2.8-16.7c-0.1-0.6-0.7-1.1-1.3-1l-7.6,1.3
			c-0.6,0.1-1.1,0.7-1,1.3l2.8,16.7C96.4,140.3,97,140.7,97.7,140.6z"/>
	</g>
</g>
<g>
	<g>
		<g>
			<path class="st26" d="M151.2,50.1c-6.1,0-11.5,3.1-14.6,7.9l32,8.3C167.9,57.2,160.4,50.1,151.2,50.1z"/>
		</g>
	</g>
	<g>
		<g>
			<path class="st25" d="M136.6,57.9c-1.8,2.7-2.9,6-2.9,9.6c0,9.6,7.8,17.4,17.4,17.4c9.6,0,17.4-7.8,17.4-17.4
				c0-0.4,0-0.9-0.1-1.3L136.6,57.9z"/>
		</g>
	</g>
</g>
<g>
	<g>
		<polygon class="st26" points="147.8,60.8 120.6,53.9 120.6,51.6 148.4,58.8 		"/>
	</g>
</g>
</svg>
