<?xml version="1.0" encoding="utf-8"?>
<!-- Generator: Adobe Illustrator 18.1.1, SVG Export Plug-In . SVG Version: 6.00 Build 0)  -->
<svg version="1.1" id="Layer_1" xmlns="http://www.w3.org/2000/svg" xmlns:xlink="http://www.w3.org/1999/xlink" x="0px" y="0px"
	 viewBox="0 0 196 196" style="enable-background:new 0 0 196 196;" xml:space="preserve">
<style type="text/css">
	.st0{fill:#58BD98;}
	.st1{fill:#FFFFFF;}
	.st2{fill:#F6899C;}
	.st3{fill:#2AD19D;}
	.st4{fill:#F46B83;}
	.st5{fill:#1A9169;}
	.st6{fill:#17916A;}
	.st7{fill:#AA4660;}
	.st8{fill:#3A5D87;}
	.st9{fill:#527EBB;}
	.st10{fill:#D82908;}
	.st11{fill:#E85749;}
	.st12{fill:#C6AF75;}
	.st13{fill:none;stroke:#A17644;stroke-width:3.3156;stroke-miterlimit:10;}
	.st14{fill:#79E2BC;}
	.st15{fill:#34B188;}
	.st16{fill:#FCED5E;}
	.st17{fill:#FDE49C;}
	.st18{fill:#E2CC8A;}
	.st19{fill:#D9C081;}
	.st20{fill:none;stroke:#626366;stroke-width:10.5772;stroke-miterlimit:10;}
	.st21{fill:none;stroke:#F46B83;stroke-width:8.9907;stroke-linejoin:round;stroke-miterlimit:10;}
	.st22{fill:none;stroke:#F46B83;stroke-width:8.9907;stroke-linecap:round;stroke-miterlimit:10;}
	.st23{fill:#CC486A;}
	.st24{fill:none;stroke:#CE5B79;stroke-width:4.9592;stroke-linecap:round;stroke-miterlimit:10;}
	.st25{fill:#626366;}
	.st26{fill:#FFFFFF;stroke:#626366;stroke-width:7.1491;stroke-linecap:round;stroke-miterlimit:10;}
	.st27{fill:#939598;}
	.st28{fill:#A17644;}
	.st29{fill:#626467;}
	.st30{fill:#E6D0B8;}
	.st31{fill:#EE6D83;}
	.st32{fill:#5ABABA;}
	.st33{fill:#DEDEDE;}
	.st34{fill:#D1D3D4;}
	.st35{fill:none;stroke:#A17644;stroke-width:3.6673;stroke-miterlimit:10;}
	.st36{fill:#16A457;}
	.st37{fill:none;stroke:#2AD19D;stroke-width:20.1693;stroke-linecap:round;stroke-miterlimit:10;}
	.st38{fill:#929496;}
	.st39{fill:none;stroke:#2AD19D;stroke-width:19.8239;stroke-linecap:round;stroke-miterlimit:10;}
	.st40{fill:#775533;}
	.st41{fill:#28BF8D;}
	.st42{fill:#6EC4A3;}
	.st43{fill:#2E9973;}
	.st44{fill:#BFB14B;}
	.st45{fill:#A89363;}
	.st46{fill:none;stroke:#2F2F30;stroke-width:10.5772;stroke-miterlimit:10;}
	.st47{fill:none;stroke:#AF4E6C;stroke-width:8.9907;stroke-linejoin:round;stroke-miterlimit:10;}
	.st48{fill:none;stroke:#AF4E6C;stroke-width:8.991;stroke-linecap:round;stroke-linejoin:round;stroke-miterlimit:10;}
	.st49{fill:#A53857;}
	.st50{fill:#CE5B79;}
	.st51{fill:none;stroke:#B75171;stroke-width:4.9592;stroke-linecap:round;stroke-miterlimit:10;}
	.st52{fill:#2F2F30;}
	.st53{fill:none;stroke:#2F2F30;stroke-width:7.1491;stroke-linecap:round;stroke-miterlimit:10;}
	.st54{fill:#B7A492;}
	.st55{fill:#AF4E6C;}
	.st56{fill:#468C8A;}
	.st57{fill:#4D4F51;}
	.st58{fill:#C1C1C1;}
	.st59{fill:#EE6B82;}
	.st60{fill:none;stroke:#F46B83;stroke-width:7;stroke-linecap:round;stroke-miterlimit:10;}
	.st61{fill:#F66981;}
	.st62{fill:#16D19B;}
	.st63{fill:#24A45A;}
	.st64{opacity:0.21;fill:#231F20;}
	.st65{fill-rule:evenodd;clip-rule:evenodd;fill:#FFFFFF;}
	.st66{fill:#F16D83;}
	.st67{fill-rule:evenodd;clip-rule:evenodd;fill:#F56980;}
	.st68{fill:#CCCCCC;}
	.st69{fill:#F36D85;}
	.st70{fill:none;stroke:#F36D85;stroke-width:10.3615;stroke-linecap:round;stroke-linejoin:round;stroke-miterlimit:10;}
	.st71{fill:#F4A6B7;}
	.st72{fill:#CBCBCB;}
	.st73{fill:#F06E85;}
	.st74{fill:#909294;}
	.st75{fill:#F56980;}
	.st76{opacity:0.3;}
	.st77{fill:#E2F2EB;}
	.st78{fill:#BC4D65;}
	.st79{fill:#933850;}
	.st80{fill:none;stroke:#929496;stroke-width:2.3266;stroke-linecap:round;stroke-miterlimit:10;stroke-dasharray:4.0716,11.6331;}
	.st81{fill:none;stroke:#F46B83;stroke-width:3.4899;stroke-miterlimit:10;}
	.st82{fill:#58595B;}
	.st83{fill:#7F614C;}
	.st84{fill:#AD8463;}
	.st85{fill:#C9AD7B;}
	.st86{fill:#A58C65;}
	.st87{fill:none;}
	.st88{fill:#F1F1F2;}
	.st89{fill:#936E55;}
	.st90{fill:#A87B51;}
	.st91{fill:none;stroke:#BBBDBF;stroke-width:0.7556;stroke-miterlimit:10;}
	.st92{fill:#404041;}
	.st93{fill:#8E6442;}
	.st94{fill:none;stroke:#7A7A7A;stroke-width:0.383;stroke-miterlimit:10;}
</style>
<g>
	<path class="st3" d="M196,98c0-54.1-43.9-98-98-98S0,43.9,0,98c0,30.6,14,57.9,36,75.9c0.2-2.5,5.3-56.6,62.5-56.6
		c58.5,0,62,54.7,62,54.7l-0.2,1.7C182.1,155.7,196,128.5,196,98z"/>
	<g>
		<path class="st82" d="M186.7,139.7c0.5-1.4,0.9-2.6,1.3-3.7c7.5-20-3-34-11-39s-25-11-42.5,12S98,196,98,196
			C137.2,196,171,173,186.7,139.7z"/>
	</g>
	<g>
		<path class="st83" d="M98,160v-42.6c-56.7,0.3-61.8,54.1-62,56.6c7.1,5.8,15,10.6,23.6,14.3C62.9,177.4,72.2,160.2,98,160z"/>
		<path class="st84" d="M98.5,117.3c-0.2,0-0.3,0-0.5,0V160c0.1,0,0.3,0,0.4,0c26.6,0,35.7,17.4,38.8,27.9
			c8.4-3.7,16.1-8.4,23.1-14.2l0.2-1.7C160.5,172,157,117.3,98.5,117.3z"/>
		<path class="st85" d="M98.4,160c-0.1,0-0.3,0-0.4,0v36c13.9,0,27.2-2.9,39.2-8.2C134.1,177.4,125.1,160,98.4,160z"/>
		<path class="st86" d="M59.6,188.2c11.8,5,24.8,7.8,38.4,7.8v-36C72.2,160.2,62.9,177.4,59.6,188.2z"/>
	</g>
	<path class="st87" d="M123.9,129c0.1,0.4,0.2,0.7,0.2,1.1C124.1,129.7,124,129.4,123.9,129z"/>
	<path class="st87" d="M73,129c-0.1,0.3-0.2,0.7-0.2,1.1C72.9,129.8,73,129.4,73,129z"/>
	<path class="st88" d="M98.5,130.7v17.8c2.1,0,4.3-0.3,5.5-1.3c1.3-1,2.1-5.5,2.7-9.7C98.5,136.4,98.5,130.7,98.5,130.7z"/>
	<path class="st88" d="M89.6,137.6c0.7,4.8,2,9.7,4.5,10.3c1.2,0.3,2.8,0.5,4.3,0.5v-17.8C98.5,130.7,98.5,136.7,89.6,137.6z"/>
	<path class="st89" d="M72.8,124.1c0.1-0.4,0.1-0.7,0.2-1.1c1.2-5.3,5.3-9.8,11.3-12.2c6.4-2.5,14.1-1.3,14.1-1.3V41.5
		c-33.2,0-57.4,38.3-57.4,38.3s-10.6-5.5-10.6,4.5s9.1,8.6,9.1,8.6c7.6,26.2,33.2,38.3,33.2,38.3s0.1,0.3,0.2,0.7
		C72.7,130.7,72.2,128.2,72.8,124.1z"/>
	<path class="st84" d="M155.9,79.8c0,0-24.2-38.3-57.4-38.3v68.1c0,0,7.7-1.3,14.1,1.3c6,2.4,10.1,6.8,11.3,12.2
		c0.1,0.3,0.2,0.7,0.2,1.1c0.6,4.1,0.1,6.6-0.2,7.7c0.2-0.4,0.2-0.7,0.2-0.7s25.7-12.1,33.2-38.3c0,0,9.1,1.5,9.1-8.6
		S155.9,79.8,155.9,79.8z"/>
	<path class="st90" d="M73.3,138.6L73.3,138.6c-0.1-0.3-0.2-0.6-0.3-0.8C73.2,138.3,73.3,138.6,73.3,138.6z"/>
	<line class="st91" x1="98.5" y1="130.7" x2="98.5" y2="148.5"/>
	<path class="st86" d="M98.5,133.2v-17.8c-1.8-2.1-2.9,1.6-7.7,0.9c-9.1-1.2-16.2,1.6-17.8,6.7c-0.1,0.4-0.2,0.7-0.2,1.1
		c-0.6,4.1-0.1,6.6,0.2,7.7c0.1,0.2,0.2,0.5,0.3,0.8c1.4,3,5.4,9.7,14,9.7c0.8,0,1.5,0,2.2-0.1c-0.7-4.9-0.8-9.7-0.8-9.7L98.5,133.2
		z"/>
	<path class="st86" d="M98.5,135.2v-2l-9.6-0.8c0,0,0.1,4.8,0.8,9.7C98.5,141.2,98.5,135.2,98.5,135.2z"/>
	<path class="st85" d="M124.2,124.1c-0.1-0.4-0.2-0.7-0.2-1.1c-1.6-5.1-8.6-8-17.8-6.7c-4.8,0.7-5.9-3-7.7-0.9v17.8l8.9,0.7
		c0,0-0.2,3.9-0.7,8.1c0.9,0.1,1.8,0.2,2.9,0.2c8.6,0,12.7-6.7,14-9.7c0.1-0.3,0.2-0.5,0.3-0.8C124.3,130.7,124.8,128.2,124.2,124.1
		z"/>
	<path class="st85" d="M98.5,133.2v2c0,0,0,5.7,8.1,6.8c0.5-4.2,0.7-8.1,0.7-8.1L98.5,133.2z"/>
	<path class="st86" d="M84.4,110.9c-6,2.4-10.1,6.8-11.3,12.2c1.6-5.1,8.6-8,17.8-6.7c4.8,0.7,5.9-3,7.7-0.9v-5.8
		C98.5,109.6,90.8,108.4,84.4,110.9z"/>
	<path class="st85" d="M106.2,116.3c9.1-1.2,16.2,1.6,17.8,6.7c-1.2-5.3-5.3-9.8-11.3-12.2c-6.4-2.5-14.1-1.3-14.1-1.3v5.8
		C100.2,113.3,101.4,117,106.2,116.3z"/>
	<ellipse class="st92" cx="75" cy="88.9" rx="3.2" ry="5.7"/>
	<ellipse class="st92" cx="121.8" cy="88.9" rx="3.2" ry="5.7"/>
	<g>
		<path class="st93" d="M98.5,40c0,0-2.9-6.3-5.3-5.3c-2.4,1,3.5,8.6,3.5,8.6c0.7,0.7,1.3,1.1,1.8,1.3V40z"/>
		<path class="st90" d="M103.9,37.8c-1.4-0.6-4.3,4.7-4.3,4.7s2.6-6.8,0.8-6.8c-0.7,0-1.7,3.5-1.9,4.3v4.6c1.9,0.8,2.6-1.4,2.6-1.4
			S105.3,38.5,103.9,37.8z"/>
	</g>
	<g>
		<path class="st92" d="M34.1,82.5c0,0,0.5,0.2,1.1,0.6c0.6,0.4,1.4,1,2.1,1.8c0.3,0.4,0.6,0.8,0.8,1.3c0.2,0.4,0.4,0.9,0.5,1.2
			c0.1,0.4,0.2,0.7,0.2,0.9c0,0.2,0.1,0.4,0.1,0.4L38,88.8c0,0,0-0.1,0-0.3c0-0.2,0-0.5-0.1-0.8c-0.1-0.3-0.2-0.7-0.3-1.2
			c-0.2-0.4-0.4-0.8-0.6-1.2c-0.5-0.8-1.2-1.5-1.8-2C34.6,82.8,34.1,82.5,34.1,82.5z"/>
	</g>
	<g>
		<path class="st92" d="M162,83.1c0,0-0.4,0.2-0.9,0.7c-0.5,0.4-1.2,1.1-1.7,1.8c-0.2,0.4-0.4,0.8-0.6,1.2c-0.1,0.4-0.3,0.8-0.3,1.1
			c-0.1,0.3-0.1,0.6-0.1,0.8c0,0.2,0,0.3,0,0.3l-0.8-0.1c0,0,0-0.1,0.1-0.3c0-0.2,0.1-0.5,0.2-0.9c0.1-0.4,0.3-0.7,0.5-1.1
			c0.2-0.4,0.5-0.8,0.8-1.2c0.6-0.7,1.3-1.3,1.9-1.7C161.6,83.2,162,83.1,162,83.1z"/>
	</g>
	<g>
		<line class="st94" x1="178.2" y1="111" x2="159.8" y2="133.1"/>
		<line class="st94" x1="179.9" y1="120.1" x2="162.9" y2="140.7"/>
		<line class="st94" x1="181.7" y1="129.2" x2="166" y2="148.4"/>
	</g>
	<g>
		<line class="st94" x1="173" y1="111.8" x2="178.8" y2="136.7"/>
		<line class="st94" x1="168.2" y1="116.9" x2="173.9" y2="141.8"/>
		<line class="st94" x1="163.3" y1="122" x2="169" y2="146.8"/>
	</g>
</g>
<g>
	<path class="st92" d="M92.4,109.6c0,3.3,2.7,9.4,6,9.4v-15.5C95.1,103.6,92.4,106.3,92.4,109.6z"/>
	<path class="st82" d="M98.5,103.6C98.5,103.6,98.5,103.6,98.5,103.6l0,15.5c0,0,0,0,0,0c3.3,0,6-6.1,6-9.4
		C104.5,106.3,101.8,103.6,98.5,103.6z"/>
</g>
</svg>
