<?xml version="1.0" encoding="utf-8"?>
<!-- Generator: Adobe Illustrator 18.1.1, SVG Export Plug-In . SVG Version: 6.00 Build 0)  -->
<svg version="1.1" xmlns="http://www.w3.org/2000/svg" xmlns:xlink="http://www.w3.org/1999/xlink" x="0px" y="0px"
	 viewBox="0 0 1366 1817.2" style="enable-background:new 0 0 1366 1817.2;" xml:space="preserve">
<style type="text/css">
	.st0{fill:url(#SVGID_1_);}
	.st1{fill:#89D7E6;}
	.st2{fill:#34B188;}
	.st3{fill:#FDE49C;}
	.st4{fill:#FDEF6E;}
	.st5{fill:#1E845A;}
	.st6{fill:#A17644;}
	.st7{fill:#2AD19D;}
	.st8{fill:#79E2BC;}
	.st9{fill:#808184;}
	.st10{fill:#F46B83;}
	.st11{fill:#BC4D65;}
	.st12{fill:#933850;}
	.st13{fill:#FFFFFF;}
</style>
<g id="Layer_1">
	<linearGradient id="SVGID_1_" gradientUnits="userSpaceOnUse" x1="683.0002" y1="267.3652" x2="683.0002" y2="856.7596">
		<stop  offset="0" style="stop-color:#55D3D4"/>
		<stop  offset="0.1117" style="stop-color:#64D7D8"/>
		<stop  offset="0.5165" style="stop-color:#94E6E7"/>
		<stop  offset="0.8254" style="stop-color:#B2F0F1"/>
		<stop  offset="1" style="stop-color:#BDF3F4"/>
	</linearGradient>
	<polygon class="st0" points="0,0 0,1049.1 0,1064 0,1816.1 1366,1816.1 1366,1064 1366,1049.1 1366,0 	"/>
	<g>
		<rect x="411.3" y="1557.7" class="st1" width="47.8" height="92.9"/>
	</g>
	<g>
		<rect x="319.2" y="1613.4" class="st1" width="113.2" height="46.9"/>
	</g>
	<g>
		<rect x="319.2" y="1595.5" class="st1" width="51.4" height="46.9"/>
	</g>
	<g>
		<rect x="278.1" y="1572.8" class="st1" width="33" height="91"/>
	</g>
	<g>
		<rect x="282.8" y="1558.7" class="st1" width="23.7" height="91"/>
	</g>
	<g>
		<rect x="196.5" y="1620.6" class="st1" width="71.1" height="63.1"/>
	</g>
	<g>
		<rect x="167.5" y="1612.9" class="st1" width="25.2" height="77.6"/>
	</g>
	<g>
		<rect x="183.5" y="1608.4" class="st1" width="9.2" height="9.9"/>
	</g>
	<g>
		<rect x="100.8" y="1646.6" class="st1" width="55.8" height="65.9"/>
	</g>
	<g>
		<rect x="-0.9" y="1682.6" class="st1" width="112.8" height="84"/>
	</g>
	<g>
		<rect x="1253.2" y="1682.6" class="st1" width="112.8" height="84"/>
	</g>
	<g>
		<line class="st1" x1="156.6" y1="1645.6" x2="156.6" y2="1711.5"/>
	</g>
	<g>
		<rect x="917.1" y="1532.5" class="st1" width="34.5" height="117.3"/>
	</g>
	<g>
		<rect x="921.9" y="1524.1" class="st1" width="29.7" height="117.3"/>
	</g>
	<g>
		<rect x="929.1" y="1513.5" class="st1" width="22.4" height="117.3"/>
	</g>
	<g>
		<rect x="975.6" y="1596.8" class="st1" width="69" height="75.1"/>
	</g>
	<g>
		<polygon class="st1" points="1091.1,1673.5 1055.9,1673.5 1055.9,1583 1091.1,1575.6 		"/>
	</g>
	<g>
		<rect x="1101.1" y="1620.9" class="st1" width="106.5" height="73.2"/>
	</g>
	<g>
		<rect x="1193.7" y="1646.6" class="st1" width="78.8" height="53.6"/>
	</g>
	<g>
		<g>
			<path class="st1" d="M587.8,1481h32.7c0-2.4,0-4.4,0-4.4s0.1-1.5-1.3-2.3c-1.1-0.6-7.7-3.4-10.4-4.5c-0.7-0.3-0.7-0.3-0.9-0.6
				c-0.2-0.3-0.3-0.9-0.3-0.9l-2.7-50.2c0,0-0.1-1.5-0.9-1.5c-0.8,0-0.9,1.5-0.9,1.5l-2.7,49.7c0,0-0.1,0.8-0.2,1.1
				c-0.2,0.3-0.3,0.5-1,0.8c-2.7,1.1-9.2,3.9-10.3,4.5c-1.4,0.8-1.3,2.3-1.3,2.3S587.8,1478.5,587.8,1481z"/>
		</g>
		<g>
			<path class="st1" d="M587.8,1486.4c0,1.5,0,2.7,0,3c0,1.3,1.2,1.8,1.2,1.8l9.3,6c0,0,0.5,0.3,0.6,0.7c0.1,0.4,0.1,1,0.1,1
				l-10,156.5l15.2-1l15.2,1l-10.1-156.9c0,0-0.1-0.5,0.1-0.8c0.2-0.4,0.4-0.5,0.4-0.5l9.6-6.2c0,0,1.2-0.5,1.2-1.8c0-0.4,0-1.5,0-3
				H587.8z"/>
		</g>
	</g>
	<g>
		<rect x="545.2" y="1540.3" class="st1" width="39.5" height="101.9"/>
	</g>
	<g>
		<polygon class="st1" points="899.3,1660.3 804.7,1643.6 804.7,1572.8 899.3,1572.8 		"/>
	</g>
	<g>
		<rect x="466.4" y="1591.2" class="st1" width="40.3" height="77.3"/>
	</g>
	<g>
		<polygon class="st1" points="537.9,1655.7 498.6,1655.7 498.6,1526.7 537.9,1513.2 		"/>
	</g>
	<g>
		<polygon class="st1" points="760.6,1539.1 729.4,1525.5 729.4,1630.7 760.6,1630.7 		"/>
	</g>
	<g>
		<polygon class="st1" points="782.8,1556 782.8,1559.2 767.2,1559.2 767.2,1639.6 796.4,1639.6 796.4,1578.5 796.4,1559.2 
			796.4,1556 		"/>
	</g>
	<g>
		<path class="st1" d="M673.1,1579.6c-27.1,0-49,15.4-49,28.8v28.8h98.1v-28.8C722.1,1595,700.2,1579.6,673.1,1579.6z"/>
	</g>
	<g>
		<rect x="751.2" y="1593.6" class="st1" width="40.3" height="74.9"/>
	</g>
	<g>
		<rect x="786.3" y="1617.2" class="st1" width="40.3" height="22.4"/>
	</g>
	<g>
		<path class="st2" d="M1366,1816.1H0v-108.3c0,0,379.6-84.5,682.8-84.5s683.2,84.5,683.2,84.5V1816.1z"/>
	</g>
	<g>
		<path class="st3" d="M822.2,1817.2l231.9-1.1c-72.1,0.3-391.1-37.1-441.3-71.7c-12.5-8.6-14.9-21.2-2.7-33.1
			c7.6-7.3,21.8-12,31.5-15.1c29.8-9.4,63.5-17.6,92.8-28.4c12-4.4,39.7-15.5,34.7-29c-4.1-11-24.1-13.7-24.1-13.7s-3.6-0.7-8.1-1
			c-4-0.2-8.6-0.2-12.6-0.3c6,0.2,22.4,5.1,25.5,10.7c6.2,11.2-50.4,23.4-56.3,24.8c-33.6,7.8-71.5,14.1-105,22.1
			c-6.4,1.5-12.9,3.1-19.3,4.7c-27.2,6.9-76.5,23.3-76.5,56.3c0,26.2,14.6,55.2,41.5,73.7L822.2,1817.2z"/>
	</g>
	<g>
		<circle class="st4" cx="861.3" cy="1161" r="37.6"/>
	</g>
	<g>
		<rect x="802.6" y="1740.1" class="st5" width="20.8" height="2.9"/>
	</g>
	<g>
		<ellipse class="st5" cx="802" cy="1741.6" rx="8" ry="1.5"/>
	</g>
	<g>
		<rect x="782.9" y="1642.8" class="st5" width="7.5" height="1.9"/>
	</g>
	<g>
		<ellipse class="st5" cx="782.7" cy="1643.8" rx="2.1" ry="1"/>
	</g>
	<g>
		<rect x="843.8" y="1665.9" class="st5" width="11.1" height="1.8"/>
	</g>
	<g>
		<ellipse class="st5" cx="843.5" cy="1666.9" rx="3.1" ry="0.9"/>
	</g>
	<g>
		<g>
			<rect x="788.8" y="1618.9" class="st6" width="2" height="25.8"/>
		</g>
		<g>
			<path class="st7" d="M789.8,1635.4c0,0-5.2,0.1-5.2-6.3c0-5.1,5.2-16.6,5.2-16.6s5.2,11.5,5.2,16.6
				C795,1635.4,789.8,1635.4,789.8,1635.4z"/>
		</g>
		<g>
			<path class="st8" d="M789.8,1612.5v22.9c0,0,5.2,0.1,5.2-6.3C795,1624,789.8,1612.5,789.8,1612.5z"/>
		</g>
	</g>
	<g>
		<g>
			<rect x="613.7" y="1639.6" class="st5" width="10.5" height="2.7"/>
		</g>
		<g>
			<ellipse class="st5" cx="613.5" cy="1641" rx="2.9" ry="1.4"/>
		</g>
		<g>
			<g>
				<rect x="621.7" y="1605.9" class="st6" width="3" height="36.4"/>
			</g>
			<g>
				<path class="st7" d="M623.2,1629.1c0,0-7.4,0.1-7.4-8.8c0-7.2,7.4-23.5,7.4-23.5s7.4,16.3,7.4,23.5
					C630.5,1629.1,623.2,1629.1,623.2,1629.1z"/>
			</g>
			<g>
				<path class="st8" d="M623.2,1596.8v32.3c0,0,7.4,0.1,7.4-8.8C630.5,1613,623.2,1596.8,623.2,1596.8z"/>
			</g>
		</g>
	</g>
	<g>
		<rect x="393.6" y="1660.5" class="st5" width="9.4" height="2.7"/>
	</g>
	<g>
		<ellipse class="st5" cx="393.6" cy="1661.8" rx="2.9" ry="1.4"/>
	</g>
	<g>
		<g>
			<rect x="402.4" y="1626.8" class="st6" width="3" height="36.4"/>
		</g>
		<g>
			<path class="st7" d="M403.9,1649.9c0,0-7.4,0.1-7.4-8.8c0-7.2,7.4-23.5,7.4-23.5s7.4,16.3,7.4,23.5
				C411.3,1650,403.9,1649.9,403.9,1649.9z"/>
		</g>
		<g>
			<path class="st8" d="M403.9,1617.6v32.3c0,0,7.4,0.1,7.4-8.8C411.3,1633.9,403.9,1617.6,403.9,1617.6z"/>
		</g>
	</g>
	<g>
		<rect x="579" y="1667.9" class="st5" width="17.8" height="2.7"/>
	</g>
	<g>
		<g>
			<rect x="594.9" y="1612.5" class="st6" width="4" height="58"/>
		</g>
		<g>
			<path class="st7" d="M596.9,1650.6c0,0-12.1,0.1-12.1-14.5c0-11.8,12.1-38.5,12.1-38.5s12.1,26.7,12.1,38.5
				C608.9,1650.7,596.9,1650.6,596.9,1650.6z"/>
		</g>
		<g>
			<path class="st8" d="M596.9,1597.6v53c0,0,12.1,0.1,12.1-14.5C608.9,1624.3,596.9,1597.6,596.9,1597.6z"/>
		</g>
	</g>
	<g>
		<ellipse class="st5" cx="579" cy="1669.2" rx="3.4" ry="1.4"/>
	</g>
	<g>
		<rect x="481.3" y="1690.6" class="st5" width="17.8" height="2.7"/>
	</g>
	<g>
		<ellipse class="st5" cx="480.9" cy="1692" rx="3.4" ry="1.4"/>
	</g>
	<g>
		<rect x="171.3" y="1732.1" class="st5" width="32.3" height="4.2"/>
	</g>
	<g>
		<g>
			<rect x="201.7" y="1644.6" class="st6" width="4" height="91.8"/>
		</g>
		<g>
			<path class="st7" d="M203.7,1704.8c0,0-19.1,0.2-19.1-22.9c0-18.7,19.1-60.9,19.1-60.9s19.1,42.2,19.1,60.9
				C222.7,1704.9,203.7,1704.8,203.7,1704.8z"/>
		</g>
		<g>
			<path class="st8" d="M203.7,1620.9v83.8c0,0,19.1,0.2,19.1-22.9C222.7,1663.1,203.7,1620.9,203.7,1620.9z"/>
		</g>
	</g>
	<g>
		<ellipse class="st5" cx="170.6" cy="1734.3" rx="6.1" ry="2.1"/>
	</g>
	<g>
		<g>
			<rect x="495.7" y="1653.8" class="st6" width="3.4" height="39.5"/>
		</g>
		<g>
			<path class="st7" d="M497.4,1669c0,0-15.9,0.2-15.9-19.2c0-15.6,15.9-50.9,15.9-50.9s15.9,35.2,15.9,50.9
				C513.4,1669.2,497.4,1669,497.4,1669z"/>
		</g>
		<g>
			<path class="st8" d="M497.4,1599v70c0,0,15.9,0.2,15.9-19.2C513.4,1634.3,497.4,1599,497.4,1599z"/>
		</g>
	</g>
	<g>
		<g>
			<rect x="820.2" y="1691.3" class="st6" width="4" height="51.6"/>
		</g>
		<g>
			<path class="st7" d="M822.2,1708.6c0,0-18,0.2-18-21.7c0-17.7,18-57.5,18-57.5s18,39.8,18,57.5
				C840.2,1708.8,822.2,1708.6,822.2,1708.6z"/>
		</g>
		<g>
			<path class="st8" d="M822.2,1629.4v79.2c0,0,18,0.2,18-21.7C840.2,1669.3,822.2,1629.4,822.2,1629.4z"/>
		</g>
	</g>
	<g>
		<rect x="322" y="1727.6" class="st5" width="25" height="3.4"/>
	</g>
	<g>
		<ellipse class="st5" cx="321.6" cy="1729.3" rx="5.7" ry="1.7"/>
	</g>
	<g>
		<g>
			<rect x="345" y="1694.1" class="st6" width="4" height="36.9"/>
		</g>
		<g>
			<path class="st7" d="M347,1706.4c0,0-12.9,0.1-12.9-15.5c0-12.6,12.9-41.1,12.9-41.1s12.9,28.4,12.9,41.1
				C359.9,1706.5,347,1706.4,347,1706.4z"/>
		</g>
		<g>
			<path class="st8" d="M347,1649.9v56.5c0,0,12.9,0.1,12.9-15.5C359.9,1678.4,347,1649.9,347,1649.9z"/>
		</g>
	</g>
	<g>
		<g>
			<rect x="852.2" y="1631.9" class="st6" width="4" height="35.9"/>
		</g>
		<g>
			<path class="st7" d="M854.2,1654.7c0,0-7.2,0.1-7.2-8.7c0-7.1,7.2-23.1,7.2-23.1s7.2,16,7.2,23.1
				C861.4,1654.8,854.2,1654.7,854.2,1654.7z"/>
		</g>
		<g>
			<path class="st8" d="M854.2,1622.9v31.8c0,0,7.2,0.1,7.2-8.7C861.4,1638.9,854.2,1622.9,854.2,1622.9z"/>
		</g>
	</g>
	<g>
		<g>
			<rect x="843.4" y="1764.9" class="st5" width="38.2" height="3.1"/>
		</g>
		<g>
			<path class="st5" d="M863.3,1766.5c0,0.9-16.6,1.6-20.4,1.6c-3.8,0-6.9-0.7-6.9-1.6c0-0.9,3.1-1.6,6.9-1.6
				C846.7,1764.9,863.3,1765.6,863.3,1766.5z"/>
		</g>
		<g>
			<g>
				<rect x="878.6" y="1707.8" class="st6" width="4" height="60.2"/>
			</g>
			<g>
				<path class="st7" d="M880.6,1730.5c0,0-23.7,0.2-23.7-28.5c0-23.2,23.7-75.6,23.7-75.6s23.7,52.4,23.7,75.6
					C904.3,1730.8,880.6,1730.5,880.6,1730.5z"/>
			</g>
			<g>
				<path class="st8" d="M880.6,1626.4v104.1c0,0,23.7,0.2,23.7-28.5C904.3,1678.8,880.6,1626.4,880.6,1626.4z"/>
			</g>
		</g>
	</g>
	<g>
		<rect x="1111.8" y="1745.9" class="st6" width="4" height="70.2"/>
	</g>
	<g>
		<path class="st7" d="M1113.8,1777.5c0,0-30.9,0.3-30.9-37.1c0-30.3,30.9-98.6,30.9-98.6s30.9,68.3,30.9,98.6
			C1144.6,1777.8,1113.8,1777.5,1113.8,1777.5z"/>
	</g>
	<g>
		<path class="st8" d="M1113.8,1641.8v135.7c0,0,30.9,0.3,30.9-37.1C1144.6,1710.1,1113.8,1641.8,1113.8,1641.8z"/>
	</g>
	<g>
		<g>
			<rect x="1231.1" y="1791" class="st5" width="56.3" height="4.6"/>
		</g>
		<g>
			<path class="st5" d="M1260.4,1793.3c0,1.3-24.4,2.3-30,2.3s-10.1-1-10.1-2.3s4.5-2.3,10.1-2.3S1260.4,1792,1260.4,1793.3z"/>
		</g>
		<g>
			<g>
				<rect x="1284" y="1706.9" class="st6" width="4" height="88.6"/>
			</g>
			<g>
				<path class="st7" d="M1286,1740.3c0,0-34.9,0.3-34.9-41.9c0-34.2,34.9-111.3,34.9-111.3s34.9,77.1,34.9,111.3
					C1320.8,1740.6,1286,1740.3,1286,1740.3z"/>
			</g>
			<g>
				<path class="st8" d="M1286,1587.1v153.2c0,0,34.9,0.3,34.9-41.9C1320.8,1664.2,1286,1587.1,1286,1587.1z"/>
			</g>
		</g>
	</g>
	<g>
		<rect x="32.8" y="1793.9" class="st5" width="79.1" height="4.8"/>
	</g>
	<g>
		<path class="st5" d="M63.1,1796.3c0,1.3-25.3,2.4-31.1,2.4s-10.5-1.1-10.5-2.4s4.7-2.4,10.5-2.4S63.1,1794.9,63.1,1796.3z"/>
	</g>
	<g>
		<g>
			<rect x="108.4" y="1706.7" class="st6" width="4" height="91.9"/>
		</g>
		<g>
			<path class="st7" d="M110.4,1741.4c0,0-36.1,0.3-36.1-43.4c0-35.4,36.1-115.4,36.1-115.4s36.1,79.9,36.1,115.4
				C146.5,1741.7,110.4,1741.4,110.4,1741.4z"/>
		</g>
		<g>
			<path class="st8" d="M110.4,1582.5v158.8c0,0,36.1,0.3,36.1-43.4C146.5,1662.5,110.4,1582.5,110.4,1582.5z"/>
		</g>
	</g>
	<g>
		<g>
			<rect x="1165.1" y="1722.4" class="st5" width="25.9" height="2.1"/>
		</g>
		<g>
			<path class="st5" d="M1178.6,1723.5c0,0.6-11.3,1.1-13.8,1.1c-2.6,0-4.7-0.5-4.7-1.1s2.1-1.1,4.7-1.1
				C1167.3,1722.4,1178.6,1722.9,1178.6,1723.5z"/>
		</g>
		<g>
			<g>
				<rect x="1188.3" y="1683.7" class="st6" width="4" height="40.9"/>
			</g>
			<g>
				<path class="st7" d="M1190.3,1699.1c0,0-16.1,0.2-16.1-19.3c0-15.8,16.1-51.3,16.1-51.3s16.1,35.5,16.1,51.3
					C1206.4,1699.3,1190.3,1699.1,1190.3,1699.1z"/>
			</g>
			<g>
				<path class="st8" d="M1190.3,1628.5v70.6c0,0,16.1,0.2,16.1-19.3C1206.4,1664,1190.3,1628.5,1190.3,1628.5z"/>
			</g>
		</g>
	</g>
	<g>
		<g>
			<rect x="998.4" y="1697.8" class="st5" width="18.7" height="1.5"/>
		</g>
		<g>
			<path class="st5" d="M1008.1,1698.5c0,0.4-8.1,0.8-10,0.8s-3.4-0.3-3.4-0.8s1.5-0.8,3.4-0.8S1008.1,1698.1,1008.1,1698.5z"/>
		</g>
		<g>
			<g>
				<rect x="1014.6" y="1669.9" class="st6" width="4" height="29.4"/>
			</g>
			<g>
				<path class="st7" d="M1016.6,1681c0,0-11.6,0.1-11.6-13.9c0-11.4,11.6-37,11.6-37s11.6,25.6,11.6,37
					C1028.2,1681.1,1016.6,1681,1016.6,1681z"/>
			</g>
			<g>
				<path class="st8" d="M1016.6,1630.1v50.9c0,0,11.6,0.1,11.6-13.9C1028.2,1655.7,1016.6,1630.1,1016.6,1630.1z"/>
			</g>
		</g>
	</g>
	<g>
		<g>
			<path class="st9" d="M600.3,1319.5h-1.6l-0.3-1.1c-0.2-0.1-0.4-0.2-0.6-0.3s-0.5-0.1-0.8-0.1c-0.4,0-0.8,0.1-1,0.3
				s-0.4,0.4-0.4,0.7c0,0.3,0.1,0.5,0.4,0.7c0.2,0.2,0.7,0.3,1.4,0.5c1.1,0.2,1.9,0.5,2.5,1c0.5,0.4,0.8,1,0.8,1.8
				c0,0.8-0.3,1.5-1,2c-0.7,0.5-1.6,0.8-2.7,0.8c-0.7,0-1.3-0.1-1.9-0.3c-0.6-0.2-1.1-0.5-1.5-0.9l0-2h1.7l0.3,1.2
				c0.1,0.1,0.3,0.2,0.6,0.3c0.2,0.1,0.5,0.1,0.8,0.1c0.5,0,0.9-0.1,1.1-0.3c0.3-0.2,0.4-0.4,0.4-0.7c0-0.3-0.1-0.5-0.4-0.7
				c-0.3-0.2-0.7-0.4-1.4-0.5c-1.1-0.2-1.8-0.5-2.4-1c-0.5-0.4-0.8-1-0.8-1.7c0-0.7,0.3-1.4,0.9-1.9c0.6-0.5,1.5-0.8,2.6-0.8
				c0.7,0,1.4,0.1,2,0.3s1.1,0.4,1.5,0.7L600.3,1319.5z"/>
		</g>
		<g>
			<path class="st9" d="M606,1325.6c-1.3,0-2.3-0.4-3.1-1.2c-0.8-0.8-1.2-1.9-1.2-3.1v-0.3c0-1.3,0.4-2.4,1.1-3.3
				c0.7-0.9,1.7-1.3,2.9-1.3c1.2,0,2.1,0.4,2.8,1.1c0.7,0.7,1,1.7,1,2.9v1.3h-5.3l0,0c0,0.6,0.2,1.1,0.6,1.5s0.8,0.6,1.4,0.6
				c0.5,0,1-0.1,1.3-0.2c0.4-0.1,0.7-0.3,1.2-0.5l0.7,1.5c-0.4,0.3-0.8,0.5-1.4,0.7C607.3,1325.5,606.7,1325.6,606,1325.6z
				 M605.7,1318.1c-0.4,0-0.8,0.2-1.1,0.5s-0.4,0.8-0.5,1.3l0,0h3v-0.2c0-0.5-0.1-0.9-0.4-1.2S606.2,1318.1,605.7,1318.1z"/>
		</g>
		<g>
			<path class="st9" d="M615,1325.6c-1.3,0-2.3-0.4-3.1-1.2c-0.8-0.8-1.2-1.9-1.2-3.1v-0.3c0-1.3,0.4-2.4,1.1-3.3
				c0.7-0.9,1.7-1.3,2.9-1.3c1.2,0,2.1,0.4,2.8,1.1c0.7,0.7,1,1.7,1,2.9v1.3h-5.3l0,0c0,0.6,0.2,1.1,0.6,1.5s0.8,0.6,1.4,0.6
				c0.5,0,1-0.1,1.3-0.2s0.7-0.3,1.2-0.5l0.7,1.5c-0.4,0.3-0.8,0.5-1.4,0.7S615.7,1325.6,615,1325.6z M614.8,1318.1
				c-0.4,0-0.8,0.2-1.1,0.5s-0.4,0.8-0.5,1.3l0,0h3v-0.2c0-0.5-0.1-0.9-0.4-1.2S615.2,1318.1,614.8,1318.1z"/>
		</g>
		<g>
			<path class="st9" d="M627.4,1314.3v2.2h1.6v1.7h-1.6v4.6c0,0.3,0.1,0.6,0.2,0.7c0.1,0.1,0.3,0.2,0.6,0.2c0.2,0,0.3,0,0.4,0
				s0.3,0,0.4-0.1l0.2,1.7c-0.3,0.1-0.5,0.1-0.8,0.2c-0.3,0-0.5,0.1-0.9,0.1c-0.8,0-1.5-0.2-1.9-0.7c-0.4-0.5-0.7-1.2-0.7-2.2v-4.6
				h-1.3v-1.7h1.3v-2.2H627.4z"/>
		</g>
		<g>
			<path class="st9" d="M630,1323.9l1.2-0.2v-9.5l-1.3-0.2v-1.5h3.7v5.1c0.3-0.4,0.6-0.7,1-1s0.9-0.3,1.4-0.3c0.9,0,1.7,0.3,2.2,0.9
				c0.5,0.6,0.8,1.6,0.8,2.9v3.6l1.2,0.2v1.4h-4.6v-1.4l1-0.2v-3.6c0-0.7-0.1-1.2-0.4-1.5s-0.6-0.4-1.1-0.4c-0.3,0-0.6,0.1-0.9,0.2
				c-0.3,0.1-0.5,0.3-0.6,0.5v4.8l1,0.2v1.4H630V1323.9z"/>
		</g>
		<g>
			<path class="st9" d="M645.1,1325.6c-1.3,0-2.3-0.4-3.1-1.2c-0.8-0.8-1.2-1.9-1.2-3.1v-0.3c0-1.3,0.4-2.4,1.1-3.3
				c0.7-0.9,1.7-1.3,2.9-1.3c1.2,0,2.1,0.4,2.8,1.1c0.7,0.7,1,1.7,1,2.9v1.3h-5.3l0,0c0,0.6,0.2,1.1,0.6,1.5s0.8,0.6,1.4,0.6
				c0.5,0,1-0.1,1.3-0.2s0.7-0.3,1.2-0.5l0.7,1.5c-0.4,0.3-0.8,0.5-1.4,0.7S645.8,1325.6,645.1,1325.6z M644.9,1318.1
				c-0.4,0-0.8,0.2-1.1,0.5s-0.4,0.8-0.5,1.3l0,0h3v-0.2c0-0.5-0.1-0.9-0.4-1.2S645.4,1318.1,644.9,1318.1z"/>
		</g>
		<g>
			<path class="st9" d="M658.2,1323.7c0.4,0,0.8-0.1,1-0.4c0.3-0.3,0.4-0.6,0.4-1h2.2l0,0c0,0.9-0.3,1.7-1,2.3
				c-0.7,0.6-1.6,0.9-2.6,0.9c-1.3,0-2.4-0.4-3.1-1.3c-0.7-0.8-1.1-1.9-1.1-3.2v-0.2c0-1.3,0.4-2.4,1.1-3.2c0.7-0.8,1.8-1.3,3.2-1.3
				c0.7,0,1.4,0.1,1.9,0.3c0.6,0.2,1,0.5,1.4,0.9l0,2.4h-2l-0.4-1.4c-0.1-0.1-0.3-0.2-0.4-0.3c-0.2-0.1-0.4-0.1-0.6-0.1
				c-0.7,0-1.2,0.2-1.4,0.7c-0.3,0.5-0.4,1.1-0.4,1.9v0.2c0,0.8,0.1,1.4,0.4,1.9S657.5,1323.7,658.2,1323.7z"/>
		</g>
		<g>
			<path class="st9" d="M662.8,1323.9l1.2-0.2v-5.5l-1.3-0.2v-1.5h3.7v7.2l1.2,0.2v1.4h-4.7V1323.9z M666.4,1314.3H664v-1.8h2.4
				V1314.3z"/>
		</g>
		<g>
			<path class="st9" d="M671.9,1314.3v2.2h1.6v1.7h-1.6v4.6c0,0.3,0.1,0.6,0.2,0.7c0.1,0.1,0.3,0.2,0.6,0.2c0.2,0,0.3,0,0.4,0
				s0.3,0,0.4-0.1l0.2,1.7c-0.3,0.1-0.5,0.1-0.8,0.2c-0.3,0-0.5,0.1-0.9,0.1c-0.8,0-1.5-0.2-1.9-0.7c-0.4-0.5-0.7-1.2-0.7-2.2v-4.6
				h-1.3v-1.7h1.3v-2.2H671.9z"/>
		</g>
		<g>
			<path class="st9" d="M683.9,1317.9l-0.8,0.1l-3.3,8.7c-0.3,0.6-0.6,1.2-1,1.6c-0.4,0.4-1.1,0.7-2,0.7c-0.2,0-0.4,0-0.6,0
				s-0.4-0.1-0.6-0.1l0.3-1.8c0.1,0,0.2,0,0.2,0c0.1,0,0.2,0,0.2,0c0.4,0,0.7-0.1,0.9-0.3c0.2-0.2,0.4-0.4,0.5-0.7l0.3-0.7l-2.8-7.4
				l-0.8-0.1v-1.5h4.4v1.5l-1,0.2l1.2,3.6l0.1,0.6l0,0l1.4-4.2l-1-0.2v-1.5h4.4V1317.9z"/>
		</g>
		<g>
			<path class="st9" d="M694.6,1324.3c-0.3,0.4-0.6,0.7-1,0.9c-0.4,0.2-0.8,0.3-1.3,0.3c-1.1,0-2-0.4-2.6-1.2s-0.9-1.9-0.9-3.2v-0.2
				c0-1.4,0.3-2.5,0.9-3.4c0.6-0.9,1.5-1.3,2.6-1.3c0.4,0,0.8,0.1,1.2,0.3c0.4,0.2,0.7,0.5,0.9,0.8v-3.2l-1.3-0.2v-1.5h1.3h2.4v11.2
				l1.2,0.2v1.4h-3.2L694.6,1324.3z M691.2,1321.2c0,0.8,0.1,1.4,0.4,1.8c0.3,0.4,0.7,0.7,1.3,0.7c0.4,0,0.7-0.1,0.9-0.2
				c0.3-0.1,0.5-0.3,0.6-0.6v-3.8c-0.2-0.3-0.4-0.5-0.6-0.7s-0.6-0.2-0.9-0.2c-0.6,0-1,0.3-1.3,0.8s-0.4,1.2-0.4,2V1321.2z"/>
		</g>
		<g>
			<path class="st9" d="M698.7,1323.9l1.2-0.2v-5.5l-1.3-0.2v-1.5h3.7v7.2l1.2,0.2v1.4h-4.7V1323.9z M702.3,1314.3h-2.4v-1.8h2.4
				V1314.3z"/>
		</g>
		<g>
			<path class="st9" d="M704.4,1323.9l1.2-0.2v-5.5h-1.3v-1.7h1.3v-1c0-1,0.3-1.8,0.9-2.3c0.6-0.5,1.4-0.8,2.4-0.8
				c0.2,0,0.4,0,0.6,0c0.2,0,0.4,0.1,0.7,0.1l-0.2,1.8c-0.1,0-0.3,0-0.4-0.1s-0.3,0-0.4,0c-0.4,0-0.7,0.1-0.9,0.3s-0.3,0.5-0.3,0.9
				v1h1.8v1.7H708v5.5l1.2,0.2v1.4h-4.7V1323.9z"/>
		</g>
		<g>
			<path class="st9" d="M710.7,1323.9l1.2-0.2v-5.5h-1.3v-1.7h1.3v-1c0-1,0.3-1.8,0.9-2.3c0.6-0.5,1.4-0.8,2.4-0.8
				c0.2,0,0.4,0,0.6,0c0.2,0,0.4,0.1,0.7,0.1l-0.2,1.8c-0.1,0-0.3,0-0.4-0.1s-0.3,0-0.4,0c-0.4,0-0.7,0.1-0.9,0.3s-0.3,0.5-0.3,0.9
				v1h1.8v1.7h-1.8v5.5l1.2,0.2v1.4h-4.7V1323.9z"/>
		</g>
		<g>
			<path class="st9" d="M720.9,1325.6c-1.3,0-2.3-0.4-3.1-1.2c-0.8-0.8-1.2-1.9-1.2-3.1v-0.3c0-1.3,0.4-2.4,1.1-3.3
				c0.7-0.9,1.7-1.3,2.9-1.3c1.2,0,2.1,0.4,2.8,1.1c0.7,0.7,1,1.7,1,2.9v1.3h-5.3l0,0c0,0.6,0.2,1.1,0.6,1.5s0.8,0.6,1.4,0.6
				c0.5,0,1-0.1,1.3-0.2c0.4-0.1,0.7-0.3,1.2-0.5l0.7,1.5c-0.4,0.3-0.8,0.5-1.4,0.7C722.3,1325.5,721.6,1325.6,720.9,1325.6z
				 M720.7,1318.1c-0.4,0-0.8,0.2-1.1,0.5s-0.4,0.8-0.5,1.3l0,0h3v-0.2c0-0.5-0.1-0.9-0.4-1.2S721.2,1318.1,720.7,1318.1z"/>
		</g>
		<g>
			<path class="st9" d="M725.8,1323.9l1.2-0.2v-5.5l-1.3-0.2v-1.5h3.5l0.1,1.3c0.2-0.5,0.5-0.8,0.8-1.1s0.7-0.4,1.1-0.4
				c0.1,0,0.3,0,0.4,0c0.1,0,0.3,0,0.4,0.1l-0.3,2.2l-1,0c-0.4,0-0.6,0.1-0.9,0.2s-0.4,0.3-0.5,0.6v4.3l1.2,0.2v1.4h-4.7V1323.9z"/>
		</g>
		<g>
			<path class="st9" d="M736.9,1325.6c-1.3,0-2.3-0.4-3.1-1.2c-0.8-0.8-1.2-1.9-1.2-3.1v-0.3c0-1.3,0.4-2.4,1.1-3.3
				c0.7-0.9,1.7-1.3,2.9-1.3c1.2,0,2.1,0.4,2.8,1.1c0.7,0.7,1,1.7,1,2.9v1.3h-5.3l0,0c0,0.6,0.2,1.1,0.6,1.5s0.8,0.6,1.4,0.6
				c0.5,0,1-0.1,1.3-0.2c0.4-0.1,0.7-0.3,1.2-0.5l0.7,1.5c-0.4,0.3-0.8,0.5-1.4,0.7C738.3,1325.5,737.6,1325.6,736.9,1325.6z
				 M736.7,1318.1c-0.4,0-0.8,0.2-1.1,0.5s-0.4,0.8-0.5,1.3l0,0h3v-0.2c0-0.5-0.1-0.9-0.4-1.2S737.2,1318.1,736.7,1318.1z"/>
		</g>
		<g>
			<path class="st9" d="M741.5,1323.9l1.2-0.2v-5.5l-1.3-0.2v-1.5h3.5l0.1,1.3c0.3-0.5,0.7-0.8,1.1-1.1c0.4-0.3,0.9-0.4,1.5-0.4
				c0.9,0,1.6,0.3,2.1,0.9c0.5,0.6,0.8,1.5,0.8,2.7v3.9l1.2,0.2v1.4H747v-1.4l1-0.2v-3.9c0-0.6-0.1-1-0.4-1.3
				c-0.2-0.3-0.6-0.4-1.1-0.4c-0.3,0-0.6,0.1-0.9,0.2c-0.3,0.1-0.5,0.3-0.6,0.5v4.8l1,0.2v1.4h-4.5V1323.9z"/>
		</g>
		<g>
			<path class="st9" d="M755.9,1314.3v2.2h1.6v1.7h-1.6v4.6c0,0.3,0.1,0.6,0.2,0.7c0.1,0.1,0.3,0.2,0.6,0.2c0.2,0,0.3,0,0.4,0
				s0.3,0,0.4-0.1l0.2,1.7c-0.3,0.1-0.5,0.1-0.8,0.2c-0.3,0-0.6,0.1-0.9,0.1c-0.8,0-1.5-0.2-1.9-0.7c-0.4-0.5-0.7-1.2-0.7-2.2v-4.6
				h-1.3v-1.7h1.3v-2.2H755.9z"/>
		</g>
		<g>
			<path class="st9" d="M758.4,1313.9v-1.5h3.7v11.2l1.2,0.2v1.4h-4.7v-1.4l1.2-0.2v-9.5L758.4,1313.9z"/>
		</g>
		<g>
			<path class="st9" d="M773.3,1317.9l-0.8,0.1l-3.3,8.7c-0.3,0.6-0.6,1.2-1,1.6c-0.4,0.4-1.1,0.7-2,0.7c-0.2,0-0.4,0-0.6,0
				s-0.4-0.1-0.6-0.1l0.3-1.8c0.1,0,0.2,0,0.2,0c0.1,0,0.2,0,0.2,0c0.4,0,0.7-0.1,0.9-0.3s0.4-0.4,0.5-0.7l0.3-0.7l-2.8-7.4
				l-0.8-0.1v-1.5h4.4v1.5l-1,0.2l1.2,3.6l0.1,0.6l0,0l1.4-4.2l-1-0.2v-1.5h4.4V1317.9z"/>
		</g>
	</g>
	<g>
		<g>
			
				<ellipse transform="matrix(-0.103 0.9947 -0.9947 -0.103 2321.5168 756.0648)" class="st10" cx="819.8" cy="1424.8" rx="19.1" ry="15.9"/>
		</g>
		<g>
			
				<ellipse transform="matrix(-0.9783 -0.2074 0.2074 -0.9783 1266.5288 3023.386)" class="st10" cx="791.7" cy="1445.3" rx="19.1" ry="15.9"/>
		</g>
		<g>
			
				<ellipse transform="matrix(-6.587160e-02 0.9978 -0.9978 -6.587160e-02 2326.626 748.7808)" class="st10" cx="812.8" cy="1463.4" rx="12.2" ry="10.1"/>
		</g>
		<g>
			
				<ellipse transform="matrix(-0.9699 -0.2436 0.2436 -0.9699 1281.7278 3060.2314)" class="st10" cx="830.1" cy="1450.9" rx="12.2" ry="10.1"/>
		</g>
		<g>
			
				<rect x="804" y="1438.5" transform="matrix(0.5886 0.8084 -0.8084 0.5886 1505.624 -63.5959)" class="st10" width="22.6" height="18.2"/>
		</g>
		<g>
			
				<ellipse transform="matrix(-0.103 0.9947 -0.9947 -0.103 2324.8086 760.6313)" class="st11" cx="819.4" cy="1428.6" rx="12.2" ry="8.2"/>
		</g>
		<g>
			
				<ellipse transform="matrix(0.9783 0.2074 -0.2074 0.9783 317.2639 -133.3274)" class="st11" cx="794.6" cy="1446.7" rx="12.2" ry="8.2"/>
		</g>
		<g>
			
				<ellipse transform="matrix(0.103 -0.9947 0.9947 0.103 -726.5861 2121.0471)" class="st11" cx="812.7" cy="1463.4" rx="7.1" ry="4.8"/>
		</g>
		<g>
			
				<ellipse transform="matrix(0.9783 0.2074 -0.2074 0.9783 318.8503 -140.6233)" class="st11" cx="830.2" cy="1450.6" rx="7.1" ry="4.8"/>
		</g>
		<g>
			<path class="st12" d="M825.8,1463.1L825.8,1463.1c-1.4,1-3.4,0.7-4.4-0.7l-16.8-23c-1-1.4-0.7-3.4,0.7-4.4l0,0
				c1.4-1,3.4-0.7,4.4,0.7l16.8,23C827.5,1460.1,827.2,1462.1,825.8,1463.1z"/>
		</g>
	</g>
	<g>
		<path class="st8" d="M709,1641.7l0-0.5c0-0.8-0.3-1.6-0.9-2.2c-0.6-0.6-1.4-0.9-2.2-0.9c0,0,0,0,0,0c-1.7,0-3.1,1.4-3.1,3.1l-1,0
			c0-1.7-1.4-3.1-3.1-3.1c0,0,0,0,0,0c-0.8,0-1.6,0.3-2.2,0.9c-0.6,0.6-0.9,1.4-0.9,2.2l-1,0c0-1.1,0.4-2.1,1.2-2.9
			c0.8-0.8,1.8-1.2,2.9-1.2c0,0,0,0,0,0c1.6,0,2.9,0.9,3.6,2.2c0.7-1.3,2.1-2.2,3.6-2.2c0,0,0,0,0,0c2.3,0,4.1,1.8,4.1,4.1l0,0.5
			L709,1641.7z"/>
	</g>
	<g>
		<path class="st8" d="M958,1688.7l0-0.5c0-1.7-1.4-3.1-3.1-3.1c0,0,0,0,0,0c-0.8,0-1.6,0.3-2.2,0.9c-0.6,0.6-0.9,1.4-0.9,2.2l-1,0
			c0-0.8-0.3-1.6-0.9-2.2c-0.6-0.6-1.4-0.9-2.2-0.9c0,0,0,0,0,0c-1.7,0-3.1,1.4-3.1,3.1l-1,0c0-2.3,1.8-4.1,4.1-4.1c0,0,0,0,0,0
			c1.6,0,2.9,0.9,3.6,2.2c0.2-0.3,0.4-0.7,0.7-1c0.8-0.8,1.8-1.2,2.9-1.2c0,0,0,0,0,0c2.3,0,4.1,1.8,4.1,4.1l0,0.5L958,1688.7z"/>
	</g>
	<g>
		<path class="st8" d="M160.6,1762.1l0-0.5c0-0.8-0.3-1.6-0.9-2.2c-0.6-0.6-1.4-0.9-2.2-0.9c0,0,0,0,0,0c-0.8,0-1.6,0.3-2.2,0.9
			c-0.6,0.6-0.9,1.4-0.9,2.2l-1,0c0-1.7-1.4-3.1-3.1-3.1c0,0,0,0,0,0c-0.8,0-1.6,0.3-2.2,0.9c-0.6,0.6-0.9,1.4-0.9,2.2l-1,0
			c0-1.1,0.4-2.1,1.2-2.9c0.8-0.8,1.8-1.2,2.9-1.2c0,0,0,0,0,0c1.6,0,2.9,0.9,3.6,2.2c0.2-0.3,0.4-0.7,0.7-1
			c0.8-0.8,1.8-1.2,2.9-1.2c0,0,0,0,0,0c1.1,0,2.1,0.4,2.9,1.2c0.8,0.8,1.2,1.8,1.2,2.9l0,0.5L160.6,1762.1z"/>
	</g>
	<g>
		<path class="st8" d="M267.1,1688.3l0-0.5c0-1.7-1.4-3.1-3.1-3.1c0,0,0,0,0,0c-1.7,0-3.1,1.4-3.1,3.1l-1,0c0-0.8-0.3-1.6-0.9-2.2
			c-0.6-0.6-1.4-0.9-2.2-0.9c0,0,0,0,0,0c-0.8,0-1.6,0.3-2.2,0.9c-0.6,0.6-0.9,1.4-0.9,2.2l-1,0c0-1.1,0.4-2.1,1.2-2.9
			c0.8-0.8,1.8-1.2,2.9-1.2c0,0,0,0,0,0c1.1,0,2.1,0.4,2.9,1.2c0.3,0.3,0.5,0.6,0.7,1c0.7-1.3,2.1-2.2,3.6-2.2c0,0,0,0,0,0
			c2.3,0,4.1,1.8,4.1,4.1l0,0.5L267.1,1688.3z"/>
	</g>
	<g>
		<path class="st8" d="M762.7,1775.6l0-0.5c0-2.3,1.8-4.1,4.1-4.1c0,0,0,0,0,0c1.6,0,2.9,0.9,3.6,2.2c0.7-1.3,2.1-2.2,3.6-2.2
			c0,0,0,0,0,0c1.6,0,2.9,0.9,3.6,2.2c0.2-0.3,0.4-0.7,0.7-1c0.8-0.8,1.8-1.2,2.9-1.2c0,0,0,0,0,0c1.1,0,2.1,0.4,2.9,1.2
			c0.8,0.8,1.2,1.8,1.2,2.9l0,0.5l-1,0l0-0.5c0-0.8-0.3-1.6-0.9-2.2c-0.6-0.6-1.4-0.9-2.2-0.9c0,0,0,0,0,0c-0.8,0-1.6,0.3-2.2,0.9
			c-0.6,0.6-0.9,1.4-0.9,2.2l-1,0c0-1.7-1.4-3.1-3.1-3.1c0,0,0,0,0,0c-1.7,0-3.1,1.4-3.1,3.1l-1,0c0-1.7-1.4-3.1-3.1-3.1
			c0,0,0,0,0,0c-1.7,0-3.1,1.4-3.1,3.1l0,0.5L762.7,1775.6z"/>
	</g>
	<g>
		<path class="st8" d="M694.5,1700.4l0-0.5c0-1.1,0.4-2.1,1.2-2.9c0.8-0.8,1.8-1.2,2.9-1.2c0,0,0,0,0,0c1.1,0,2.1,0.4,2.9,1.2
			c0.3,0.3,0.5,0.6,0.7,1c0.7-1.3,2.1-2.2,3.6-2.2c0,0,0,0,0,0c1.6,0,2.9,0.9,3.6,2.2c0.7-1.3,2.1-2.2,3.6-2.2
			c2.3,0,4.1,1.8,4.1,4.1l0,0.5l-1,0l0-0.5c0-1.7-1.4-3.1-3.1-3.1c0,0,0,0,0,0c-0.8,0-1.6,0.3-2.2,0.9c-0.6,0.6-0.9,1.4-0.9,2.2
			l-1,0c0-1.7-1.4-3.1-3.1-3.1c0,0,0,0,0,0c-1.7,0-3.1,1.4-3.1,3.1l-1,0c0-0.8-0.3-1.6-0.9-2.2c-0.6-0.6-1.4-0.9-2.2-0.9
			c0,0,0,0,0,0c-0.8,0-1.6,0.3-2.2,0.9c-0.6,0.6-0.9,1.4-0.9,2.2l0,0.5L694.5,1700.4z"/>
	</g>
	<g>
		<path class="st8" d="M928.9,1748l0-0.5c0-1.1,0.4-2.1,1.2-2.9c0.8-0.8,1.8-1.2,2.9-1.2c0,0,0,0,0,0c1.1,0,2.1,0.4,2.9,1.2
			c0.3,0.3,0.5,0.6,0.7,0.9c0.2-0.3,0.4-0.7,0.7-1c0.8-0.8,1.8-1.2,2.9-1.2c0,0,0,0,0,0c1.1,0,2.1,0.4,2.9,1.2
			c0.3,0.3,0.5,0.6,0.7,0.9c0.2-0.3,0.4-0.7,0.7-1c0.8-0.8,1.8-1.2,2.9-1.2c0,0,0,0,0,0c2.3,0,4.1,1.9,4.1,4.1l0,0.5l-1,0l0-0.5
			c0-1.7-1.4-3.1-3.1-3.1c0,0,0,0,0,0c-0.8,0-1.6,0.3-2.2,0.9s-0.9,1.4-0.9,2.2l-1,0c0-0.8-0.3-1.6-0.9-2.2
			c-0.6-0.6-1.4-0.9-2.2-0.9c0,0,0,0,0,0c-0.8,0-1.6,0.3-2.2,0.9c-0.6,0.6-0.9,1.4-0.9,2.2l-1,0c0-0.8-0.3-1.6-0.9-2.2
			c-0.6-0.6-1.4-0.9-2.2-0.9c0,0,0,0,0,0c-0.8,0-1.6,0.3-2.2,0.9c-0.6,0.6-0.9,1.4-0.9,2.2l0,0.5L928.9,1748z"/>
	</g>
	<g>
		<path class="st8" d="M348.5,1784.7l0-0.5c0-2.3,1.8-4.1,4.1-4.1c0,0,0,0,0,0c1.1,0,2.1,0.4,2.9,1.2c0.3,0.3,0.5,0.6,0.7,1
			c0.7-1.3,2.1-2.2,3.6-2.2c0,0,0,0,0,0c1.1,0,2.1,0.4,2.9,1.2c0.3,0.3,0.5,0.6,0.7,1c0.7-1.3,2.1-2.2,3.6-2.2c0,0,0,0,0,0
			c1.1,0,2.1,0.4,2.9,1.2c0.8,0.8,1.2,1.8,1.2,2.9l0,0.5l-1,0l0-0.5c0-0.8-0.3-1.6-0.9-2.2c-0.6-0.6-1.4-0.9-2.2-0.9c0,0,0,0,0,0
			c-1.7,0-3.1,1.4-3.1,3.1l-1,0c0-0.8-0.3-1.6-0.9-2.2c-0.6-0.6-1.4-0.9-2.2-0.9c0,0,0,0,0,0c-1.7,0-3.1,1.4-3.1,3.1l-1,0
			c0-0.8-0.3-1.6-0.9-2.2c-0.6-0.6-1.4-0.9-2.2-0.9c0,0,0,0,0,0c-1.7,0-3.1,1.4-3.1,3.1l0,0.5L348.5,1784.7z"/>
	</g>
	<g>
		<path class="st8" d="M778.4,1676.8l0-0.5c0-1.1,0.4-2.1,1.2-2.9c0.8-0.8,1.8-1.2,2.9-1.2c0,0,0,0,0,0c2.3,0,4.1,1.8,4.1,4.1l-1,0
			c0-1.7-1.4-3.1-3.1-3.1c0,0,0,0,0,0c-0.8,0-1.6,0.3-2.2,0.9c-0.6,0.6-0.9,1.4-0.9,2.2l0,0.5L778.4,1676.8z"/>
	</g>
	<g>
		<path class="st8" d="M784.9,1674l0-0.5c0-1.1,0.4-2.1,1.2-2.9c0.8-0.8,1.8-1.2,2.9-1.2c0,0,0,0,0,0c2.3,0,4.1,1.8,4.1,4.1l-1,0
			c0-0.8-0.3-1.6-0.9-2.2c-0.6-0.6-1.4-0.9-2.2-0.9c-0.8,0-1.6,0.3-2.2,0.9c-0.6,0.6-0.9,1.4-0.9,2.2l0,0.5L784.9,1674z"/>
	</g>
	<g>
		<path class="st8" d="M1066.1,1684.5l0-0.5c0-2.3,1.8-4.1,4.1-4.1c0,0,0,0,0,0c1.1,0,2.1,0.4,2.9,1.2c0.8,0.8,1.2,1.8,1.2,2.9l-1,0
			c0-0.8-0.3-1.6-0.9-2.2c-0.6-0.6-1.4-0.9-2.2-0.9c0,0,0,0,0,0c-1.7,0-3.1,1.4-3.1,3.1l0,0.5L1066.1,1684.5z"/>
	</g>
	<g>
		<path class="st8" d="M1072.6,1681.6l0-0.5c0-2.3,1.8-4.1,4.1-4.1c0,0,0,0,0,0c2.3,0,4.1,1.9,4.1,4.1l-1,0c0-1.7-1.4-3.1-3.1-3.1
			c0,0,0,0,0,0c-1.7,0-3.1,1.4-3.1,3.1l0,0.5L1072.6,1681.6z"/>
	</g>
	<g>
		<path class="st8" d="M570.4,1658.5l-1,0l0-0.5c0-1.7-1.4-3.1-3.1-3.1c0,0,0,0,0,0c-1.7,0-3.1,1.4-3.1,3.1l-1,0
			c0-2.3,1.9-4.1,4.1-4.1c0,0,0,0,0,0c2.3,0,4.1,1.9,4.1,4.1L570.4,1658.5z"/>
	</g>
	<g>
		<path class="st8" d="M563.5,1656.4l-1,0l0-0.5c0-1.7-1.4-3.1-3.1-3.1c0,0,0,0,0,0c-1.7,0-3.1,1.4-3.1,3.1l-1,0
			c0-2.3,1.9-4.1,4.1-4.1c0,0,0,0,0,0c2.3,0,4.1,1.9,4.1,4.1L563.5,1656.4z"/>
	</g>
	<g>
		<path class="st8" d="M641.3,1640.4l0-0.5c0-1.1,0.4-2.1,1.2-2.9c0.8-0.8,1.8-1.2,2.9-1.2c1.1,0,2.1,0.4,2.9,1.2
			c0.8,0.8,1.2,1.8,1.2,2.9l-1,0c0-0.8-0.3-1.6-0.9-2.2c-0.6-0.6-1.4-0.9-2.2-0.9c0,0,0,0,0,0c-0.8,0-1.6,0.3-2.2,0.9
			c-0.6,0.6-0.9,1.4-0.9,2.2l0,0.5L641.3,1640.4z"/>
	</g>
	<g>
		<path class="st8" d="M45.7,1745.4l0-0.5c0-2.3,1.8-4.1,4.1-4.1c1.1,0,2.1,0.4,2.9,1.2c0.8,0.8,1.2,1.8,1.2,2.9l-1,0
			c0-0.8-0.3-1.6-0.9-2.2c-0.6-0.6-1.4-0.9-2.2-0.9c0,0,0,0,0,0c-1.7,0-3.1,1.4-3.1,3.1l0,0.5L45.7,1745.4z"/>
	</g>
	<g>
		<path class="st8" d="M52,1748.3l0-0.5c0-2.3,1.8-4.1,4.1-4.1c0,0,0,0,0,0c2.3,0,4.1,1.9,4.1,4.1l-1,0c0-1.7-1.4-3.1-3.1-3.1
			c0,0,0,0,0,0c-1.7,0-3.1,1.4-3.1,3.1l0,0.5L52,1748.3z"/>
	</g>
	<g>
		<path class="st8" d="M662.5,1638.3l0-0.5c0-1.7-1.4-3.1-3.1-3.1c0,0,0,0,0,0c-0.8,0-1.6,0.3-2.2,0.9c-0.6,0.6-0.9,1.4-0.9,2.2
			l-1,0c0-0.8-0.3-1.6-0.9-2.2c-0.6-0.6-1.4-0.9-2.2-0.9c-1.7,0-3.1,1.4-3.1,3.1l-1,0c0-2.3,1.8-4.1,4.1-4.1c0,0,0,0,0,0
			c1.6,0,2.9,0.9,3.6,2.2c0.7-1.3,2.1-2.2,3.6-2.2c0,0,0,0,0,0c2.3,0,4.1,1.8,4.1,4.1l0,0.5L662.5,1638.3z"/>
	</g>
	<g>
		<path class="st8" d="M1043,1783.6l0-0.5c0-2.3,1.8-4.1,4.1-4.1c0,0,0,0,0,0c2.3,0,4.1,1.9,4.1,4.1l-1,0c0-1.7-1.4-3.1-3.1-3.1
			c0,0,0,0,0,0c-1.7,0-3.1,1.4-3.1,3.1l0,0.5L1043,1783.6z"/>
	</g>
	<g>
		<path class="st8" d="M1064.1,1781.5l0-0.5c0-0.8-0.3-1.6-0.9-2.2c-0.6-0.6-1.4-0.9-2.2-0.9c0,0,0,0,0,0c-1.7,0-3.1,1.4-3.1,3.1
			l-1,0c0-0.8-0.3-1.6-0.9-2.2c-0.6-0.6-1.4-0.9-2.2-0.9c0,0,0,0,0,0c-0.8,0-1.6,0.3-2.2,0.9c-0.6,0.6-0.9,1.4-0.9,2.2l-1,0
			c0-1.1,0.4-2.1,1.2-2.9c0.8-0.8,1.8-1.2,2.9-1.2c0,0,0,0,0,0c1.6,0,2.9,0.9,3.6,2.2c0.7-1.3,2.1-2.2,3.6-2.2c0,0,0,0,0,0
			c1.1,0,2.1,0.4,2.9,1.2c0.8,0.8,1.2,1.8,1.2,2.9l0,0.5L1064.1,1781.5z"/>
	</g>
	<g>
		<g>
			<rect x="441.2" y="1686.2" class="st6" width="4" height="129.9"/>
		</g>
		<g>
			<path class="st7" d="M443.2,1786.8c0,0-31.9,0.3-31.9-38.3c0-31.3,31.9-101.8,31.9-101.8s31.9,70.5,31.9,101.8
				C475.1,1787.1,443.2,1786.8,443.2,1786.8z"/>
		</g>
		<g>
			<path class="st8" d="M443.2,1646.6v140.2c0,0,31.9,0.3,31.9-38.3C475.1,1717.2,443.2,1646.6,443.2,1646.6z"/>
		</g>
	</g>
	<g>
		<path class="st13" d="M791.4,304.7h-217v-48.7h217V304.7z M576.3,302.7h213v-44.7h-213V302.7z"/>
	</g>
	<g>
		<g>
			<g>
				<g>
					<g>
						<g>
							<g>
								<path class="st13" d="M612.7,276h1.3c1.2,0,2,0.5,2,1.9c0,1.5-1.2,2-2.4,2h-1V276z M611,286.2h1.7v-4.9h0.9
									c1.6,0,1.8,0.7,2.3,2.4l0.7,2.5h1.5l-0.7-3.2c-0.2-1.2-0.4-2.2-2-2.5v0c1.2-0.3,2.3-0.9,2.3-2.7c0-2.2-1.6-3-3.4-3H611
									V286.2z"/>
							</g>
							<g>
								<path class="st13" d="M625.6,274.7h1.7v11.5h-1.7V274.7z"/>
							</g>
							<g>
								<path class="st13" d="M637.2,276h-2.9v-1.3h7.4v1.3h-2.9v10.1h-1.7V276z"/>
							</g>
							<g>
								<path class="st13" d="M648.7,274.7h1.7v11.5h-1.7V274.7z"/>
							</g>
							<g>
								<path class="st13" d="M677,276.2L677,276.2l1.6,5.3h-3.3L677,276.2z M672.1,286.2h1.8l1.1-3.3h4.1l1.1,3.3h1.8l-3.9-11.5h-2
									L672.1,286.2z"/>
							</g>
							<g>
								<path class="st13" d="M689.1,274.7h1.7v10.1h4.4v1.3h-6.1V274.7z"/>
							</g>
						</g>
						<g>
							<g>
								<path class="st13" d="M704.1,274.7h2.3l3.3,9.4h0l3.3-9.4h2.3v11.5h-1.5v-9.5h0l-3.3,9.5h-1.6l-3.3-9.5h0v9.5h-1.5V274.7z"
									/>
							</g>
							<g>
								<path class="st13" d="M727.3,276.2L727.3,276.2l1.6,5.3h-3.3L727.3,276.2z M722.4,286.2h1.8l1.1-3.3h4.1l1.1,3.3h1.8
									l-3.9-11.5h-2L722.4,286.2z"/>
							</g>
							<g>
								<path class="st13" d="M743.6,279.9c1.1,0.6,2.4,1.3,2.4,3.1c0,2.2-1.8,3.3-4.1,3.3c-1.4,0-2.6-0.3-2.9-0.4v-1.7
									c0.7,0.4,1.8,0.8,3,0.8c1.1,0,2.2-0.4,2.2-1.7c0-1.2-1-1.7-1.9-2.2l-1-0.6c-1.1-0.6-2.5-1.3-2.5-3c0-2,1.7-3,3.8-3
									c1.1,0,2.2,0.2,2.6,0.3v1.6c-0.2-0.1-1.5-0.6-2.7-0.6c-1.1,0-1.9,0.5-1.9,1.5c0,0.9,1,1.4,1.9,1.9L743.6,279.9z"/>
							</g>
							<g>
								<path class="st13" d="M757.6,279.9c1.1,0.6,2.4,1.3,2.4,3.1c0,2.2-1.8,3.3-4.1,3.3c-1.4,0-2.6-0.3-2.9-0.4v-1.7
									c0.7,0.4,1.8,0.8,3,0.8c1.1,0,2.2-0.4,2.2-1.7c0-1.2-1-1.7-1.9-2.2l-1-0.6c-1.1-0.6-2.5-1.3-2.5-3c0-2,1.7-3,3.8-3
									c1.1,0,2.2,0.2,2.6,0.3v1.6c-0.2-0.1-1.5-0.6-2.7-0.6c-1.1,0-1.9,0.5-1.9,1.5c0,0.9,1,1.4,1.9,1.9L757.6,279.9z"/>
							</g>
						</g>
					</g>
				</g>
			</g>
			<g>
				<path class="st13" d="M600.8,275.8c1.4,0,2.4,0.7,2.7,0.9v-1.5c-0.5-0.2-1.7-0.7-3-0.7c-2.5,0-4.5,1.5-4.6,5.9h0
					c0,4.4,2.1,5.9,4.6,5.9c1.3,0,2.5-0.5,3-0.7v-1.5c-0.3,0.2-1.3,0.9-2.7,0.9c-2.3,0-3-1.9-3.1-4.6h0
					C597.8,277.7,598.5,275.8,600.8,275.8z"/>
			</g>
			<g>
				<path class="st13" d="M663.1,275.8c1.4,0,2.4,0.7,2.7,0.9v-1.5c-0.5-0.2-1.7-0.7-3-0.7c-2.5,0-4.5,1.5-4.6,5.9h0
					c0,4.4,2.1,5.9,4.6,5.9c1.3,0,2.5-0.5,3-0.7v-1.5c-0.3,0.2-1.3,0.9-2.7,0.9c-2.3,0-3-1.9-3.1-4.6h0
					C660.1,277.7,660.8,275.8,663.1,275.8z"/>
			</g>
		</g>
	</g>
	<g>
		<rect x="975.6" y="1591.6" class="st1" width="25.9" height="7.5"/>
	</g>
	<g>
		<path class="st13" d="M605.2,235.2c-1,0-1.8-0.3-2.4-1c-0.6-0.7-0.9-1.5-0.9-2.6v-0.2c0-0.7,0.1-1.4,0.4-2c0.3-0.6,0.7-1,1.2-1.4
			c0.5-0.3,1-0.5,1.6-0.5c1,0,1.7,0.3,2.2,1s0.8,1.5,0.8,2.7v0.5h-5c0,0.7,0.2,1.3,0.6,1.8c0.4,0.4,0.9,0.7,1.6,0.7
			c0.4,0,0.8-0.1,1.1-0.3s0.6-0.4,0.8-0.7l0.8,0.6C607.3,234.8,606.4,235.2,605.2,235.2z M605,228.6c-0.5,0-0.9,0.2-1.3,0.6
			c-0.3,0.4-0.6,0.9-0.6,1.6h3.7v-0.1c0-0.6-0.2-1.1-0.5-1.5C605.9,228.8,605.5,228.6,605,228.6z"/>
		<path class="st13" d="M612.8,230.4l1.6-2.7h1.5l-2.4,3.7l2.5,3.7h-1.5l-1.7-2.8l-1.7,2.8h-1.5l2.5-3.7l-2.4-3.7h1.5L612.8,230.4z"
			/>
		<path class="st13" d="M624.4,231.5c0,1.1-0.3,2-0.8,2.7c-0.5,0.7-1.2,1-2.1,1c-0.9,0-1.6-0.3-2.1-0.9v3.6h-1.3v-10.2h1.2l0.1,0.8
			c0.5-0.6,1.2-1,2.1-1c0.9,0,1.6,0.3,2.1,1c0.5,0.7,0.8,1.6,0.8,2.8V231.5z M623.1,231.3c0-0.8-0.2-1.5-0.5-2s-0.8-0.7-1.5-0.7
			c-0.8,0-1.3,0.3-1.7,1v3.5c0.4,0.7,1,1,1.7,1c0.6,0,1.1-0.2,1.4-0.7C622.9,233,623.1,232.3,623.1,231.3z"/>
		<path class="st13" d="M629.9,235.2c-1,0-1.8-0.3-2.4-1c-0.6-0.7-0.9-1.5-0.9-2.6v-0.2c0-0.7,0.1-1.4,0.4-2c0.3-0.6,0.7-1,1.2-1.4
			c0.5-0.3,1-0.5,1.6-0.5c1,0,1.7,0.3,2.2,1s0.8,1.5,0.8,2.7v0.5h-5c0,0.7,0.2,1.3,0.6,1.8c0.4,0.4,0.9,0.7,1.6,0.7
			c0.4,0,0.8-0.1,1.1-0.3c0.3-0.2,0.6-0.4,0.8-0.7l0.8,0.6C632.1,234.8,631.1,235.2,629.9,235.2z M629.7,228.6
			c-0.5,0-0.9,0.2-1.3,0.6c-0.3,0.4-0.6,0.9-0.6,1.6h3.7v-0.1c0-0.6-0.2-1.1-0.5-1.5C630.7,228.8,630.3,228.6,629.7,228.6z"/>
		<path class="st13" d="M638.6,228.8c-0.2,0-0.4,0-0.6,0c-0.8,0-1.4,0.4-1.7,1.1v5.2h-1.3v-7.4h1.2l0,0.9c0.4-0.7,1-1,1.8-1
			c0.2,0,0.4,0,0.6,0.1V228.8z"/>
		<path class="st13" d="M640.7,225.7c0-0.2,0.1-0.4,0.2-0.5c0.1-0.1,0.3-0.2,0.6-0.2s0.4,0.1,0.6,0.2c0.1,0.1,0.2,0.3,0.2,0.5
			s-0.1,0.4-0.2,0.5c-0.1,0.1-0.3,0.2-0.6,0.2s-0.4-0.1-0.6-0.2C640.7,226.1,640.7,225.9,640.7,225.7z M642,235.1h-1.3v-7.4h1.3
			V235.1z"/>
		<path class="st13" d="M648,235.2c-1,0-1.8-0.3-2.4-1c-0.6-0.7-0.9-1.5-0.9-2.6v-0.2c0-0.7,0.1-1.4,0.4-2c0.3-0.6,0.7-1,1.2-1.4
			c0.5-0.3,1-0.5,1.6-0.5c1,0,1.7,0.3,2.2,1s0.8,1.5,0.8,2.7v0.5h-5c0,0.7,0.2,1.3,0.6,1.8c0.4,0.4,0.9,0.7,1.6,0.7
			c0.4,0,0.8-0.1,1.1-0.3c0.3-0.2,0.6-0.4,0.8-0.7l0.8,0.6C650.1,234.8,649.2,235.2,648,235.2z M647.8,228.6c-0.5,0-0.9,0.2-1.3,0.6
			c-0.3,0.4-0.6,0.9-0.6,1.6h3.7v-0.1c0-0.6-0.2-1.1-0.5-1.5C648.7,228.8,648.3,228.6,647.8,228.6z"/>
		<path class="st13" d="M654.3,227.7l0,0.9c0.6-0.7,1.3-1.1,2.2-1.1c1.6,0,2.4,0.9,2.4,2.6v4.9h-1.3v-4.9c0-0.5-0.1-0.9-0.4-1.2
			s-0.6-0.4-1.1-0.4c-0.4,0-0.8,0.1-1.1,0.3c-0.3,0.2-0.6,0.5-0.7,0.9v5.3h-1.3v-7.4H654.3z"/>
		<path class="st13" d="M664.7,234.2c0.5,0,0.8-0.1,1.2-0.4c0.3-0.3,0.5-0.6,0.6-1h1.2c0,0.4-0.2,0.8-0.4,1.2
			c-0.3,0.4-0.6,0.7-1.1,0.9c-0.4,0.2-0.9,0.3-1.4,0.3c-1,0-1.8-0.3-2.4-1c-0.6-0.7-0.9-1.6-0.9-2.8v-0.2c0-0.7,0.1-1.4,0.4-1.9
			c0.3-0.6,0.6-1,1.1-1.3c0.5-0.3,1.1-0.5,1.8-0.5c0.8,0,1.5,0.2,2.1,0.7c0.5,0.5,0.8,1.1,0.9,1.9h-1.2c0-0.5-0.2-0.9-0.5-1.2
			c-0.3-0.3-0.7-0.5-1.2-0.5c-0.6,0-1.1,0.2-1.5,0.7c-0.4,0.5-0.5,1.1-0.5,2v0.2c0,0.9,0.2,1.5,0.5,2
			C663.5,234,664,234.2,664.7,234.2z"/>
		<path class="st13" d="M672.9,235.2c-1,0-1.8-0.3-2.4-1c-0.6-0.7-0.9-1.5-0.9-2.6v-0.2c0-0.7,0.1-1.4,0.4-2c0.3-0.6,0.7-1,1.2-1.4
			c0.5-0.3,1-0.5,1.6-0.5c1,0,1.7,0.3,2.2,1s0.8,1.5,0.8,2.7v0.5h-5c0,0.7,0.2,1.3,0.6,1.8c0.4,0.4,0.9,0.7,1.6,0.7
			c0.4,0,0.8-0.1,1.1-0.3c0.3-0.2,0.6-0.4,0.8-0.7l0.8,0.6C675.1,234.8,674.2,235.2,672.9,235.2z M672.8,228.6
			c-0.5,0-0.9,0.2-1.3,0.6c-0.3,0.4-0.6,0.9-0.6,1.6h3.7v-0.1c0-0.6-0.2-1.1-0.5-1.5C673.7,228.8,673.3,228.6,672.8,228.6z"/>
		<path class="st13" d="M682.1,231.3c0-1.1,0.3-2,0.8-2.7c0.5-0.7,1.2-1,2.1-1c0.9,0,1.6,0.3,2.1,0.9v-3.9h1.3v10.5h-1.2l-0.1-0.8
			c-0.5,0.6-1.2,0.9-2.1,0.9c-0.9,0-1.6-0.4-2.1-1.1S682.1,232.6,682.1,231.3L682.1,231.3z M683.4,231.5c0,0.8,0.2,1.5,0.5,2
			c0.3,0.5,0.8,0.7,1.4,0.7c0.8,0,1.4-0.4,1.8-1.1v-3.4c-0.4-0.7-1-1-1.7-1c-0.6,0-1.1,0.2-1.4,0.7
			C683.6,229.8,683.4,230.5,683.4,231.5z"/>
		<path class="st13" d="M694.2,235.2c-1,0-1.8-0.3-2.4-1c-0.6-0.7-0.9-1.5-0.9-2.6v-0.2c0-0.7,0.1-1.4,0.4-2c0.3-0.6,0.7-1,1.2-1.4
			c0.5-0.3,1-0.5,1.6-0.5c1,0,1.7,0.3,2.2,1s0.8,1.5,0.8,2.7v0.5h-5c0,0.7,0.2,1.3,0.6,1.8c0.4,0.4,0.9,0.7,1.6,0.7
			c0.4,0,0.8-0.1,1.1-0.3c0.3-0.2,0.6-0.4,0.8-0.7l0.8,0.6C696.4,234.8,695.5,235.2,694.2,235.2z M694.1,228.6
			c-0.5,0-0.9,0.2-1.3,0.6c-0.3,0.4-0.6,0.9-0.6,1.6h3.7v-0.1c0-0.6-0.2-1.1-0.5-1.5C695,228.8,694.6,228.6,694.1,228.6z"/>
		<path class="st13" d="M703.7,233.1c0-0.3-0.1-0.6-0.4-0.8c-0.3-0.2-0.7-0.4-1.3-0.5c-0.6-0.1-1.1-0.3-1.5-0.5
			c-0.4-0.2-0.7-0.4-0.8-0.7c-0.2-0.3-0.3-0.6-0.3-0.9c0-0.6,0.3-1.1,0.8-1.5c0.5-0.4,1.2-0.6,2-0.6c0.8,0,1.5,0.2,2,0.6
			c0.5,0.4,0.8,1,0.8,1.7h-1.3c0-0.3-0.1-0.6-0.4-0.9c-0.3-0.3-0.7-0.4-1.1-0.4c-0.5,0-0.8,0.1-1.1,0.3s-0.4,0.5-0.4,0.8
			c0,0.3,0.1,0.5,0.4,0.7s0.7,0.3,1.3,0.4c0.6,0.1,1.1,0.3,1.5,0.5s0.7,0.4,0.9,0.7c0.2,0.3,0.3,0.6,0.3,1c0,0.7-0.3,1.2-0.8,1.6
			c-0.5,0.4-1.2,0.6-2.1,0.6c-0.6,0-1.1-0.1-1.6-0.3s-0.8-0.5-1.1-0.9c-0.3-0.4-0.4-0.8-0.4-1.2h1.3c0,0.4,0.2,0.8,0.5,1
			c0.3,0.2,0.7,0.4,1.3,0.4c0.5,0,0.9-0.1,1.2-0.3C703.6,233.7,703.7,233.5,703.7,233.1z"/>
		<path class="st13" d="M707.5,225.7c0-0.2,0.1-0.4,0.2-0.5c0.1-0.1,0.3-0.2,0.6-0.2s0.4,0.1,0.6,0.2s0.2,0.3,0.2,0.5
			s-0.1,0.4-0.2,0.5c-0.1,0.1-0.3,0.2-0.6,0.2s-0.4-0.1-0.6-0.2C707.6,226.1,707.5,225.9,707.5,225.7z M708.9,235.1h-1.3v-7.4h1.3
			V235.1z"/>
		<path class="st13" d="M711.4,231.3c0-1.2,0.3-2.1,0.8-2.8c0.5-0.7,1.2-1,2.1-1c0.9,0,1.6,0.3,2.1,1l0.1-0.8h1.2v7.2
			c0,1-0.3,1.7-0.9,2.3c-0.6,0.6-1.3,0.8-2.3,0.8c-0.5,0-1.1-0.1-1.6-0.3s-0.9-0.5-1.2-0.9l0.7-0.8c0.5,0.7,1.2,1,2,1
			c0.6,0,1.1-0.2,1.4-0.5c0.3-0.3,0.5-0.8,0.5-1.5v-0.6c-0.5,0.6-1.2,0.9-2.1,0.9c-0.9,0-1.6-0.3-2.1-1
			C711.7,233.5,711.4,232.5,711.4,231.3z M712.7,231.5c0,0.8,0.2,1.5,0.5,2c0.3,0.5,0.8,0.7,1.4,0.7c0.8,0,1.4-0.4,1.8-1.1v-3.4
			c-0.4-0.7-1-1.1-1.7-1.1c-0.6,0-1.1,0.2-1.4,0.7S712.7,230.5,712.7,231.5z"/>
		<path class="st13" d="M721.6,227.7l0,0.9c0.6-0.7,1.3-1.1,2.2-1.1c1.6,0,2.4,0.9,2.4,2.6v4.9H725v-4.9c0-0.5-0.1-0.9-0.4-1.2
			c-0.2-0.3-0.6-0.4-1.1-0.4c-0.4,0-0.8,0.1-1.1,0.3s-0.6,0.5-0.7,0.9v5.3h-1.3v-7.4H721.6z"/>
		<path class="st13" d="M732.1,235.2c-1,0-1.8-0.3-2.4-1c-0.6-0.7-0.9-1.5-0.9-2.6v-0.2c0-0.7,0.1-1.4,0.4-2c0.3-0.6,0.7-1,1.2-1.4
			c0.5-0.3,1-0.5,1.6-0.5c1,0,1.7,0.3,2.2,1s0.8,1.5,0.8,2.7v0.5h-5c0,0.7,0.2,1.3,0.6,1.8c0.4,0.4,0.9,0.7,1.6,0.7
			c0.4,0,0.8-0.1,1.1-0.3s0.6-0.4,0.8-0.7l0.8,0.6C734.2,234.8,733.3,235.2,732.1,235.2z M731.9,228.6c-0.5,0-0.9,0.2-1.3,0.6
			c-0.3,0.4-0.6,0.9-0.6,1.6h3.7v-0.1c0-0.6-0.2-1.1-0.5-1.5C732.8,228.8,732.4,228.6,731.9,228.6z"/>
		<path class="st13" d="M736.9,231.3c0-1.1,0.3-2,0.8-2.7c0.5-0.7,1.2-1,2.1-1c0.9,0,1.6,0.3,2.1,0.9v-3.9h1.3v10.5H742l-0.1-0.8
			c-0.5,0.6-1.2,0.9-2.1,0.9c-0.9,0-1.6-0.4-2.1-1.1C737.2,233.5,736.9,232.6,736.9,231.3L736.9,231.3z M738.2,231.5
			c0,0.8,0.2,1.5,0.5,2s0.8,0.7,1.4,0.7c0.8,0,1.4-0.4,1.8-1.1v-3.4c-0.4-0.7-1-1-1.7-1c-0.6,0-1.1,0.2-1.4,0.7
			S738.2,230.5,738.2,231.5z"/>
		<path class="st13" d="M756.5,231.5c0,1.1-0.3,2-0.8,2.7c-0.5,0.7-1.2,1-2.1,1c-0.9,0-1.7-0.3-2.2-1l-0.1,0.9h-1.2v-10.5h1.3v3.9
			c0.5-0.6,1.2-1,2.1-1s1.6,0.3,2.1,1c0.5,0.7,0.8,1.6,0.8,2.8V231.5z M755.3,231.3c0-0.9-0.2-1.5-0.5-2s-0.8-0.7-1.4-0.7
			c-0.8,0-1.4,0.4-1.8,1.2v3.2c0.4,0.8,1,1.2,1.8,1.2c0.6,0,1.1-0.2,1.4-0.7S755.3,232.3,755.3,231.3z"/>
		<path class="st13" d="M761.3,233.2l1.7-5.5h1.4l-3,8.5c-0.5,1.2-1.2,1.8-2.2,1.8l-0.2,0l-0.5-0.1v-1l0.3,0c0.4,0,0.8-0.1,1-0.3
			c0.2-0.2,0.4-0.5,0.6-1l0.3-0.8l-2.6-7.3h1.4L761.3,233.2z"/>
	</g>
</g>
<g id="Layer_8">
	<g>
		<path class="st13" d="M1253.7,1216.3c0.3,0,0.6,0,0.8,0.1c1.1-2,3.3-3.3,5.7-3.3c0.5,0,1,0.1,1.5,0.2c0.5-6.1,5.6-10.8,11.8-10.8
			c0.1,0,0.1,0,0.2,0c2.4-7.2,9.1-12.4,17.1-12.4c10,0,18.1,8.1,18.1,18.1c0,0.9-0.1,1.8-0.2,2.7c0.3,0,0.5,0,0.8,0
			c4.8,0,8.8,3.9,8.8,8.8s-3.9,8.8-8.8,8.8l-55.8-2.1c-2.7,0-4.9-2.2-4.9-4.9S1251,1216.3,1253.7,1216.3z"/>
	</g>
</g>
<g id="Layer_7">
	<g>
		<path class="st13" d="M1073.9,1287.6c1.3,0,2.6,0.2,3.9,0.5c1.3-11.7,11.2-20.8,23.2-20.8c2.3,0,4.5,0.3,6.6,1
			c1.2-5.7,6.3-9.9,12.3-9.9c1.8,0,3.5,0.4,5.1,1.1c5.1-5.2,12.2-8.4,20.1-8.4c15.6,0,28.3,12.7,28.3,28.3c0,2.8-0.4,5.5-1.2,8
			c0.4,0,0.8-0.1,1.2-0.1c8,0,14.4,6.4,14.4,14.4c0,8-6.4,14.4-14.4,14.4v0.2h-99.4v-0.4c-7.8,0-14.1-6.3-14.1-14.1
			C1059.8,1293.9,1066.1,1287.6,1073.9,1287.6z"/>
	</g>
</g>
<g id="Layer_6">
	<g>
		<path class="st13" d="M944,1196.2c-1.6,0-3.1,0.4-4.4,1.1c0.4-1.3,0.7-2.6,0.7-4c0-6.9-5.6-12.5-12.5-12.5c-0.2,0-0.5,0-0.7,0
			c0-0.1,0-0.2,0-0.2c0-10.9-8.8-19.8-19.8-19.8c-8.7,0-16,5.6-18.7,13.4c-1.1-0.3-2.2-0.4-3.4-0.4c-5.6,0-10.4,3.3-12.5,8.1
			c-0.4,0-0.8-0.1-1.2-0.1c-5.6,0-10.4,4-11.4,9.3c-1.9-1.5-4.2-2.4-6.8-2.4c-6,0-10.9,4.9-10.9,10.9c0,0.2,0,0.4,0,0.6
			c-0.7-0.4-1.6-0.6-2.4-0.6c-3,0-5.4,2.4-5.5,5.3c-0.8-0.4-1.7-0.7-2.7-0.7c-3.1,0-5.5,2.5-5.5,5.5c0,3.1,2.5,5.5,5.5,5.5H944
			c5.3,0,9.6-4.3,9.6-9.6S949.3,1196.2,944,1196.2z"/>
	</g>
</g>
<g id="Layer_5">
	<g>
		<path class="st13" d="M462.7,1355.7c-0.5,0-0.9,0.1-1.4,0.2c-0.5-4.2-4-7.5-8.3-7.5c-0.8,0-1.6,0.1-2.4,0.3
			c-0.4-2-2.3-3.6-4.4-3.6c-0.6,0-1.3,0.1-1.8,0.4c-1.8-1.9-4.4-3-7.2-3c-5.6,0-10.1,4.5-10.1,10.1c0,1,0.1,2,0.4,2.9
			c-0.1,0-0.3,0-0.4,0c-2.9,0-5.2,2.3-5.2,5.2c0,2.9,2.3,5.2,5.2,5.2v0.1h35.7v-0.2c2.8,0,5.1-2.3,5.1-5.1
			C467.8,1357.9,465.5,1355.7,462.7,1355.7z"/>
	</g>
</g>
<g id="Layer_4">
	<g>
		<path class="st13" d="M616.7,1156.9c-0.9,0-1.7,0.1-2.5,0.4c0.4-1.2,0.7-2.5,0.7-3.8c0-6.2-5.1-11.3-11.3-11.3
			c-0.9,0-1.8,0.1-2.7,0.3c0-0.1,0-0.3,0-0.4c0-11.1-9-20.2-20.2-20.2c-0.7,0-1.3,0-2,0.1c0.2-1.4,0.3-2.9,0.3-4.4
			c0-17.4-14.1-31.6-31.6-31.6c-17.4,0-31.6,14.1-31.6,31.6c0,1.4,0.1,2.7,0.3,4.1c-3.6-2.2-7.8-3.5-12.4-3.5
			c-13.2,0-23.9,10.7-23.9,23.9c0,2.6,0.4,5.2,1.2,7.6c-1.1-0.3-2.3-0.5-3.5-0.5c-6.5,0-11.8,5.3-11.8,11.8
			c0,6.5,5.3,11.8,11.8,11.8h139.1c4.4,0,8-3.6,8-8C624.7,1160.5,621.1,1156.9,616.7,1156.9z"/>
	</g>
</g>
<g id="Layer_3">
	<g>
		<path class="st13" d="M129.7,1339.3c-0.8,0-1.6,0.1-2.4,0.3c0.8-1.8,1.2-3.8,1.2-6c0-8.5-6.9-15.3-15.3-15.3c-2,0-3.8,0.4-5.5,1
			c-1-4-4.5-7-8.9-7c-2.1,0-4,0.7-5.6,1.8c-4.5-4.2-10.5-6.8-17.1-6.8c-13.8,0-25.1,11.2-25.1,25.1c0,0.8,0,1.6,0.1,2.4
			c-4.6,1.3-7.9,5.6-7.9,10.6c0,6.1,4.9,11,11,11c0.2,0,0.4,0,0.7,0l-0.7,0.7h17.4c1.4,0.3,2.9,0.4,4.4,0.4s3-0.1,4.4-0.4h49.3
			c4.9,0,8.9-4,8.9-8.9C138.6,1343.3,134.7,1339.3,129.7,1339.3z"/>
	</g>
</g>
<g id="Layer_2">
	<g>
		<path class="st13" d="M353.8,1227.3c-0.7,0-1.4,0.1-2.1,0.2c-2.9-5.1-8.3-8.5-14.5-8.5c-1.3,0-2.5,0.2-3.7,0.4
			c-1.4-15.4-14.3-27.4-30-27.4c-0.2,0-0.4,0-0.6,0c-6.1-18.3-23.2-31.4-43.5-31.4c-25.3,0-45.9,20.5-45.9,45.9
			c0,2.4,0.2,4.7,0.6,6.9c-0.6-0.1-1.3-0.1-2-0.1c-12.3,0-22.2,10-22.2,22.2c0,12.3,10,22.2,22.2,22.2l141.8-5.4
			c6.9,0,12.5-5.6,12.5-12.5C366.4,1232.9,360.8,1227.3,353.8,1227.3z"/>
	</g>
	<g id="Layer_4_1_">
		<g>
			<g>
				<g>
					<path class="st7" d="M541.4,1264.3c6-1.3,12.3-2.8,18.5-2.6c-1.2-1.6-2.3-3.1-3.5-4.6c-2.5,8.3-4,17.8-3.3,26.4
						c0.3,4.8,1.4,10.2,5.1,13.6c3.8,3.4,9.6,3.8,14,1.2c4.4-2.6,7-7.3,9-11.9c2.2-5.2,3.7-10.8,4.8-16.4c0.7-3.9,1.6-8,1.5-11.9
						c-0.1-5.2-8.1-11.6-13-8.1c-2,1.5-3.2,4.7-3.8,6.9c-0.9,3.2-0.9,7,1.6,9.6c2.8,2.8,7.5,2.9,11.3,3.2c4.5,0.3,9.1,0.4,13.6-0.5
						c-1.4-1.8-2.7-3.5-4.1-5.3c-3.1,5.7-5.2,11.4-6.1,17.8c-0.8,6.1-1.1,13.4,5.1,16.9c4.7,2.6,10.3,0.8,14.8-1.3
						c4.4-2.1,8.1-5.1,11.5-8.5c4.5-4.5,9.2-10.2,10.3-16.6c1.1-5.7-1.7-10.9-7.8-11.6c-12.2-1.6-18.4,13.5-16.5,23.4
						c2.4,12.1,14.4,17.2,25.7,15.7c6.2-0.9,11.1-3.7,15.6-8c2.7-2.5,5-5.3,7.5-8c2.1-2.3,4.3-4.8,5.7-7.7c3-6.4,0.2-14-7.2-15.1
						c-6.6-1.1-12.6,3.3-15.4,9.1c-2.7,5.5-3.8,12.6-1.5,18.4c2.3,5.7,7.2,10.3,13.4,11.3c18.2,2.7,26.2-17.3,27.5-32.2
						c0.1-1,0.1-1.9,0.1-2.9c-0.2-4.7-7.3-4.7-7.3,0c0,10.7-0.7,21.5-1,32.2c-0.1,4.7,7.1,4.7,7.3,0c0.2-5.9,0.6-11.8,2-17.5
						c0.5-2.3,1.4-4.5,2.3-6.6c0.7-1.7,1.6-3.9,3.3-4.9c0.8-0.5,1.6-0.5,2.5-0.4c-0.5,0,0.3,0.1,0.4,0.1c0.6,0.2-0.3-0.2,0.4,0.2
						c0.6,0.3,0.1,0,0.2,0.1c0.2,0.1,0.7,0.8,0.2,0.2c0.1,0.2,0.3,0.5,0.4,0.8c-0.3-0.7,0,0.1,0.1,0.4c0.1,0.3,0.1,0.6,0.2,0.9
						c0,0.1,0-0.3,0,0.4c0,0.8,0.1,1.6,0,2.4c0,1.7-0.2,3.5-0.4,5.3c-0.7,5.9-3.1,14.7,1.8,19.5c3,3,7.9,3.1,11.6,1.7
						c5.5-2,9.1-6.9,11.5-12c6.4-13.1,11.3-27.5,13.1-42c0.8-6.5,1.3-14.5-1.5-20.7c-2.1-5-7.8-6.1-11.4-1.8
						c-2.6,3.1-3.9,7-5.1,10.8c-2,6.3-3.1,12.9-3.7,19.4c-1,10.4-1.1,21.5,1.3,31.7c1,4.3,2.7,9,5.9,12.1c3.7,3.6,9.2,4.7,13.5,1.4
						c4.4-3.4,7-9.4,9.5-14.4c2.5-5.1,4.9-11.4,10.4-14c2.8-1.3,6-1.6,8.9-1c4.6,0.7,6.6-6.1,1.9-7c-15.4-3.1-28.4,10-27.2,25.2
						c0.3,3.4,1.1,6.9,3.4,9.6c2.6,3,6.8,3.7,10.5,2.8c3.4-0.9,7-3.1,9-6c1.5-2,2.2-4.6,3-7c1.8-5.9,2.6-12,4.2-18
						c-2.3-0.6-4.7-1.3-7-1.9c-1.5,5.8-2.6,11.8-3.5,17.7c-0.4,3-1,5.7,0.3,8.5c1.4,3.1,4.1,5.7,7.4,6.6c7.8,2.3,12-4.5,14.9-10.5
						c1.7-3.7,2.9-7.2,3.3-11.3c0.5-4,0.5-8.1,1.1-12.1c-2.4-0.3-4.8-0.6-7.1-1c0,10.7-0.5,21.4-0.3,32.1c0,3.9,6.4,5.1,7.1,1
						c1.4-7.8,1.9-16,4.9-23.3c0.6-1.5,2.5-6.2,5-5.5c1,0.2,0.7,1.7,0.7,2.6c0,2.7-0.2,5.3-0.4,8c-0.3,4.6-1.2,10,0.4,14.5
						c1.5,4.1,5.5,6.8,9.8,7c8.1,0.4,15.4-6.8,20.8-12c5.8-5.5,13.3-14.4,8.5-22.8c-2.2-3.7-6.6-5.5-10.8-4.6c-4.3,1-7.6,4.4-9.9,8
						c-4.4,6.7-5.9,16.7-0.6,23.3c4.9,6.2,13.7,8,21.3,7.3c9-0.8,17.5-4.8,22.4-12.5c4.3-6.7,7-16.3,4.2-24.1
						c-1.6-4.4-8.6-2.5-7,1.9c1.9,5.4,0.2,11.6-2.3,16.5c-3.1,5.8-8.1,9.1-14.4,10.4c-5.6,1.2-13,1-17.5-3.2
						c-4.8-4.4-2.6-12.4,0.9-17c1.4-1.8,4.9-5.4,7.1-3.1c2.3,2.3,0,6.3-1.4,8.3c-2.1,3.1-4.9,5.6-7.7,8.1c-2.5,2.2-5.1,4.5-8,6.3
						c-2.1,1.3-5.2,2.7-7.5,0.9c-1.3-1-1.4-2.6-1.4-4.1c0-2.2,0-4.4,0.2-6.5c0.4-6.3,3.2-17.9-5.1-20.3c-7.7-2.2-12.5,5.6-14.7,11.5
						c-2.6,7.2-3.2,14.8-4.6,22.3c2.4,0.3,4.8,0.6,7.1,1c-0.2-10.7,0.3-21.4,0.3-32.1c0-4-6.5-5.1-7.1-1c-1,6.4-0.2,13.5-2.8,19.6
						c-0.9,2.3-2.1,4.7-3.4,6.7c-1,1.6-2.2,3.2-4.3,2.5c-4.5-1.5-2.6-6.3-2-9.7c0.8-4.8,1.7-9.6,2.9-14.3c1.1-4.6-5.8-6.5-7-1.9
						c-1.4,5.2-2.2,10.6-3.5,15.8c-0.6,2.4-1.3,4.9-2.5,6.9c-0.2,0.4-0.2,0.4,0,0c-0.2,0.2-0.4,0.4-0.6,0.6c-0.6,0.5-1.3,1-2,1.5
						c-1.3,0.7-3,1.6-4.5,1.1c-2.4-0.7-2.7-4.6-2.7-6.6c0-3,0.4-6,1.8-8.7c3.1-6,9.5-9.7,16.3-8.3c0.6-2.3,1.3-4.7,1.9-7
						c-6.5-1.1-13.1,0-18.2,4.2c-4.5,3.6-6.9,9.1-9.4,14.2c-1.1,2.2-2.2,4.4-3.4,6.5c-1,1.8-2.5,5.2-4.7,6.1c-2.8,1.1-5-3-6-5.2
						c-3.2-7.5-3.2-16.4-3.1-24.4c0.1-10.6,1.3-21.8,5.4-31.7c0.6-1.4,1.4-3.1,2.2-4.1c0.1-0.1,0.2-0.2,0.3-0.3
						c0.3-0.3,0.4-0.3,0.1-0.1c0,0-1.1,0.1-1,0.1c-0.7,0.4,0-0.5-0.2,0.1c-0.1,0.3,0.6,2.2,0.7,2.7c1.3,6.2,0.7,12.8-0.4,18.9
						c-1.2,6.8-3.2,13.5-5.5,20c-2.2,6-4.5,12.4-7.8,17.9c-1.1,1.8-2.4,3.6-4.2,4.8c-1,0.6-2,1.1-3.2,1.3c-0.5,0-1,0-1.5,0
						c-0.6,0,0.1,0.1-0.7-0.1c-0.7-0.2-0.1,0,0,0c-0.2-0.1-0.5-0.3-0.7-0.4c0.7,0.4,0.1,0.1,0-0.1c0.5,0.8,0,0,0-0.1
						c-0.4-0.8,0.2,0.7-0.1-0.1c-0.1-0.3-0.1-0.6-0.2-0.9c0-0.1-0.2-1.1-0.1-0.3c0-0.3,0-0.7-0.1-1c-0.3-6.4,1.9-12.7,1.5-19.1
						c-0.3-3.6-1.5-7.2-4.8-9.2c-4.2-2.5-9.9-1.6-13.2,2c-3.5,3.6-5.5,9.5-6.6,14.3c-1.5,6.3-1.9,12.8-2.2,19.1c2.4,0,4.9,0,7.3,0
						c0.3-10.7,1-21.5,1-32.2c-2.4,0-4.9,0-7.3,0c0.2,4.3-0.6,7.6-1.9,12.1c-1.5,5-4,10.6-8.1,13.7c-5.3,3.9-13.1,2.9-16.4-3.5
						c-2-3.8-1.4-8.8,0.2-12.7c1.4-3.2,5.2-7.9,9.3-5.9c6.2,3.1-12.1,19.5-14.9,21.4c-5.8,3.9-15.6,4.5-21.2-0.2
						c-5.8-4.8-5.5-14.7-0.3-19.7c1.2-1.2,5.1-3.6,6.4-1.2c0.6,1.2-0.3,3.3-0.7,4.4c-0.9,2.3-2.3,4.5-3.9,6.5
						c-2.8,3.5-6.3,7-9.7,9.3c-2.9,1.9-6.7,4.2-10.2,4c-4.7-0.3-3.3-7-3-10.1c0.6-5.3,2.6-10.1,5.1-14.8c1.6-2.9-1-6-4.1-5.3
						c-2.9,0.5-5.9,0.5-8.8,0.4c-2.8-0.1-5.9-0.1-8.6-1c-0.1,0-0.6-0.4-0.3-0.2c0.2,0.3-0.1-0.3-0.1-0.6c0-0.2,0.2-1.4,0.4-2.1
						c0.3-0.9,0.4-1.3,0.8-2c0.1-0.3,0.4-0.6,0.5-1c0.4-0.9-0.1-0.1-0.8,0.3c-1.1,0.7-0.9,0-0.4,0.5c0.3,0.3,1,0.5,1.4,0.8
						c0.2,0.2,0.7,0.9,1,0.9c0.5,0.1-0.4-0.4,0-0.7c-0.2,0.1-0.1,2.6-0.1,2.9c-0.3,3.6-0.8,6.7-1.6,10.6c-0.9,4.3-2.1,8.6-3.8,12.6
						c-0.8,1.9-1.8,3.8-3,5.4c-0.7,1-2,2.3-3,2.9c-1,0.6-0.5,0.4-1.6,0.6c-0.7,0.1,0.3,0-0.4,0c-0.1,0-1.5,0-0.9,0
						c-1.1-0.1-1.2-0.2-1.7-0.5c-0.1-0.1-0.3-0.1-0.4-0.2c-0.5-0.3,0.4,0.3,0,0c-0.3-0.2-0.6-0.5-0.8-0.8c0.4,0.5-0.2-0.3-0.3-0.5
						c-0.2-0.3-0.4-0.7-0.6-1.1c-0.1-0.3-0.5-1.3-0.7-2.2c-0.5-1.9-0.6-3.3-0.7-5.4c-0.2-7.7,0.9-15.5,3.2-22.9
						c0.7-2.3-1.2-4.6-3.5-4.6c-6.8-0.1-13.8,1.5-20.4,2.9C534.9,1258.3,536.9,1265.3,541.4,1264.3L541.4,1264.3z"/>
				</g>
			</g>
			<g>
				<g>
					<path class="st7" d="M561.9,1237c0.5-1.5,0.5-3.1,0.6-4.6c0.2-3.5,0.1-7.5-1.1-10.9c-2-5.6-7.3-9.1-13.2-8.8
						c-6.7,0.3-11.6,4.4-15.9,9.2c-5.3,6.2-9.3,13.2-12.3,20.8c-4.2,10.7-6.1,22.4-4.5,33.8c1.6,11.2,8.2,21.5,20.2,22.9
						c20.5,2.6,25.9-23.1,25.7-38.4c0-4.7-7.3-4.7-7.3,0c0.1,6.5-0.5,13-2.7,19.2c-1.9,5.5-5.6,11.2-11.9,12.1
						c-9.3,1.3-14.9-7.1-16.6-15.1c-1.6-8.1-0.8-16.9,1.4-24.8c1.7-6.2,4.2-12.2,7.6-17.8c2.9-4.8,6.8-10.6,11.9-13.3
						c3.3-1.7,7.9-2.1,10.1,1.3c1.6,2.5,1.4,6.1,1.3,8.9c0,1.6,0,2.1-0.4,3.5C553.4,1239.5,560.4,1241.4,561.9,1237L561.9,1237z"/>
				</g>
			</g>
		</g>
	</g>
</g>
</svg>
