<?xml version="1.0" encoding="utf-8"?>
<!-- Generator: Adobe Illustrator 18.1.1, SVG Export Plug-In . SVG Version: 6.00 Build 0)  -->
<svg version="1.1" id="Layer_1" xmlns="http://www.w3.org/2000/svg" xmlns:xlink="http://www.w3.org/1999/xlink" x="0px" y="0px"
	 viewBox="0 0 465.7 76.4" style="enable-background:new 0 0 465.7 76.4;" xml:space="preserve">
<style type="text/css">
	.st0{fill:#58BD98;}
	.st1{fill:#FFFFFF;}
	.st2{fill:#F6899C;}
	.st3{fill:#1A9169;}
	.st4{fill:#2AD19D;}
	.st5{fill:#F46B83;}
	.st6{fill:#17916A;}
	.st7{fill:#AA4660;}
	.st8{fill:#3A5D87;}
	.st9{fill:#527EBB;}
	.st10{fill:#D82908;}
	.st11{fill:#E85749;}
	.st12{fill:#C6AF75;}
	.st13{fill:#A17644;}
	.st14{fill:#79E2BC;}
	.st15{fill:#34B188;}
	.st16{fill:#FCED5E;}
	.st17{fill:#FDE49C;}
	.st18{fill:#E2CC8A;}
	.st19{fill:#D9C081;}
	.st20{fill:#626366;}
	.st21{fill:#CC486A;}
	.st22{fill:#CE5B79;}
	.st23{fill:#939598;}
	.st24{fill:#626467;}
	.st25{fill:#E6D0B8;}
	.st26{fill:#EE6D83;}
	.st27{fill:#5ABABA;}
	.st28{fill:#DEDEDE;}
	.st29{fill:#D1D3D4;}
	.st30{fill:#16A457;}
	.st31{fill:#929496;}
	.st32{fill:#EE6B82;}
	.st33{fill:#F66981;}
	.st34{fill:#16D19B;}
	.st35{fill:#24A45A;}
	.st36{opacity:0.21;}
	.st37{fill:#231F20;}
	.st38{fill-rule:evenodd;clip-rule:evenodd;fill:#FFFFFF;}
	.st39{fill:#F16D83;}
	.st40{fill-rule:evenodd;clip-rule:evenodd;fill:#F56980;}
	.st41{fill:#CCCCCC;}
	.st42{fill:#F36D85;}
	.st43{fill:#F4A6B7;}
	.st44{fill:#CBCBCB;}
	.st45{fill:#F06E85;}
	.st46{fill:#909294;}
	.st47{fill:#F56980;}
	.st48{opacity:0.3;}
	.st49{fill:#E2F2EB;}
</style>
<g>
	<g>
		<path class="st5" d="M413.8,41.7H3.5c-1.9,0-3.5-1.6-3.5-3.5s1.6-3.5,3.5-3.5h410.3c1.9,0,3.5,1.6,3.5,3.5S415.8,41.7,413.8,41.7z
			"/>
	</g>
	<g>
		<circle class="st5" cx="427.6" cy="38.2" r="38.2"/>
	</g>
	<g>
		<circle class="st2" cx="427.6" cy="38.2" r="29.5"/>
	</g>
	<g>
		<path class="st5" d="M396.7,2.7"/>
	</g>
	<g>
		<path class="st33" d="M392.4,23.5c-3.3,7.5-7.8,11.2-16.7,11.2c-0.4,0.8,1.7,1.2,1.7,2.2c0,1.6-3.5,4.8,0.1,4.8
			c5.3,0,11.5,2.4,14.2,9.2C393.3,55,394.3,19.2,392.4,23.5z"/>
	</g>
</g>
</svg>
