<?xml version="1.0" encoding="utf-8"?>
<!-- Generator: Adobe Illustrator 18.1.1, SVG Export Plug-In . SVG Version: 6.00 Build 0)  -->
<svg version="1.1" xmlns="http://www.w3.org/2000/svg" xmlns:xlink="http://www.w3.org/1999/xlink" x="0px" y="0px"
	 viewBox="0 0 478 122.7" enable-background="new 0 0 478 122.7" xml:space="preserve">
<g id="Layer_1">
</g>
<g id="Layer_5">
</g>
<g id="logo_2_outline">
</g>
<g id="Layer_4">
	<g>
		<path fill="#7C7E82" d="M425.4,78.5v-10h3.5c1.2,0,2.1,0.2,2.8,0.7c0.6,0.5,0.9,1.1,0.9,2c0,0.5-0.1,0.9-0.4,1.3
			c-0.3,0.4-0.6,0.6-1.1,0.8c0.5,0.1,0.9,0.4,1.2,0.8c0.3,0.4,0.4,0.9,0.4,1.4c0,1-0.3,1.7-0.9,2.2s-1.5,0.7-2.6,0.8H425.4z
			 M427.5,72.7h1.5c1,0,1.6-0.4,1.6-1.2c0-0.5-0.1-0.8-0.4-1c-0.3-0.2-0.7-0.3-1.3-0.3h-1.4V72.7z M427.5,74.1v2.7h1.8
			c0.5,0,0.9-0.1,1.1-0.3c0.3-0.2,0.4-0.6,0.4-1c0-0.9-0.5-1.4-1.4-1.4H427.5z"/>
		<path fill="#7C7E82" d="M441.5,74.1h-4v2.7h4.7v1.7h-6.7v-10h6.7v1.7h-4.6v2.4h4V74.1z"/>
		<path fill="#7C7E82" d="M452.3,70.1h-3.1v8.4h-2.1v-8.4h-3v-1.7h8.2V70.1z"/>
		<path fill="#7C7E82" d="M459.6,76.4H456l-0.7,2.1h-2.2l3.7-10h1.9l3.8,10h-2.2L459.6,76.4z M456.5,74.8h2.5l-1.3-3.8L456.5,74.8z"
			/>
	</g>
	<path fill="none" stroke="#7C7E82" stroke-width="1.5" stroke-miterlimit="10" d="M463.6,62.2h-40.3c-4.8,0-8.8,3.9-8.8,8.8v5.2
		c0,4.8,3.9,8.8,8.8,8.8h40.3c4.8,0,8.8-3.9,8.8-8.8v-5.2C472.4,66.1,468.4,62.2,463.6,62.2z"/>
	<g>
		<g>
			<path fill="#37CF9D" d="M414.8,109.2c-13.3,2.9-25.5,0-30.6-5.9c-5.4-6.4-3.3-16.1,1.1-22c1.7-2.3,6.2-7,9.2-4
				c3,3,0,8.1-1.8,10.8c-2.7,3.9-6.3,7.3-9.9,10.5c-3.3,2.9-6.6,5.9-10.4,8.1c-2.7,1.6-6.7,3.4-9.7,1.1c-1.7-1.3-1.8-3.3-1.8-5.3
				c-0.1-2.8,0.1-5.6,0.2-8.5c0.5-8.1,4.1-23.2-6.7-26.3c-9.9-2.8-16.1,7.2-18.9,14.9c-3.3,9.3-4.2,19.2-5.9,28.9
				c3.1,0.4,6.2,0.8,9.2,1.3c-0.2-13.8,0.4-27.6,0.4-41.5c0-5.1-8.4-6.6-9.2-1.3c-1.3,8.3-0.3,17.5-3.6,25.3c-1.2,3-2.7,6-4.4,8.7
				c-1.3,2.1-2.9,4.1-5.5,3.2c-5.8-1.9-3.4-8.1-2.6-12.5c1.1-6.2,2.2-12.3,3.7-18.4c1.5-5.9-7.5-8.4-9.1-2.5
				c-1.8,6.8-2.8,13.7-4.6,20.4c-0.8,3.1-1.6,6.3-3.2,8.9c-0.3,0.5-0.3,0.5,0,0.1c-0.3,0.3-0.5,0.6-0.8,0.8
				c-0.8,0.7-1.6,1.3-2.6,1.9c-1.6,0.9-3.9,2-5.8,1.4c-3.1-0.9-3.5-5.9-3.5-8.6c-0.1-3.9,0.5-7.8,2.3-11.2c4-7.7,12.3-12.5,21-10.7
				c0.8-3,1.7-6,2.5-9.1c-8.3-1.4-16.9-0.1-23.6,5.4c-5.7,4.7-8.9,11.8-12.1,18.3c-1.4,2.9-2.9,5.7-4.5,8.5c-1.3,2.4-3.3,6.8-6,7.9
				c-3.6,1.4-6.5-3.9-7.7-6.7c-4.1-9.7-4.1-21.2-4-31.6c0.2-13.8,1.6-28.2,7-41c0.8-1.8,1.8-4,2.9-5.3c0.1-0.1,0.2-0.2,0.3-0.4
				c0.4-0.4,0.5-0.4,0.1-0.1c0.1,0-1.4,0.2-1.3,0.2c-0.9,0.5,0.1-0.6-0.3,0.1c-0.2,0.4,0.8,2.9,0.9,3.4c1.7,8,0.9,16.5-0.5,24.4
				c-1.6,8.8-4,17.5-7.1,25.9c-2.8,7.8-5.7,16-10,23.1c-1.4,2.3-3.1,4.6-5.4,6.2c-1.2,0.8-2.6,1.4-4.1,1.6c-0.6,0.1-1.2,0.1-1.9,0.1
				c-0.8,0,0.2,0.2-0.9-0.1c-0.9-0.2-0.1,0,0,0.1c-0.3-0.1-0.6-0.4-0.9-0.5c0.9,0.5,0.1,0.1-0.1-0.2c0.7,1,0,0-0.1-0.2
				c-0.5-1.1,0.3,1-0.1-0.2c-0.1-0.4-0.2-0.7-0.3-1.1c0-0.2-0.2-1.5-0.1-0.4c-0.1-0.4-0.1-0.9-0.1-1.3c-0.4-8.3,2.5-16.4,1.9-24.7
				c-0.4-4.7-1.9-9.3-6.2-11.9c-5.5-3.3-12.8-2-17.1,2.5c-4.5,4.7-7.1,12.2-8.6,18.5c-1.9,8.1-2.5,16.5-2.8,24.7c3.1,0,6.3,0,9.4,0
				c0.4-13.9,1.3-27.8,1.3-41.6c-3.1,0-6.3,0-9.4,0c0.2,5.5-0.8,9.9-2.5,15.7c-1.9,6.5-5.1,13.7-10.4,17.7c-6.8,5.1-17,3.7-21.3-4.5
				c-2.6-5-1.8-11.4,0.3-16.4c1.8-4.2,6.7-10.2,12-7.6c8,3.9-15.7,25.3-19.2,27.7c-7.5,5-20.2,5.8-27.4-0.3
				c-7.4-6.2-7.2-19-0.4-25.5c1.6-1.5,6.6-4.6,8.3-1.5c0.8,1.5-0.4,4.2-0.9,5.7c-1.1,3-3,5.9-5,8.4c-3.6,4.5-8.1,9-12.5,12
				c-3.7,2.4-8.6,5.4-13.2,5.1c-6.1-0.4-4.3-9.1-3.9-13.1c0.8-6.9,3.4-13.1,6.7-19.1c2-3.8-1.3-7.7-5.3-6.9
				c-3.7,0.7-7.6,0.6-11.3,0.5c-3.6-0.1-7.6-0.2-11.1-1.3c-0.2-0.1-0.7-0.6-0.4-0.2c0.3,0.4-0.2-0.4-0.2-0.8c0-0.3,0.2-1.7,0.5-2.8
				c0.4-1.2,0.6-1.7,1-2.6c0.2-0.4,0.5-0.8,0.7-1.3c0.6-1.2-0.2-0.2-1,0.4c-1.4,1-1.1,0-0.6,0.6c0.4,0.4,1.2,0.7,1.7,1.1
				c0.3,0.3,0.9,1.1,1.3,1.2c0.7,0.2-0.5-0.6,0-0.9c-0.2,0.2-0.1,3.4-0.1,3.7c-0.4,4.7-1.1,8.6-2.1,13.7C85,85.5,83.5,91,81.2,96.2
				c-1.1,2.5-2.3,4.9-3.9,7.1c-1,1.3-2.6,3-3.9,3.8c-1.3,0.8-0.7,0.5-2.1,0.8c-0.9,0.2,0.4,0-0.5,0.1c-0.2,0-1.9-0.1-1.2,0
				c-1.4-0.2-1.5-0.3-2.2-0.7c-0.2-0.1-0.4-0.2-0.5-0.3c-0.6-0.4,0.5,0.4-0.1,0c-0.4-0.3-0.7-0.7-1-1.1c0.5,0.6-0.3-0.4-0.4-0.6
				c-0.3-0.5-0.5-0.9-0.8-1.4c-0.2-0.4-0.6-1.7-0.9-2.8c-0.6-2.5-0.8-4.3-0.9-7C62.5,84.1,64,74,67,64.4c0.9-3-1.6-5.9-4.5-6
				c-8.8-0.2-17.9,1.9-26.4,3.7c-5.9,1.3-3.4,10.4,2.5,9.1c7.8-1.7,15.9-3.5,23.9-3.4c-1.5-2-3-4-4.5-6c-3.3,10.7-5.2,22.9-4.3,34.1
				c0.4,6.2,1.8,13.2,6.7,17.6c4.9,4.4,12.4,4.9,18.1,1.6c5.6-3.3,9.1-9.5,11.6-15.3c2.9-6.8,4.8-14,6.2-21.2c0.9-5,2-10.3,1.9-15.5
				c-0.1-6.7-10.5-15-16.8-10.4c-2.6,1.9-4.1,6-4.9,8.9C75,65.9,75,70.8,78.3,74c3.6,3.7,9.8,3.8,14.5,4.2
				c5.8,0.5,11.8,0.5,17.5-0.6c-1.8-2.3-3.5-4.6-5.3-6.9c-3.9,7.3-6.8,14.7-7.8,22.9c-1,7.8-1.4,17.4,6.6,21.8
				c6,3.3,13.4,1.1,19.1-1.7c5.7-2.7,10.5-6.6,14.9-11.1c5.8-5.9,11.8-13.2,13.4-21.5c1.4-7.4-2.2-14-10-15.1
				c-15.8-2.1-23.8,17.4-21.3,30.3c3.1,15.7,18.6,22.3,33.2,20.2c8-1.1,14.3-4.9,20.1-10.4c3.4-3.2,6.5-6.8,9.7-10.3
				c2.7-3,5.6-6.2,7.3-9.9c3.8-8.3,0.3-18-9.3-19.5c-8.6-1.4-16.3,4.3-19.9,11.8c-3.5,7.2-4.9,16.3-1.9,23.8
				c3,7.4,9.3,13.4,17.3,14.6c23.6,3.5,33.9-22.4,35.6-41.6c0.1-1.2,0.2-2.5,0.1-3.7c-0.2-6-9.4-6.1-9.4,0c0,13.9-0.9,27.8-1.3,41.6
				c-0.2,6.1,9.2,6,9.4,0c0.2-7.6,0.8-15.3,2.6-22.6c0.7-2.9,1.7-5.8,2.9-8.6c0.9-2.2,2.2-5.1,4.3-6.3c1-0.6,2.1-0.7,3.2-0.6
				c-0.7-0.1,0.4,0.1,0.6,0.2c0.8,0.2-0.4-0.2,0.6,0.2c0.8,0.4,0.1,0,0.3,0.1c0.3,0.2,0.9,1,0.3,0.3c0.2,0.3,0.4,0.6,0.6,1
				c-0.4-0.9,0.1,0.2,0.1,0.5c0.1,0.4,0.2,0.8,0.3,1.2c0,0.2,0-0.4,0.1,0.5c0.1,1,0.1,2.1,0.1,3.1c0,2.3-0.3,4.5-0.6,6.8
				c-0.9,7.6-4,19,2.3,25.2c3.9,3.8,10.2,4,15.1,2.2c7.1-2.6,11.7-9,15-15.5c8.3-17,14.6-35.5,17-54.3c1.1-8.5,1.6-18.7-1.9-26.8
				c-2.8-6.5-10.1-7.9-14.7-2.4c-3.3,4-5.1,9.1-6.6,14c-2.6,8.1-4,16.6-4.8,25.1c-1.2,13.4-1.4,27.8,1.7,41.1
				c1.3,5.6,3.5,11.6,7.7,15.7c4.8,4.7,11.9,6.1,17.4,1.8c5.7-4.5,9.1-12.2,12.2-18.5c3.2-6.6,6.4-14.8,13.5-18
				c3.6-1.6,7.7-2,11.6-1.3c5.9,1,8.5-7.9,2.5-9.1c-19.9-4-36.7,13-35.2,32.6c0.3,4.4,1.4,9,4.5,12.4c3.4,3.9,8.8,4.8,13.6,3.6
				c4.4-1.1,9-4,11.7-7.7c1.9-2.7,2.9-6,3.8-9c2.3-7.6,3.4-15.6,5.4-23.3c-3-0.8-6-1.7-9.1-2.5c-1.9,7.5-3.3,15.2-4.5,22.9
				c-0.6,3.8-1.3,7.3,0.3,11c1.8,4,5.4,7.3,9.6,8.6c10.1,3,15.6-5.8,19.3-13.6c2.3-4.8,3.7-9.3,4.4-14.5c0.7-5.2,0.6-10.5,1.4-15.7
				c-3.1-0.4-6.2-0.8-9.2-1.3c0,13.8-0.7,27.6-0.4,41.5c0.1,5.1,8.3,6.6,9.2,1.3c1.8-10,2.5-20.6,6.4-30.2c0.8-2,3.2-8,6.5-7.1
				c1.3,0.3,0.9,2.2,0.9,3.3c0,3.4-0.3,6.9-0.5,10.3c-0.4,6-1.6,13,0.5,18.7c1.9,5.3,7.1,8.8,12.7,9.1c10.5,0.5,19.9-8.9,26.9-15.5
				c7.5-7.1,17.2-18.6,11-29.5c-2.8-4.9-8.5-7.1-13.9-5.9c-5.5,1.3-9.9,5.7-12.8,10.3c-5.6,8.7-7.6,21.6-0.8,30.2
				c6.7,8.5,31.4,12.1,47.2,6.7c8.7-3,18.7-10.9,21.1-17.2c2.5-6.7-4-7.6-6-4.1C433.3,101.5,424.1,107.2,414.8,109.2z"/>
		</g>
		<g>
			<path fill="#37CF9D" d="M64.9,36c0.6-1.9,0.7-4,0.8-5.9c0.2-4.5,0.1-9.7-1.5-14C61.6,8.8,54.9,4.3,47.1,4.7
				c-8.6,0.4-15.1,5.6-20.5,11.9c-6.9,7.9-12.1,17.1-15.9,26.9C5.3,57.3,2.8,72.4,4.9,87.1c2.1,14.4,10.7,27.8,26.1,29.7
				c26.5,3.3,33.5-29.9,33.2-49.7c-0.1-6-9.5-6.1-9.4,0c0.1,8.4-0.7,16.8-3.5,24.7c-2.5,7.2-7.2,14.5-15.4,15.6
				C24,109.2,16.7,98.3,14.6,88c-2.1-10.4-1-21.9,1.8-32c2.3-8,5.5-15.8,9.8-23C30,26.8,35,19.3,41.6,15.8c4.2-2.2,10.2-2.7,13,1.7
				c2,3.2,1.8,7.9,1.7,11.5c0,2.1,0.1,2.7-0.5,4.5C53.9,39.3,63,41.7,64.9,36L64.9,36z"/>
		</g>
	</g>
</g>
<g id="Layer_2" display="none">
</g>
</svg>
