<?xml version="1.0" encoding="utf-8"?>
<!-- Generator: Adobe Illustrator 18.1.1, SVG Export Plug-In . SVG Version: 6.00 Build 0)  -->
<svg version="1.1" id="Layer_1" xmlns="http://www.w3.org/2000/svg" xmlns:xlink="http://www.w3.org/1999/xlink" x="0px" y="0px"
	 viewBox="0 0 269.8 254.7" style="enable-background:new 0 0 269.8 254.7;" xml:space="preserve">
<style type="text/css">
	.st0{fill:#A4EEFF;}
	.st1{fill:#58BD98;}
	.st2{fill:#FFFFFF;}
	.st3{fill:#F6899C;}
	.st4{fill:#2AD19D;}
	.st5{fill:#F46B83;}
	.st6{fill:#1A9169;}
	.st7{fill:#17916A;}
	.st8{fill:#AA4660;}
	.st9{fill:#3A5D87;}
	.st10{fill:#527EBB;}
	.st11{fill:#D82908;}
	.st12{fill:#E85749;}
	.st13{fill:#C6AF75;}
	.st14{fill:none;stroke:#A17644;stroke-width:3.3156;stroke-miterlimit:10;}
	.st15{fill:#79E2BC;}
	.st16{fill:#34B188;}
	.st17{fill:#FCED5E;}
	.st18{fill:#FDE49C;}
	.st19{fill:#E2CC8A;}
	.st20{fill:#D9C081;}
	.st21{fill:none;stroke:#626366;stroke-width:10.5772;stroke-miterlimit:10;}
	.st22{fill:none;stroke:#F46B83;stroke-width:8.9907;stroke-linejoin:round;stroke-miterlimit:10;}
	.st23{fill:none;stroke:#F46B83;stroke-width:8.9907;stroke-linecap:round;stroke-miterlimit:10;}
	.st24{fill:#CC486A;}
	.st25{fill:none;stroke:#CE5B79;stroke-width:4.9592;stroke-linecap:round;stroke-miterlimit:10;}
	.st26{fill:#626366;}
	.st27{fill:#FFFFFF;stroke:#626366;stroke-width:7.1491;stroke-linecap:round;stroke-miterlimit:10;}
	.st28{fill:#939598;}
	.st29{fill:#A17644;}
	.st30{fill:#626467;}
	.st31{fill:#E6D0B8;}
	.st32{fill:#EE6D83;}
	.st33{fill:#5ABABA;}
	.st34{fill:#DEDEDE;}
	.st35{fill:#D1D3D4;}
	.st36{fill:none;stroke:#A17644;stroke-width:3.6673;stroke-miterlimit:10;}
	.st37{fill:#16A457;}
	.st38{fill:none;stroke:#2AD19D;stroke-width:20.1693;stroke-linecap:round;stroke-miterlimit:10;}
	.st39{fill:#929496;}
	.st40{fill:none;stroke:#2AD19D;stroke-width:19.8239;stroke-linecap:round;stroke-miterlimit:10;}
	.st41{fill:#EE6B82;}
	.st42{fill:none;stroke:#F46B83;stroke-width:7;stroke-linecap:round;stroke-miterlimit:10;}
	.st43{fill:#F66981;}
	.st44{fill:#16D19B;}
	.st45{fill:#24A45A;}
	.st46{opacity:0.21;fill:#231F20;}
	.st47{fill-rule:evenodd;clip-rule:evenodd;fill:#FFFFFF;}
	.st48{fill:#F16D83;}
	.st49{fill-rule:evenodd;clip-rule:evenodd;fill:#F56980;}
	.st50{fill:#CCCCCC;}
	.st51{fill:#F36D85;}
	.st52{fill:none;stroke:#F36D85;stroke-width:10.3615;stroke-linecap:round;stroke-linejoin:round;stroke-miterlimit:10;}
	.st53{fill:#CBCBCB;}
	.st54{fill:#F06E85;}
	.st55{fill:#909294;}
	.st56{fill:#F56980;}
	.st57{opacity:0.3;}
	.st58{fill:#E2F2EB;}
	.st59{fill:#BC4D65;}
	.st60{fill:#933850;}
	.st61{fill:none;stroke:#929496;stroke-width:2.3266;stroke-linecap:round;stroke-miterlimit:10;stroke-dasharray:4.0716,11.6331;}
	.st62{fill:none;stroke:#F46B83;stroke-width:3.4899;stroke-miterlimit:10;}
	.st63{fill:#58595B;}
	.st64{fill:#7F614C;}
	.st65{fill:#AD8463;}
	.st66{fill:#C9AD7B;}
	.st67{fill:#A58C65;}
	.st68{fill:none;}
	.st69{fill:#F1F1F2;}
	.st70{fill:#936E55;}
	.st71{fill:#A87B51;}
	.st72{fill:none;stroke:#BBBDBF;stroke-width:0.7556;stroke-miterlimit:10;}
	.st73{fill:#404041;}
	.st74{fill:#8E6442;}
	.st75{fill:none;stroke:#7A7A7A;stroke-width:0.383;stroke-miterlimit:10;}
</style>
<g>
	<g>
		<g>
			<path class="st37" d="M204,144.2H65.8c-20.4,0-37.5-7.6-49.6-22C5.8,109.7,0,93,0,75.1C0,39.8,23.1,4,67.3,4h36.9
				c5.3,0,9.9,5.9,9.9,5.9s0,2.8,0,4c0,5.5-4.4,9.9-9.9,9.9H67.3c-32.6,0-47.5,26.6-47.5,51.3c0,34.1,23.1,49.3,46,49.3H204
				c14.3,0,26.2-5.2,34.4-14.9c7.5-8.9,11.6-21.1,11.6-34.4c0-24.7-14.9-51.3-47.5-51.3h-36.9c-5.5,0-9.9-4.4-9.9-9.9c0-1.2,0-4,0-4
				s4.6-5.9,9.9-5.9h36.9c20.7,0,38.2,7.9,50.6,22.7c10.8,12.9,16.7,30.1,16.7,48.3c0,17.9-5.8,34.7-16.2,47.1
				C241.5,136.6,224.4,144.2,204,144.2z"/>
		</g>
	</g>
	<g>
		<g>
			<path class="st35" d="M68.6,107.4h14.2c0.5,0,0.8,0.4,0.8,0.8v1.2c0,0.5-0.4,0.8-0.8,0.8H68.6c-0.5,0-0.8-0.4-0.8-0.8v-1.2
				C67.8,107.8,68.2,107.4,68.6,107.4z"/>
		</g>
		<g>
			<ellipse class="st35" cx="68.5" cy="108.8" rx="5.6" ry="1.5"/>
		</g>
	</g>
	<g>
		<rect x="80.2" y="60.9" class="st29" width="3.7" height="49.4"/>
	</g>
	<g>
		<path class="st4" d="M82.2,91.9C82.2,91.9,69,92,69,76c0-12.9,13.2-42.1,13.2-42.1S95.4,63.1,95.4,76C95.4,92,82.2,91.9,82.2,91.9
			z"/>
	</g>
	<g>
		<path class="st15" d="M82.2,33.9v58c0,0,13.2,0.1,13.2-15.9C95.4,63.1,82.2,33.9,82.2,33.9z"/>
	</g>
	<g>
		<g>
			<path class="st35" d="M120.3,107.4h14.2c0.5,0,0.8,0.4,0.8,0.8v1.2c0,0.5-0.4,0.8-0.8,0.8h-14.2c-0.5,0-0.8-0.4-0.8-0.8v-1.2
				C119.4,107.8,119.8,107.4,120.3,107.4z"/>
		</g>
		<g>
			<ellipse class="st35" cx="120.1" cy="108.8" rx="5.6" ry="1.5"/>
		</g>
	</g>
	<g>
		<rect x="131.8" y="60.9" class="st29" width="3.7" height="49.4"/>
	</g>
	<g>
		<path class="st4" d="M133.9,91.9c0,0-13.2,0.1-13.2-15.9c0-12.9,13.2-42.1,13.2-42.1S147,63.1,147,76
			C147,92,133.9,91.9,133.9,91.9z"/>
	</g>
	<g>
		<path class="st15" d="M133.9,33.9v58c0,0,13.2,0.1,13.2-15.9C147,63.1,133.9,33.9,133.9,33.9z"/>
	</g>
	<g>
		<g>
			<path class="st35" d="M172.1,107.4h14.2c0.5,0,0.8,0.4,0.8,0.8v1.2c0,0.5-0.4,0.8-0.8,0.8h-14.2c-0.5,0-0.8-0.4-0.8-0.8v-1.2
				C171.3,107.8,171.7,107.4,172.1,107.4z"/>
		</g>
		<g>
			<ellipse class="st35" cx="172" cy="108.8" rx="5.6" ry="1.5"/>
		</g>
	</g>
	<g>
		<rect x="183.7" y="60.9" class="st29" width="3.7" height="49.4"/>
	</g>
	<g>
		<path class="st4" d="M185.7,91.9c0,0-13.2,0.1-13.2-15.9c0-12.9,13.2-42.1,13.2-42.1s13.2,29.2,13.2,42.1
			C198.9,92,185.7,91.9,185.7,91.9z"/>
	</g>
	<g>
		<path class="st15" d="M185.7,33.9v58c0,0,13.2,0.1,13.2-15.9C198.9,63.1,185.7,33.9,185.7,33.9z"/>
	</g>
	<g>
		<g>
			<path class="st39" d="M35.3,187v4.5h3.2v3.5h-3.2v9.4c0,0.7,0.1,1.2,0.4,1.5c0.3,0.3,0.7,0.5,1.2,0.5c0.3,0,0.6,0,0.9,0
				c0.3,0,0.5-0.1,0.9-0.1l0.4,3.6c-0.6,0.2-1.1,0.3-1.7,0.4s-1.1,0.1-1.8,0.1c-1.7,0-3-0.5-4-1.4c-0.9-0.9-1.4-2.4-1.4-4.5V195
				h-2.7v-3.5h2.7V187H35.3z"/>
		</g>
		<g>
			<path class="st39" d="M40.8,207l2.4-0.5V195l-2.7-0.5v-3h7.7v15l2.4,0.5v3h-9.8V207z M48.2,187.1h-5v-3.7h5V187.1z"/>
		</g>
		<g>
			<path class="st39" d="M51.7,194.5v-3H59l0.2,2.4c0.6-0.9,1.3-1.6,2.2-2.1c0.9-0.5,1.9-0.7,3.1-0.7c1.2,0,2.2,0.3,3,0.8
				c0.8,0.5,1.5,1.3,1.9,2.4c0.6-1,1.3-1.8,2.2-2.3c0.9-0.6,2-0.8,3.2-0.8c1.8,0,3.3,0.6,4.3,1.9c1.1,1.3,1.6,3.2,1.6,5.8v7.7
				l2.4,0.5v3h-9.6v-3l2.2-0.5v-7.7c0-1.4-0.2-2.4-0.7-2.9c-0.5-0.5-1.1-0.8-2-0.8c-0.7,0-1.3,0.2-1.8,0.5c-0.5,0.3-0.9,0.8-1.2,1.3
				c0,0.2,0,0.4,0,0.6c0,0.2,0,0.3,0,0.5v8.6l2,0.5v3h-9v-3l2-0.5v-7.7c0-1.4-0.2-2.3-0.7-2.9c-0.5-0.6-1.1-0.8-2.1-0.8
				c-0.7,0-1.3,0.1-1.8,0.4c-0.5,0.3-0.9,0.6-1.3,1.1v10l2.2,0.5v3h-9.5v-3l2.4-0.5V195L51.7,194.5z"/>
		</g>
		<g>
			<path class="st39" d="M93.5,210.3c-2.7,0-4.8-0.9-6.4-2.6c-1.6-1.7-2.4-3.9-2.4-6.5v-0.7c0-2.7,0.8-5,2.3-6.8s3.5-2.7,6.1-2.6
				c2.5,0,4.4,0.8,5.8,2.3c1.4,1.5,2.1,3.5,2.1,6.1v2.7h-11l0,0.1c0.1,1.2,0.5,2.2,1.2,3c0.7,0.8,1.7,1.2,2.9,1.2
				c1.1,0,2-0.1,2.8-0.3c0.7-0.2,1.5-0.6,2.4-1.1l1.3,3.1c-0.8,0.6-1.8,1.1-3,1.5C96.3,210.1,95,210.3,93.5,210.3z M93,195
				c-0.9,0-1.7,0.4-2.2,1.1c-0.5,0.7-0.9,1.6-1,2.8l0.1,0.1H96v-0.4c0-1.1-0.2-1.9-0.7-2.5C94.8,195.3,94,195,93,195z"/>
		</g>
		<g>
			<path class="st39" d="M119.2,187v4.5h3.2v3.5h-3.2v9.4c0,0.7,0.1,1.2,0.4,1.5c0.3,0.3,0.7,0.5,1.2,0.5c0.3,0,0.6,0,0.9,0
				c0.3,0,0.5-0.1,0.9-0.1l0.4,3.6c-0.6,0.2-1.1,0.3-1.7,0.4s-1.1,0.1-1.8,0.1c-1.7,0-3-0.5-4-1.4c-0.9-0.9-1.4-2.4-1.4-4.5V195
				h-2.7v-3.5h2.7V187H119.2z"/>
		</g>
		<g>
			<path class="st39" d="M124.4,200.6c0-2.8,0.8-5,2.3-6.8c1.5-1.8,3.7-2.6,6.4-2.6c2.7,0,4.9,0.9,6.4,2.6c1.5,1.8,2.3,4,2.3,6.8
				v0.4c0,2.8-0.8,5-2.3,6.8c-1.5,1.8-3.7,2.6-6.4,2.6c-2.7,0-4.9-0.9-6.4-2.6c-1.5-1.7-2.3-4-2.3-6.8V200.6z M129.4,200.9
				c0,1.7,0.3,3,0.9,4.1c0.6,1,1.5,1.5,2.9,1.5c1.3,0,2.2-0.5,2.8-1.5c0.6-1,0.9-2.4,0.9-4.1v-0.4c0-1.6-0.3-3-0.9-4
				c-0.6-1-1.6-1.6-2.9-1.6s-2.2,0.5-2.8,1.6c-0.6,1-0.9,2.4-0.9,4V200.9z"/>
		</g>
		<g>
			<path class="st39" d="M167.7,197.8h-3.3l-0.5-2.3c-0.3-0.3-0.8-0.5-1.3-0.7c-0.5-0.2-1.1-0.3-1.7-0.3c-0.9,0-1.6,0.2-2.1,0.6
				c-0.5,0.4-0.8,0.9-0.8,1.5c0,0.6,0.2,1,0.7,1.4c0.5,0.4,1.5,0.7,2.9,1c2.3,0.5,4,1.1,5.1,2c1.1,0.9,1.7,2.1,1.7,3.6
				c0,1.7-0.7,3-2.1,4.1c-1.4,1.1-3.3,1.6-5.6,1.6c-1.4,0-2.7-0.2-3.9-0.6c-1.2-0.4-2.2-1-3.2-1.8l-0.1-4.2h3.5l0.7,2.4
				c0.3,0.3,0.7,0.4,1.2,0.6c0.5,0.1,1,0.2,1.6,0.2c1,0,1.8-0.2,2.3-0.5c0.5-0.4,0.8-0.9,0.8-1.5c0-0.5-0.3-1-0.8-1.4
				c-0.5-0.4-1.5-0.8-3-1.1c-2.2-0.4-3.8-1.1-4.9-2c-1.1-0.9-1.7-2.1-1.7-3.6c0-1.5,0.6-2.9,1.9-4c1.3-1.1,3.1-1.7,5.5-1.7
				c1.4,0,2.8,0.2,4.1,0.6c1.3,0.4,2.3,0.9,3,1.5L167.7,197.8z"/>
		</g>
		<g>
			<path class="st39" d="M170.2,194.5v-3h7.2l0.2,2.2c0.5-0.8,1.2-1.4,2-1.8c0.8-0.4,1.7-0.7,2.7-0.7c2.3,0,4.1,0.9,5.3,2.7
				s1.9,4.1,1.9,7.1v0.4c0,2.7-0.6,4.9-1.9,6.6c-1.3,1.7-3,2.5-5.3,2.5c-1,0-1.8-0.2-2.6-0.5s-1.4-0.9-1.9-1.6v5.3l2.4,0.5v3h-9.8
				v-3l2.4-0.5V195L170.2,194.5z M184.6,200.9c0-1.7-0.3-3.2-0.9-4.2s-1.5-1.6-2.7-1.6c-0.8,0-1.4,0.2-1.9,0.5
				c-0.5,0.3-0.9,0.7-1.3,1.3v8.1c0.3,0.5,0.7,0.9,1.3,1.2c0.5,0.3,1.2,0.4,2,0.4c1.2,0,2.1-0.5,2.7-1.4c0.6-0.9,0.8-2.2,0.8-3.8
				V200.9z"/>
		</g>
		<g>
			<path class="st39" d="M203.6,210c-0.1-0.3-0.3-0.6-0.4-0.9c-0.1-0.3-0.2-0.7-0.2-1c-0.6,0.7-1.3,1.2-2.2,1.7
				c-0.8,0.4-1.8,0.6-2.9,0.6c-1.8,0-3.2-0.5-4.3-1.5c-1.1-1-1.6-2.3-1.6-4c0-1.7,0.7-3.1,2.1-4c1.4-0.9,3.4-1.4,6.1-1.4h2.5v-1.8
				c0-0.9-0.3-1.6-0.8-2.1c-0.5-0.5-1.3-0.7-2.3-0.7c-0.6,0-1.1,0.1-1.5,0.2s-0.8,0.3-1.1,0.5l-0.3,2H193l0-4.1
				c0.9-0.6,2-1.1,3.1-1.6c1.2-0.4,2.5-0.6,3.9-0.6c2.3,0,4.1,0.6,5.6,1.7c1.4,1.1,2.1,2.7,2.1,4.8v7.6c0,0.3,0,0.6,0,0.8
				c0,0.3,0,0.5,0.1,0.7l1.5,0.2v3H203.6z M199.2,206.6c0.8,0,1.4-0.2,2.1-0.5s1.1-0.7,1.4-1.2v-2.8h-2.5c-1.1,0-1.9,0.2-2.4,0.7
				c-0.5,0.5-0.8,1.1-0.8,1.8c0,0.6,0.2,1.1,0.6,1.5C198,206.5,198.5,206.6,199.2,206.6z"/>
		</g>
		<g>
			<path class="st39" d="M211.4,207l2.4-0.5V195l-2.6-0.5v-3h7.3l0.2,2.7c0.4-1,1-1.7,1.7-2.2c0.7-0.5,1.5-0.8,2.4-0.8
				c0.3,0,0.5,0,0.8,0.1c0.3,0,0.5,0.1,0.7,0.1l-0.5,4.5l-2.1-0.1c-0.7,0-1.3,0.1-1.8,0.4c-0.5,0.3-0.8,0.7-1.1,1.2v9l2.4,0.5v3
				h-9.8V207z"/>
		</g>
		<g>
			<path class="st39" d="M234.3,210.3c-2.7,0-4.8-0.9-6.4-2.6c-1.6-1.7-2.4-3.9-2.4-6.5v-0.7c0-2.7,0.8-5,2.3-6.8s3.5-2.7,6.1-2.6
				c2.5,0,4.4,0.8,5.8,2.3c1.4,1.5,2.1,3.5,2.1,6.1v2.7h-11l0,0.1c0.1,1.2,0.5,2.2,1.2,3c0.7,0.8,1.7,1.2,2.9,1.2
				c1.1,0,2-0.1,2.8-0.3c0.7-0.2,1.5-0.6,2.4-1.1l1.3,3.1c-0.8,0.6-1.8,1.1-3,1.5C237.1,210.1,235.8,210.3,234.3,210.3z M233.8,195
				c-0.9,0-1.7,0.4-2.2,1.1c-0.5,0.7-0.9,1.6-1,2.8l0.1,0.1h6.1v-0.4c0-1.1-0.2-1.9-0.7-2.5C235.6,195.3,234.8,195,233.8,195z"/>
		</g>
		<g>
			<path class="st39" d="M89.5,230.8c-0.3-0.1-0.7-0.1-1.1-0.1c-1.5,0-2.5,0.6-3,1.9v9.4h-2.3v-13.2h2.2l0,1.5
				c0.7-1.2,1.8-1.8,3.1-1.8c0.4,0,0.8,0.1,1,0.2V230.8z"/>
		</g>
		<g>
			<path class="st39" d="M90.7,235.3c0-1.3,0.3-2.5,0.8-3.5c0.5-1,1.2-1.8,2.1-2.4c0.9-0.6,1.9-0.8,3.1-0.8c1.8,0,3.3,0.6,4.4,1.9
				c1.1,1.2,1.7,2.9,1.7,5v0.2c0,1.3-0.2,2.4-0.7,3.5c-0.5,1-1.2,1.8-2.1,2.4c-0.9,0.6-2,0.9-3.2,0.9c-1.8,0-3.2-0.6-4.4-1.9
				c-1.1-1.2-1.7-2.9-1.7-4.9V235.3z M93,235.5c0,1.5,0.3,2.6,1,3.5s1.6,1.3,2.7,1.3c1.1,0,2.1-0.4,2.7-1.3c0.7-0.9,1-2.2,1-3.8
				c0-1.4-0.3-2.6-1-3.5s-1.6-1.3-2.7-1.3c-1.1,0-2,0.4-2.7,1.3C93.3,232.6,93,233.9,93,235.5z"/>
		</g>
		<g>
			<path class="st39" d="M113.7,240.7c-0.9,1-2.2,1.6-3.9,1.6c-1.4,0-2.5-0.4-3.2-1.2c-0.7-0.8-1.1-2-1.1-3.6v-8.6h2.3v8.5
				c0,2,0.8,3,2.4,3c1.7,0,2.9-0.6,3.4-1.9v-9.6h2.3V242h-2.1L113.7,240.7z"/>
		</g>
		<g>
			<path class="st39" d="M121.5,228.8l0.1,1.7c1-1.3,2.3-1.9,4-1.9c2.8,0,4.2,1.6,4.2,4.7v8.7h-2.3v-8.7c0-1-0.2-1.7-0.7-2.1
				c-0.4-0.5-1.1-0.7-2-0.7c-0.7,0-1.4,0.2-1.9,0.6c-0.6,0.4-1,0.9-1.3,1.5v9.4h-2.3v-13.2H121.5z"/>
		</g>
		<g>
			<path class="st39" d="M132.6,235.3c0-2,0.5-3.7,1.4-4.9c1-1.2,2.2-1.8,3.8-1.8c1.5,0,2.8,0.5,3.7,1.6v-6.9h2.3V242h-2.1l-0.1-1.4
				c-0.9,1.1-2.2,1.7-3.8,1.7c-1.5,0-2.8-0.6-3.7-1.9c-1-1.3-1.4-2.9-1.4-4.9V235.3z M134.8,235.5c0,1.5,0.3,2.7,0.9,3.5
				c0.6,0.8,1.5,1.3,2.6,1.3c1.4,0,2.5-0.6,3.1-1.9v-6.1c-0.7-1.2-1.7-1.9-3.1-1.9c-1.1,0-2,0.4-2.6,1.3
				C135.2,232.6,134.8,233.8,134.8,235.5z"/>
		</g>
		<g>
			<path class="st39" d="M156.5,225.6v3.2h2.5v1.7h-2.5v8.2c0,0.5,0.1,0.9,0.3,1.2c0.2,0.3,0.6,0.4,1.1,0.4c0.3,0,0.6,0,1.1-0.1v1.8
				c-0.6,0.2-1.2,0.2-1.7,0.2c-1,0-1.8-0.3-2.3-0.9c-0.5-0.6-0.8-1.5-0.8-2.6v-8.2h-2.4v-1.7h2.4v-3.2H156.5z"/>
		</g>
		<g>
			<path class="st39" d="M168,230.8c-0.3-0.1-0.7-0.1-1.1-0.1c-1.5,0-2.5,0.6-3,1.9v9.4h-2.3v-13.2h2.2l0,1.5
				c0.7-1.2,1.8-1.8,3.1-1.8c0.4,0,0.8,0.1,1,0.2V230.8z"/>
		</g>
		<g>
			<path class="st39" d="M170.1,225.3c0-0.4,0.1-0.7,0.3-0.9c0.2-0.3,0.6-0.4,1-0.4s0.8,0.1,1,0.4c0.2,0.3,0.3,0.6,0.3,0.9
				c0,0.4-0.1,0.7-0.3,0.9s-0.6,0.4-1,0.4s-0.8-0.1-1-0.4S170.1,225.6,170.1,225.3z M172.5,242h-2.3v-13.2h2.3V242z"/>
		</g>
		<g>
			<path class="st39" d="M187.3,235.5c0,2-0.5,3.6-1.4,4.9c-0.9,1.2-2.2,1.8-3.7,1.8c-1.6,0-2.9-0.5-3.8-1.5v6.4h-2.3v-18.3h2.1
				l0.1,1.5c0.9-1.1,2.2-1.7,3.8-1.7c1.6,0,2.8,0.6,3.8,1.8c0.9,1.2,1.4,2.9,1.4,5V235.5z M185,235.3c0-1.5-0.3-2.7-1-3.5
				s-1.5-1.3-2.6-1.3c-1.4,0-2.4,0.6-3.1,1.8v6.3c0.7,1.2,1.7,1.8,3.1,1.8c1.1,0,1.9-0.4,2.6-1.3C184.7,238.2,185,237,185,235.3z"/>
		</g>
	</g>
	<g>
		<path class="st4" d="M204,140.2H65.8c-20.4,0-37.5-7.6-49.6-22C5.8,105.7,0,89,0,71.1C0,35.8,23.1,0,67.3,0h36.9
			c5.5,0,9.9,4.4,9.9,9.9s-4.4,9.9-9.9,9.9H67.3c-14.6,0-26.9,5.4-35.4,15.6c-7.7,9.2-12.1,22.2-12.1,35.6c0,34.1,23.1,49.3,46,49.3
			H204c14.3,0,26.2-5.2,34.4-14.9c7.5-8.9,11.6-21.1,11.6-34.4c0-24.7-14.9-51.3-47.5-51.3h-36.9c-5.5,0-9.9-4.4-9.9-9.9
			s4.4-9.9,9.9-9.9h36.9c20.7,0,38.2,7.9,50.6,22.7c10.8,12.9,16.7,30.1,16.7,48.3c0,17.9-5.8,34.7-16.2,47.1
			C241.5,132.6,224.4,140.2,204,140.2z"/>
	</g>
	<g>
		<rect x="74" y="140.1" class="st37" width="18.5" height="4.1"/>
	</g>
</g>
</svg>
