<?xml version="1.0" encoding="utf-8"?>
<!-- Generator: Adobe Illustrator 18.1.1, SVG Export Plug-In . SVG Version: 6.00 Build 0)  -->
<svg version="1.1" id="Layer_1" xmlns="http://www.w3.org/2000/svg" xmlns:xlink="http://www.w3.org/1999/xlink" x="0px" y="0px"
	 viewBox="0 0 269.8 310.6" style="enable-background:new 0 0 269.8 310.6;" xml:space="preserve">
<style type="text/css">
	.st0{fill:#A4EEFF;}
	.st1{fill:#58BD98;}
	.st2{fill:#FFFFFF;}
	.st3{fill:#F6899C;}
	.st4{fill:#2AD19D;}
	.st5{fill:#F46B83;}
	.st6{fill:#1A9169;}
	.st7{fill:#17916A;}
	.st8{fill:#AA4660;}
	.st9{fill:#3A5D87;}
	.st10{fill:#527EBB;}
	.st11{fill:#D82908;}
	.st12{fill:#E85749;}
	.st13{fill:#C6AF75;}
	.st14{fill:none;stroke:#A17644;stroke-width:3.3156;stroke-miterlimit:10;}
	.st15{fill:#79E2BC;}
	.st16{fill:#34B188;}
	.st17{fill:#FCED5E;}
	.st18{fill:#FDE49C;}
	.st19{fill:#E2CC8A;}
	.st20{fill:#D9C081;}
	.st21{fill:none;stroke:#626366;stroke-width:10.5772;stroke-miterlimit:10;}
	.st22{fill:none;stroke:#F46B83;stroke-width:8.9907;stroke-linejoin:round;stroke-miterlimit:10;}
	.st23{fill:none;stroke:#F46B83;stroke-width:8.9907;stroke-linecap:round;stroke-miterlimit:10;}
	.st24{fill:#CC486A;}
	.st25{fill:none;stroke:#CE5B79;stroke-width:4.9592;stroke-linecap:round;stroke-miterlimit:10;}
	.st26{fill:#626366;}
	.st27{fill:#FFFFFF;stroke:#626366;stroke-width:7.1491;stroke-linecap:round;stroke-miterlimit:10;}
	.st28{fill:#939598;}
	.st29{fill:#A17644;}
	.st30{fill:#626467;}
	.st31{fill:#E6D0B8;}
	.st32{fill:#EE6D83;}
	.st33{fill:#5ABABA;}
	.st34{fill:#DEDEDE;}
	.st35{fill:#D1D3D4;}
	.st36{fill:none;stroke:#A17644;stroke-width:3.6673;stroke-miterlimit:10;}
	.st37{fill:#16A457;}
	.st38{fill:none;stroke:#2AD19D;stroke-width:20.1693;stroke-linecap:round;stroke-miterlimit:10;}
	.st39{fill:#929496;}
	.st40{fill:none;}
	.st41{font-family:'RobotoSlab-Bold';}
	.st42{font-size:35;}
	.st43{font-family:'Roboto-Regular';}
	.st44{font-size:25;}
	.st45{fill:none;stroke:#2AD19D;stroke-width:19.8239;stroke-linecap:round;stroke-miterlimit:10;}
	.st46{fill:#EE6B82;}
	.st47{fill:none;stroke:#F46B83;stroke-width:7;stroke-linecap:round;stroke-miterlimit:10;}
	.st48{fill:#F66981;}
	.st49{fill:#16D19B;}
	.st50{fill:#24A45A;}
	.st51{opacity:0.21;fill:#231F20;}
	.st52{fill-rule:evenodd;clip-rule:evenodd;fill:#FFFFFF;}
	.st53{fill:#F16D83;}
	.st54{fill-rule:evenodd;clip-rule:evenodd;fill:#F56980;}
	.st55{fill:#CCCCCC;}
	.st56{fill:#F36D85;}
	.st57{fill:none;stroke:#F36D85;stroke-width:10.3615;stroke-linecap:round;stroke-linejoin:round;stroke-miterlimit:10;}
	.st58{fill:#F4A6B7;}
	.st59{fill:#CBCBCB;}
	.st60{fill:#F06E85;}
	.st61{fill:#909294;}
	.st62{fill:#F56980;}
	.st63{opacity:0.3;}
	.st64{fill:#E2F2EB;}
	.st65{fill:#BC4D65;}
	.st66{fill:#933850;}
	.st67{fill:none;stroke:#929496;stroke-width:2.3266;stroke-linecap:round;stroke-miterlimit:10;stroke-dasharray:4.0716,11.6331;}
	.st68{fill:none;stroke:#F46B83;stroke-width:3.4899;stroke-miterlimit:10;}
	.st69{fill:#58595B;}
	.st70{fill:#7F614C;}
	.st71{fill:#AD8463;}
	.st72{fill:#C9AD7B;}
	.st73{fill:#A58C65;}
	.st74{fill:#F1F1F2;}
	.st75{fill:#936E55;}
	.st76{fill:#A87B51;}
	.st77{fill:none;stroke:#BBBDBF;stroke-width:0.7556;stroke-miterlimit:10;}
	.st78{fill:#404041;}
	.st79{fill:#8E6442;}
	.st80{fill:none;stroke:#7A7A7A;stroke-width:0.383;stroke-miterlimit:10;}
</style>
<g>
	<path class="st37" d="M204,200.2H65.8c-20.4,0-37.5-7.6-49.6-22C5.8,165.7,0,149,0,131C0,95.7,23.1,60,67.3,60h36.9
		c5.3,0,9.9,5.9,9.9,5.9s0,2.8,0,4c0,5.5-4.4,9.9-9.9,9.9H67.3c-32.6,0-47.5,26.6-47.5,51.3c0,34.1,23.1,49.3,46,49.3H204
		c14.3,0,26.2-5.2,34.4-14.9c7.5-8.9,11.6-21.1,11.6-34.4c0-24.7-14.9-51.3-47.5-51.3h-36.9c-5.5,0-9.9-4.4-9.9-9.9c0-1.2,0-4,0-4
		s4.6-5.9,9.9-5.9h36.9c20.7,0,38.2,7.9,50.6,22.7c10.8,12.9,16.7,30.1,16.7,48.3c0,17.9-5.8,34.7-16.2,47.1
		C241.5,192.6,224.4,200.2,204,200.2z"/>
</g>
<g>
	<path class="st35" d="M68.6,163.3h14.2c0.5,0,0.8,0.4,0.8,0.8v1.2c0,0.5-0.4,0.8-0.8,0.8H68.6c-0.5,0-0.8-0.4-0.8-0.8v-1.2
		C67.8,163.7,68.2,163.3,68.6,163.3z"/>
	<ellipse class="st35" cx="68.5" cy="164.8" rx="5.6" ry="1.5"/>
</g>
<line class="st36" x1="82" y1="116.9" x2="82" y2="166.3"/>
<path class="st4" d="M82.2,147.8c0,0-13.2,0.1-13.2-15.9c0-12.9,13.2-42.1,13.2-42.1S95.4,119,95.4,132
	C95.4,148,82.2,147.8,82.2,147.8z"/>
<path class="st15" d="M82.2,89.9v58c0,0,13.2,0.1,13.2-15.9C95.4,119,82.2,89.9,82.2,89.9z"/>
<g>
	<path class="st35" d="M120.3,163.3h14.2c0.5,0,0.8,0.4,0.8,0.8v1.2c0,0.5-0.4,0.8-0.8,0.8h-14.2c-0.5,0-0.8-0.4-0.8-0.8v-1.2
		C119.4,163.7,119.8,163.3,120.3,163.3z"/>
	<ellipse class="st35" cx="120.1" cy="164.8" rx="5.6" ry="1.5"/>
</g>
<line class="st36" x1="133.7" y1="116.9" x2="133.7" y2="166.3"/>
<path class="st4" d="M133.9,147.8c0,0-13.2,0.1-13.2-15.9c0-12.9,13.2-42.1,13.2-42.1S147,119,147,132
	C147,148,133.9,147.8,133.9,147.8z"/>
<path class="st15" d="M133.9,89.9v58c0,0,13.2,0.1,13.2-15.9C147,119,133.9,89.9,133.9,89.9z"/>
<g>
	<path class="st35" d="M172.1,163.3h14.2c0.5,0,0.8,0.4,0.8,0.8v1.2c0,0.5-0.4,0.8-0.8,0.8h-14.2c-0.5,0-0.8-0.4-0.8-0.8v-1.2
		C171.3,163.7,171.7,163.3,172.1,163.3z"/>
	<ellipse class="st35" cx="172" cy="164.8" rx="5.6" ry="1.5"/>
</g>
<line class="st36" x1="185.5" y1="116.9" x2="185.5" y2="166.3"/>
<path class="st4" d="M185.7,147.8c0,0-13.2,0.1-13.2-15.9c0-12.9,13.2-42.1,13.2-42.1s13.2,29.2,13.2,42.1
	C198.9,148,185.7,147.8,185.7,147.8z"/>
<path class="st15" d="M185.7,89.9v58c0,0,13.2,0.1,13.2-15.9C198.9,119,185.7,89.9,185.7,89.9z"/>
<g>
	<rect x="20.6" y="239.3" class="st40" width="228.6" height="71.4"/>
	<text transform="matrix(1 0 0 1 26.3199 265.9366)"><tspan x="0" y="0" class="st39 st41 st42">time to spare</tspan><tspan x="54.9" y="32" class="st39 st43 st44">round trip</tspan></text>
</g>
<path class="st45" d="M165.6,65.9c0,0,12.9,0,36.9,0c75.4,0,77.2,120.4,1.5,120.4c-12.1,0-40.6,0-69.1,0s-57,0-69.1,0
	c-75.7,0-73.9-120.4,1.5-120.4c24.1,0,36.9,0,36.9,0"/>
<rect x="74" y="196.1" class="st37" width="18.5" height="4.1"/>
</svg>
