<?xml version="1.0" encoding="utf-8"?>
<!-- Generator: Adobe Illustrator 18.1.1, SVG Export Plug-In . SVG Version: 6.00 Build 0)  -->
<svg version="1.1" id="Layer_1" xmlns="http://www.w3.org/2000/svg" xmlns:xlink="http://www.w3.org/1999/xlink" x="0px" y="0px"
	 viewBox="0 0 229 237" style="enable-background:new 0 0 229 237;" xml:space="preserve">
<style type="text/css">
	.st0{fill:#C6C6C6;}
	.st1{fill:#A4EEFF;}
	.st2{fill:#58BD98;}
	.st3{fill:#FFFFFF;}
	.st4{fill:#F6899C;}
	.st5{fill:#2AD19D;}
	.st6{fill:#F46B83;}
	.st7{fill:#1A9169;}
	.st8{fill:#17916A;}
	.st9{fill:#AA4660;}
	.st10{fill:#3A5D87;}
	.st11{fill:#527EBB;}
	.st12{fill:#D82908;}
	.st13{fill:#E85749;}
	.st14{fill:#C6AF75;}
	.st15{fill:none;stroke:#A17644;stroke-width:3.3156;stroke-miterlimit:10;}
	.st16{fill:#79E2BC;}
	.st17{fill:#34B188;}
	.st18{fill:#FCED5E;}
	.st19{fill:#FDE49C;}
	.st20{fill:#E2CC8A;}
	.st21{fill:#D9C081;}
	.st22{fill:none;stroke:#626366;stroke-width:10.5772;stroke-miterlimit:10;}
	.st23{fill:none;stroke:#F46B83;stroke-width:8.9907;stroke-linejoin:round;stroke-miterlimit:10;}
	.st24{fill:none;stroke:#F46B83;stroke-width:8.9907;stroke-linecap:round;stroke-miterlimit:10;}
	.st25{fill:#CC486A;}
	.st26{fill:none;stroke:#CE5B79;stroke-width:4.9592;stroke-linecap:round;stroke-miterlimit:10;}
	.st27{fill:#626366;}
	.st28{fill:#FFFFFF;stroke:#626366;stroke-width:7.1491;stroke-linecap:round;stroke-miterlimit:10;}
	.st29{fill:#939598;}
	.st30{fill:#A17644;}
	.st31{fill:#626467;}
	.st32{fill:#E6D0B8;}
	.st33{fill:#EE6D83;}
	.st34{fill:#5ABABA;}
	.st35{fill:#DEDEDE;}
	.st36{fill:#D1D3D4;}
	.st37{fill:none;stroke:#A17644;stroke-width:3.6673;stroke-miterlimit:10;}
	.st38{fill:#16A457;}
	.st39{fill:none;stroke:#2AD19D;stroke-width:20.1693;stroke-linecap:round;stroke-miterlimit:10;}
	.st40{fill:#929496;}
	.st41{fill:none;stroke:#2AD19D;stroke-width:19.8239;stroke-linecap:round;stroke-miterlimit:10;}
	.st42{fill:#EE6B82;}
	.st43{fill:none;stroke:#F46B83;stroke-width:7;stroke-linecap:round;stroke-miterlimit:10;}
	.st44{fill:#F66981;}
	.st45{fill:#16D19B;}
	.st46{fill:#24A45A;}
	.st47{opacity:0.21;fill:#231F20;}
	.st48{fill-rule:evenodd;clip-rule:evenodd;fill:#FFFFFF;}
	.st49{fill:#F16D83;}
	.st50{fill-rule:evenodd;clip-rule:evenodd;fill:#F56980;}
	.st51{fill:#CCCCCC;}
	.st52{fill:#F36D85;}
	.st53{fill:none;stroke:#F36D85;stroke-width:10.3615;stroke-linecap:round;stroke-linejoin:round;stroke-miterlimit:10;}
	.st54{fill:#F4A6B7;}
	.st55{fill:#CBCBCB;}
	.st56{fill:#F06E85;}
	.st57{fill:#909294;}
	.st58{fill:#F56980;}
	.st59{opacity:0.3;}
	.st60{fill:#E2F2EB;}
	.st61{fill:#BC4D65;}
	.st62{fill:#933850;}
	.st63{fill:none;stroke:#929496;stroke-width:2.3266;stroke-linecap:round;stroke-miterlimit:10;stroke-dasharray:4.0716,11.6331;}
	.st64{fill:none;stroke:#F46B83;stroke-width:3.4899;stroke-miterlimit:10;}
	.st65{fill:#58595B;}
	.st66{fill:#7F614C;}
	.st67{fill:#AD8463;}
	.st68{fill:#C9AD7B;}
	.st69{fill:#A58C65;}
	.st70{fill:none;}
	.st71{fill:#F1F1F2;}
	.st72{fill:#936E55;}
	.st73{fill:#A87B51;}
	.st74{fill:none;stroke:#BBBDBF;stroke-width:0.7556;stroke-miterlimit:10;}
	.st75{fill:#404041;}
	.st76{fill:#8E6442;}
	.st77{fill:none;stroke:#7A7A7A;stroke-width:0.383;stroke-miterlimit:10;}
	.st78{fill:none;stroke:#A17644;stroke-width:0.7115;stroke-miterlimit:10;}
</style>
<rect x="79.7" y="164" class="st0" width="33.2" height="4.5"/>
<g>
	<path class="st6" d="M27.6,190.9v2.5h1.8v1.9h-1.8v5.1c0,0.4,0.1,0.7,0.2,0.8c0.2,0.2,0.4,0.2,0.6,0.2c0.2,0,0.3,0,0.5,0
		c0.1,0,0.3,0,0.5-0.1l0.2,2c-0.3,0.1-0.6,0.2-0.9,0.2c-0.3,0-0.6,0.1-1,0.1c-0.9,0-1.7-0.3-2.2-0.8c-0.5-0.5-0.8-1.3-0.8-2.4v-5.1
		h-1.5v-1.9h1.5v-2.5H27.6z"/>
	<path class="st6" d="M30.5,201.8l1.3-0.3v-10.7l-1.4-0.3v-1.6h4.1v5.7c0.3-0.5,0.7-0.8,1.2-1.1c0.5-0.3,1-0.4,1.5-0.4
		c1.1,0,1.9,0.3,2.5,1c0.6,0.7,0.9,1.8,0.9,3.2v4.1l1.3,0.3v1.6h-5.2v-1.6l1.2-0.3v-4.1c0-0.8-0.1-1.3-0.4-1.7
		c-0.3-0.3-0.7-0.5-1.2-0.5c-0.4,0-0.7,0.1-1,0.2c-0.3,0.1-0.5,0.3-0.7,0.6v5.4l1.2,0.3v1.6h-5.2V201.8z"/>
	<path class="st6" d="M47.5,203.6c-1.4,0-2.6-0.5-3.5-1.4c-0.9-0.9-1.3-2.1-1.3-3.5v-0.4c0-1.5,0.4-2.7,1.2-3.7
		c0.8-1,1.9-1.4,3.3-1.4c1.4,0,2.4,0.4,3.2,1.2c0.7,0.8,1.1,1.9,1.1,3.3v1.5h-6l0,0.1c0,0.7,0.3,1.2,0.7,1.6
		c0.4,0.4,0.9,0.6,1.6,0.6c0.6,0,1.1-0.1,1.5-0.2c0.4-0.1,0.8-0.3,1.3-0.6l0.7,1.7c-0.4,0.3-1,0.6-1.6,0.8
		C49,203.5,48.3,203.6,47.5,203.6z M47.2,195.3c-0.5,0-0.9,0.2-1.2,0.6c-0.3,0.4-0.5,0.9-0.5,1.5l0,0h3.3v-0.2c0-0.6-0.1-1-0.4-1.4
		C48.2,195.4,47.8,195.3,47.2,195.3z"/>
	<path class="st6" d="M53,201.8l1.3-0.3v-6.2l-1.4-0.3v-1.6h4l0.1,1.5c0.2-0.5,0.5-0.9,0.9-1.2c0.4-0.3,0.8-0.4,1.3-0.4
		c0.1,0,0.3,0,0.4,0c0.2,0,0.3,0,0.4,0.1l-0.3,2.5l-1.1,0c-0.4,0-0.7,0.1-1,0.2s-0.5,0.4-0.6,0.7v4.9l1.3,0.3v1.6H53V201.8z"/>
	<path class="st6" d="M65.4,203.6c-1.4,0-2.6-0.5-3.5-1.4c-0.9-0.9-1.3-2.1-1.3-3.5v-0.4c0-1.5,0.4-2.7,1.2-3.7
		c0.8-1,1.9-1.4,3.3-1.4c1.4,0,2.4,0.4,3.2,1.2c0.7,0.8,1.1,1.9,1.1,3.3v1.5h-6l0,0.1c0,0.7,0.3,1.2,0.7,1.6
		c0.4,0.4,0.9,0.6,1.6,0.6c0.6,0,1.1-0.1,1.5-0.2c0.4-0.1,0.8-0.3,1.3-0.6l0.7,1.7c-0.4,0.3-1,0.6-1.6,0.8
		C66.9,203.5,66.2,203.6,65.4,203.6z M65.2,195.3c-0.5,0-0.9,0.2-1.2,0.6c-0.3,0.4-0.5,0.9-0.5,1.5l0,0h3.3v-0.2
		c0-0.6-0.1-1-0.4-1.4C66.1,195.4,65.7,195.3,65.2,195.3z"/>
	<path class="st6" d="M73,190.7c0,0.6-0.2,1.3-0.5,2c-0.3,0.7-0.7,1.2-1.2,1.7l-1.3-0.7c0.2-0.4,0.4-0.9,0.6-1.3
		c0.1-0.5,0.2-1,0.2-1.6v-1.8H73V190.7z"/>
	<path class="st6" d="M81.7,196.8h-1.8l-0.3-1.3c-0.2-0.1-0.4-0.3-0.7-0.4c-0.3-0.1-0.6-0.1-0.9-0.1c-0.5,0-0.9,0.1-1.1,0.3
		c-0.3,0.2-0.4,0.5-0.4,0.8c0,0.3,0.1,0.6,0.4,0.8c0.3,0.2,0.8,0.4,1.6,0.5c1.2,0.2,2.2,0.6,2.8,1.1c0.6,0.5,0.9,1.1,0.9,2
		c0,0.9-0.4,1.6-1.2,2.2c-0.8,0.6-1.8,0.9-3.1,0.9c-0.8,0-1.5-0.1-2.1-0.3c-0.6-0.2-1.2-0.5-1.7-1l0-2.3h1.9l0.4,1.3
		c0.2,0.1,0.4,0.2,0.7,0.3c0.3,0.1,0.6,0.1,0.9,0.1c0.6,0,1-0.1,1.3-0.3c0.3-0.2,0.4-0.5,0.4-0.8c0-0.3-0.1-0.6-0.4-0.8
		c-0.3-0.2-0.8-0.4-1.6-0.6c-1.2-0.2-2.1-0.6-2.7-1.1c-0.6-0.5-0.9-1.1-0.9-1.9c0-0.8,0.3-1.6,1-2.2c0.7-0.6,1.7-0.9,3-0.9
		c0.8,0,1.5,0.1,2.2,0.3c0.7,0.2,1.2,0.5,1.6,0.8L81.7,196.8z"/>
	<path class="st6" d="M87.8,201.8l1.3-0.3v-6.2l-1.4-0.3v-1.6h4l0.1,1.4c0.3-0.5,0.7-0.9,1.2-1.2c0.5-0.3,1-0.4,1.6-0.4
		c1,0,1.8,0.3,2.4,1c0.6,0.6,0.9,1.6,0.9,3v4.4l1.3,0.3v1.6H94v-1.6l1.2-0.3v-4.4c0-0.7-0.1-1.2-0.4-1.4c-0.3-0.3-0.7-0.4-1.2-0.4
		c-0.4,0-0.7,0.1-1,0.2c-0.3,0.1-0.5,0.4-0.7,0.6v5.4l1.1,0.3v1.6h-5.1V201.8z"/>
	<path class="st6" d="M99.9,198.3c0-1.5,0.4-2.7,1.3-3.7c0.8-1,2-1.4,3.5-1.4c1.5,0,2.6,0.5,3.5,1.4c0.8,1,1.3,2.2,1.3,3.7v0.2
		c0,1.5-0.4,2.7-1.3,3.7c-0.8,1-2,1.4-3.5,1.4c-1.5,0-2.7-0.5-3.5-1.4c-0.8-0.9-1.3-2.2-1.3-3.7V198.3z M102.7,198.5
		c0,0.9,0.2,1.7,0.5,2.2c0.3,0.6,0.8,0.8,1.6,0.8c0.7,0,1.2-0.3,1.5-0.8c0.3-0.6,0.5-1.3,0.5-2.2v-0.2c0-0.9-0.2-1.6-0.5-2.2
		c-0.3-0.6-0.8-0.8-1.5-0.8s-1.2,0.3-1.5,0.8c-0.3,0.6-0.5,1.3-0.5,2.2V198.5z"/>
	<path class="st6" d="M114.6,190.9v2.5h1.8v1.9h-1.8v5.1c0,0.4,0.1,0.7,0.2,0.8c0.2,0.2,0.4,0.2,0.6,0.2c0.2,0,0.3,0,0.5,0
		c0.1,0,0.3,0,0.5-0.1l0.2,2c-0.3,0.1-0.6,0.2-0.9,0.2c-0.3,0-0.6,0.1-1,0.1c-0.9,0-1.7-0.3-2.2-0.8c-0.5-0.5-0.8-1.3-0.8-2.4v-5.1
		h-1.5v-1.9h1.5v-2.5H114.6z"/>
	<path class="st6" d="M117.5,201.8l1.3-0.3v-10.7l-1.4-0.3v-1.6h4.1v5.7c0.3-0.5,0.7-0.8,1.2-1.1c0.5-0.3,1-0.4,1.5-0.4
		c1.1,0,1.9,0.3,2.5,1c0.6,0.7,0.9,1.8,0.9,3.2v4.1l1.3,0.3v1.6h-5.2v-1.6l1.2-0.3v-4.1c0-0.8-0.1-1.3-0.4-1.7
		c-0.3-0.3-0.7-0.5-1.2-0.5c-0.4,0-0.7,0.1-1,0.2c-0.3,0.1-0.5,0.3-0.7,0.6v5.4l1.2,0.3v1.6h-5.2V201.8z"/>
	<path class="st6" d="M129.7,201.8l1.3-0.3v-6.2l-1.4-0.3v-1.6h4.2v8.1l1.3,0.3v1.6h-5.3V201.8z M133.7,191H131v-2h2.7V191z"/>
	<path class="st6" d="M135.7,201.8l1.3-0.3v-6.2l-1.4-0.3v-1.6h4l0.1,1.4c0.3-0.5,0.7-0.9,1.2-1.2c0.5-0.3,1-0.4,1.6-0.4
		c1,0,1.8,0.3,2.4,1c0.6,0.6,0.9,1.6,0.9,3v4.4l1.3,0.3v1.6h-5.2v-1.6l1.2-0.3v-4.4c0-0.7-0.1-1.2-0.4-1.4c-0.3-0.3-0.7-0.4-1.2-0.4
		c-0.4,0-0.7,0.1-1,0.2c-0.3,0.1-0.5,0.4-0.7,0.6v5.4l1.1,0.3v1.6h-5.1V201.8z"/>
	<path class="st6" d="M148,198.5c0-1.6,0.3-2.9,1-3.8c0.7-1,1.7-1.5,2.9-1.5c0.6,0,1.1,0.1,1.5,0.4c0.4,0.2,0.8,0.6,1.1,1.1l0.2-1.3
		h2.4v9.7c0,1.3-0.4,2.4-1.2,3.2c-0.8,0.8-2,1.2-3.4,1.2c-0.5,0-1-0.1-1.6-0.2c-0.6-0.1-1.1-0.3-1.6-0.6l0.5-1.9
		c0.4,0.2,0.9,0.3,1.3,0.4c0.4,0.1,0.9,0.2,1.4,0.2c0.7,0,1.2-0.2,1.5-0.6c0.3-0.4,0.5-1,0.5-1.7v-0.7c-0.3,0.4-0.6,0.7-1,0.9
		c-0.4,0.2-0.9,0.3-1.4,0.3c-1.2,0-2.2-0.5-2.9-1.4c-0.7-0.9-1-2.1-1-3.6V198.5z M150.7,198.7c0,0.9,0.1,1.6,0.4,2.1
		s0.8,0.8,1.4,0.8c0.4,0,0.8-0.1,1.1-0.2c0.3-0.2,0.5-0.4,0.7-0.7v-4.4c-0.2-0.3-0.4-0.5-0.7-0.7c-0.3-0.2-0.6-0.2-1-0.2
		c-0.7,0-1.1,0.3-1.5,0.9c-0.3,0.6-0.5,1.4-0.5,2.3V198.7z"/>
	<path class="st6" d="M163.2,201.8l1.3-0.3v-10.7l-1.4-0.3v-1.6h4.1v5.7c0.3-0.5,0.7-0.8,1.2-1.1c0.5-0.3,1-0.4,1.5-0.4
		c1.1,0,1.9,0.3,2.5,1c0.6,0.7,0.9,1.8,0.9,3.2v4.1l1.3,0.3v1.6h-5.2v-1.6l1.2-0.3v-4.1c0-0.8-0.1-1.3-0.4-1.7
		c-0.3-0.3-0.7-0.5-1.2-0.5c-0.4,0-0.7,0.1-1,0.2c-0.3,0.1-0.5,0.3-0.7,0.6v5.4l1.2,0.3v1.6h-5.2V201.8z"/>
	<path class="st6" d="M180.2,203.6c-1.4,0-2.6-0.5-3.5-1.4c-0.9-0.9-1.3-2.1-1.3-3.5v-0.4c0-1.5,0.4-2.7,1.2-3.7
		c0.8-1,1.9-1.4,3.3-1.4c1.4,0,2.4,0.4,3.2,1.2c0.7,0.8,1.1,1.9,1.1,3.3v1.5h-6l0,0.1c0,0.7,0.3,1.2,0.7,1.6
		c0.4,0.4,0.9,0.6,1.6,0.6c0.6,0,1.1-0.1,1.5-0.2c0.4-0.1,0.8-0.3,1.3-0.6l0.7,1.7c-0.4,0.3-1,0.6-1.6,0.8
		C181.7,203.5,181,203.6,180.2,203.6z M179.9,195.3c-0.5,0-0.9,0.2-1.2,0.6c-0.3,0.4-0.5,0.9-0.5,1.5l0,0h3.3v-0.2
		c0-0.6-0.1-1-0.4-1.4C180.9,195.4,180.5,195.3,179.9,195.3z"/>
	<path class="st6" d="M185.7,201.8l1.3-0.3v-6.2l-1.4-0.3v-1.6h4l0.1,1.5c0.2-0.5,0.5-0.9,0.9-1.2c0.4-0.3,0.8-0.4,1.3-0.4
		c0.1,0,0.3,0,0.4,0c0.2,0,0.3,0,0.4,0.1l-0.3,2.5l-1.1,0c-0.4,0-0.7,0.1-1,0.2s-0.5,0.4-0.6,0.7v4.9l1.3,0.3v1.6h-5.3V201.8z"/>
	<path class="st6" d="M198.1,203.6c-1.4,0-2.6-0.5-3.5-1.4c-0.9-0.9-1.3-2.1-1.3-3.5v-0.4c0-1.5,0.4-2.7,1.2-3.7
		c0.8-1,1.9-1.4,3.3-1.4c1.4,0,2.4,0.4,3.2,1.2c0.7,0.8,1.1,1.9,1.1,3.3v1.5h-6l0,0.1c0,0.7,0.3,1.2,0.7,1.6
		c0.4,0.4,0.9,0.6,1.6,0.6c0.6,0,1.1-0.1,1.5-0.2c0.4-0.1,0.8-0.3,1.3-0.6l0.7,1.7c-0.4,0.3-1,0.6-1.6,0.8
		C199.6,203.5,198.9,203.6,198.1,203.6z M197.9,195.3c-0.5,0-0.9,0.2-1.2,0.6c-0.3,0.4-0.5,0.9-0.5,1.5l0,0h3.3v-0.2
		c0-0.6-0.1-1-0.4-1.4C198.8,195.4,198.4,195.3,197.9,195.3z"/>
	<path class="st6" d="M36.7,224.8l1.3-0.3v-6.2h-1.5v-1.9H38v-1.1c0-1.1,0.3-2,1-2.6c0.6-0.6,1.6-0.9,2.7-0.9c0.2,0,0.5,0,0.7,0.1
		c0.2,0,0.5,0.1,0.8,0.1l-0.2,2c-0.1,0-0.3,0-0.4-0.1c-0.1,0-0.3,0-0.5,0c-0.4,0-0.8,0.1-1,0.4c-0.2,0.2-0.3,0.6-0.3,1v1.1h2v1.9h-2
		v6.2l1.3,0.3v1.6h-5.3V224.8z"/>
	<path class="st6" d="M50,226.4c-0.1-0.2-0.1-0.3-0.2-0.5c-0.1-0.2-0.1-0.4-0.1-0.5c-0.3,0.4-0.7,0.7-1.2,0.9
		c-0.5,0.2-1,0.3-1.6,0.3c-1,0-1.8-0.3-2.3-0.8c-0.6-0.5-0.9-1.3-0.9-2.2c0-0.9,0.4-1.7,1.1-2.2c0.8-0.5,1.9-0.8,3.3-0.8h1.4v-1
		c0-0.5-0.1-0.9-0.4-1.1s-0.7-0.4-1.2-0.4c-0.3,0-0.6,0-0.8,0.1s-0.4,0.2-0.6,0.3l-0.2,1.1h-2l0-2.2c0.5-0.3,1.1-0.6,1.7-0.8
		c0.6-0.2,1.3-0.3,2.1-0.3c1.2,0,2.3,0.3,3,0.9c0.8,0.6,1.2,1.5,1.2,2.6v4.1c0,0.2,0,0.3,0,0.4c0,0.1,0,0.3,0,0.4l0.8,0.1v1.6H50z
		 M47.7,224.6c0.4,0,0.8-0.1,1.1-0.3c0.3-0.2,0.6-0.4,0.8-0.7v-1.5h-1.4c-0.6,0-1,0.1-1.3,0.4c-0.3,0.3-0.4,0.6-0.4,1
		c0,0.3,0.1,0.6,0.3,0.8C47,224.5,47.3,224.6,47.7,224.6z"/>
	<path class="st6" d="M58.2,218l-0.9,0.2l1.3,4.5l0.2,0.9h0.1l0.2-0.9l1.3-4.5l-1-0.2v-1.6h4.6v1.6l-0.9,0.1l-3,8.3h-2.6l-3-8.3
		l-0.9-0.1v-1.6h4.6V218z"/>
	<path class="st6" d="M64.6,221.3c0-1.5,0.4-2.7,1.3-3.7c0.8-1,2-1.4,3.5-1.4c1.5,0,2.6,0.5,3.5,1.4c0.8,1,1.3,2.2,1.3,3.7v0.2
		c0,1.5-0.4,2.7-1.3,3.7c-0.8,1-2,1.4-3.5,1.4c-1.5,0-2.7-0.5-3.5-1.4c-0.8-0.9-1.3-2.2-1.3-3.7V221.3z M67.3,221.5
		c0,0.9,0.2,1.7,0.5,2.2c0.3,0.6,0.8,0.8,1.6,0.8c0.7,0,1.2-0.3,1.5-0.8c0.3-0.6,0.5-1.3,0.5-2.2v-0.2c0-0.9-0.2-1.6-0.5-2.2
		c-0.3-0.6-0.8-0.8-1.5-0.8s-1.2,0.3-1.5,0.8c-0.3,0.6-0.5,1.3-0.5,2.2V221.5z"/>
	<path class="st6" d="M82.3,225.1c-0.3,0.5-0.7,0.8-1.2,1.1c-0.5,0.3-1,0.4-1.6,0.4c-1.1,0-1.9-0.3-2.5-1c-0.6-0.7-0.9-1.7-0.9-3.2
		v-4.1L75,218v-1.6h1.1h2.7v6.1c0,0.7,0.1,1.3,0.4,1.6c0.2,0.3,0.6,0.5,1.1,0.5c0.4,0,0.8-0.1,1.1-0.2c0.3-0.1,0.6-0.3,0.8-0.6v-5.4
		l-1.2-0.3v-1.6h1.2h2.7v8.1l1.2,0.3v1.6h-3.6L82.3,225.1z"/>
	<path class="st6" d="M87.3,224.8l1.3-0.3v-6.2l-1.4-0.3v-1.6h4l0.1,1.5c0.2-0.5,0.5-0.9,0.9-1.2c0.4-0.3,0.8-0.4,1.3-0.4
		c0.1,0,0.3,0,0.4,0c0.2,0,0.3,0,0.4,0.1l-0.3,2.5l-1.1,0c-0.4,0-0.7,0.1-1,0.2s-0.5,0.4-0.6,0.7v4.9l1.3,0.3v1.6h-5.3V224.8z"/>
	<path class="st6" d="M95,224.8l1.3-0.3v-6.2l-1.4-0.3v-1.6H99v8.1l1.3,0.3v1.6H95V224.8z M99,214h-2.7v-2H99V214z"/>
	<path class="st6" d="M105.2,213.9v2.5h1.8v1.9h-1.8v5.1c0,0.4,0.1,0.7,0.2,0.8c0.2,0.2,0.4,0.2,0.6,0.2c0.2,0,0.3,0,0.5,0
		c0.1,0,0.3,0,0.5-0.1l0.2,2c-0.3,0.1-0.6,0.2-0.9,0.2c-0.3,0-0.6,0.1-1,0.1c-0.9,0-1.7-0.3-2.2-0.8c-0.5-0.5-0.8-1.3-0.8-2.4v-5.1
		h-1.5v-1.9h1.5v-2.5H105.2z"/>
	<path class="st6" d="M113.1,226.6c-1.4,0-2.6-0.5-3.5-1.4c-0.9-0.9-1.3-2.1-1.3-3.5v-0.4c0-1.5,0.4-2.7,1.2-3.7
		c0.8-1,1.9-1.4,3.3-1.4c1.4,0,2.4,0.4,3.2,1.2c0.7,0.8,1.1,1.9,1.1,3.3v1.5h-6l0,0.1c0,0.7,0.3,1.2,0.7,1.6
		c0.4,0.4,0.9,0.6,1.6,0.6c0.6,0,1.1-0.1,1.5-0.2c0.4-0.1,0.8-0.3,1.3-0.6l0.7,1.7c-0.4,0.3-1,0.6-1.6,0.8
		C114.7,226.5,113.9,226.6,113.1,226.6z M112.9,218.3c-0.5,0-0.9,0.2-1.2,0.6c-0.3,0.4-0.5,0.9-0.5,1.5l0,0h3.3v-0.2
		c0-0.6-0.1-1-0.4-1.4C113.8,218.4,113.4,218.3,112.9,218.3z"/>
	<path class="st6" d="M129.5,226.4c-0.1-0.2-0.1-0.3-0.2-0.5c-0.1-0.2-0.1-0.4-0.1-0.5c-0.3,0.4-0.7,0.7-1.2,0.9
		c-0.5,0.2-1,0.3-1.6,0.3c-1,0-1.8-0.3-2.3-0.8c-0.6-0.5-0.9-1.3-0.9-2.2c0-0.9,0.4-1.7,1.1-2.2c0.8-0.5,1.9-0.8,3.3-0.8h1.4v-1
		c0-0.5-0.1-0.9-0.4-1.1s-0.7-0.4-1.2-0.4c-0.3,0-0.6,0-0.8,0.1s-0.4,0.2-0.6,0.3l-0.2,1.1h-2l0-2.2c0.5-0.3,1.1-0.6,1.7-0.8
		c0.6-0.2,1.3-0.3,2.1-0.3c1.2,0,2.3,0.3,3,0.9c0.8,0.6,1.2,1.5,1.2,2.6v4.1c0,0.2,0,0.3,0,0.4c0,0.1,0,0.3,0,0.4l0.8,0.1v1.6H129.5
		z M127.2,224.6c0.4,0,0.8-0.1,1.1-0.3c0.3-0.2,0.6-0.4,0.8-0.7v-1.5h-1.4c-0.6,0-1,0.1-1.3,0.4c-0.3,0.3-0.4,0.6-0.4,1
		c0,0.3,0.1,0.6,0.3,0.8C126.5,224.5,126.8,224.6,127.2,224.6z"/>
	<path class="st6" d="M138.4,224.8l1.3-0.3v-6.2l-1.4-0.3v-1.6h4l0.1,1.5c0.2-0.5,0.5-0.9,0.9-1.2c0.4-0.3,0.8-0.4,1.3-0.4
		c0.1,0,0.3,0,0.4,0c0.2,0,0.3,0,0.4,0.1l-0.3,2.5l-1.1,0c-0.4,0-0.7,0.1-1,0.2s-0.5,0.4-0.6,0.7v4.9l1.3,0.3v1.6h-5.3V224.8z"/>
	<path class="st6" d="M146,221.3c0-1.5,0.4-2.7,1.3-3.7c0.8-1,2-1.4,3.5-1.4c1.5,0,2.6,0.5,3.5,1.4c0.8,1,1.3,2.2,1.3,3.7v0.2
		c0,1.5-0.4,2.7-1.3,3.7c-0.8,1-2,1.4-3.5,1.4c-1.5,0-2.7-0.5-3.5-1.4c-0.8-0.9-1.3-2.2-1.3-3.7V221.3z M148.7,221.5
		c0,0.9,0.2,1.7,0.5,2.2c0.3,0.6,0.8,0.8,1.6,0.8c0.7,0,1.2-0.3,1.5-0.8c0.3-0.6,0.5-1.3,0.5-2.2v-0.2c0-0.9-0.2-1.6-0.5-2.2
		c-0.3-0.6-0.8-0.8-1.5-0.8s-1.2,0.3-1.5,0.8c-0.3,0.6-0.5,1.3-0.5,2.2V221.5z"/>
	<path class="st6" d="M163.7,225.1c-0.3,0.5-0.7,0.8-1.2,1.1c-0.5,0.3-1,0.4-1.6,0.4c-1.1,0-1.9-0.3-2.5-1c-0.6-0.7-0.9-1.7-0.9-3.2
		v-4.1l-1.1-0.3v-1.6h1.1h2.7v6.1c0,0.7,0.1,1.3,0.4,1.6c0.2,0.3,0.6,0.5,1.1,0.5c0.4,0,0.8-0.1,1.1-0.2c0.3-0.1,0.6-0.3,0.8-0.6
		v-5.4l-1.2-0.3v-1.6h1.2h2.7v8.1l1.2,0.3v1.6h-3.6L163.7,225.1z"/>
	<path class="st6" d="M172.5,213.9v2.5h1.8v1.9h-1.8v5.1c0,0.4,0.1,0.7,0.2,0.8c0.2,0.2,0.4,0.2,0.6,0.2c0.2,0,0.3,0,0.5,0
		c0.1,0,0.3,0,0.5-0.1l0.2,2c-0.3,0.1-0.6,0.2-0.9,0.2c-0.3,0-0.6,0.1-1,0.1c-0.9,0-1.7-0.3-2.2-0.8c-0.5-0.5-0.8-1.3-0.8-2.4v-5.1
		h-1.5v-1.9h1.5v-2.5H172.5z"/>
	<path class="st6" d="M180.4,226.6c-1.4,0-2.6-0.5-3.5-1.4c-0.9-0.9-1.3-2.1-1.3-3.5v-0.4c0-1.5,0.4-2.7,1.2-3.7
		c0.8-1,1.9-1.4,3.3-1.4c1.4,0,2.4,0.4,3.2,1.2c0.7,0.8,1.1,1.9,1.1,3.3v1.5h-6l0,0.1c0,0.7,0.3,1.2,0.7,1.6
		c0.4,0.4,0.9,0.6,1.6,0.6c0.6,0,1.1-0.1,1.5-0.2c0.4-0.1,0.8-0.3,1.3-0.6l0.7,1.7c-0.4,0.3-1,0.6-1.6,0.8
		C182,226.5,181.2,226.6,180.4,226.6z M180.2,218.3c-0.5,0-0.9,0.2-1.2,0.6c-0.3,0.4-0.5,0.9-0.5,1.5l0,0h3.3v-0.2
		c0-0.6-0.1-1-0.4-1.4C181.1,218.4,180.7,218.3,180.2,218.3z"/>
	<path class="st6" d="M189,221.8h-2.7v-8.9h2.7V221.8z M189,226.4h-2.7V224h2.7V226.4z"/>
</g>
<g>
	<path class="st30" d="M108.9,168.8c0,0-0.1-2.3-0.3-6.4c-0.2-4.1-0.4-9.9-0.6-16.9c-0.1-7-0.2-15.2-0.1-23.9c0-2.2,0.1-4.4,0.1-6.7
		c0.1-2.2,0.1-4.5,0.2-6.8c0.2-4.6,0.4-9.3,0.7-13.9c0.1-2.3,0.3-4.7,0.5-7c0.1-1.2,0.2-2.3,0.3-3.5c0.1-1.1,0.2-2.3,0.3-3.4
		c0.2-2.3,0.4-4.5,0.7-6.8c0.3-2.2,0.5-4.5,0.8-6.6c0.6-4.3,1.2-8.5,1.8-12.5c0.6-4,1.3-7.7,2-11.1c0.7-3.4,1.3-6.6,2-9.4
		c0.6-2.8,1.2-5.2,1.8-7.2c0.5-2,1-3.5,1.3-4.6c0.3-1.1,0.5-1.6,0.5-1.6l3.4,1.1c0,0-0.1,0.5-0.4,1.6c-0.3,1-0.7,2.6-1.1,4.5
		c-0.4,2-1,4.3-1.5,7.1c-0.5,2.8-1.1,5.9-1.6,9.3c-0.6,3.4-1.1,7.1-1.6,11.1c-0.5,3.9-1,8.1-1.4,12.4c-0.2,2.2-0.4,4.3-0.6,6.5
		c-0.2,2.2-0.3,4.5-0.5,6.7c-0.1,1.1-0.2,2.3-0.2,3.4c-0.1,1.1-0.1,2.3-0.2,3.4c-0.1,2.3-0.3,4.6-0.3,6.9c-0.2,4.6-0.3,9.2-0.3,13.8
		c0,2.3,0,4.5,0,6.7c0,2.2,0,4.4,0.1,6.6c0.1,8.7,0.4,16.7,0.7,23.6c0.3,6.9,0.7,12.7,1,16.7c0.3,4,0.5,6.3,0.5,6.3L108.9,168.8z"/>
</g>
<g>
	<polygon class="st30" points="112.3,66.5 140.1,45.2 141.8,47.2 115.7,70.5 	"/>
</g>
<g>
	<polygon class="st30" points="84.8,87.2 112.5,102.7 109.8,107.2 83.4,89.6 	"/>
</g>
<g>
	<polygon class="st30" points="110.2,128.6 143.2,113.7 144.8,117 112.4,133.3 	"/>
</g>
<line class="st78" x1="143.1" y1="61.4" x2="131.7" y2="53.1"/>
<path class="st5" d="M141.4,64.2c-2.6-1-4-3.3-3-6c1-2.6,3.4-3.2,6.1-2.2c2.6,1,8.8,7.3,8.8,7.3S144,65.2,141.4,64.2z"/>
<ellipse class="st0" cx="79.7" cy="166.2" rx="9.8" ry="2.3"/>
<path class="st5" d="M133.2,167.6c0,0-4.8-0.2-2.3-1.6c2.4-1.4,7.5-1.6,7.5-1.6S142.1,167.9,133.2,167.6z"/>
<path class="st5" d="M53.9,168.8c0,0-4.4,4.1,2.4,3.7C63.6,172,53.9,168.8,53.9,168.8z"/>
<path class="st5" d="M89.4,177.4c2.1-1.6,4.2-3,8.8,0.7c0,0,0,0,0,0C97.9,178.2,85.5,180.4,89.4,177.4z"/>
<path class="st5" d="M149.8,171.6c0,0,12.8-2.1,9.2,1.1S150.4,174.1,149.8,171.6z"/>
</svg>
