<?xml version="1.0" encoding="utf-8"?>
<!-- Generator: Adobe Illustrator 18.1.1, SVG Export Plug-In . SVG Version: 6.00 Build 0)  -->
<svg version="1.1" id="Layer_1" xmlns="http://www.w3.org/2000/svg" xmlns:xlink="http://www.w3.org/1999/xlink" x="0px" y="0px"
	 viewBox="0 0 337.9 263.2" style="enable-background:new 0 0 337.9 263.2;" xml:space="preserve">
<style type="text/css">
	.st0{fill:#C6C6C6;}
	.st1{fill:#A4EEFF;}
	.st2{fill:#58BD98;}
	.st3{fill:#FFFFFF;}
	.st4{fill:#F6899C;}
	.st5{fill:#2AD19D;}
	.st6{fill:#F46B83;}
	.st7{fill:#1A9169;}
	.st8{fill:#17916A;}
	.st9{fill:#AA4660;}
	.st10{fill:#3A5D87;}
	.st11{fill:#527EBB;}
	.st12{fill:#D82908;}
	.st13{fill:#E85749;}
	.st14{fill:#C6AF75;}
	.st15{fill:none;stroke:#A17644;stroke-width:3.3156;stroke-miterlimit:10;}
	.st16{fill:#79E2BC;}
	.st17{fill:#34B188;}
	.st18{fill:#FCED5E;}
	.st19{fill:#FDE49C;}
	.st20{fill:#E2CC8A;}
	.st21{fill:#D9C081;}
	.st22{fill:none;stroke:#626366;stroke-width:10.5772;stroke-miterlimit:10;}
	.st23{fill:none;stroke:#F46B83;stroke-width:8.9907;stroke-linejoin:round;stroke-miterlimit:10;}
	.st24{fill:none;stroke:#F46B83;stroke-width:8.9907;stroke-linecap:round;stroke-miterlimit:10;}
	.st25{fill:#CC486A;}
	.st26{fill:none;stroke:#CE5B79;stroke-width:4.9592;stroke-linecap:round;stroke-miterlimit:10;}
	.st27{fill:#626366;}
	.st28{fill:#FFFFFF;stroke:#626366;stroke-width:7.1491;stroke-linecap:round;stroke-miterlimit:10;}
	.st29{fill:#939598;}
	.st30{fill:#A17644;}
	.st31{fill:#626467;}
	.st32{fill:#E6D0B8;}
	.st33{fill:#EE6D83;}
	.st34{fill:#5ABABA;}
	.st35{fill:#DEDEDE;}
	.st36{fill:#D1D3D4;}
	.st37{fill:none;stroke:#A17644;stroke-width:3.6673;stroke-miterlimit:10;}
	.st38{fill:#16A457;}
	.st39{fill:none;stroke:#2AD19D;stroke-width:20.1693;stroke-linecap:round;stroke-miterlimit:10;}
	.st40{fill:#929496;}
	.st41{fill:none;stroke:#2AD19D;stroke-width:19.8239;stroke-linecap:round;stroke-miterlimit:10;}
	.st42{fill:#EE6B82;}
	.st43{fill:none;stroke:#F46B83;stroke-width:7;stroke-linecap:round;stroke-miterlimit:10;}
	.st44{fill:#F66981;}
	.st45{fill:#16D19B;}
	.st46{fill:#24A45A;}
	.st47{opacity:0.21;fill:#231F20;}
	.st48{fill-rule:evenodd;clip-rule:evenodd;fill:#FFFFFF;}
	.st49{fill:#F16D83;}
	.st50{fill-rule:evenodd;clip-rule:evenodd;fill:#F56980;}
	.st51{fill:#CCCCCC;}
	.st52{fill:#F36D85;}
	.st53{fill:none;stroke:#F36D85;stroke-width:10.3615;stroke-linecap:round;stroke-linejoin:round;stroke-miterlimit:10;}
	.st54{fill:#F4A6B7;}
	.st55{fill:#CBCBCB;}
	.st56{fill:#F06E85;}
	.st57{fill:#909294;}
	.st58{fill:#F56980;}
	.st59{opacity:0.3;}
	.st60{fill:#E2F2EB;}
	.st61{fill:#BC4D65;}
	.st62{fill:#933850;}
	.st63{fill:none;stroke:#929496;stroke-width:2.3266;stroke-linecap:round;stroke-miterlimit:10;stroke-dasharray:4.0716,11.6331;}
	.st64{fill:none;stroke:#F46B83;stroke-width:3.4899;stroke-miterlimit:10;}
	.st65{fill:#58595B;}
	.st66{fill:#7F614C;}
	.st67{fill:#AD8463;}
	.st68{fill:#C9AD7B;}
	.st69{fill:#A58C65;}
	.st70{fill:none;}
	.st71{fill:#F1F1F2;}
	.st72{fill:#936E55;}
	.st73{fill:#A87B51;}
	.st74{fill:none;stroke:#BBBDBF;stroke-width:0.7556;stroke-miterlimit:10;}
	.st75{fill:#404041;}
	.st76{fill:#8E6442;}
	.st77{fill:none;stroke:#7A7A7A;stroke-width:0.383;stroke-miterlimit:10;}
	.st78{fill:none;stroke:#A17644;stroke-width:0.7115;stroke-miterlimit:10;}
</style>
<g>
	<g>
		
			<ellipse transform="matrix(-0.165 0.9863 -0.9863 -0.165 244.7909 -123.0668)" class="st6" cx="174.5" cy="42.1" rx="15.8" ry="13.1"/>
		
			<ellipse transform="matrix(0.9982 5.998912e-02 -5.998912e-02 0.9982 4.2222 -11.4269)" class="st6" cx="192.4" cy="64.6" rx="15.8" ry="13.1"/>
		
			<ellipse transform="matrix(-0.2016 0.9795 -0.9795 -0.2016 279.094 -78.6404)" class="st6" cx="171.6" cy="74.4" rx="10.1" ry="8.4"/>
		
			<ellipse transform="matrix(0.9997 2.279850e-02 -2.279850e-02 0.9997 1.423 -3.6451)" class="st6" cx="160.6" cy="60.6" rx="10.1" ry="8.4"/>
		
			<rect x="163.7" y="53.7" transform="matrix(-0.7823 0.6229 -0.6229 -0.7823 346.6729 1.3669)" class="st6" width="18.7" height="15.1"/>
		
			<ellipse transform="matrix(-0.165 0.9863 -0.9863 -0.165 247.2648 -118.9664)" class="st61" cx="174" cy="45.2" rx="10.1" ry="6.8"/>
		
			<ellipse transform="matrix(-0.9982 -5.998909e-02 5.998909e-02 -0.9982 375.4012 141.4009)" class="st61" cx="189.8" cy="65.1" rx="10.1" ry="6.8"/>
		<ellipse transform="matrix(0.165 -0.9863 0.9863 0.165 70.016 231.5062)" class="st61" cx="171.7" cy="74.4" rx="5.9" ry="4"/>
		
			<ellipse transform="matrix(-0.9982 -5.998909e-02 5.998909e-02 -0.9982 317.2042 130.2534)" class="st61" cx="160.6" cy="60.4" rx="5.9" ry="4"/>
		<path class="st62" d="M161.3,71.3L161.3,71.3c0.9,1.1,2.5,1.3,3.7,0.4L183.4,57c1.1-0.9,1.3-2.5,0.4-3.6l0,0
			c-0.9-1.1-2.5-1.3-3.7-0.4l-18.5,14.7C160.6,68.5,160.4,70.2,161.3,71.3z"/>
	</g>
	<path class="st63" d="M75.8,33.7c5.6-7.1,13.6-11.9,22.8-8.1c7.6,3.2,12.5,11.1,13.7,19.2c1.1,8.2-1,16.5-4.4,24
		c-8.2,18.2-21.1,33.1-24.2,53.6c-1.2,8.3-0.6,17,3.2,24.4c8.8,17.3,32.3,22,49.5,14.7c8.8-3.7,15.9-10.6,18.5-20
		c4.2-15.4-3.3-21.3-10.4-33.5c-7.6-13.1,4.2-25.7,12.1-32.3"/>
	<g>
		<path class="st6" d="M244.8,138.6l-35.3-44.1c-0.1-0.1-0.2-0.2-0.2-0.3c-2.7,2.8-5.8,5.2-9,7.3c0.1,0.1,0.1,0.2,0.2,0.3l35.3,44.1
			c1,1.3,2.5,2,4.1,2.2c1.4,0.1,2.9-0.3,4.1-1.3C246.4,144.8,246.8,141.1,244.8,138.6z"/>
	</g>
	<circle class="st64" cx="174.9" cy="61.3" r="47.6"/>
</g>
<g>
	<path class="st6" d="M67.4,196.7l1.3-0.3v-6.2l-1.4-0.3v-1.6h4l0.1,1.4c0.3-0.5,0.7-0.9,1.2-1.2c0.5-0.3,1-0.4,1.6-0.4
		c1,0,1.8,0.3,2.4,1c0.6,0.6,0.9,1.6,0.9,3v4.4l1.3,0.3v1.6h-5.2v-1.6l1.2-0.3v-4.4c0-0.7-0.1-1.2-0.4-1.4c-0.3-0.3-0.7-0.4-1.2-0.4
		c-0.4,0-0.7,0.1-1,0.2c-0.3,0.1-0.5,0.4-0.7,0.6v5.4l1.1,0.3v1.6h-5.1V196.7z"/>
	<path class="st6" d="M86,198.3c-0.1-0.2-0.1-0.3-0.2-0.5c-0.1-0.2-0.1-0.4-0.1-0.5c-0.3,0.4-0.7,0.7-1.2,0.9
		c-0.5,0.2-1,0.3-1.6,0.3c-1,0-1.8-0.3-2.3-0.8c-0.6-0.5-0.9-1.3-0.9-2.2c0-0.9,0.4-1.7,1.1-2.2c0.8-0.5,1.9-0.8,3.3-0.8h1.4v-1
		c0-0.5-0.1-0.9-0.4-1.1s-0.7-0.4-1.2-0.4c-0.3,0-0.6,0-0.8,0.1s-0.4,0.2-0.6,0.3l-0.2,1.1h-2l0-2.2c0.5-0.3,1.1-0.6,1.7-0.8
		c0.6-0.2,1.3-0.3,2.1-0.3c1.2,0,2.3,0.3,3,0.9c0.8,0.6,1.2,1.5,1.2,2.6v4.1c0,0.2,0,0.3,0,0.4c0,0.1,0,0.3,0,0.4l0.8,0.1v1.6H86z
		 M83.6,196.5c0.4,0,0.8-0.1,1.1-0.3c0.3-0.2,0.6-0.4,0.8-0.7V194h-1.4c-0.6,0-1,0.1-1.3,0.4c-0.3,0.3-0.4,0.6-0.4,1
		c0,0.3,0.1,0.6,0.3,0.8C82.9,196.4,83.2,196.5,83.6,196.5z"/>
	<path class="st6" d="M93.3,185.8v2.5H95v1.9h-1.8v5.1c0,0.4,0.1,0.7,0.2,0.8c0.2,0.2,0.4,0.2,0.6,0.2c0.2,0,0.3,0,0.5,0
		c0.1,0,0.3,0,0.5-0.1l0.2,2c-0.3,0.1-0.6,0.2-0.9,0.2c-0.3,0-0.6,0.1-1,0.1c-0.9,0-1.7-0.3-2.2-0.8c-0.5-0.5-0.8-1.3-0.8-2.4v-5.1
		h-1.5v-1.9h1.5v-2.5H93.3z"/>
	<path class="st6" d="M103.4,197c-0.3,0.5-0.7,0.8-1.2,1.1c-0.5,0.3-1,0.4-1.6,0.4c-1.1,0-1.9-0.3-2.5-1c-0.6-0.7-0.9-1.7-0.9-3.2
		v-4.1l-1.1-0.3v-1.6h1.1h2.7v6.1c0,0.7,0.1,1.3,0.4,1.6c0.2,0.3,0.6,0.5,1.1,0.5c0.4,0,0.8-0.1,1.1-0.2c0.3-0.1,0.6-0.3,0.8-0.6
		v-5.4l-1.2-0.3v-1.6h1.2h2.7v8.1l1.2,0.3v1.6h-3.6L103.4,197z"/>
	<path class="st6" d="M108.4,196.7l1.3-0.3v-6.2l-1.4-0.3v-1.6h4l0.1,1.5c0.2-0.5,0.5-0.9,0.9-1.2c0.4-0.3,0.8-0.4,1.3-0.4
		c0.1,0,0.3,0,0.4,0c0.2,0,0.3,0,0.4,0.1l-0.3,2.5l-1.1,0c-0.4,0-0.7,0.1-1,0.2s-0.5,0.4-0.6,0.7v4.9l1.3,0.3v1.6h-5.3V196.7z"/>
	<path class="st6" d="M122.4,198.3c-0.1-0.2-0.1-0.3-0.2-0.5c-0.1-0.2-0.1-0.4-0.1-0.5c-0.3,0.4-0.7,0.7-1.2,0.9
		c-0.5,0.2-1,0.3-1.6,0.3c-1,0-1.8-0.3-2.3-0.8c-0.6-0.5-0.9-1.3-0.9-2.2c0-0.9,0.4-1.7,1.1-2.2c0.8-0.5,1.9-0.8,3.3-0.8h1.4v-1
		c0-0.5-0.1-0.9-0.4-1.1s-0.7-0.4-1.2-0.4c-0.3,0-0.6,0-0.8,0.1s-0.4,0.2-0.6,0.3l-0.2,1.1h-2l0-2.2c0.5-0.3,1.1-0.6,1.7-0.8
		c0.6-0.2,1.3-0.3,2.1-0.3c1.2,0,2.3,0.3,3,0.9c0.8,0.6,1.2,1.5,1.2,2.6v4.1c0,0.2,0,0.3,0,0.4c0,0.1,0,0.3,0,0.4l0.8,0.1v1.6H122.4
		z M120.1,196.5c0.4,0,0.8-0.1,1.1-0.3c0.3-0.2,0.6-0.4,0.8-0.7V194h-1.4c-0.6,0-1,0.1-1.3,0.4c-0.3,0.3-0.4,0.6-0.4,1
		c0,0.3,0.1,0.6,0.3,0.8C119.4,196.4,119.7,196.5,120.1,196.5z"/>
	<path class="st6" d="M126.2,185.5v-1.6h4.2v12.6l1.3,0.3v1.6h-5.3v-1.6l1.3-0.3v-10.7L126.2,185.5z"/>
	<path class="st6" d="M146.9,193.6c0,1.5-0.3,2.7-1,3.6s-1.6,1.3-2.9,1.3c-0.6,0-1.1-0.1-1.5-0.4c-0.4-0.2-0.8-0.6-1.1-1.1l-0.2,1.2
		h-2.3v-12.6l-1.4-0.3v-1.6h4.1v5.5c0.3-0.4,0.6-0.7,1-0.9c0.4-0.2,0.9-0.3,1.4-0.3c1.3,0,2.2,0.5,2.9,1.4c0.7,1,1,2.2,1,3.8V193.6z
		 M144.2,193.4c0-1-0.1-1.8-0.4-2.3c-0.3-0.6-0.8-0.9-1.5-0.9c-0.4,0-0.8,0.1-1.1,0.3c-0.3,0.2-0.5,0.4-0.7,0.8v4.2
		c0.2,0.3,0.4,0.5,0.7,0.7c0.3,0.2,0.7,0.2,1.1,0.2c0.7,0,1.2-0.2,1.5-0.7c0.3-0.5,0.4-1.2,0.4-2.1V193.4z"/>
	<path class="st6" d="M152.9,198.5c-1.4,0-2.6-0.5-3.5-1.4c-0.9-0.9-1.3-2.1-1.3-3.5v-0.4c0-1.5,0.4-2.7,1.2-3.7
		c0.8-1,1.9-1.4,3.3-1.4c1.4,0,2.4,0.4,3.2,1.2c0.7,0.8,1.1,1.9,1.1,3.3v1.5h-6l0,0.1c0,0.7,0.3,1.2,0.7,1.6
		c0.4,0.4,0.9,0.6,1.6,0.6c0.6,0,1.1-0.1,1.5-0.2c0.4-0.1,0.8-0.3,1.3-0.6l0.7,1.7c-0.4,0.3-1,0.6-1.6,0.8
		C154.5,198.4,153.7,198.5,152.9,198.5z M152.7,190.2c-0.5,0-0.9,0.2-1.2,0.6c-0.3,0.4-0.5,0.9-0.5,1.5l0,0h3.3v-0.2
		c0-0.6-0.1-1-0.4-1.4C153.6,190.4,153.2,190.2,152.7,190.2z"/>
	<path class="st6" d="M164.6,198.3c-0.1-0.2-0.1-0.3-0.2-0.5c-0.1-0.2-0.1-0.4-0.1-0.5c-0.3,0.4-0.7,0.7-1.2,0.9
		c-0.5,0.2-1,0.3-1.6,0.3c-1,0-1.8-0.3-2.3-0.8c-0.6-0.5-0.9-1.3-0.9-2.2c0-0.9,0.4-1.7,1.1-2.2c0.8-0.5,1.9-0.8,3.3-0.8h1.4v-1
		c0-0.5-0.1-0.9-0.4-1.1s-0.7-0.4-1.2-0.4c-0.3,0-0.6,0-0.8,0.1s-0.4,0.2-0.6,0.3l-0.2,1.1h-2l0-2.2c0.5-0.3,1.1-0.6,1.7-0.8
		c0.6-0.2,1.3-0.3,2.1-0.3c1.2,0,2.3,0.3,3,0.9c0.8,0.6,1.2,1.5,1.2,2.6v4.1c0,0.2,0,0.3,0,0.4c0,0.1,0,0.3,0,0.4l0.8,0.1v1.6H164.6
		z M162.3,196.5c0.4,0,0.8-0.1,1.1-0.3c0.3-0.2,0.6-0.4,0.8-0.7V194h-1.4c-0.6,0-1,0.1-1.3,0.4c-0.3,0.3-0.4,0.6-0.4,1
		c0,0.3,0.1,0.6,0.3,0.8C161.6,196.4,161.9,196.5,162.3,196.5z"/>
	<path class="st6" d="M175.4,197c-0.3,0.5-0.7,0.8-1.2,1.1c-0.5,0.3-1,0.4-1.6,0.4c-1.1,0-1.9-0.3-2.5-1c-0.6-0.7-0.9-1.7-0.9-3.2
		v-4.1l-1.1-0.3v-1.6h1.1h2.7v6.1c0,0.7,0.1,1.3,0.4,1.6c0.2,0.3,0.6,0.5,1.1,0.5c0.4,0,0.8-0.1,1.1-0.2c0.3-0.1,0.6-0.3,0.8-0.6
		v-5.4l-1.2-0.3v-1.6h1.2h2.7v8.1l1.2,0.3v1.6h-3.6L175.4,197z"/>
	<path class="st6" d="M184.2,185.8v2.5h1.8v1.9h-1.8v5.1c0,0.4,0.1,0.7,0.2,0.8c0.2,0.2,0.4,0.2,0.6,0.2c0.2,0,0.3,0,0.5,0
		c0.1,0,0.3,0,0.5-0.1l0.2,2c-0.3,0.1-0.6,0.2-0.9,0.2c-0.3,0-0.6,0.1-1,0.1c-0.9,0-1.7-0.3-2.2-0.8c-0.5-0.5-0.8-1.3-0.8-2.4v-5.1
		h-1.5v-1.9h1.5v-2.5H184.2z"/>
	<path class="st6" d="M197.7,189.9l-0.9,0.1l-3.7,9.8c-0.3,0.7-0.7,1.3-1.2,1.8c-0.5,0.5-1.2,0.7-2.2,0.7c-0.2,0-0.4,0-0.6-0.1
		c-0.2,0-0.4-0.1-0.7-0.2l0.3-2c0.1,0,0.2,0,0.3,0c0.1,0,0.2,0,0.2,0c0.5,0,0.8-0.1,1-0.3s0.4-0.5,0.6-0.8l0.3-0.8l-3.2-8.3
		l-0.9-0.1v-1.6h4.9v1.6l-1.1,0.2l1.4,4l0.1,0.7l0.1,0l1.6-4.7l-1.1-0.2v-1.6h4.9V189.9z"/>
	<path class="st6" d="M209.6,198.3c-0.1-0.2-0.1-0.3-0.2-0.5c-0.1-0.2-0.1-0.4-0.1-0.5c-0.3,0.4-0.7,0.7-1.2,0.9
		c-0.5,0.2-1,0.3-1.6,0.3c-1,0-1.8-0.3-2.3-0.8c-0.6-0.5-0.9-1.3-0.9-2.2c0-0.9,0.4-1.7,1.1-2.2c0.8-0.5,1.9-0.8,3.3-0.8h1.4v-1
		c0-0.5-0.1-0.9-0.4-1.1s-0.7-0.4-1.2-0.4c-0.3,0-0.6,0-0.8,0.1s-0.4,0.2-0.6,0.3l-0.2,1.1h-2l0-2.2c0.5-0.3,1.1-0.6,1.7-0.8
		c0.6-0.2,1.3-0.3,2.1-0.3c1.2,0,2.3,0.3,3,0.9c0.8,0.6,1.2,1.5,1.2,2.6v4.1c0,0.2,0,0.3,0,0.4c0,0.1,0,0.3,0,0.4l0.8,0.1v1.6H209.6
		z M207.3,196.5c0.4,0,0.8-0.1,1.1-0.3c0.3-0.2,0.6-0.4,0.8-0.7V194h-1.4c-0.6,0-1,0.1-1.3,0.4c-0.3,0.3-0.4,0.6-0.4,1
		c0,0.3,0.1,0.6,0.3,0.8C206.6,196.4,206.9,196.5,207.3,196.5z"/>
	<path class="st6" d="M228,189.9l-1,0.1l-2.1,8.3h-2.3l-1.9-6h-0.1l-1.9,6h-2.3l-2.1-8.3l-1-0.1v-1.6h4.5v1.6l-1.1,0.2l0.9,4.6h0.1
		l1.9-6.4h1.8l1.9,6.4h0.1l0.9-4.6l-1.1-0.2v-1.6h4.5V189.9z"/>
	<path class="st6" d="M235.3,198.3c-0.1-0.2-0.1-0.3-0.2-0.5c-0.1-0.2-0.1-0.4-0.1-0.5c-0.3,0.4-0.7,0.7-1.2,0.9
		c-0.5,0.2-1,0.3-1.6,0.3c-1,0-1.8-0.3-2.3-0.8c-0.6-0.5-0.9-1.3-0.9-2.2c0-0.9,0.4-1.7,1.1-2.2c0.8-0.5,1.9-0.8,3.3-0.8h1.4v-1
		c0-0.5-0.1-0.9-0.4-1.1s-0.7-0.4-1.2-0.4c-0.3,0-0.6,0-0.8,0.1s-0.4,0.2-0.6,0.3l-0.2,1.1h-2l0-2.2c0.5-0.3,1.1-0.6,1.7-0.8
		c0.6-0.2,1.3-0.3,2.1-0.3c1.2,0,2.3,0.3,3,0.9c0.8,0.6,1.2,1.5,1.2,2.6v4.1c0,0.2,0,0.3,0,0.4c0,0.1,0,0.3,0,0.4l0.8,0.1v1.6H235.3
		z M233,196.5c0.4,0,0.8-0.1,1.1-0.3c0.3-0.2,0.6-0.4,0.8-0.7V194h-1.4c-0.6,0-1,0.1-1.3,0.4c-0.3,0.3-0.4,0.6-0.4,1
		c0,0.3,0.1,0.6,0.3,0.8C232.3,196.4,232.6,196.5,233,196.5z"/>
	<path class="st6" d="M239.3,196.7l1.3-0.3v-6.2l-1.4-0.3v-1.6h4.2v8.1l1.3,0.3v1.6h-5.3V196.7z M243.3,185.9h-2.7v-2h2.7V185.9z"/>
	<path class="st6" d="M249.5,185.8v2.5h1.8v1.9h-1.8v5.1c0,0.4,0.1,0.7,0.2,0.8c0.2,0.2,0.4,0.2,0.6,0.2c0.2,0,0.3,0,0.5,0
		c0.1,0,0.3,0,0.5-0.1l0.2,2c-0.3,0.1-0.6,0.2-0.9,0.2c-0.3,0-0.6,0.1-1,0.1c-0.9,0-1.7-0.3-2.2-0.8c-0.5-0.5-0.8-1.3-0.8-2.4v-5.1
		h-1.5v-1.9h1.5v-2.5H249.5z"/>
	<path class="st6" d="M260.7,191.7h-1.8l-0.3-1.3c-0.2-0.1-0.4-0.3-0.7-0.4c-0.3-0.1-0.6-0.1-0.9-0.1c-0.5,0-0.9,0.1-1.1,0.3
		c-0.3,0.2-0.4,0.5-0.4,0.8c0,0.3,0.1,0.6,0.4,0.8c0.3,0.2,0.8,0.4,1.6,0.5c1.2,0.2,2.2,0.6,2.8,1.1c0.6,0.5,0.9,1.1,0.9,2
		c0,0.9-0.4,1.6-1.2,2.2c-0.8,0.6-1.8,0.9-3.1,0.9c-0.8,0-1.5-0.1-2.1-0.3c-0.6-0.2-1.2-0.5-1.7-1l0-2.3h1.9l0.4,1.3
		c0.2,0.1,0.4,0.2,0.7,0.3c0.3,0.1,0.6,0.1,0.9,0.1c0.6,0,1-0.1,1.3-0.3c0.3-0.2,0.4-0.5,0.4-0.8c0-0.3-0.1-0.6-0.4-0.8
		c-0.3-0.2-0.8-0.4-1.6-0.6c-1.2-0.2-2.1-0.6-2.7-1.1c-0.6-0.5-0.9-1.1-0.9-1.9c0-0.8,0.3-1.6,1-2.2c0.7-0.6,1.7-0.9,3-0.9
		c0.8,0,1.5,0.1,2.2,0.3c0.7,0.2,1.2,0.5,1.6,0.8L260.7,191.7z"/>
	<path class="st6" d="M265.5,198c0,0.6-0.2,1.3-0.5,2c-0.4,0.7-0.8,1.3-1.3,1.7l-1.3-0.7c0.2-0.4,0.4-0.9,0.6-1.3s0.2-1,0.2-1.5v-2
		h2.4L265.5,198z"/>
	<path class="st6" d="M84.3,212.9l-1,0.1l-2.1,8.3h-2.3l-1.9-6H77l-1.9,6h-2.3l-2.1-8.3l-1-0.1v-1.6h4.5v1.6l-1.1,0.2l0.9,4.6h0.1
		l1.9-6.4h1.8l1.9,6.4h0.1l0.9-4.6l-1.1-0.2v-1.6h4.5V212.9z"/>
	<path class="st6" d="M90,221.5c-1.4,0-2.6-0.5-3.5-1.4c-0.9-0.9-1.3-2.1-1.3-3.5v-0.4c0-1.5,0.4-2.7,1.2-3.7c0.8-1,1.9-1.4,3.3-1.4
		c1.4,0,2.4,0.4,3.2,1.2c0.7,0.8,1.1,1.9,1.1,3.3v1.5h-6l0,0.1c0,0.7,0.3,1.2,0.7,1.6c0.4,0.4,0.9,0.6,1.6,0.6
		c0.6,0,1.1-0.1,1.5-0.2c0.4-0.1,0.8-0.3,1.3-0.6l0.7,1.7c-0.4,0.3-1,0.6-1.6,0.8C91.6,221.4,90.8,221.5,90,221.5z M89.8,213.2
		c-0.5,0-0.9,0.2-1.2,0.6c-0.3,0.4-0.5,0.9-0.5,1.5l0,0h3.3v-0.2c0-0.6-0.1-1-0.4-1.4C90.7,213.4,90.3,213.2,89.8,213.2z"/>
	<path class="st6" d="M104,221.7c0,1.2-0.3,2.1-0.9,2.7c-0.6,0.6-1.5,1-2.6,1c-0.3,0-0.5,0-0.7,0c-0.2,0-0.4-0.1-0.6-0.1l0.1-2.1
		c0.1,0,0.3,0.1,0.4,0.1c0.1,0,0.3,0,0.5,0c0.4,0,0.6-0.1,0.8-0.4c0.2-0.3,0.3-0.7,0.3-1.2v-8.5l-1.4-0.3v-1.6h4.2V221.7z
		 M103.9,208.9h-2.7v-2h2.7V208.9z"/>
	<path class="st6" d="M112.6,220c-0.3,0.5-0.7,0.8-1.2,1.1c-0.5,0.3-1,0.4-1.6,0.4c-1.1,0-1.9-0.3-2.5-1c-0.6-0.7-0.9-1.7-0.9-3.2
		v-4.1l-1.1-0.3v-1.6h1.1h2.7v6.1c0,0.7,0.1,1.3,0.4,1.6c0.2,0.3,0.6,0.5,1.1,0.5c0.4,0,0.8-0.1,1.1-0.2c0.3-0.1,0.6-0.3,0.8-0.6
		v-5.4l-1.2-0.3v-1.6h1.2h2.7v8.1l1.2,0.3v1.6h-3.6L112.6,220z"/>
	<path class="st6" d="M125.6,214.7h-1.8l-0.3-1.3c-0.2-0.1-0.4-0.3-0.7-0.4c-0.3-0.1-0.6-0.1-0.9-0.1c-0.5,0-0.9,0.1-1.1,0.3
		c-0.3,0.2-0.4,0.5-0.4,0.8c0,0.3,0.1,0.6,0.4,0.8c0.3,0.2,0.8,0.4,1.6,0.5c1.2,0.2,2.2,0.6,2.8,1.1c0.6,0.5,0.9,1.1,0.9,2
		c0,0.9-0.4,1.6-1.2,2.2c-0.8,0.6-1.8,0.9-3.1,0.9c-0.8,0-1.5-0.1-2.1-0.3c-0.6-0.2-1.2-0.5-1.7-1l0-2.3h1.9l0.4,1.3
		c0.2,0.1,0.4,0.2,0.7,0.3c0.3,0.1,0.6,0.1,0.9,0.1c0.6,0,1-0.1,1.3-0.3c0.3-0.2,0.4-0.5,0.4-0.8c0-0.3-0.1-0.6-0.4-0.8
		c-0.3-0.2-0.8-0.4-1.6-0.6c-1.2-0.2-2.1-0.6-2.7-1.1c-0.6-0.5-0.9-1.1-0.9-1.9c0-0.8,0.3-1.6,1-2.2c0.7-0.6,1.7-0.9,3-0.9
		c0.8,0,1.5,0.1,2.2,0.3c0.7,0.2,1.2,0.5,1.6,0.8L125.6,214.7z"/>
	<path class="st6" d="M131.2,208.8v2.5h1.8v1.9h-1.8v5.1c0,0.4,0.1,0.7,0.2,0.8c0.2,0.2,0.4,0.2,0.6,0.2c0.2,0,0.3,0,0.5,0
		c0.1,0,0.3,0,0.5-0.1l0.2,2c-0.3,0.1-0.6,0.2-0.9,0.2c-0.3,0-0.6,0.1-1,0.1c-0.9,0-1.7-0.3-2.2-0.8c-0.5-0.5-0.8-1.3-0.8-2.4v-5.1
		H127v-1.9h1.5v-2.5H131.2z"/>
	<path class="st6" d="M145.5,220.1c-0.3,0.5-0.7,0.8-1.1,1.1c-0.4,0.2-0.9,0.4-1.5,0.4c-1.2,0-2.2-0.5-2.9-1.4c-0.7-0.9-1-2.1-1-3.6
		v-0.2c0-1.6,0.3-2.9,1-3.8c0.7-1,1.7-1.5,2.9-1.5c0.5,0,1,0.1,1.4,0.3c0.4,0.2,0.8,0.5,1.1,0.9v-3.6l-1.4-0.3v-1.6h1.4h2.7v12.6
		l1.3,0.3v1.6h-3.6L145.5,220.1z M141.7,216.6c0,0.9,0.1,1.6,0.4,2.1c0.3,0.5,0.8,0.8,1.4,0.8c0.4,0,0.7-0.1,1-0.2
		c0.3-0.2,0.5-0.4,0.7-0.7v-4.3c-0.2-0.3-0.4-0.6-0.7-0.7c-0.3-0.2-0.6-0.3-1-0.3c-0.7,0-1.1,0.3-1.4,0.9c-0.3,0.6-0.5,1.4-0.5,2.3
		V216.6z"/>
	<path class="st6" d="M150.2,216.2c0-1.5,0.4-2.7,1.3-3.7c0.8-1,2-1.4,3.5-1.4c1.5,0,2.6,0.5,3.5,1.4c0.8,1,1.3,2.2,1.3,3.7v0.2
		c0,1.5-0.4,2.7-1.3,3.7c-0.8,1-2,1.4-3.5,1.4c-1.5,0-2.7-0.5-3.5-1.4c-0.8-0.9-1.3-2.2-1.3-3.7V216.2z M152.9,216.4
		c0,0.9,0.2,1.7,0.5,2.2c0.3,0.6,0.8,0.8,1.6,0.8c0.7,0,1.2-0.3,1.5-0.8c0.3-0.6,0.5-1.3,0.5-2.2v-0.2c0-0.9-0.2-1.6-0.5-2.2
		c-0.3-0.6-0.8-0.8-1.5-0.8s-1.2,0.3-1.5,0.8c-0.3,0.6-0.5,1.3-0.5,2.2V216.4z"/>
	<path class="st6" d="M160.7,219.7l1.3-0.3v-6.2l-1.4-0.3v-1.6h4l0.1,1.4c0.3-0.5,0.7-0.9,1.2-1.2c0.5-0.3,1-0.4,1.6-0.4
		c1,0,1.8,0.3,2.4,1c0.6,0.6,0.9,1.6,0.9,3v4.4l1.3,0.3v1.6h-5.2v-1.6l1.2-0.3v-4.4c0-0.7-0.1-1.2-0.4-1.4c-0.3-0.3-0.7-0.4-1.2-0.4
		c-0.4,0-0.7,0.1-1,0.2c-0.3,0.1-0.5,0.4-0.7,0.6v5.4l1.1,0.3v1.6h-5.1V219.7z"/>
	<path class="st6" d="M174.3,208.6c0,0.6-0.2,1.3-0.5,2c-0.3,0.7-0.7,1.2-1.2,1.7l-1.3-0.7c0.2-0.4,0.4-0.9,0.6-1.3
		c0.1-0.5,0.2-1,0.2-1.6v-1.8h2.3V208.6z"/>
	<path class="st6" d="M179.7,208.8v2.5h1.8v1.9h-1.8v5.1c0,0.4,0.1,0.7,0.2,0.8c0.2,0.2,0.4,0.2,0.6,0.2c0.2,0,0.3,0,0.5,0
		c0.1,0,0.3,0,0.5-0.1l0.2,2c-0.3,0.1-0.6,0.2-0.9,0.2c-0.3,0-0.6,0.1-1,0.1c-0.9,0-1.7-0.3-2.2-0.8c-0.5-0.5-0.8-1.3-0.8-2.4v-5.1
		h-1.5v-1.9h1.5v-2.5H179.7z"/>
	<path class="st6" d="M187.3,219.7l1.3-0.3v-10.7l-1.4-0.3v-1.6h4.1v5.7c0.3-0.5,0.7-0.8,1.2-1.1c0.5-0.3,1-0.4,1.5-0.4
		c1.1,0,1.9,0.3,2.5,1c0.6,0.7,0.9,1.8,0.9,3.2v4.1l1.3,0.3v1.6h-5.2v-1.6l1.2-0.3v-4.1c0-0.8-0.1-1.3-0.4-1.7
		c-0.3-0.3-0.7-0.5-1.2-0.5c-0.4,0-0.7,0.1-1,0.2c-0.3,0.1-0.5,0.3-0.7,0.6v5.4l1.2,0.3v1.6h-5.2V219.7z"/>
	<path class="st6" d="M205.9,221.3c-0.1-0.2-0.1-0.3-0.2-0.5c-0.1-0.2-0.1-0.4-0.1-0.5c-0.3,0.4-0.7,0.7-1.2,0.9
		c-0.5,0.2-1,0.3-1.6,0.3c-1,0-1.8-0.3-2.3-0.8c-0.6-0.5-0.9-1.3-0.9-2.2c0-0.9,0.4-1.7,1.1-2.2c0.8-0.5,1.9-0.8,3.3-0.8h1.4v-1
		c0-0.5-0.1-0.9-0.4-1.1s-0.7-0.4-1.2-0.4c-0.3,0-0.6,0-0.8,0.1s-0.4,0.2-0.6,0.3l-0.2,1.1h-2l0-2.2c0.5-0.3,1.1-0.6,1.7-0.8
		c0.6-0.2,1.3-0.3,2.1-0.3c1.2,0,2.3,0.3,3,0.9c0.8,0.6,1.2,1.5,1.2,2.6v4.1c0,0.2,0,0.3,0,0.4c0,0.1,0,0.3,0,0.4l0.8,0.1v1.6H205.9
		z M203.6,219.5c0.4,0,0.8-0.1,1.1-0.3c0.3-0.2,0.6-0.4,0.8-0.7V217h-1.4c-0.6,0-1,0.1-1.3,0.4c-0.3,0.3-0.4,0.6-0.4,1
		c0,0.3,0.1,0.6,0.3,0.8C202.9,219.4,203.2,219.5,203.6,219.5z"/>
	<path class="st6" d="M214.1,212.9l-0.9,0.2l1.3,4.5l0.2,0.9h0.1l0.2-0.9l1.3-4.5l-1-0.2v-1.6h4.6v1.6l-0.9,0.1l-3,8.3h-2.6l-3-8.3
		l-0.9-0.1v-1.6h4.6V212.9z"/>
	<path class="st6" d="M225.4,221.5c-1.4,0-2.6-0.5-3.5-1.4c-0.9-0.9-1.3-2.1-1.3-3.5v-0.4c0-1.5,0.4-2.7,1.2-3.7
		c0.8-1,1.9-1.4,3.3-1.4c1.4,0,2.4,0.4,3.2,1.2c0.7,0.8,1.1,1.9,1.1,3.3v1.5h-6l0,0.1c0,0.7,0.3,1.2,0.7,1.6
		c0.4,0.4,0.9,0.6,1.6,0.6c0.6,0,1.1-0.1,1.5-0.2c0.4-0.1,0.8-0.3,1.3-0.6l0.7,1.7c-0.4,0.3-1,0.6-1.6,0.8
		C226.9,221.4,226.2,221.5,225.4,221.5z M225.1,213.2c-0.5,0-0.9,0.2-1.2,0.6c-0.3,0.4-0.5,0.9-0.5,1.5l0,0h3.3v-0.2
		c0-0.6-0.1-1-0.4-1.4C226.1,213.4,225.7,213.2,225.1,213.2z"/>
	<path class="st6" d="M239.3,208.8v2.5h1.8v1.9h-1.8v5.1c0,0.4,0.1,0.7,0.2,0.8c0.2,0.2,0.4,0.2,0.6,0.2c0.2,0,0.3,0,0.5,0
		c0.1,0,0.3,0,0.5-0.1l0.2,2c-0.3,0.1-0.6,0.2-0.9,0.2c-0.3,0-0.6,0.1-1,0.1c-0.9,0-1.7-0.3-2.2-0.8c-0.5-0.5-0.8-1.3-0.8-2.4v-5.1
		h-1.5v-1.9h1.5v-2.5H239.3z"/>
	<path class="st6" d="M242.3,219.7l1.3-0.3v-10.7l-1.4-0.3v-1.6h4.1v5.7c0.3-0.5,0.7-0.8,1.2-1.1c0.5-0.3,1-0.4,1.5-0.4
		c1.1,0,1.9,0.3,2.5,1c0.6,0.7,0.9,1.8,0.9,3.2v4.1l1.3,0.3v1.6h-5.2v-1.6l1.2-0.3v-4.1c0-0.8-0.1-1.3-0.4-1.7
		c-0.3-0.3-0.7-0.5-1.2-0.5c-0.4,0-0.7,0.1-1,0.2c-0.3,0.1-0.5,0.3-0.7,0.6v5.4l1.2,0.3v1.6h-5.2V219.7z"/>
	<path class="st6" d="M259.2,221.5c-1.4,0-2.6-0.5-3.5-1.4c-0.9-0.9-1.3-2.1-1.3-3.5v-0.4c0-1.5,0.4-2.7,1.2-3.7
		c0.8-1,1.9-1.4,3.3-1.4c1.4,0,2.4,0.4,3.2,1.2c0.7,0.8,1.1,1.9,1.1,3.3v1.5h-6l0,0.1c0,0.7,0.3,1.2,0.7,1.6
		c0.4,0.4,0.9,0.6,1.6,0.6c0.6,0,1.1-0.1,1.5-0.2c0.4-0.1,0.8-0.3,1.3-0.6l0.7,1.7c-0.4,0.3-1,0.6-1.6,0.8
		C260.7,221.4,260,221.5,259.2,221.5z M259,213.2c-0.5,0-0.9,0.2-1.2,0.6c-0.3,0.4-0.5,0.9-0.5,1.5l0,0h3.3v-0.2
		c0-0.6-0.1-1-0.4-1.4C259.9,213.4,259.5,213.2,259,213.2z"/>
	<path class="st6" d="M100.7,235.9v-1.6h3.9l0.1,1.2c0.3-0.4,0.7-0.8,1.1-1c0.4-0.2,0.9-0.4,1.4-0.4c1.2,0,2.2,0.5,2.9,1.5
		c0.7,1,1,2.2,1,3.8v0.2c0,1.5-0.3,2.7-1,3.6c-0.7,0.9-1.6,1.4-2.9,1.4c-0.5,0-1-0.1-1.4-0.3c-0.4-0.2-0.8-0.5-1-0.9v2.9l1.3,0.3
		v1.6h-5.3v-1.6l1.3-0.3v-10.1L100.7,235.9z M108.5,239.4c0-0.9-0.2-1.7-0.5-2.3s-0.8-0.9-1.4-0.9c-0.4,0-0.8,0.1-1,0.2
		c-0.3,0.2-0.5,0.4-0.7,0.7v4.4c0.2,0.3,0.4,0.5,0.7,0.7c0.3,0.1,0.6,0.2,1.1,0.2c0.7,0,1.1-0.3,1.4-0.8c0.3-0.5,0.5-1.2,0.5-2.1
		V239.4z"/>
	<path class="st6" d="M112.3,242.7l1.3-0.3v-6.2l-1.4-0.3v-1.6h4.2v8.1l1.3,0.3v1.6h-5.3V242.7z M116.3,231.9h-2.7v-2h2.7V231.9z"/>
	<path class="st6" d="M123.2,242.4c0.5,0,0.9-0.1,1.2-0.4c0.3-0.3,0.4-0.7,0.4-1.1h2.4l0,0.1c0,1-0.4,1.9-1.1,2.5
		c-0.8,0.7-1.8,1-2.9,1c-1.5,0-2.7-0.5-3.5-1.4c-0.8-0.9-1.2-2.2-1.2-3.6v-0.3c0-1.5,0.4-2.7,1.2-3.6c0.8-1,2-1.4,3.6-1.4
		c0.8,0,1.5,0.1,2.2,0.4c0.6,0.2,1.2,0.6,1.6,1l0,2.7H125l-0.4-1.6c-0.1-0.1-0.3-0.2-0.5-0.3c-0.2-0.1-0.4-0.1-0.7-0.1
		c-0.8,0-1.3,0.3-1.6,0.8s-0.5,1.3-0.5,2.2v0.3c0,0.9,0.1,1.6,0.4,2.2C122,242.2,122.5,242.4,123.2,242.4z"/>
	<path class="st6" d="M136.7,237.7h-1.8l-0.3-1.3c-0.2-0.1-0.4-0.3-0.7-0.4c-0.3-0.1-0.6-0.1-0.9-0.1c-0.5,0-0.9,0.1-1.1,0.3
		c-0.3,0.2-0.4,0.5-0.4,0.8c0,0.3,0.1,0.6,0.4,0.8c0.3,0.2,0.8,0.4,1.6,0.5c1.2,0.2,2.2,0.6,2.8,1.1c0.6,0.5,0.9,1.1,0.9,2
		c0,0.9-0.4,1.6-1.2,2.2c-0.8,0.6-1.8,0.9-3.1,0.9c-0.8,0-1.5-0.1-2.1-0.3c-0.6-0.2-1.2-0.5-1.7-1l0-2.3h1.9l0.4,1.3
		c0.2,0.1,0.4,0.2,0.7,0.3c0.3,0.1,0.6,0.1,0.9,0.1c0.6,0,1-0.1,1.3-0.3c0.3-0.2,0.4-0.5,0.4-0.8c0-0.3-0.1-0.6-0.4-0.8
		c-0.3-0.2-0.8-0.4-1.6-0.6c-1.2-0.2-2.1-0.6-2.7-1.1c-0.6-0.5-0.9-1.1-0.9-1.9c0-0.8,0.3-1.6,1-2.2c0.7-0.6,1.7-0.9,3-0.9
		c0.8,0,1.5,0.1,2.2,0.3c0.7,0.2,1.2,0.5,1.6,0.8L136.7,237.7z"/>
	<path class="st6" d="M147,231.8v2.5h1.8v1.9H147v5.1c0,0.4,0.1,0.7,0.2,0.8c0.2,0.2,0.4,0.2,0.6,0.2c0.2,0,0.3,0,0.5,0
		c0.1,0,0.3,0,0.5-0.1l0.2,2c-0.3,0.1-0.6,0.2-0.9,0.2c-0.3,0-0.6,0.1-1,0.1c-0.9,0-1.7-0.3-2.2-0.8c-0.5-0.5-0.8-1.3-0.8-2.4v-5.1
		h-1.5v-1.9h1.5v-2.5H147z"/>
	<path class="st6" d="M149.8,239.2c0-1.5,0.4-2.7,1.3-3.7c0.8-1,2-1.4,3.5-1.4c1.5,0,2.6,0.5,3.5,1.4c0.8,1,1.3,2.2,1.3,3.7v0.2
		c0,1.5-0.4,2.7-1.3,3.7c-0.8,1-2,1.4-3.5,1.4c-1.5,0-2.7-0.5-3.5-1.4c-0.8-0.9-1.3-2.2-1.3-3.7V239.2z M152.5,239.4
		c0,0.9,0.2,1.7,0.5,2.2c0.3,0.6,0.8,0.8,1.6,0.8c0.7,0,1.2-0.3,1.5-0.8c0.3-0.6,0.5-1.3,0.5-2.2v-0.2c0-0.9-0.2-1.6-0.5-2.2
		c-0.3-0.6-0.8-0.8-1.5-0.8s-1.2,0.3-1.5,0.8c-0.3,0.6-0.5,1.3-0.5,2.2V239.4z"/>
	<path class="st6" d="M164.9,235.9v-1.6h3.9l0.1,1.2c0.3-0.4,0.7-0.8,1.1-1c0.4-0.2,0.9-0.4,1.4-0.4c1.2,0,2.2,0.5,2.9,1.5
		c0.7,1,1,2.2,1,3.8v0.2c0,1.5-0.3,2.7-1,3.6c-0.7,0.9-1.6,1.4-2.9,1.4c-0.5,0-1-0.1-1.4-0.3c-0.4-0.2-0.8-0.5-1-0.9v2.9l1.3,0.3
		v1.6H165v-1.6l1.3-0.3v-10.1L164.9,235.9z M172.7,239.4c0-0.9-0.2-1.7-0.5-2.3s-0.8-0.9-1.4-0.9c-0.4,0-0.8,0.1-1,0.2
		c-0.3,0.2-0.5,0.4-0.7,0.7v4.4c0.2,0.3,0.4,0.5,0.7,0.7c0.3,0.1,0.6,0.2,1.1,0.2c0.7,0,1.1-0.3,1.4-0.8c0.3-0.5,0.5-1.2,0.5-2.1
		V239.4z"/>
	<path class="st6" d="M176.8,242.7l1.3-0.3v-6.2l-1.4-0.3v-1.6h4l0.1,1.5c0.2-0.5,0.5-0.9,0.9-1.2c0.4-0.3,0.8-0.4,1.3-0.4
		c0.1,0,0.3,0,0.4,0c0.2,0,0.3,0,0.4,0.1l-0.3,2.5l-1.1,0c-0.4,0-0.7,0.1-1,0.2s-0.5,0.4-0.6,0.7v4.9l1.3,0.3v1.6h-5.3V242.7z"/>
	<path class="st6" d="M184.4,239.2c0-1.5,0.4-2.7,1.3-3.7c0.8-1,2-1.4,3.5-1.4c1.5,0,2.6,0.5,3.5,1.4c0.8,1,1.3,2.2,1.3,3.7v0.2
		c0,1.5-0.4,2.7-1.3,3.7c-0.8,1-2,1.4-3.5,1.4c-1.5,0-2.7-0.5-3.5-1.4c-0.8-0.9-1.3-2.2-1.3-3.7V239.2z M187.1,239.4
		c0,0.9,0.2,1.7,0.5,2.2c0.3,0.6,0.8,0.8,1.6,0.8c0.7,0,1.2-0.3,1.5-0.8c0.3-0.6,0.5-1.3,0.5-2.2v-0.2c0-0.9-0.2-1.6-0.5-2.2
		c-0.3-0.6-0.8-0.8-1.5-0.8s-1.2,0.3-1.5,0.8c-0.3,0.6-0.5,1.3-0.5,2.2V239.4z"/>
	<path class="st6" d="M199.2,235.9l-0.9,0.2l1.3,4.5l0.2,0.9h0.1l0.2-0.9l1.3-4.5l-1-0.2v-1.6h4.6v1.6l-0.9,0.1l-3,8.3h-2.6l-3-8.3
		l-0.9-0.1v-1.6h4.6V235.9z"/>
	<path class="st6" d="M210.4,244.5c-1.4,0-2.6-0.5-3.5-1.4c-0.9-0.9-1.3-2.1-1.3-3.5v-0.4c0-1.5,0.4-2.7,1.2-3.7
		c0.8-1,1.9-1.4,3.3-1.4c1.4,0,2.4,0.4,3.2,1.2c0.7,0.8,1.1,1.9,1.1,3.3v1.5h-6l0,0.1c0,0.7,0.3,1.2,0.7,1.6
		c0.4,0.4,0.9,0.6,1.6,0.6c0.6,0,1.1-0.1,1.5-0.2c0.4-0.1,0.8-0.3,1.3-0.6l0.7,1.7c-0.4,0.3-1,0.6-1.6,0.8
		C212,244.4,211.2,244.5,210.4,244.5z M210.2,236.2c-0.5,0-0.9,0.2-1.2,0.6c-0.3,0.4-0.5,0.9-0.5,1.5l0,0h3.3v-0.2
		c0-0.6-0.1-1-0.4-1.4C211.1,236.4,210.7,236.2,210.2,236.2z"/>
	<path class="st6" d="M220.3,242.7l1.3-0.3v-6.2l-1.4-0.3v-1.6h4.2v8.1l1.3,0.3v1.6h-5.3V242.7z M224.3,231.9h-2.7v-2h2.7V231.9z"/>
	<path class="st6" d="M230.5,231.8v2.5h1.8v1.9h-1.8v5.1c0,0.4,0.1,0.7,0.2,0.8c0.2,0.2,0.4,0.2,0.6,0.2c0.2,0,0.3,0,0.5,0
		c0.1,0,0.3,0,0.5-0.1l0.2,2c-0.3,0.1-0.6,0.2-0.9,0.2c-0.3,0-0.6,0.1-1,0.1c-0.9,0-1.7-0.3-2.2-0.8c-0.5-0.5-0.8-1.3-0.8-2.4v-5.1
		h-1.5v-1.9h1.5v-2.5H230.5z"/>
</g>
</svg>
