<?xml version="1.0" encoding="utf-8"?>
<!-- Generator: Adobe Illustrator 18.1.1, SVG Export Plug-In . SVG Version: 6.00 Build 0)  -->
<svg version="1.1" id="Layer_1" xmlns="http://www.w3.org/2000/svg" xmlns:xlink="http://www.w3.org/1999/xlink" x="0px" y="0px"
	 viewBox="0 0 302.9 327.2" style="enable-background:new 0 0 302.9 327.2;" xml:space="preserve">
<style type="text/css">
	.st0{fill:#A4EEFF;}
	.st1{fill:#58BD98;}
	.st2{fill:#FFFFFF;}
	.st3{fill:#F6899C;}
	.st4{fill:#2AD19D;}
	.st5{fill:#F46B83;}
	.st6{fill:#1A9169;}
	.st7{fill:#17916A;}
	.st8{fill:#AA4660;}
	.st9{fill:#3A5D87;}
	.st10{fill:#527EBB;}
	.st11{fill:#D82908;}
	.st12{fill:#E85749;}
	.st13{fill:#C6AF75;}
	.st14{fill:none;stroke:#A17644;stroke-width:3.3156;stroke-miterlimit:10;}
	.st15{fill:#79E2BC;}
	.st16{fill:#34B188;}
	.st17{fill:#FCED5E;}
	.st18{fill:#FDE49C;}
	.st19{fill:#E2CC8A;}
	.st20{fill:#D9C081;}
	.st21{fill:none;stroke:#626366;stroke-width:10.5772;stroke-miterlimit:10;}
	.st22{fill:none;stroke:#F46B83;stroke-width:8.9907;stroke-linejoin:round;stroke-miterlimit:10;}
	.st23{fill:none;stroke:#F46B83;stroke-width:8.9907;stroke-linecap:round;stroke-miterlimit:10;}
	.st24{fill:#CC486A;}
	.st25{fill:none;stroke:#CE5B79;stroke-width:4.9592;stroke-linecap:round;stroke-miterlimit:10;}
	.st26{fill:#626366;}
	.st27{fill:#FFFFFF;stroke:#626366;stroke-width:7.1491;stroke-linecap:round;stroke-miterlimit:10;}
	.st28{fill:#939598;}
	.st29{fill:#A17644;}
	.st30{fill:#626467;}
	.st31{fill:#E6D0B8;}
	.st32{fill:#EE6D83;}
	.st33{fill:#5ABABA;}
	.st34{fill:#DEDEDE;}
	.st35{fill:#D1D3D4;}
	.st36{fill:none;stroke:#A17644;stroke-width:3.6673;stroke-miterlimit:10;}
	.st37{fill:#16A457;}
	.st38{fill:none;stroke:#2AD19D;stroke-width:20.1693;stroke-linecap:round;stroke-miterlimit:10;}
	.st39{fill:none;}
	.st40{fill:#929496;}
	.st41{font-family:'RobotoSlab-Bold';}
	.st42{font-size:35;}
	.st43{font-family:'Roboto-Regular';}
	.st44{font-size:25;}
	.st45{fill:none;stroke:#2AD19D;stroke-width:19.8239;stroke-linecap:round;stroke-miterlimit:10;}
	.st46{fill:#EE6B82;}
	.st47{fill:none;stroke:#F46B83;stroke-width:7;stroke-linecap:round;stroke-miterlimit:10;}
	.st48{fill:#F66981;}
	.st49{fill:#16D19B;}
	.st50{fill:#24A45A;}
	.st51{opacity:0.21;fill:#231F20;}
	.st52{fill-rule:evenodd;clip-rule:evenodd;fill:#FFFFFF;}
	.st53{fill:#F16D83;}
	.st54{fill-rule:evenodd;clip-rule:evenodd;fill:#F56980;}
	.st55{fill:#CCCCCC;}
	.st56{fill:#F36D85;}
	.st57{fill:none;stroke:#F36D85;stroke-width:10.3615;stroke-linecap:round;stroke-linejoin:round;stroke-miterlimit:10;}
	.st58{fill:#F4A6B7;}
	.st59{fill:#CBCBCB;}
	.st60{fill:#F06E85;}
	.st61{fill:#909294;}
	.st62{fill:#F56980;}
	.st63{opacity:0.3;}
	.st64{fill:#E2F2EB;}
	.st65{fill:#BC4D65;}
	.st66{fill:#933850;}
	.st67{fill:none;stroke:#929496;stroke-width:2.3266;stroke-linecap:round;stroke-miterlimit:10;stroke-dasharray:4.0716,11.6331;}
	.st68{fill:none;stroke:#F46B83;stroke-width:3.4899;stroke-miterlimit:10;}
	.st69{fill:#58595B;}
	.st70{fill:#7F614C;}
	.st71{fill:#AD8463;}
	.st72{fill:#C9AD7B;}
	.st73{fill:#A58C65;}
	.st74{fill:#F1F1F2;}
	.st75{fill:#936E55;}
	.st76{fill:#A87B51;}
	.st77{fill:none;stroke:#BBBDBF;stroke-width:0.7556;stroke-miterlimit:10;}
	.st78{fill:#404041;}
	.st79{fill:#8E6442;}
	.st80{fill:none;stroke:#7A7A7A;stroke-width:0.383;stroke-miterlimit:10;}
</style>
<path class="st35" d="M91.6,79.9h15.6c0.5,0,0.8,0.4,0.8,0.8v1.5c0,0.5-0.4,0.8-0.8,0.8H91.6c-0.5,0-0.8-0.4-0.8-0.8v-1.5
	C90.8,80.3,91.2,79.9,91.6,79.9z"/>
<ellipse class="st35" cx="91.5" cy="81.5" rx="6.1" ry="1.6"/>
<g>
	<path class="st35" d="M178.6,180.5h15.6c0.5,0,0.8,0.4,0.8,0.8v1.5c0,0.5-0.4,0.8-0.8,0.8h-15.6c-0.5,0-0.8-0.4-0.8-0.8v-1.5
		C177.8,180.9,178.1,180.5,178.6,180.5z"/>
	<ellipse class="st35" cx="178.5" cy="182.1" rx="6.1" ry="1.6"/>
</g>
<g>
	<path class="st35" d="M214.4,180.5H230c0.5,0,0.8,0.4,0.8,0.8v1.5c0,0.5-0.4,0.8-0.8,0.8h-15.6c-0.5,0-0.8-0.4-0.8-0.8v-1.5
		C213.5,180.9,213.9,180.5,214.4,180.5z"/>
	<ellipse class="st35" cx="214.3" cy="182.1" rx="6.1" ry="1.6"/>
</g>
<path class="st35" d="M55.9,79.9h15.6c0.5,0,0.8,0.4,0.8,0.8v1.5c0,0.5-0.4,0.8-0.8,0.8H55.9c-0.5,0-0.8-0.4-0.8-0.8v-1.5
	C55.1,80.3,55.4,79.9,55.9,79.9z"/>
<line class="st36" x1="193.2" y1="130.1" x2="193.2" y2="183.7"/>
<path class="st4" d="M193.5,163.7c0,0-14.3,0.1-14.3-17.2c0-14.1,14.3-45.8,14.3-45.8s14.3,31.7,14.3,45.8
	C207.8,163.8,193.5,163.7,193.5,163.7z"/>
<path class="st15" d="M193.5,100.7v63c0,0,14.3,0.1,14.3-17.2C207.8,132.4,193.5,100.7,193.5,100.7z"/>
<line class="st36" x1="229" y1="130.1" x2="229" y2="183.7"/>
<path class="st4" d="M229.2,163.7c0,0-14.3,0.1-14.3-17.2c0-14.1,14.3-45.8,14.3-45.8s14.3,31.7,14.3,45.8
	C243.5,163.8,229.2,163.7,229.2,163.7z"/>
<path class="st15" d="M229.2,100.7v63c0,0,14.3,0.1,14.3-17.2C243.5,132.4,229.2,100.7,229.2,100.7z"/>
<line class="st36" x1="70.5" y1="29.4" x2="70.5" y2="83.1"/>
<path class="st4" d="M70.7,63c0,0-14.3,0.1-14.3-17.2C56.4,31.7,70.7,0,70.7,0s14.3,31.7,14.3,45.8C85.1,63.2,70.7,63,70.7,63z"/>
<path class="st15" d="M70.7,0v63c0,0,14.3,0.1,14.3-17.2C85.1,31.7,70.7,0,70.7,0z"/>
<line class="st36" x1="106.2" y1="29.4" x2="106.2" y2="83.1"/>
<path class="st4" d="M106.4,63c0,0-14.3,0.1-14.3-17.2C92.1,31.7,106.4,0,106.4,0s14.3,31.7,14.3,45.8C120.8,63.2,106.4,63,106.4,63
	z"/>
<path class="st15" d="M106.4,0v63c0,0,14.3,0.1,14.3-17.2C120.8,31.7,106.4,0,106.4,0z"/>
<g>
	<g>
		<g>
			<path class="st37" d="M134.1,171.9h-16c-5.6,0-10.1-4.5-10.1-10.1s4.5-10.1,10.1-10.1h16c4.2,0,14.1,0,14.1-16.5
				c0-4.3-1.1-8.5-2.9-11.3c-1.4-2.2-4.1-5.1-11.2-5.1H22.8c-5.6,0-10.1-4.5-10.1-10.1c0-0.7,0-3.5,0-3.5s4.6-6.6,10.1-6.6h111.3
				c23.6,0,34.3,33.5,34.3,33.5s0,3,0,3.1C168.4,157.8,155.2,171.9,134.1,171.9z"/>
		</g>
		<g>
			<path class="st37" d="M279,220.4H104.1c-23.7,0-34.3-18.1-34.3-36.1c0-0.5,0-3.9,0-3.9s10.9-28.7,34.3-28.7h12.1
				c5.6,0,10.1,4.5,10.1,10.1s-4.5,10.1-10.1,10.1h-12.1c-4.3,0-14.1,1.2-14.1,12.4c0,4.2,1.1,8.3,2.9,11c1.4,2.1,4.1,5,11.3,5H279
				c5.5,0,10.1,6.3,10.1,6.3s0,3.4,0,3.8C289.1,215.9,284.6,220.4,279,220.4z"/>
		</g>
	</g>
	<g>
		<path class="st38" d="M22.8,104.7c0,0,98.7,0,111.3,0c20.1,0,24.2,17,24.2,26.5c0,13.4-5.9,26.5-24.2,26.5c-6,0-16,0-16,0"/>
		<path class="st38" d="M279,206.3c0,0-162.4,0-174.9,0c-20.1,0-24.2-16.5-24.2-26s5.9-22.5,24.2-22.5c2.4,0,12.1,0,12.1,0"/>
	</g>
</g>
<g>
	<rect x="0" y="258.5" class="st39" width="302.9" height="68.6"/>
	<text transform="matrix(1 0 0 1 11.5508 285.2046)"><tspan x="0" y="0" class="st40 st41 st42">somewhere to be</tspan><tspan x="88.2" y="32" class="st40 st43 st44">from a–b</tspan></text>
</g>
<ellipse class="st35" cx="55.8" cy="81.5" rx="6.1" ry="1.6"/>
</svg>
