<?xml version="1.0" encoding="utf-8"?>
<!-- Generator: Adobe Illustrator 18.1.1, SVG Export Plug-In . SVG Version: 6.00 Build 0)  -->
<svg version="1.1" id="Layer_1" xmlns="http://www.w3.org/2000/svg" xmlns:xlink="http://www.w3.org/1999/xlink" x="0px" y="0px"
	 viewBox="0 0 51.4 48.9" style="enable-background:new 0 0 51.4 48.9;" xml:space="preserve">
<style type="text/css">
	.st0{fill:#C6C6C6;}
	.st1{fill:#A4EEFF;}
	.st2{fill:#58BD98;}
	.st3{fill:#FFFFFF;}
	.st4{fill:#F6899C;}
	.st5{fill:#2AD19D;}
	.st6{fill:#F46B83;}
	.st7{fill:#1A9169;}
	.st8{fill:#17916A;}
	.st9{fill:#AA4660;}
	.st10{fill:#3A5D87;}
	.st11{fill:#527EBB;}
	.st12{fill:#D82908;}
	.st13{fill:#E85749;}
	.st14{fill:#C6AF75;}
	.st15{fill:none;stroke:#A17644;stroke-width:3.3156;stroke-miterlimit:10;}
	.st16{fill:#79E2BC;}
	.st17{fill:#34B188;}
	.st18{fill:#FCED5E;}
	.st19{fill:#FDE49C;}
	.st20{fill:#E2CC8A;}
	.st21{fill:#D9C081;}
	.st22{fill:none;stroke:#626366;stroke-width:10.5772;stroke-miterlimit:10;}
	.st23{fill:none;stroke:#F46B83;stroke-width:8.9907;stroke-linejoin:round;stroke-miterlimit:10;}
	.st24{fill:none;stroke:#F46B83;stroke-width:8.9907;stroke-linecap:round;stroke-miterlimit:10;}
	.st25{fill:#CC486A;}
	.st26{fill:none;stroke:#CE5B79;stroke-width:4.9592;stroke-linecap:round;stroke-miterlimit:10;}
	.st27{fill:#626366;}
	.st28{fill:#FFFFFF;stroke:#626366;stroke-width:7.1491;stroke-linecap:round;stroke-miterlimit:10;}
	.st29{fill:#939598;}
	.st30{fill:#A17644;}
	.st31{fill:#626467;}
	.st32{fill:#E6D0B8;}
	.st33{fill:#EE6D83;}
	.st34{fill:#5ABABA;}
	.st35{fill:#DEDEDE;}
	.st36{fill:#D1D3D4;}
	.st37{fill:none;stroke:#A17644;stroke-width:3.6673;stroke-miterlimit:10;}
	.st38{fill:#16A457;}
	.st39{fill:none;stroke:#2AD19D;stroke-width:20.1693;stroke-linecap:round;stroke-miterlimit:10;}
	.st40{fill:#929496;}
	.st41{fill:none;stroke:#2AD19D;stroke-width:19.8239;stroke-linecap:round;stroke-miterlimit:10;}
	.st42{fill:#EE6B82;}
	.st43{fill:none;stroke:#F46B83;stroke-width:7;stroke-linecap:round;stroke-miterlimit:10;}
	.st44{fill:#F66981;}
	.st45{fill:#16D19B;}
	.st46{fill:#24A45A;}
	.st47{opacity:0.21;fill:#231F20;}
	.st48{fill-rule:evenodd;clip-rule:evenodd;fill:#FFFFFF;}
	.st49{fill:#F16D83;}
	.st50{fill-rule:evenodd;clip-rule:evenodd;fill:#F56980;}
	.st51{fill:#CCCCCC;}
	.st52{fill:#F36D85;}
	.st53{fill:none;stroke:#F36D85;stroke-width:10.3615;stroke-linecap:round;stroke-linejoin:round;stroke-miterlimit:10;}
	.st54{fill:#F4A6B7;}
	.st55{fill:#CBCBCB;}
	.st56{fill:#F06E85;}
	.st57{fill:#909294;}
	.st58{fill:#F56980;}
	.st59{opacity:0.3;}
	.st60{fill:#E2F2EB;}
	.st61{fill:#BC4D65;}
	.st62{fill:#933850;}
	.st63{fill:none;stroke:#929496;stroke-width:2.3266;stroke-linecap:round;stroke-miterlimit:10;stroke-dasharray:4.0716,11.6331;}
	.st64{fill:none;stroke:#F46B83;stroke-width:3.4899;stroke-miterlimit:10;}
	.st65{fill:#58595B;}
	.st66{fill:#7F614C;}
	.st67{fill:#AD8463;}
	.st68{fill:#C9AD7B;}
	.st69{fill:#A58C65;}
	.st70{fill:none;}
	.st71{fill:#F1F1F2;}
	.st72{fill:#936E55;}
	.st73{fill:#A87B51;}
	.st74{fill:none;stroke:#BBBDBF;stroke-width:0.7556;stroke-miterlimit:10;}
	.st75{fill:#404041;}
	.st76{fill:#8E6442;}
	.st77{fill:none;stroke:#7A7A7A;stroke-width:0.383;stroke-miterlimit:10;}
	.st78{fill:none;stroke:#A17644;stroke-width:0.7115;stroke-miterlimit:10;}
</style>
<g class="st59">
	<g>
		<polygon class="st3" points="41.7,47.2 39.8,40.4 41.7,47.2 		"/>
		<polygon class="st3" points="9.7,47.2 9.7,47.2 11.6,40.4 		"/>
		<polygon class="st3" points="39.8,40.4 37.9,33.6 37.9,33.6 		"/>
		<polygon class="st3" points="13.5,33.6 11.6,40.4 13.5,33.6 		"/>
		<path class="st3" d="M40,48.4c1.4,0.9,2.2,0.4,1.7-1.3l-1.9-6.8l-1.9-6.8v0l-0.8-3l8-6.3l5.5-4.4c1.3-1.1,1-2-0.7-2l-7-0.3
			l-10.1-0.4L26.8,1.1c-0.6-1.5-1.6-1.6-2.1,0L23,5.5l-4.3,11.8L8.5,17.7l-7,0.3c-1.7,0.1-2,1-0.7,2l5.5,4.4l8,6.3l-0.8,3v0
			l-1.9,6.8l-1.9,6.8c-0.5,1.6,0.3,2.2,1.7,1.3l10.5-7l3.8-2.5l2.6,1.7l0,0L40,48.4z"/>
	</g>
</g>
</svg>
