<?xml version="1.0" encoding="utf-8"?>
<!-- Generator: Adobe Illustrator 18.1.1, SVG Export Plug-In . SVG Version: 6.00 Build 0)  -->
<svg version="1.1" id="Layer_1" xmlns="http://www.w3.org/2000/svg" xmlns:xlink="http://www.w3.org/1999/xlink" x="0px" y="0px"
	 viewBox="0 0 612 792" enable-background="new 0 0 612 792" xml:space="preserve">
<g>
	<g>
		<path fill="#FFFFFF" d="M496.5,666.9l-22.6-81L496.5,666.9z"/>
		<polygon fill="#FFFFFF" points="115.5,666.9 115.5,666.9 138.1,585.9 		"/>
		<polygon fill="#FFFFFF" points="473.9,585.9 451.3,504.9 451.3,504.9 		"/>
		<path fill="#FFFFFF" d="M160.7,504.9l-22.6,81L160.7,504.9z"/>
		<path fill="#FFFFFF" d="M476.3,681.2c16.7,10.7,26.2,4.8,20.2-15.5l-22.6-81l-22.6-81l0,0l-9.5-35.7l95.3-75l65.5-52.4
			c15.5-13.1,11.9-23.8-8.3-23.8l-83.3-3.6l-120.3-4.8L319.1,118c-7.1-17.9-19.1-19.1-25,0l-20.2,52.4l-51.2,140.5l-121.4,4.8
			l-83.3,3.6C-2.4,320.4-6,331.1,9.5,343L75,395.4l95.3,75l-9.5,35.7l0,0l-22.6,81l-22.6,81c-6,19.1,3.6,26.2,20.2,15.5l125-83.3
			l45.2-29.8l31,20.2l0,0L476.3,681.2z"/>
	</g>
</g>
</svg>
