<?xml version="1.0" encoding="utf-8"?>
<!-- Generator: Adobe Illustrator 18.1.1, SVG Export Plug-In . SVG Version: 6.00 Build 0)  -->
<svg version="1.1" xmlns="http://www.w3.org/2000/svg" xmlns:xlink="http://www.w3.org/1999/xlink" x="0px" y="0px"
	 viewBox="0 0 1000 2048" style="enable-background:new 0 0 1000 2048;" xml:space="preserve">
<style type="text/css">
	.st0{clip-path:url(#SVGID_2_);fill:#47B58D;}
	.st1{clip-path:url(#SVGID_2_);}
	.st2{fill:#1E845A;}
	.st3{fill:none;stroke:#A17644;stroke-width:1.572;stroke-miterlimit:10;}
	.st4{fill:#2AD19D;}
	.st5{fill:#79E2BC;}
	.st6{clip-path:url(#SVGID_2_);fill:none;stroke:#79E2BC;stroke-width:2;stroke-miterlimit:10;}
	.st7{clip-path:url(#SVGID_2_);fill:#1E845A;}
	.st8{fill:none;stroke:#A17644;stroke-width:1.828;stroke-miterlimit:10;}
	.st9{fill:none;stroke:#A17644;stroke-width:3.4825;stroke-miterlimit:10;}
	.st10{fill:none;stroke:#A17644;stroke-width:4.1651;stroke-miterlimit:10;}
	.st11{fill:none;stroke:#A17644;stroke-width:2.8014;stroke-miterlimit:10;}
	.st12{fill:#3B8C6B;}
	.st13{fill:#FFFFFF;}
	.st14{fill:url(#SVGID_3_);}
	.st15{opacity:0.3;}
	.st16{fill-rule:evenodd;clip-rule:evenodd;fill:#F46B83;}
	.st17{fill:#58BD98;}
	.st18{fill:#EFEFEF;}
	.st19{fill:none;stroke:#E0E1E2;stroke-width:11;stroke-miterlimit:10;}
	.st20{opacity:0.3;fill-rule:evenodd;clip-rule:evenodd;fill:#F56980;}
	.st21{fill:#F56980;}
	.st22{fill-rule:evenodd;clip-rule:evenodd;fill:#FFFFFF;}
	.st23{fill:#F36D85;}
	.st24{fill:#E0E1E2;}
	.st25{fill:#F46B83;}
	.st26{fill:none;stroke:#F46B83;stroke-width:8;stroke-miterlimit:10;}
	.st27{opacity:0.3;fill:#2AD19D;}
	.st28{fill:#89D7E6;}
	.st29{clip-path:url(#SVGID_5_);}
	.st30{fill-rule:evenodd;clip-rule:evenodd;fill:#F56980;}
	.st31{opacity:0.3;fill:#F36D85;}
	.st32{opacity:0.3;fill:#F46B83;}
	.st33{fill:#24A45A;}
	.st34{fill:#3A5D87;}
	.st35{fill:#527EBB;}
	.st36{fill:#D82908;}
	.st37{fill:#E85749;}
	.st38{fill:#BCF7F7;}
	.st39{fill:#929496;}
	.st40{fill:none;stroke:#CDEBE0;stroke-width:5;stroke-linecap:round;stroke-miterlimit:10;}
	.st41{fill:#1A9169;}
	.st42{fill:none;stroke:#F7ADC1;stroke-width:12;stroke-miterlimit:10;}
	.st43{fill:none;stroke:#2AD19D;stroke-width:12;stroke-miterlimit:10;}
	.st44{fill:none;}
	.st45{fill:#BDF3F4;}
	.st46{fill:#34B188;}
	.st47{fill:#FDE49C;}
	.st48{fill:#FDEF6E;}
	.st49{fill:none;stroke:#A17644;stroke-width:2;stroke-miterlimit:10;}
	.st50{fill:none;stroke:#A17644;stroke-width:3;stroke-miterlimit:10;}
	.st51{fill:none;stroke:#A17644;stroke-width:4;stroke-miterlimit:10;}
	.st52{fill:none;stroke:#A17644;stroke-width:3.4344;stroke-miterlimit:10;}
	.st53{fill:#808184;}
	.st54{fill:#BC4D65;}
	.st55{fill:#933850;}
	.st56{fill:none;stroke:#79E2BC;stroke-miterlimit:10;}
	.st57{opacity:0.2;}
	.st58{fill:#47B58D;}
	.st59{fill:none;stroke:#FFFFFF;stroke-width:8;stroke-linecap:round;stroke-miterlimit:10;}
	.st60{fill:none;stroke:#FFFFFF;stroke-width:2;stroke-miterlimit:10;}
	.st61{opacity:0.5;}
	.st62{fill:#CDE8DE;}
	.st63{clip-path:url(#SVGID_7_);}
	.st64{fill:#F6899C;}
	.st65{fill:#F66981;}
	.st66{fill:#FFFFFF;stroke:#F46B83;stroke-width:6;stroke-miterlimit:10;}
	.st67{clip-path:url(#SVGID_9_);fill:#47B58D;}
	.st68{clip-path:url(#SVGID_9_);}
	.st69{clip-path:url(#SVGID_9_);fill:none;stroke:#79E2BC;stroke-width:2;stroke-miterlimit:10;}
	.st70{clip-path:url(#SVGID_9_);fill:#1E845A;}
	.st71{fill:#37CF9D;}
	.st72{clip-path:url(#SVGID_11_);}
	.st73{fill:#ABE6CF;}
	.st74{clip-path:url(#SVGID_13_);fill:url(#SVGID_14_);}
	.st75{clip-path:url(#SVGID_13_);fill:#89D7E6;}
	.st76{clip-path:url(#SVGID_13_);}
	.st77{clip-path:url(#SVGID_13_);fill:#34B188;}
	.st78{clip-path:url(#SVGID_13_);fill:#FDE49C;}
	.st79{clip-path:url(#SVGID_13_);fill:#FDEF6E;}
	.st80{clip-path:url(#SVGID_13_);fill:#1E845A;}
	.st81{fill:none;stroke:#A17644;stroke-width:2.3218;stroke-miterlimit:10;}
	.st82{fill:none;stroke:#A17644;stroke-width:3.4827;stroke-miterlimit:10;}
	.st83{fill:none;stroke:#A17644;stroke-width:4.6436;stroke-miterlimit:10;}
	.st84{fill:none;stroke:#A17644;stroke-width:3.987;stroke-miterlimit:10;}
	.st85{clip-path:url(#SVGID_13_);fill:none;stroke:#A17644;stroke-width:4.6436;stroke-miterlimit:10;}
	.st86{clip-path:url(#SVGID_13_);fill:#2AD19D;}
	.st87{clip-path:url(#SVGID_13_);fill:#79E2BC;}
	.st88{clip-path:url(#SVGID_13_);fill:none;stroke:#79E2BC;stroke-width:1.1609;stroke-miterlimit:10;}
	.st89{clip-path:url(#SVGID_13_);fill:none;stroke:#FFFFFF;stroke-width:2.5285;stroke-miterlimit:10;}
	.st90{clip-path:url(#SVGID_13_);fill:#FFFFFF;}
	.st91{display:none;}
</style>
<g id="Layer_1">
	<g>
		<defs>
			<rect id="SVGID_12_" x="1" y="0" width="999.2" height="2047.9"/>
		</defs>
		<clipPath id="SVGID_2_">
			<use xlink:href="#SVGID_12_"  style="overflow:visible;"/>
		</clipPath>
		<linearGradient id="SVGID_3_" gradientUnits="userSpaceOnUse" x1="500" y1="301.4834" x2="500" y2="966.0897">
			<stop  offset="0" style="stop-color:#55D3D4"/>
			<stop  offset="0.1117" style="stop-color:#64D7D8"/>
			<stop  offset="0.5165" style="stop-color:#94E6E7"/>
			<stop  offset="0.8254" style="stop-color:#B2F0F1"/>
			<stop  offset="1" style="stop-color:#BDF3F4"/>
		</linearGradient>
		<polygon style="clip-path:url(#SVGID_2_);fill:url(#SVGID_3_);" points="-363.5,0 -363.5,1025.3 -363.5,1045.2 -363.5,2047.8 
			1363.5,2047.8 1363.5,1045.2 1363.5,1025.3 1363.5,0 		"/>
		<rect x="184.7" y="1747.9" style="clip-path:url(#SVGID_2_);fill:#89D7E6;" width="55.5" height="107.8"/>
		<rect x="77.8" y="1812.6" style="clip-path:url(#SVGID_2_);fill:#89D7E6;" width="131.5" height="54.4"/>
		<rect x="77.8" y="1791.8" style="clip-path:url(#SVGID_2_);fill:#89D7E6;" width="59.7" height="54.4"/>
		<rect x="30.1" y="1765.5" style="clip-path:url(#SVGID_2_);fill:#89D7E6;" width="38.3" height="105.6"/>
		<rect x="35.5" y="1749" style="clip-path:url(#SVGID_2_);fill:#89D7E6;" width="27.5" height="105.6"/>
		<rect x="-64.7" y="1821" style="clip-path:url(#SVGID_2_);fill:#89D7E6;" width="82.6" height="73.3"/>
		<rect x="771.9" y="1718.7" style="clip-path:url(#SVGID_2_);fill:#89D7E6;" width="40" height="136.2"/>
		<rect x="777.4" y="1709" style="clip-path:url(#SVGID_2_);fill:#89D7E6;" width="34.5" height="136.2"/>
		<rect x="785.8" y="1696.7" style="clip-path:url(#SVGID_2_);fill:#89D7E6;" width="26.1" height="136.2"/>
		<rect x="839.8" y="1793.3" style="clip-path:url(#SVGID_2_);fill:#89D7E6;" width="80.1" height="87.2"/>
		<polygon style="clip-path:url(#SVGID_2_);fill:#89D7E6;" points="973.8,1882.4 933,1882.4 933,1777.3 973.8,1768.7 		"/>
		<rect x="985.4" y="1821.3" style="clip-path:url(#SVGID_2_);fill:#89D7E6;" width="123.6" height="84.9"/>
		<g class="st1">
			<path class="st28" d="M389.6,1658.8h38c0-2.8,0-5.1,0-5.1s0.1-1.7-1.5-2.6c-1.3-0.7-9-4-12-5.2c-0.8-0.3-0.8-0.3-1-0.6
				c-0.3-0.3-0.3-1-0.3-1l-3.1-58.2c0,0-0.1-1.7-1-1.7s-1,1.7-1,1.7l-3.1,57.7c0,0-0.1,1-0.3,1.3c-0.2,0.4-0.4,0.6-1.2,0.9
				c-3.1,1.3-10.7,4.5-12,5.2c-1.6,0.9-1.5,2.6-1.5,2.6S389.6,1656,389.6,1658.8z"/>
			<path class="st28" d="M389.6,1665.2c0,1.7,0,3.1,0,3.5c0,1.5,1.4,2.1,1.4,2.1l10.8,7c0,0,0.5,0.4,0.7,0.8
				c0.2,0.4,0.1,1.2,0.1,1.2L391,1861.4l17.6-1.2l17.6,1.2l-11.7-182.1c0,0-0.1-0.5,0.1-0.9c0.2-0.4,0.5-0.5,0.5-0.5l11.1-7.1
				c0,0,1.4-0.6,1.4-2.1c0-0.4,0-1.8,0-3.5H389.6z"/>
		</g>
		<rect x="340.2" y="1727.7" style="clip-path:url(#SVGID_2_);fill:#89D7E6;" width="45.9" height="118.3"/>
		<polygon style="clip-path:url(#SVGID_2_);fill:#89D7E6;" points="751.2,1867 641.4,1847.6 641.4,1765.5 751.2,1765.5 		"/>
		<rect x="248.6" y="1786.9" style="clip-path:url(#SVGID_2_);fill:#89D7E6;" width="46.7" height="89.7"/>
		<polygon style="clip-path:url(#SVGID_2_);fill:#89D7E6;" points="331.7,1861.8 286,1861.8 286,1712 331.7,1696.3 		"/>
		<polygon style="clip-path:url(#SVGID_2_);fill:#89D7E6;" points="590.2,1726.3 553.9,1710.6 553.9,1832.7 590.2,1832.7 		"/>
		<polygon style="clip-path:url(#SVGID_2_);fill:#89D7E6;" points="616,1745.9 616,1749.6 597.9,1749.6 597.9,1843.1 631.7,1843.1 
			631.7,1772.1 631.7,1749.6 631.7,1745.9 		"/>
		<path style="clip-path:url(#SVGID_2_);fill:#89D7E6;" d="M488.6,1773.4c-31.4,0-56.9,17.9-56.9,33.5v33.5h113.9v-33.5
			C545.5,1791.3,520.1,1773.4,488.6,1773.4z"/>
		<rect x="579.3" y="1789.6" style="clip-path:url(#SVGID_2_);fill:#89D7E6;" width="46.7" height="87"/>
		<rect x="620" y="1817" style="clip-path:url(#SVGID_2_);fill:#89D7E6;" width="46.7" height="26.1"/>
		<path style="clip-path:url(#SVGID_2_);fill:#34B188;" d="M1293,2047.9H-292.8v-125.7c0,0,440.7-98.1,792.7-98.1
			s793.1,98.1,793.1,98.1V2047.9z"/>
		<path style="clip-path:url(#SVGID_2_);fill:#FDE49C;" d="M661.7,2049.2l269.2-1.3c-83.7,0.4-454-43.1-512.3-83.2
			c-14.5-10-17.3-24.7-3.1-38.4c8.8-8.5,25.3-13.9,36.6-17.5c34.6-10.9,73.7-20.5,107.7-33c13.9-5.1,46.1-18,40.3-33.6
			c-4.7-12.8-27.9-15.9-27.9-15.9s-4.2-0.8-9.5-1.1c-4.7-0.3-9.9-0.3-14.6-0.4c7,0.2,26,5.9,29.6,12.4c7.2,13-58.5,27.2-65.4,28.7
			c-39,9-83,16.4-121.9,25.6c-7.5,1.8-15,3.6-22.4,5.5c-31.6,8.1-88.8,27-88.8,65.4c0,30.4,17,64.1,48.2,85.6L661.7,2049.2z"/>
		<circle style="clip-path:url(#SVGID_2_);fill:#FDEF6E;" cx="725.4" cy="1237.7" r="47.5"/>
		<rect x="639" y="1959.6" class="st7" width="24.1" height="3.4"/>
		<ellipse class="st7" cx="638.2" cy="1961.4" rx="9.3" ry="1.7"/>
		<rect x="616.1" y="1846.7" class="st7" width="8.7" height="2.2"/>
		<ellipse class="st7" cx="615.9" cy="1847.9" rx="2.4" ry="1.1"/>
		<rect x="686.8" y="1873.6" class="st7" width="12.9" height="2.1"/>
		<ellipse class="st7" cx="686.5" cy="1874.7" rx="3.6" ry="1.1"/>
		<g class="st1">
			<line class="st81" x1="624.1" y1="1819" x2="624.1" y2="1849"/>
			<path class="st4" d="M624.1,1838.1c0,0-6,0.1-6-7.3c0-5.9,6-19.3,6-19.3s6,13.4,6,19.3C630.2,1838.1,624.1,1838.1,624.1,1838.1z"
				/>
			<path class="st5" d="M624.1,1811.5v26.6c0,0,6,0.1,6-7.3C630.2,1824.9,624.1,1811.5,624.1,1811.5z"/>
		</g>
		<g class="st1">
			<rect x="419.6" y="1843" class="st2" width="12.2" height="3.1"/>
			<ellipse class="st2" cx="419.4" cy="1844.6" rx="3.4" ry="1.6"/>
			<g>
				<line class="st82" x1="430.6" y1="1803.9" x2="430.6" y2="1846.1"/>
				<path class="st4" d="M430.6,1830.8c0,0-8.5,0.1-8.5-10.3c0-8.4,8.5-27.3,8.5-27.3s8.5,18.9,8.5,27.3
					C439.2,1830.9,430.6,1830.8,430.6,1830.8z"/>
				<path class="st5" d="M430.6,1793.3v37.5c0,0,8.5,0.1,8.5-10.3C439.2,1812.2,430.6,1793.3,430.6,1793.3z"/>
			</g>
		</g>
		<rect x="164.2" y="1867.3" class="st7" width="10.9" height="3.1"/>
		<ellipse class="st7" cx="164.2" cy="1868.8" rx="3.4" ry="1.6"/>
		<g class="st1">
			<line class="st82" x1="176.1" y1="1828.1" x2="176.1" y2="1870.4"/>
			<path class="st4" d="M176.1,1855c0,0-8.5,0.1-8.5-10.3c0-8.4,8.5-27.3,8.5-27.3s8.5,18.9,8.5,27.3
				C184.7,1855.1,176.1,1855,176.1,1855z"/>
			<path class="st5" d="M176.1,1817.5v37.5c0,0,8.5,0.1,8.5-10.3C184.7,1836.4,176.1,1817.5,176.1,1817.5z"/>
		</g>
		<rect x="379.4" y="1875.8" class="st7" width="20.7" height="3.1"/>
		<g class="st1">
			<line class="st83" x1="400.1" y1="1811.6" x2="400.1" y2="1879"/>
			<path class="st4" d="M400.1,1855.8c0,0-14,0.1-14-16.8c0-13.7,14-44.7,14-44.7s14,31,14,44.7
				C414.1,1855.9,400.1,1855.8,400.1,1855.8z"/>
			<path class="st5" d="M400.1,1794.2v61.5c0,0,14,0.1,14-16.8C414.1,1825.2,400.1,1794.2,400.1,1794.2z"/>
		</g>
		<ellipse class="st7" cx="379.4" cy="1877.4" rx="3.9" ry="1.6"/>
		<rect x="266" y="1902.2" class="st7" width="20.7" height="3.1"/>
		<ellipse class="st7" cx="265.5" cy="1903.8" rx="3.9" ry="1.6"/>
		<g class="st1">
			<line class="st84" x1="284.7" y1="1859.5" x2="284.7" y2="1905.4"/>
			<path class="st4" d="M284.7,1877.2c0,0-18.5,0.2-18.5-22.2c0-18.1,18.5-59.1,18.5-59.1s18.5,40.9,18.5,59.1
				C303.2,1877.4,284.7,1877.2,284.7,1877.2z"/>
			<path class="st5" d="M284.7,1795.9v81.3c0,0,18.5,0.2,18.5-22.2C303.2,1836.8,284.7,1795.9,284.7,1795.9z"/>
		</g>
		<g class="st1">
			<line class="st83" x1="661.7" y1="1903.1" x2="661.7" y2="1963"/>
			<path class="st4" d="M661.7,1923.1c0,0-20.9,0.2-20.9-25.1c0-20.5,20.9-66.8,20.9-66.8s20.9,46.2,20.9,66.8
				C682.6,1923.3,661.7,1923.1,661.7,1923.1z"/>
			<path class="st5" d="M661.7,1831.2v91.9c0,0,20.9,0.2,20.9-25.1C682.6,1877.4,661.7,1831.2,661.7,1831.2z"/>
		</g>
		<rect x="81.1" y="1945.1" class="st7" width="29" height="4"/>
		<ellipse class="st7" cx="80.5" cy="1947.1" rx="6.6" ry="2"/>
		<g class="st1">
			<line class="st83" x1="110" y1="1906.3" x2="110" y2="1949.1"/>
			<path class="st4" d="M110,1920.6c0,0-14.9,0.1-14.9-17.9c0-14.6,14.9-47.7,14.9-47.7s14.9,33,14.9,47.7
				C125,1920.7,110,1920.6,110,1920.6z"/>
			<path class="st5" d="M110,1855v65.6c0,0,14.9,0.1,14.9-17.9C125,1888,110,1855,110,1855z"/>
		</g>
		<g class="st1">
			<line class="st83" x1="698.8" y1="1834" x2="698.8" y2="1875.7"/>
			<path class="st4" d="M698.8,1860.6c0,0-8.4,0.1-8.4-10.1c0-8.2,8.4-26.8,8.4-26.8s8.4,18.6,8.4,26.8
				C707.2,1860.6,698.8,1860.6,698.8,1860.6z"/>
			<path class="st5" d="M698.8,1823.6v37c0,0,8.4,0.1,8.4-10.1C707.2,1842.2,698.8,1823.6,698.8,1823.6z"/>
		</g>
		<g class="st1">
			<rect x="686.3" y="1988.5" class="st2" width="44.4" height="3.6"/>
			<path class="st2" d="M709.4,1990.3c0,1-19.3,1.8-23.7,1.8s-8-0.8-8-1.8s3.6-1.8,8-1.8S709.4,1989.3,709.4,1990.3z"/>
			<g>
				<line class="st83" x1="729.6" y1="1922.2" x2="729.6" y2="1992.1"/>
				<path class="st4" d="M729.6,1948.6c0,0-27.5,0.3-27.5-33.1c0-27,27.5-87.8,27.5-87.8s27.5,60.8,27.5,87.8
					C757.1,1948.8,729.6,1948.6,729.6,1948.6z"/>
				<path class="st5" d="M729.6,1827.7v120.8c0,0,27.5,0.3,27.5-33.1C757.1,1888.5,729.6,1827.7,729.6,1827.7z"/>
			</g>
		</g>
		
			<line style="clip-path:url(#SVGID_2_);fill:none;stroke:#A17644;stroke-width:4.6436;stroke-miterlimit:10;" x1="1000.2" y1="1966.4" x2="1000.2" y2="2047.9"/>
		<path style="clip-path:url(#SVGID_2_);fill:#2AD19D;" d="M1000.2,2003.1c0,0-35.9,0.3-35.9-43.1c0-35.2,35.9-114.5,35.9-114.5
			s35.9,79.3,35.9,114.5C1036,2003.4,1000.2,2003.1,1000.2,2003.1z"/>
		<g class="st1">
			<rect x="866.3" y="1910.6" class="st2" width="21.7" height="1.8"/>
			<path class="st2" d="M877.5,1911.4c0,0.5-9.4,0.9-11.6,0.9c-2.2,0-3.9-0.4-3.9-0.9c0-0.5,1.7-0.9,3.9-0.9
				C868.1,1910.6,877.5,1911,877.5,1911.4z"/>
			<g>
				<line class="st83" x1="887.4" y1="1878.2" x2="887.4" y2="1912.3"/>
				<path class="st4" d="M887.4,1891c0,0-13.4,0.1-13.4-16.2c0-13.2,13.4-42.9,13.4-42.9s13.4,29.7,13.4,42.9
					C900.8,1891.2,887.4,1891,887.4,1891z"/>
				<path class="st5" d="M887.4,1832v59.1c0,0,13.4,0.1,13.4-16.2C900.8,1861.7,887.4,1832,887.4,1832z"/>
			</g>
		</g>
		<g class="st1">
			<path class="st53" d="M395.4,1438.1h-2l-0.3-1.4c-0.2-0.2-0.5-0.3-0.8-0.4c-0.3-0.1-0.7-0.2-1-0.2c-0.5,0-1,0.1-1.3,0.4
				c-0.3,0.2-0.5,0.5-0.5,0.9c0,0.3,0.1,0.6,0.4,0.9c0.3,0.2,0.9,0.4,1.8,0.6c1.4,0.3,2.4,0.7,3.1,1.2c0.7,0.5,1,1.3,1,2.2
				c0,1-0.4,1.8-1.3,2.5c-0.9,0.6-2,1-3.5,1c-0.9,0-1.7-0.1-2.4-0.4c-0.7-0.3-1.4-0.6-1.9-1.1l0-2.5h2.1l0.4,1.5
				c0.2,0.2,0.4,0.3,0.7,0.3c0.3,0.1,0.6,0.1,1,0.1c0.6,0,1.1-0.1,1.4-0.3c0.3-0.2,0.5-0.5,0.5-0.9c0-0.3-0.2-0.6-0.5-0.9
				s-0.9-0.5-1.8-0.6c-1.3-0.3-2.3-0.7-3-1.2c-0.7-0.5-1-1.3-1-2.2c0-0.9,0.4-1.8,1.2-2.4c0.8-0.7,1.9-1,3.3-1
				c0.9,0,1.7,0.1,2.5,0.4c0.8,0.2,1.4,0.5,1.8,0.9L395.4,1438.1z"/>
			<path class="st53" d="M402.6,1445.7c-1.6,0-2.9-0.5-3.9-1.6c-1-1-1.5-2.4-1.5-4v-0.4c0-1.7,0.5-3.1,1.4-4.1
				c0.9-1.1,2.2-1.6,3.7-1.6c1.5,0,2.7,0.5,3.5,1.4c0.8,0.9,1.3,2.2,1.3,3.7v1.7h-6.7l0,0.1c0.1,0.7,0.3,1.4,0.7,1.8
				c0.4,0.5,1,0.7,1.8,0.7c0.7,0,1.2-0.1,1.7-0.2c0.4-0.1,0.9-0.3,1.5-0.6l0.8,1.9c-0.5,0.4-1.1,0.7-1.8,0.9
				S403.5,1445.7,402.6,1445.7z M402.3,1436.3c-0.6,0-1,0.2-1.3,0.6s-0.5,1-0.6,1.7l0,0.1h3.7v-0.3c0-0.6-0.2-1.2-0.5-1.6
				S402.9,1436.3,402.3,1436.3z"/>
			<path class="st53" d="M414,1445.7c-1.6,0-2.9-0.5-3.9-1.6c-1-1-1.5-2.4-1.5-4v-0.4c0-1.7,0.5-3.1,1.4-4.1
				c0.9-1.1,2.2-1.6,3.7-1.6c1.5,0,2.7,0.5,3.5,1.4c0.8,0.9,1.3,2.2,1.3,3.7v1.7h-6.7l0,0.1c0.1,0.7,0.3,1.4,0.7,1.8
				c0.4,0.5,1,0.7,1.8,0.7c0.7,0,1.2-0.1,1.7-0.2c0.4-0.1,0.9-0.3,1.5-0.6l0.8,1.9c-0.5,0.4-1.1,0.7-1.8,0.9
				S414.9,1445.7,414,1445.7z M413.7,1436.3c-0.6,0-1,0.2-1.3,0.6s-0.5,1-0.6,1.7l0,0.1h3.7v-0.3c0-0.6-0.2-1.2-0.5-1.6
				S414.3,1436.3,413.7,1436.3z"/>
			<path class="st53" d="M429.7,1431.4v2.8h2v2.1h-2v5.8c0,0.4,0.1,0.8,0.3,0.9c0.2,0.2,0.4,0.3,0.7,0.3c0.2,0,0.4,0,0.5,0
				c0.2,0,0.3,0,0.5-0.1l0.3,2.2c-0.3,0.1-0.7,0.2-1,0.2c-0.3,0.1-0.7,0.1-1.1,0.1c-1.1,0-1.9-0.3-2.4-0.9c-0.6-0.6-0.9-1.5-0.9-2.7
				v-5.8H425v-2.1h1.7v-2.8H429.7z"/>
			<path class="st53" d="M433,1443.6l1.5-0.3v-12l-1.6-0.3v-1.8h4.7v6.4c0.4-0.5,0.8-0.9,1.3-1.2c0.5-0.3,1.1-0.4,1.7-0.4
				c1.2,0,2.1,0.4,2.8,1.2c0.7,0.8,1,2,1,3.6v4.6l1.5,0.3v1.8H440v-1.8l1.3-0.3v-4.6c0-0.9-0.2-1.5-0.5-1.9
				c-0.3-0.4-0.8-0.5-1.4-0.5c-0.4,0-0.8,0.1-1.1,0.2c-0.3,0.2-0.6,0.4-0.8,0.6v6.1l1.3,0.3v1.8H433V1443.6z"/>
			<path class="st53" d="M452.1,1445.7c-1.6,0-2.9-0.5-3.9-1.6c-1-1-1.5-2.4-1.5-4v-0.4c0-1.7,0.5-3.1,1.4-4.1
				c0.9-1.1,2.2-1.6,3.7-1.6c1.5,0,2.7,0.5,3.5,1.4c0.8,0.9,1.3,2.2,1.3,3.7v1.7h-6.7l0,0.1c0.1,0.7,0.3,1.4,0.7,1.8
				c0.4,0.5,1,0.7,1.8,0.7c0.7,0,1.2-0.1,1.7-0.2c0.4-0.1,0.9-0.3,1.5-0.6l0.8,1.9c-0.5,0.4-1.1,0.7-1.8,0.9
				S453,1445.7,452.1,1445.7z M451.8,1436.3c-0.6,0-1,0.2-1.3,0.6s-0.5,1-0.6,1.7l0,0.1h3.7v-0.3c0-0.6-0.2-1.2-0.5-1.6
				S452.4,1436.3,451.8,1436.3z"/>
			<path class="st53" d="M468.6,1443.3c0.5,0,1-0.2,1.3-0.5c0.3-0.3,0.5-0.7,0.5-1.3h2.8l0,0.1c0,1.1-0.4,2.1-1.3,2.9
				c-0.9,0.8-2,1.2-3.3,1.2c-1.7,0-3-0.5-3.9-1.6c-0.9-1.1-1.4-2.4-1.4-4.1v-0.3c0-1.7,0.5-3,1.4-4.1s2.3-1.6,4-1.6
				c0.9,0,1.7,0.1,2.5,0.4s1.3,0.7,1.8,1.1l0,3h-2.5l-0.5-1.8c-0.2-0.1-0.3-0.2-0.6-0.3c-0.2-0.1-0.5-0.1-0.8-0.1
				c-0.9,0-1.5,0.3-1.8,0.9c-0.4,0.6-0.5,1.4-0.5,2.4v0.3c0,1,0.2,1.8,0.5,2.4C467.2,1443,467.8,1443.3,468.6,1443.3z"/>
			<path class="st53" d="M474.5,1443.6l1.5-0.3v-7l-1.6-0.3v-1.8h4.7v9.2l1.5,0.3v1.8h-6V1443.6z M479,1431.5h-3v-2.3h3V1431.5z"/>
			<path class="st53" d="M486,1431.4v2.8h2v2.1h-2v5.8c0,0.4,0.1,0.8,0.3,0.9c0.2,0.2,0.4,0.3,0.7,0.3c0.2,0,0.4,0,0.5,0
				c0.2,0,0.3,0,0.5-0.1l0.3,2.2c-0.3,0.1-0.7,0.2-1,0.2c-0.3,0.1-0.7,0.1-1.1,0.1c-1.1,0-1.9-0.3-2.4-0.9c-0.6-0.6-0.9-1.5-0.9-2.7
				v-5.8h-1.7v-2.1h1.7v-2.8H486z"/>
			<path class="st53" d="M501.1,1436l-1.1,0.2l-4.2,11c-0.3,0.8-0.8,1.5-1.3,2s-1.4,0.8-2.5,0.8c-0.3,0-0.5,0-0.7-0.1
				c-0.2,0-0.5-0.1-0.8-0.2l0.4-2.2c0.1,0,0.2,0,0.3,0c0.1,0,0.2,0,0.3,0c0.5,0,0.9-0.1,1.2-0.4s0.5-0.6,0.6-0.9l0.3-0.9l-3.6-9.3
				l-1.1-0.2v-1.8h5.5v1.8l-1.3,0.2l1.5,4.5l0.2,0.8l0.1,0l1.8-5.3l-1.3-0.2v-1.8h5.5V1436z"/>
			<path class="st53" d="M514.7,1444.1c-0.4,0.5-0.8,0.9-1.3,1.2c-0.5,0.3-1,0.4-1.7,0.4c-1.4,0-2.5-0.5-3.2-1.5
				c-0.8-1-1.2-2.4-1.2-4v-0.2c0-1.8,0.4-3.2,1.2-4.3c0.8-1.1,1.9-1.6,3.3-1.6c0.6,0,1.1,0.1,1.5,0.4s0.8,0.6,1.2,1v-4.1l-1.6-0.3
				v-1.8h1.6h3v14.1l1.5,0.3v1.8h-4.1L514.7,1444.1z M510.4,1440.1c0,1,0.2,1.8,0.5,2.3s0.9,0.9,1.6,0.9c0.4,0,0.8-0.1,1.2-0.3
				s0.6-0.4,0.8-0.8v-4.8c-0.2-0.4-0.5-0.6-0.8-0.8c-0.3-0.2-0.7-0.3-1.1-0.3c-0.7,0-1.3,0.3-1.6,1c-0.3,0.7-0.5,1.5-0.5,2.6V1440.1
				z"/>
			<path class="st53" d="M519.9,1443.6l1.5-0.3v-7l-1.6-0.3v-1.8h4.7v9.2l1.5,0.3v1.8h-6V1443.6z M524.4,1431.5h-3v-2.3h3V1431.5z"
				/>
			<path class="st53" d="M527,1443.6l1.5-0.3v-7h-1.7v-2.1h1.7v-1.3c0-1.3,0.4-2.2,1.1-2.9c0.7-0.7,1.8-1,3.1-1c0.3,0,0.5,0,0.8,0.1
				c0.3,0,0.6,0.1,0.9,0.2l-0.3,2.3c-0.2,0-0.3-0.1-0.5-0.1c-0.2,0-0.3,0-0.5,0c-0.5,0-0.9,0.1-1.1,0.4c-0.3,0.3-0.4,0.7-0.4,1.2
				v1.3h2.2v2.1h-2.2v7l1.5,0.3v1.8h-6V1443.6z"/>
			<path class="st53" d="M535,1443.6l1.5-0.3v-7h-1.7v-2.1h1.7v-1.3c0-1.3,0.4-2.2,1.1-2.9c0.7-0.7,1.8-1,3.1-1c0.3,0,0.5,0,0.8,0.1
				c0.3,0,0.6,0.1,0.9,0.2l-0.3,2.3c-0.2,0-0.3-0.1-0.5-0.1c-0.2,0-0.3,0-0.5,0c-0.5,0-0.9,0.1-1.1,0.4c-0.3,0.3-0.4,0.7-0.4,1.2
				v1.3h2.2v2.1h-2.2v7l1.5,0.3v1.8h-6V1443.6z"/>
			<path class="st53" d="M547.9,1445.7c-1.6,0-2.9-0.5-3.9-1.6c-1-1-1.5-2.4-1.5-4v-0.4c0-1.7,0.5-3.1,1.4-4.1
				c0.9-1.1,2.2-1.6,3.7-1.6c1.5,0,2.7,0.5,3.5,1.4c0.8,0.9,1.3,2.2,1.3,3.7v1.7h-6.7l0,0.1c0.1,0.7,0.3,1.4,0.7,1.8
				c0.4,0.5,1,0.7,1.8,0.7c0.7,0,1.2-0.1,1.7-0.2c0.4-0.1,0.9-0.3,1.5-0.6l0.8,1.9c-0.5,0.4-1.1,0.7-1.8,0.9
				S548.9,1445.7,547.9,1445.7z M547.7,1436.3c-0.6,0-1,0.2-1.3,0.6s-0.5,1-0.6,1.7l0,0.1h3.7v-0.3c0-0.6-0.2-1.2-0.5-1.6
				S548.3,1436.3,547.7,1436.3z"/>
			<path class="st53" d="M554.2,1443.6l1.5-0.3v-7l-1.6-0.3v-1.8h4.5l0.1,1.6c0.3-0.6,0.6-1,1-1.4c0.4-0.3,0.9-0.5,1.5-0.5
				c0.2,0,0.3,0,0.5,0c0.2,0,0.3,0.1,0.4,0.1l-0.3,2.8l-1.3,0c-0.4,0-0.8,0.1-1.1,0.3c-0.3,0.2-0.5,0.4-0.7,0.7v5.5l1.5,0.3v1.8h-6
				V1443.6z"/>
			<path class="st53" d="M568.1,1445.7c-1.6,0-2.9-0.5-3.9-1.6c-1-1-1.5-2.4-1.5-4v-0.4c0-1.7,0.5-3.1,1.4-4.1
				c0.9-1.1,2.2-1.6,3.7-1.6c1.5,0,2.7,0.5,3.5,1.4c0.8,0.9,1.3,2.2,1.3,3.7v1.7h-6.7l0,0.1c0.1,0.7,0.3,1.4,0.7,1.8
				c0.4,0.5,1,0.7,1.8,0.7c0.7,0,1.2-0.1,1.7-0.2c0.4-0.1,0.9-0.3,1.5-0.6l0.8,1.9c-0.5,0.4-1.1,0.7-1.8,0.9
				S569,1445.7,568.1,1445.7z M567.9,1436.3c-0.6,0-1,0.2-1.3,0.6s-0.5,1-0.6,1.7l0,0.1h3.7v-0.3c0-0.6-0.2-1.2-0.5-1.6
				S568.5,1436.3,567.9,1436.3z"/>
			<path class="st53" d="M573.9,1443.6l1.5-0.3v-7l-1.6-0.3v-1.8h4.5l0.1,1.6c0.4-0.6,0.8-1,1.4-1.3c0.5-0.3,1.2-0.5,1.8-0.5
				c1.1,0,2,0.4,2.7,1.1s1,1.8,1,3.4v4.9l1.5,0.3v1.8h-5.8v-1.8l1.3-0.3v-4.9c0-0.8-0.2-1.3-0.5-1.6c-0.3-0.3-0.8-0.5-1.4-0.5
				c-0.4,0-0.8,0.1-1.1,0.2c-0.3,0.2-0.6,0.4-0.8,0.7v6.1l1.2,0.3v1.8h-5.7V1443.6z"/>
			<path class="st53" d="M592.2,1431.4v2.8h2v2.1h-2v5.8c0,0.4,0.1,0.8,0.3,0.9c0.2,0.2,0.4,0.3,0.7,0.3c0.2,0,0.4,0,0.5,0
				c0.2,0,0.3,0,0.5-0.1l0.3,2.2c-0.3,0.1-0.7,0.2-1,0.2c-0.3,0.1-0.7,0.1-1.1,0.1c-1.1,0-1.9-0.3-2.4-0.9c-0.6-0.6-0.9-1.5-0.9-2.7
				v-5.8h-1.7v-2.1h1.7v-2.8H592.2z"/>
			<path class="st53" d="M595.3,1431v-1.8h4.7v14.1l1.5,0.3v1.8h-6v-1.8l1.5-0.3v-12L595.3,1431z"/>
			<path class="st53" d="M614.2,1436l-1.1,0.2l-4.2,11c-0.3,0.8-0.8,1.5-1.3,2s-1.4,0.8-2.5,0.8c-0.3,0-0.5,0-0.7-0.1
				c-0.2,0-0.5-0.1-0.8-0.2l0.4-2.2c0.1,0,0.2,0,0.3,0c0.1,0,0.2,0,0.3,0c0.5,0,0.9-0.1,1.2-0.4s0.5-0.6,0.6-0.9l0.3-0.9l-3.6-9.3
				l-1.1-0.2v-1.8h5.5v1.8l-1.3,0.2l1.5,4.5l0.2,0.8l0.1,0l1.8-5.3l-1.3-0.2v-1.8h5.5V1436z"/>
		</g>
		<g class="st1">
			
				<ellipse transform="matrix(-0.103 0.9947 -0.9947 -0.103 2312.0383 1102.3258)" class="st25" cx="659" cy="1593.7" rx="22.2" ry="18.4"/>
			
				<ellipse transform="matrix(-0.9783 -0.2074 0.2074 -0.9783 903.631 3329.6472)" class="st25" cx="626.3" cy="1617.5" rx="22.2" ry="18.4"/>
			
				<ellipse transform="matrix(-6.587160e-02 0.9978 -0.9978 -6.587160e-02 2328.6394 1097.0302)" class="st25" cx="650.8" cy="1638.5" rx="14.1" ry="11.8"/>
			
				<ellipse transform="matrix(-0.9699 -0.2436 0.2436 -0.9699 925.9241 3362.3108)" class="st25" cx="670.9" cy="1623.9" rx="14.1" ry="11.8"/>
			
				<rect x="640.6" y="1609.6" transform="matrix(0.5886 0.8084 -0.8084 0.5886 1578.614 138.0104)" class="st25" width="26.3" height="21.2"/>
			
				<ellipse transform="matrix(-0.103 0.9947 -0.9947 -0.103 2315.8599 1107.6272)" class="st54" cx="658.5" cy="1598.1" rx="14.2" ry="9.6"/>
			
				<ellipse transform="matrix(0.9783 0.2074 -0.2074 0.9783 349.4226 -95.379)" class="st54" cx="629.7" cy="1619.1" rx="14.2" ry="9.6"/>
			
				<ellipse transform="matrix(0.103 -0.9947 0.9947 0.103 -1046.0544 2116.9124)" class="st54" cx="650.6" cy="1638.4" rx="8.3" ry="5.6"/>
			
				<ellipse transform="matrix(0.9783 0.2074 -0.2074 0.9783 351.2643 -103.8488)" class="st54" cx="671" cy="1623.6" rx="8.3" ry="5.6"/>
			<path class="st55" d="M665.9,1638.1L665.9,1638.1c-1.6,1.2-3.9,0.8-5.1-0.8l-19.5-26.8c-1.2-1.6-0.8-3.9,0.8-5.1l0,0
				c1.6-1.2,3.9-0.8,5.1,0.8l19.5,26.7C667.9,1634.7,667.5,1636.9,665.9,1638.1z"/>
		</g>
		<path style="clip-path:url(#SVGID_2_);fill:none;stroke:#79E2BC;stroke-width:1.1609;stroke-miterlimit:10;" d="M530.9,1845.5
			l0-0.6c0-2.3-1.9-4.2-4.2-4.2s-4.2,1.9-4.2,4.2c0-2.3-1.9-4.2-4.2-4.2c-2.3,0-4.2,1.9-4.2,4.2"/>
		<path style="clip-path:url(#SVGID_2_);fill:none;stroke:#79E2BC;stroke-width:1.1609;stroke-miterlimit:10;" d="M820,1900.1l0-0.6
			c0-2.3-1.9-4.2-4.2-4.2s-4.2,1.9-4.2,4.2c0-2.3-1.9-4.2-4.2-4.2c-2.3,0-4.2,1.9-4.2,4.2"/>
		<path style="clip-path:url(#SVGID_2_);fill:none;stroke:#79E2BC;stroke-width:1.1609;stroke-miterlimit:10;" d="M17.9,1899.5
			l0-0.6c0-2.3-1.9-4.2-4.2-4.2s-4.2,1.9-4.2,4.2c0-2.3-1.9-4.2-4.2-4.2c-2.3,0-4.2,1.9-4.2,4.2"/>
		<path style="clip-path:url(#SVGID_2_);fill:none;stroke:#79E2BC;stroke-width:1.1609;stroke-miterlimit:10;" d="M618.5,2000.9
			l0-0.6c0-2.3-1.9-4.2-4.2-4.2c-2.3,0-4.2,1.9-4.2,4.2c0-2.3-1.9-4.2-4.2-4.2c-2.3,0-4.2,1.9-4.2,4.2c0-2.3-1.9-4.2-4.2-4.2
			s-4.2,1.9-4.2,4.2l0,0.6"/>
		<path style="clip-path:url(#SVGID_2_);fill:none;stroke:#79E2BC;stroke-width:1.1609;stroke-miterlimit:10;" d="M539.4,1913.6
			l0-0.6c0-2.3-1.9-4.2-4.2-4.2s-4.2,1.9-4.2,4.2c0-2.3-1.9-4.2-4.2-4.2c-2.3,0-4.2,1.9-4.2,4.2c0-2.3-1.9-4.2-4.2-4.2
			c-2.3,0-4.2,1.9-4.2,4.2l0,0.6"/>
		<path style="clip-path:url(#SVGID_2_);fill:none;stroke:#79E2BC;stroke-width:1.1609;stroke-miterlimit:10;" d="M811.5,1968.8
			l0-0.6c0-2.3-1.9-4.2-4.2-4.2s-4.2,1.9-4.2,4.2c0-2.3-1.9-4.2-4.2-4.2s-4.2,1.9-4.2,4.2c0-2.3-1.9-4.2-4.2-4.2
			c-2.3,0-4.2,1.9-4.2,4.2l0,0.6"/>
		<path style="clip-path:url(#SVGID_2_);fill:none;stroke:#79E2BC;stroke-width:1.1609;stroke-miterlimit:10;" d="M137.6,2011.4
			l0-0.6c0-2.3-1.9-4.2-4.2-4.2s-4.2,1.9-4.2,4.2c0-2.3-1.9-4.2-4.2-4.2c-2.3,0-4.2,1.9-4.2,4.2c0-2.3-1.9-4.2-4.2-4.2
			s-4.2,1.9-4.2,4.2l0,0.6"/>
		<path style="clip-path:url(#SVGID_2_);fill:none;stroke:#79E2BC;stroke-width:1.1609;stroke-miterlimit:10;" d="M619.9,1885.6
			c0-2.3-1.9-4.2-4.2-4.2s-4.2,1.9-4.2,4.2l0,0.6"/>
		<path style="clip-path:url(#SVGID_2_);fill:none;stroke:#79E2BC;stroke-width:1.1609;stroke-miterlimit:10;" d="M627.4,1882.3
			c0-2.3-1.9-4.2-4.2-4.2c-2.3,0-4.2,1.9-4.2,4.2l0,0.6"/>
		<path style="clip-path:url(#SVGID_2_);fill:none;stroke:#79E2BC;stroke-width:1.1609;stroke-miterlimit:10;" d="M953.9,1894.5
			c0-2.3-1.9-4.2-4.2-4.2c-2.3,0-4.2,1.9-4.2,4.2l0,0.6"/>
		<path style="clip-path:url(#SVGID_2_);fill:none;stroke:#79E2BC;stroke-width:1.1609;stroke-miterlimit:10;" d="M961.4,1891.2
			c0-2.3-1.9-4.2-4.2-4.2c-2.3,0-4.2,1.9-4.2,4.2l0,0.6"/>
		<path style="clip-path:url(#SVGID_2_);fill:none;stroke:#79E2BC;stroke-width:1.1609;stroke-miterlimit:10;" d="M360.4,1864.4
			c0-2.3,1.9-4.2,4.2-4.2c2.3,0,4.2,1.9,4.2,4.2l0,0.6"/>
		<path style="clip-path:url(#SVGID_2_);fill:none;stroke:#79E2BC;stroke-width:1.1609;stroke-miterlimit:10;" d="M352.3,1861.9
			c0-2.3,1.9-4.2,4.2-4.2c2.3,0,4.2,1.9,4.2,4.2l0,0.6"/>
		<path style="clip-path:url(#SVGID_2_);fill:none;stroke:#79E2BC;stroke-width:1.1609;stroke-miterlimit:10;" d="M460.7,1843.3
			c0-2.3-1.9-4.2-4.2-4.2c-2.3,0-4.2,1.9-4.2,4.2l0,0.6"/>
		<path style="clip-path:url(#SVGID_2_);fill:none;stroke:#79E2BC;stroke-width:1.1609;stroke-miterlimit:10;" d="M476.9,1841.5
			l0-0.6c0-2.3-1.9-4.2-4.2-4.2c-2.3,0-4.2,1.9-4.2,4.2c0-2.3-1.9-4.2-4.2-4.2c-2.3,0-4.2,1.9-4.2,4.2"/>
		<path style="clip-path:url(#SVGID_2_);fill:none;stroke:#79E2BC;stroke-width:1.1609;stroke-miterlimit:10;" d="M927,2009.6
			c0-2.3-1.9-4.2-4.2-4.2c-2.3,0-4.2,1.9-4.2,4.2l0,0.6"/>
		<path style="clip-path:url(#SVGID_2_);fill:none;stroke:#79E2BC;stroke-width:1.1609;stroke-miterlimit:10;" d="M943.2,2007.8
			l0-0.6c0-2.3-1.9-4.2-4.2-4.2s-4.2,1.9-4.2,4.2c0-2.3-1.9-4.2-4.2-4.2c-2.3,0-4.2,1.9-4.2,4.2"/>
		<g class="st1">
			<line class="st83" x1="221.7" y1="1897.1" x2="221.7" y2="2047.9"/>
			<path class="st4" d="M221.7,2013.9c0,0-37,0.4-37-44.5c0-36.3,37-118.2,37-118.2s37,81.9,37,118.2
				C258.7,2014.2,221.7,2013.9,221.7,2013.9z"/>
			<path class="st5" d="M221.7,1851.2v162.7c0,0,37,0.4,37-44.5C258.7,1933.1,221.7,1851.2,221.7,1851.2z"/>
		</g>
		
			<rect x="364.1" y="454.6" style="clip-path:url(#SVGID_2_);fill:none;stroke:#FFFFFF;stroke-width:2.5285;stroke-miterlimit:10;" width="271.9" height="59"/>
		<g class="st1">
			<g>
				<g>
					<g>
						<g>
							<g>
								<path class="st13" d="M417.5,478.6h1.7c1.6,0,2.5,0.6,2.5,2.4c0,1.9-1.6,2.5-3,2.5h-1.2V478.6z M415.4,491.4h2.1v-6.2h1.2
									c2,0,2.3,0.9,2.9,3l0.9,3.2h1.9l-0.9-4c-0.3-1.5-0.5-2.8-2.5-3.2v0c1.5-0.4,2.9-1.2,2.9-3.4c0-2.8-2-3.8-4.2-3.8h-4.2V491.4
									z"/>
								<path class="st13" d="M433.9,476.9h2.1v14.5h-2.1V476.9z"/>
								<path class="st13" d="M448.5,478.6h-3.6v-1.7h9.3v1.7h-3.6v12.8h-2.1V478.6z"/>
								<path class="st13" d="M463.1,476.9h2.1v14.5h-2.1V476.9z"/>
								<path class="st13" d="M498.9,478.8L498.9,478.8l2,6.7h-4.1L498.9,478.8z M492.6,491.4h2.2l1.4-4.2h5.2l1.4,4.2h2.2l-5-14.5
									h-2.6L492.6,491.4z"/>
								<path class="st13" d="M514.2,476.9h2.1v12.8h5.6v1.7h-7.7V476.9z"/>
							</g>
							<g>
								<path class="st13" d="M533.1,476.9h2.9l4.1,11.9h0l4.1-11.9h2.9v14.5h-1.9v-12h0l-4.2,12h-2l-4.2-12h0v12h-1.9V476.9z"/>
								<path class="st13" d="M562.5,478.8L562.5,478.8l2,6.7h-4.1L562.5,478.8z M556.3,491.4h2.2l1.4-4.2h5.2l1.4,4.2h2.2l-5-14.5
									h-2.6L556.3,491.4z"/>
								<path class="st13" d="M583,483.5c1.4,0.8,3,1.7,3,4c0,2.8-2.2,4.1-5.2,4.1c-1.7,0-3.2-0.4-3.7-0.6v-2.2
									c0.8,0.5,2.2,1.1,3.8,1.1c1.4,0,2.7-0.6,2.7-2.1c0-1.5-1.2-2.1-2.3-2.8l-1.3-0.8c-1.3-0.8-3.1-1.6-3.1-3.8
									c0-2.6,2.1-3.7,4.8-3.7c1.4,0,2.8,0.3,3.3,0.4v2c-0.3-0.1-1.9-0.7-3.4-0.7c-1.4,0-2.4,0.7-2.4,1.9c0,1.1,1.3,1.8,2.3,2.4
									L583,483.5z"/>
								<path class="st13" d="M600.7,483.5c1.4,0.8,3,1.7,3,4c0,2.8-2.2,4.1-5.2,4.1c-1.7,0-3.2-0.4-3.7-0.6v-2.2
									c0.8,0.5,2.2,1.1,3.8,1.1c1.4,0,2.7-0.6,2.7-2.1c0-1.5-1.2-2.1-2.3-2.8l-1.3-0.8c-1.3-0.8-3.1-1.6-3.1-3.8
									c0-2.6,2.1-3.7,4.8-3.7c1.4,0,2.8,0.3,3.3,0.4v2c-0.3-0.1-1.9-0.7-3.4-0.7c-1.4,0-2.4,0.7-2.4,1.9c0,1.1,1.3,1.8,2.3,2.4
									L600.7,483.5z"/>
							</g>
						</g>
					</g>
				</g>
				<path class="st13" d="M402.4,478.3c1.8,0,3,0.9,3.4,1.1v-1.9c-0.6-0.3-2.1-0.9-3.8-0.9c-3.1,0-5.7,1.9-5.8,7.4h0
					c0,5.6,2.6,7.5,5.8,7.5c1.7,0,3.2-0.6,3.8-0.9v-1.9c-0.4,0.2-1.6,1.1-3.4,1.1c-2.9,0-3.8-2.4-3.9-5.8h0
					C398.7,480.7,399.6,478.3,402.4,478.3z"/>
				<path class="st13" d="M481.2,478.3c1.8,0,3,0.9,3.4,1.1v-1.9c-0.6-0.3-2.1-0.9-3.8-0.9c-3.2,0-5.7,1.9-5.8,7.4h0
					c0,5.6,2.6,7.5,5.8,7.5c1.7,0,3.2-0.6,3.8-0.9v-1.9c-0.4,0.2-1.6,1.1-3.4,1.1c-2.9,0-3.8-2.4-3.9-5.8h0
					C477.4,480.7,478.4,478.3,481.2,478.3z"/>
			</g>
		</g>
		<rect x="839.8" y="1787.3" style="clip-path:url(#SVGID_2_);fill:#89D7E6;" width="30" height="8.8"/>
		<g class="st1">
			<path class="st13" d="M401.8,427c-1.3,0-2.3-0.4-3.1-1.2c-0.8-0.8-1.2-1.9-1.2-3.3v-0.3c0-0.9,0.2-1.8,0.5-2.5
				c0.4-0.7,0.8-1.3,1.5-1.7c0.6-0.4,1.3-0.6,2.1-0.6c1.2,0,2.2,0.4,2.8,1.2c0.7,0.8,1,1.9,1,3.4v0.7h-6.3c0,0.9,0.3,1.7,0.8,2.2
				c0.5,0.6,1.2,0.9,2,0.9c0.6,0,1-0.1,1.4-0.3c0.4-0.2,0.7-0.5,1-0.9l1,0.8C404.5,426.4,403.3,427,401.8,427z M401.6,418.6
				c-0.6,0-1.2,0.2-1.6,0.7c-0.4,0.5-0.7,1.1-0.8,2h4.7v-0.1c0-0.8-0.3-1.4-0.7-1.9C402.8,418.8,402.2,418.6,401.6,418.6z"/>
			<path class="st13" d="M411.5,420.9l2.1-3.4h1.9l-3.1,4.6l3.2,4.7h-1.8l-2.2-3.5l-2.2,3.5h-1.9l3.2-4.7l-3.1-4.6h1.8L411.5,420.9z
				"/>
			<path class="st13" d="M426.1,422.2c0,1.4-0.3,2.6-1,3.4c-0.7,0.9-1.5,1.3-2.6,1.3c-1.1,0-2-0.4-2.7-1.1v4.5h-1.6v-12.9h1.5l0.1,1
				c0.7-0.8,1.6-1.2,2.7-1.2c1.1,0,2,0.4,2.7,1.3c0.7,0.8,1,2,1,3.5V422.2z M424.5,422.1c0-1.1-0.2-1.9-0.7-2.5
				c-0.4-0.6-1.1-0.9-1.8-0.9c-1,0-1.7,0.4-2.2,1.3v4.5c0.5,0.9,1.2,1.3,2.2,1.3c0.8,0,1.4-0.3,1.8-0.9
				C424.2,424.2,424.5,423.3,424.5,422.1z"/>
			<path class="st13" d="M433,427c-1.3,0-2.3-0.4-3.1-1.2c-0.8-0.8-1.2-1.9-1.2-3.3v-0.3c0-0.9,0.2-1.8,0.5-2.5
				c0.4-0.7,0.8-1.3,1.5-1.7c0.6-0.4,1.3-0.6,2.1-0.6c1.2,0,2.2,0.4,2.8,1.2c0.7,0.8,1,1.9,1,3.4v0.7h-6.3c0,0.9,0.3,1.7,0.8,2.2
				c0.5,0.6,1.2,0.9,2,0.9c0.6,0,1-0.1,1.4-0.3c0.4-0.2,0.7-0.5,1-0.9l1,0.8C435.8,426.4,434.6,427,433,427z M432.8,418.6
				c-0.6,0-1.2,0.2-1.6,0.7c-0.4,0.5-0.7,1.1-0.8,2h4.7v-0.1c0-0.8-0.3-1.4-0.7-1.9C434,418.8,433.5,418.6,432.8,418.6z"/>
			<path class="st13" d="M444.1,418.9c-0.2,0-0.5-0.1-0.8-0.1c-1,0-1.8,0.4-2.1,1.3v6.6h-1.6v-9.4h1.6l0,1.1
				c0.5-0.8,1.3-1.3,2.2-1.3c0.3,0,0.5,0,0.7,0.1V418.9z"/>
			<path class="st13" d="M446.7,415c0-0.3,0.1-0.5,0.2-0.7c0.2-0.2,0.4-0.3,0.7-0.3c0.3,0,0.5,0.1,0.7,0.3c0.2,0.2,0.2,0.4,0.2,0.7
				s-0.1,0.5-0.2,0.6s-0.4,0.3-0.7,0.3c-0.3,0-0.5-0.1-0.7-0.3C446.7,415.5,446.7,415.2,446.7,415z M448.4,426.8h-1.6v-9.4h1.6
				V426.8z"/>
			<path class="st13" d="M455.9,427c-1.3,0-2.3-0.4-3.1-1.2c-0.8-0.8-1.2-1.9-1.2-3.3v-0.3c0-0.9,0.2-1.8,0.5-2.5
				c0.4-0.7,0.8-1.3,1.5-1.7c0.6-0.4,1.3-0.6,2.1-0.6c1.2,0,2.2,0.4,2.8,1.2c0.7,0.8,1,1.9,1,3.4v0.7h-6.3c0,0.9,0.3,1.7,0.8,2.2
				c0.5,0.6,1.2,0.9,2,0.9c0.6,0,1-0.1,1.4-0.3c0.4-0.2,0.7-0.5,1-0.9l1,0.8C458.6,426.4,457.5,427,455.9,427z M455.7,418.6
				c-0.6,0-1.2,0.2-1.6,0.7c-0.4,0.5-0.7,1.1-0.8,2h4.7v-0.1c0-0.8-0.3-1.4-0.7-1.9C456.9,418.8,456.4,418.6,455.7,418.6z"/>
			<path class="st13" d="M464,417.5l0.1,1.2c0.7-0.9,1.6-1.3,2.8-1.3c2,0,3,1.1,3,3.3v6.2h-1.6v-6.2c0-0.7-0.2-1.2-0.5-1.5
				c-0.3-0.3-0.8-0.5-1.4-0.5c-0.5,0-1,0.1-1.4,0.4c-0.4,0.3-0.7,0.6-0.9,1.1v6.7h-1.6v-9.4H464z"/>
			<path class="st13" d="M477,425.7c0.6,0,1.1-0.2,1.5-0.5c0.4-0.3,0.7-0.8,0.7-1.3h1.5c0,0.5-0.2,1-0.6,1.5
				c-0.3,0.5-0.8,0.9-1.4,1.2c-0.6,0.3-1.2,0.4-1.8,0.4c-1.3,0-2.3-0.4-3-1.3c-0.8-0.8-1.1-2-1.1-3.5V422c0-0.9,0.2-1.7,0.5-2.4
				c0.3-0.7,0.8-1.3,1.4-1.7c0.6-0.4,1.4-0.6,2.2-0.6c1,0,1.9,0.3,2.6,0.9c0.7,0.6,1.1,1.4,1.1,2.4h-1.5c0-0.6-0.3-1.1-0.7-1.5
				c-0.4-0.4-0.9-0.6-1.5-0.6c-0.8,0-1.4,0.3-1.9,0.9c-0.4,0.6-0.7,1.4-0.7,2.5v0.3c0,1.1,0.2,1.9,0.7,2.5S476.2,425.7,477,425.7z"
				/>
			<path class="st13" d="M487.5,427c-1.3,0-2.3-0.4-3.1-1.2c-0.8-0.8-1.2-1.9-1.2-3.3v-0.3c0-0.9,0.2-1.8,0.5-2.5
				c0.4-0.7,0.8-1.3,1.5-1.7c0.6-0.4,1.3-0.6,2.1-0.6c1.2,0,2.2,0.4,2.8,1.2c0.7,0.8,1,1.9,1,3.4v0.7h-6.3c0,0.9,0.3,1.7,0.8,2.2
				c0.5,0.6,1.2,0.9,2,0.9c0.6,0,1-0.1,1.4-0.3c0.4-0.2,0.7-0.5,1-0.9l1,0.8C490.2,426.4,489,427,487.5,427z M487.3,418.6
				c-0.6,0-1.2,0.2-1.6,0.7c-0.4,0.5-0.7,1.1-0.8,2h4.7v-0.1c0-0.8-0.3-1.4-0.7-1.9C488.5,418.8,487.9,418.6,487.3,418.6z"/>
			<path class="st13" d="M499.1,422.1c0-1.4,0.3-2.6,1-3.5c0.7-0.9,1.6-1.3,2.7-1.3c1.1,0,2,0.4,2.6,1.1v-4.9h1.6v13.3h-1.5l-0.1-1
				c-0.6,0.8-1.5,1.2-2.7,1.2c-1.1,0-2-0.4-2.6-1.3c-0.7-0.9-1-2-1-3.5V422.1z M500.7,422.2c0,1.1,0.2,1.9,0.7,2.5
				c0.4,0.6,1,0.9,1.8,0.9c1,0,1.8-0.5,2.2-1.4V420c-0.5-0.9-1.2-1.3-2.2-1.3c-0.8,0-1.4,0.3-1.8,0.9
				C500.9,420.2,500.7,421.1,500.7,422.2z"/>
			<path class="st13" d="M514.4,427c-1.3,0-2.3-0.4-3.1-1.2c-0.8-0.8-1.2-1.9-1.2-3.3v-0.3c0-0.9,0.2-1.8,0.5-2.5
				c0.4-0.7,0.8-1.3,1.5-1.7c0.6-0.4,1.3-0.6,2.1-0.6c1.2,0,2.2,0.4,2.8,1.2c0.7,0.8,1,1.9,1,3.4v0.7h-6.3c0,0.9,0.3,1.7,0.8,2.2
				c0.5,0.6,1.2,0.9,2,0.9c0.6,0,1-0.1,1.4-0.3c0.4-0.2,0.7-0.5,1-0.9l1,0.8C517.1,426.4,516,427,514.4,427z M514.2,418.6
				c-0.6,0-1.2,0.2-1.6,0.7c-0.4,0.5-0.7,1.1-0.8,2h4.7v-0.1c0-0.8-0.3-1.4-0.7-1.9C515.4,418.8,514.9,418.6,514.2,418.6z"/>
			<path class="st13" d="M526.4,424.3c0-0.4-0.2-0.8-0.5-1c-0.3-0.2-0.9-0.4-1.7-0.6c-0.8-0.2-1.5-0.4-1.9-0.6
				c-0.5-0.2-0.8-0.5-1.1-0.9c-0.2-0.3-0.3-0.7-0.3-1.2c0-0.8,0.3-1.4,1-1.9c0.6-0.5,1.5-0.8,2.5-0.8c1.1,0,1.9,0.3,2.6,0.8
				c0.7,0.5,1,1.2,1,2.1h-1.6c0-0.4-0.2-0.8-0.6-1.1c-0.4-0.3-0.8-0.5-1.4-0.5c-0.6,0-1,0.1-1.4,0.4c-0.3,0.3-0.5,0.6-0.5,1
				c0,0.4,0.2,0.7,0.5,0.9c0.3,0.2,0.9,0.4,1.7,0.6c0.8,0.2,1.4,0.4,1.9,0.6c0.5,0.2,0.9,0.5,1.1,0.9c0.2,0.3,0.4,0.8,0.4,1.3
				c0,0.8-0.3,1.5-1,2c-0.7,0.5-1.5,0.8-2.6,0.8c-0.7,0-1.4-0.1-2-0.4c-0.6-0.3-1-0.6-1.4-1.1c-0.3-0.5-0.5-1-0.5-1.5h1.6
				c0,0.5,0.2,1,0.6,1.3c0.4,0.3,0.9,0.5,1.6,0.5c0.6,0,1.1-0.1,1.5-0.4C526.2,425.1,526.4,424.7,526.4,424.3z"/>
			<path class="st13" d="M531.2,415c0-0.3,0.1-0.5,0.2-0.7c0.2-0.2,0.4-0.3,0.7-0.3c0.3,0,0.5,0.1,0.7,0.3c0.2,0.2,0.2,0.4,0.2,0.7
				s-0.1,0.5-0.2,0.6s-0.4,0.3-0.7,0.3c-0.3,0-0.5-0.1-0.7-0.3C531.2,415.5,531.2,415.2,531.2,415z M532.9,426.8h-1.6v-9.4h1.6
				V426.8z"/>
			<path class="st13" d="M536.1,422.1c0-1.5,0.3-2.6,1-3.5c0.7-0.9,1.6-1.3,2.7-1.3c1.1,0,2,0.4,2.7,1.2l0.1-1h1.5v9.1
				c0,1.2-0.4,2.2-1.1,2.9c-0.7,0.7-1.7,1-2.9,1c-0.7,0-1.3-0.1-2-0.4s-1.1-0.7-1.5-1.2l0.8-1c0.7,0.8,1.5,1.3,2.5,1.3
				c0.8,0,1.4-0.2,1.8-0.7c0.4-0.4,0.7-1.1,0.7-1.8v-0.8c-0.6,0.7-1.5,1.1-2.6,1.1c-1.1,0-2-0.4-2.7-1.3
				C536.5,424.8,536.1,423.6,536.1,422.1z M537.7,422.2c0,1.1,0.2,1.9,0.6,2.5s1,0.9,1.8,0.9c1,0,1.7-0.5,2.2-1.4V420
				c-0.5-0.9-1.2-1.3-2.2-1.3c-0.8,0-1.4,0.3-1.8,0.9C538,420.2,537.7,421.1,537.7,422.2z"/>
			<path class="st13" d="M549,417.5l0.1,1.2c0.7-0.9,1.6-1.3,2.8-1.3c2,0,3,1.1,3,3.3v6.2h-1.6v-6.2c0-0.7-0.2-1.2-0.5-1.5
				c-0.3-0.3-0.8-0.5-1.4-0.5c-0.5,0-1,0.1-1.4,0.4c-0.4,0.3-0.7,0.6-0.9,1.1v6.7h-1.6v-9.4H549z"/>
			<path class="st13" d="M562.2,427c-1.3,0-2.3-0.4-3.1-1.2c-0.8-0.8-1.2-1.9-1.2-3.3v-0.3c0-0.9,0.2-1.8,0.5-2.5
				c0.4-0.7,0.8-1.3,1.5-1.7c0.6-0.4,1.3-0.6,2.1-0.6c1.2,0,2.2,0.4,2.8,1.2c0.7,0.8,1,1.9,1,3.4v0.7h-6.3c0,0.9,0.3,1.7,0.8,2.2
				c0.5,0.6,1.2,0.9,2,0.9c0.6,0,1-0.1,1.4-0.3c0.4-0.2,0.7-0.5,1-0.9l1,0.8C565,426.4,563.8,427,562.2,427z M562,418.6
				c-0.6,0-1.2,0.2-1.6,0.7c-0.4,0.5-0.7,1.1-0.8,2h4.7v-0.1c0-0.8-0.3-1.4-0.7-1.9C563.2,418.8,562.7,418.6,562,418.6z"/>
			<path class="st13" d="M568.4,422.1c0-1.4,0.3-2.6,1-3.5c0.7-0.9,1.6-1.3,2.7-1.3c1.1,0,2,0.4,2.6,1.1v-4.9h1.6v13.3h-1.5l-0.1-1
				c-0.6,0.8-1.5,1.2-2.7,1.2c-1.1,0-2-0.4-2.6-1.3c-0.7-0.9-1-2-1-3.5V422.1z M570,422.2c0,1.1,0.2,1.9,0.7,2.5
				c0.4,0.6,1,0.9,1.8,0.9c1,0,1.8-0.5,2.2-1.4V420c-0.5-0.9-1.2-1.3-2.2-1.3c-0.8,0-1.4,0.3-1.8,0.9
				C570.2,420.2,570,421.1,570,422.2z"/>
			<path class="st13" d="M593.2,422.2c0,1.4-0.3,2.6-1,3.4c-0.7,0.9-1.5,1.3-2.6,1.3c-1.2,0-2.1-0.4-2.7-1.3l-0.1,1.1h-1.5v-13.3
				h1.6v5c0.6-0.8,1.5-1.2,2.7-1.2c1.1,0,2,0.4,2.7,1.3c0.6,0.9,1,2,1,3.5V422.2z M591.6,422.1c0-1.1-0.2-1.9-0.6-2.5
				c-0.4-0.6-1-0.9-1.8-0.9c-1.1,0-1.8,0.5-2.3,1.5v4c0.5,1,1.3,1.5,2.3,1.5c0.8,0,1.4-0.3,1.8-0.9
				C591.4,424.1,591.6,423.3,591.6,422.1z"/>
			<path class="st13" d="M599.2,424.5l2.2-7h1.7l-3.8,10.8c-0.6,1.6-1.5,2.3-2.8,2.3l-0.3,0l-0.6-0.1v-1.3l0.4,0
				c0.5,0,1-0.1,1.3-0.3c0.3-0.2,0.6-0.6,0.7-1.2l0.4-1l-3.3-9.2h1.7L599.2,424.5z"/>
		</g>
		<path style="clip-path:url(#SVGID_2_);fill:#FFFFFF;" d="M846.6,1422.8c1.9,0,3.8,0.3,5.6,0.8c1.8-16.8,16-29.9,33.3-29.9
			c3.3,0,6.5,0.5,9.5,1.4c1.8-8.1,9-14.2,17.7-14.2c2.6,0,5.1,0.6,7.3,1.5c7.4-7.4,17.6-12,28.9-12c22.4,0,40.6,18.2,40.6,40.6
			c0,4-0.6,7.9-1.7,11.6c0.6,0,1.1-0.1,1.7-0.1c11.4,0,20.7,9.3,20.7,20.7c0,11.4-9.3,20.7-20.7,20.7v0.3H846.6v-0.6
			c-11.2,0-20.3-9.1-20.3-20.3S835.4,1422.8,846.6,1422.8z"/>
		<path style="clip-path:url(#SVGID_2_);fill:#FFFFFF;" d="M830,1282.2c-2,0-3.9,0.5-5.6,1.4c0.5-1.6,0.8-3.3,0.8-5.1
			c0-8.7-7.1-15.8-15.8-15.8c-0.3,0-0.6,0-0.9,0c0-0.1,0-0.2,0-0.3c0-13.8-11.2-25-25-25c-11,0-20.3,7.1-23.6,16.9
			c-1.4-0.3-2.8-0.6-4.3-0.6c-7.1,0-13.1,4.2-15.8,10.3c-0.5,0-1-0.1-1.5-0.1c-7.1,0-13.1,5.1-14.5,11.8c-2.4-1.9-5.4-3-8.6-3
			c-7.6,0-13.8,6.2-13.8,13.8c0,0.2,0,0.5,0,0.7c-0.9-0.5-2-0.7-3.1-0.7c-3.8,0-6.8,3-7,6.7c-1-0.5-2.1-0.9-3.4-0.9
			c-3.9,0-7,3.1-7,7c0,3.9,3.1,7,7,7H830c6.7,0,12.1-5.4,12.1-12.1C842.1,1287.6,836.7,1282.2,830,1282.2z"/>
		<path style="clip-path:url(#SVGID_2_);fill:#FFFFFF;" d="M227.6,1489.5c-1,0-1.9,0.1-2.8,0.4c-0.9-8.5-8.2-15.2-16.9-15.2
			c-1.7,0-3.3,0.2-4.8,0.7c-0.9-4.1-4.6-7.2-9-7.2c-1.3,0-2.6,0.3-3.7,0.8c-3.7-3.8-8.9-6.1-14.7-6.1c-11.4,0-20.6,9.2-20.6,20.6
			c0,2,0.3,4,0.9,5.9c-0.3,0-0.6,0-0.9,0c-5.8,0-10.5,4.7-10.5,10.5c0,5.8,4.7,10.5,10.5,10.5v0.1h72.6v-0.3
			c5.7,0,10.3-4.6,10.3-10.3C237.9,1494.1,233.3,1489.5,227.6,1489.5z"/>
		<path style="clip-path:url(#SVGID_2_);fill:#FFFFFF;" d="M416.1,1232.5c-1.1,0-2.2,0.2-3.2,0.5c0.5-1.5,0.9-3.1,0.9-4.8
			c0-7.9-6.4-14.3-14.3-14.3c-1.2,0-2.3,0.2-3.4,0.4c0-0.2,0-0.4,0-0.5c0-14.1-11.4-25.5-25.5-25.5c-0.9,0-1.7,0-2.5,0.1
			c0.2-1.8,0.4-3.6,0.4-5.5c0-22-17.9-39.9-39.9-39.9c-22,0-39.9,17.9-39.9,39.9c0,1.8,0.1,3.5,0.3,5.2c-4.6-2.8-9.9-4.4-15.6-4.4
			c-16.7,0-30.3,13.5-30.3,30.3c0,3.3,0.6,6.6,1.6,9.6c-1.4-0.4-2.9-0.7-4.4-0.7c-8.3,0-14.9,6.7-14.9,14.9
			c0,8.3,6.7,14.9,14.9,14.9h175.8c5.6,0,10.1-4.5,10.1-10.1C426.2,1237,421.7,1232.5,416.1,1232.5z"/>
		<path style="clip-path:url(#SVGID_2_);fill:#FFFFFF;" d="M83.9,1321.5c-0.9,0-1.8,0.1-2.7,0.3c-3.6-6.4-10.5-10.7-18.4-10.7
			c-1.6,0-3.2,0.2-4.7,0.6c-1.8-19.4-18.1-34.7-38-34.7c-0.2,0-0.5,0-0.7,0c-7.7-23.1-29.4-39.7-55-39.7c-32,0-58,26-58,58
			c0,3,0.3,5.9,0.7,8.7c-0.8-0.1-1.6-0.1-2.5-0.1c-15.5,0-28.1,12.6-28.1,28.1c0,15.5,12.6,28.1,28.1,28.1l179.2-6.9
			c8.8,0,15.9-7.1,15.9-15.9C99.7,1328.6,92.6,1321.5,83.9,1321.5z"/>
		<g id="Layer_4_2_" class="st1">
			<g>
				<g>
					<path class="st4" d="M321,1368.2c7.6-1.7,15.6-3.5,23.4-3.3c-1.5-2-2.9-3.9-4.4-5.8c-3.2,10.5-5,22.4-4.2,33.4
						c0.4,6.1,1.8,12.9,6.5,17.2c4.8,4.4,12.1,4.8,17.7,1.5c5.5-3.3,8.9-9.3,11.3-15c2.8-6.6,4.7-13.7,6-20.7
						c0.9-4.9,2-10.1,1.8-15.1c-0.1-6.6-10.3-14.7-16.4-10.2c-2.5,1.8-4,5.9-4.8,8.7c-1.2,4-1.1,8.9,2,12.1c3.5,3.6,9.5,3.7,14.2,4
						c5.7,0.4,11.5,0.5,17.2-0.6c-1.7-2.3-3.4-4.5-5.2-6.7c-3.9,7.2-6.6,14.4-7.7,22.4c-1,7.7-1.4,17,6.4,21.3
						c5.9,3.3,13.1,1,18.7-1.6c5.5-2.6,10.2-6.5,14.6-10.8c5.7-5.7,11.6-12.9,13.1-21c1.3-7.2-2.2-13.7-9.8-14.7
						c-15.5-2.1-23.3,17-20.9,29.6c3,15.3,18.2,21.8,32.5,19.8c7.9-1.1,14-4.7,19.7-10.1c3.4-3.2,6.4-6.7,9.5-10.1
						c2.7-2.9,5.5-6,7.2-9.7c3.7-8.1,0.2-17.7-9.1-19.1c-8.4-1.3-15.9,4.2-19.5,11.5c-3.4,7-4.8,15.9-1.8,23.3
						c2.9,7.2,9.1,13.1,16.9,14.2c23.1,3.4,33.2-21.9,34.8-40.7c0.1-1.2,0.2-2.5,0.1-3.7c-0.2-5.9-9.2-5.9-9.2,0
						c0,13.6-0.9,27.2-1.3,40.7c-0.2,5.9,9,5.9,9.2,0c0.2-7.4,0.7-14.9,2.5-22.1c0.7-2.9,1.7-5.7,2.9-8.4c0.9-2.1,2.1-5,4.2-6.2
						c1-0.6,2-0.7,3.1-0.6c-0.7-0.1,0.4,0.1,0.6,0.2c0.7,0.2-0.4-0.2,0.6,0.2c0.8,0.4,0.1,0,0.2,0.1c0.3,0.2,0.9,1,0.3,0.3
						c0.2,0.3,0.4,0.6,0.6,1c-0.4-0.9,0.1,0.2,0.1,0.5c0.1,0.4,0.2,0.8,0.3,1.2c0.1,0.2,0-0.4,0.1,0.5c0.1,1,0.1,2,0.1,3
						c-0.1,2.2-0.3,4.5-0.6,6.7c-0.9,7.4-3.9,18.6,2.3,24.6c3.8,3.7,9.9,3.9,14.7,2.2c7-2.5,11.5-8.8,14.6-15.2
						c8.1-16.6,14.3-34.7,16.6-53c1-8.3,1.6-18.3-1.8-26.2c-2.7-6.4-9.9-7.7-14.4-2.3c-3.3,3.9-5,8.9-6.5,13.6
						c-2.6,8-3.9,16.3-4.7,24.5c-1.2,13.1-1.4,27.2,1.7,40.1c1.3,5.5,3.4,11.3,7.5,15.3c4.7,4.5,11.7,5.9,17,1.7
						c5.6-4.4,8.9-11.9,12-18.2c3.1-6.4,6.3-14.5,13.2-17.7c3.5-1.6,7.5-2,11.3-1.3c5.8,0.9,8.3-7.7,2.5-8.9
						c-19.4-3.9-35.9,12.7-34.3,31.9c0.4,4.4,1.4,8.8,4.4,12.1c3.3,3.8,8.6,4.7,13.3,3.5c4.3-1.1,8.8-3.9,11.4-7.5
						c1.8-2.6,2.8-5.8,3.7-8.8c2.3-7.5,3.3-15.2,5.3-22.8c-2.9-0.8-5.9-1.7-8.9-2.5c-1.8,7.4-3.3,14.9-4.4,22.4
						c-0.6,3.7-1.2,7.2,0.4,10.7c1.7,3.9,5.2,7.2,9.4,8.4c9.8,2.9,15.2-5.6,18.8-13.2c2.2-4.7,3.6-9.1,4.2-14.2
						c0.7-5.1,0.6-10.3,1.4-15.3c-3-0.4-6-0.8-9-1.2c0,13.5-0.6,27-0.4,40.5c0.1,5,8.1,6.5,9,1.2c1.8-9.8,2.5-20.2,6.3-29.5
						c0.8-1.9,3.1-7.8,6.4-6.9c1.2,0.3,0.9,2.1,0.9,3.3c0,3.4-0.2,6.7-0.5,10.1c-0.4,5.8-1.5,12.7,0.6,18.3
						c1.9,5.2,6.9,8.6,12.4,8.9c10.2,0.5,19.5-8.6,26.3-15.1c7.4-7,16.9-18.2,10.7-28.8c-2.8-4.7-8.3-7-13.6-5.8
						c-5.4,1.2-9.6,5.6-12.6,10.1c-5.5,8.5-7.4,21.1-0.8,29.5c6.3,7.9,17.4,10.1,26.9,9.3c11.4-1,22.1-6,28.3-15.8
						c5.5-8.5,8.8-20.5,5.3-30.5c-2-5.6-10.9-3.2-8.9,2.5c2.4,6.8,0.3,14.7-2.9,20.9c-3.9,7.3-10.2,11.5-18.2,13.2
						c-7.1,1.5-16.5,1.2-22.1-4c-6-5.6-3.3-15.7,1.1-21.5c1.7-2.3,6.1-6.9,9-3.9c2.9,2.9,0.1,7.9-1.8,10.5
						c-2.6,3.9-6.2,7.1-9.7,10.2c-3.2,2.8-6.4,5.7-10.1,7.9c-2.7,1.6-6.6,3.4-9.4,1.1c-1.7-1.3-1.7-3.3-1.8-5.2
						c-0.1-2.8,0.1-5.5,0.2-8.3c0.5-7.9,4-22.7-6.5-25.7c-9.7-2.8-15.8,7.1-18.5,14.6c-3.3,9.1-4,18.8-5.8,28.2c3,0.4,6,0.8,9,1.2
						c-0.2-13.5,0.4-27,0.4-40.5c0-5-8.2-6.5-9-1.2c-1.3,8.1-0.3,17.1-3.5,24.8c-1.2,2.9-2.6,5.9-4.3,8.5c-1.3,2.1-2.8,4-5.4,3.1
						c-5.6-1.9-3.3-7.9-2.6-12.2c1-6,2.1-12.1,3.7-18c1.4-5.8-7.4-8.2-8.9-2.5c-1.7,6.6-2.8,13.4-4.5,20c-0.8,3-1.6,6.2-3.1,8.7
						c-0.3,0.5-0.3,0.5,0,0.1c-0.2,0.3-0.5,0.6-0.8,0.8c-0.8,0.7-1.6,1.3-2.5,1.8c-1.6,0.9-3.8,2-5.7,1.4c-3.1-0.9-3.4-5.8-3.4-8.4
						c-0.1-3.8,0.5-7.6,2.3-11c3.9-7.5,12-12.2,20.5-10.5c0.8-2.9,1.7-5.9,2.5-8.9c-8.2-1.3-16.6-0.1-23.1,5.3
						c-5.6,4.6-8.7,11.5-11.8,17.9c-1.3,2.8-2.8,5.6-4.4,8.3c-1.3,2.3-3.2,6.6-5.9,7.7c-3.5,1.4-6.4-3.8-7.5-6.6
						c-4-9.4-4-20.7-3.9-30.9c0.2-13.4,1.6-27.5,6.8-40c0.7-1.8,1.8-3.9,2.8-5.2c0.1-0.1,0.2-0.2,0.4-0.4c0.4-0.4,0.5-0.4,0.1-0.1
						c0.1,0-1.3,0.2-1.3,0.2c-0.9,0.5,0.1-0.6-0.3,0.1c-0.2,0.4,0.8,2.8,0.9,3.4c1.7,7.8,0.9,16.1-0.5,23.9
						c-1.5,8.6-4,17.1-6.9,25.3c-2.8,7.6-5.6,15.6-9.8,22.6c-1.4,2.3-3.1,4.5-5.3,6.1c-1.2,0.8-2.6,1.4-4,1.6
						c-0.6,0.1-1.2,0.1-1.8,0.1c-0.7,0,0.2,0.2-0.9-0.1c-0.9-0.2-0.1,0.1,0.1,0.1c-0.3-0.1-0.6-0.4-0.9-0.6c0.9,0.5,0.1,0.1-0.1-0.2
						c0.7,1,0.1,0-0.1-0.2c-0.6-1,0.3,0.9-0.1-0.2c-0.1-0.4-0.2-0.7-0.3-1.1c-0.1-0.1-0.2-1.4-0.1-0.4c-0.1-0.4-0.1-0.9-0.1-1.3
						c-0.4-8.1,2.5-16.1,1.8-24.2c-0.4-4.6-1.8-9.1-6-11.7c-5.3-3.2-12.5-2-16.7,2.5c-4.4,4.6-7,12-8.4,18.1
						c-1.8,7.9-2.5,16.1-2.8,24.2c3.1,0,6.1,0,9.2,0c0.4-13.6,1.3-27.2,1.3-40.7c-3.1,0-6.1,0-9.2,0c0.2,5.4-0.8,9.6-2.5,15.3
						c-1.9,6.4-5,13.4-10.2,17.3c-6.7,5-16.6,3.6-20.8-4.4c-2.5-4.8-1.8-11.2,0.3-16.1c1.7-4,6.6-10,11.7-7.5
						c7.8,3.9-15.3,24.7-18.8,27c-7.3,4.9-19.7,5.6-26.8-0.2c-7.3-6.1-7-18.6-0.4-25c1.5-1.5,6.5-4.5,8.1-1.5
						c0.8,1.5-0.4,4.2-0.9,5.6c-1.1,2.9-2.9,5.7-4.9,8.2c-3.5,4.4-7.9,8.8-12.2,11.7c-3.6,2.4-8.5,5.3-12.9,5
						c-5.9-0.4-4.2-8.8-3.7-12.8c0.8-6.7,3.3-12.8,6.5-18.7c2-3.7-1.3-7.5-5.2-6.7c-3.6,0.7-7.4,0.6-11.1,0.5
						c-3.6-0.1-7.4-0.2-10.9-1.3c-0.2-0.1-0.7-0.6-0.4-0.2c0.3,0.4-0.2-0.4-0.2-0.7c0-0.3,0.2-1.7,0.5-2.7c0.4-1.2,0.6-1.7,1-2.5
						c0.2-0.4,0.5-0.8,0.7-1.2c0.6-1.2-0.1-0.2-1,0.4c-1.3,0.9-1.1,0-0.6,0.6c0.4,0.4,1.2,0.7,1.7,1c0.3,0.2,0.9,1.1,1.3,1.2
						c0.7,0.2-0.5-0.6,0-0.9c-0.2,0.1-0.1,3.3-0.1,3.7c-0.4,4.6-1,8.5-2.1,13.4c-1.2,5.4-2.6,10.9-4.8,15.9c-1,2.4-2.3,4.8-3.8,6.9
						c-0.9,1.3-2.5,2.9-3.8,3.7c-1.2,0.7-0.7,0.5-2.1,0.8c-0.9,0.2,0.4,0.1-0.5,0.1c-0.2,0-1.8-0.1-1.2,0c-1.3-0.2-1.5-0.3-2.2-0.7
						c-0.2-0.1-0.4-0.2-0.6-0.3c-0.6-0.4,0.5,0.4-0.1-0.1c-0.4-0.3-0.7-0.7-1-1c0.5,0.6-0.3-0.4-0.4-0.6c-0.2-0.4-0.5-0.9-0.7-1.3
						c-0.2-0.4-0.6-1.7-0.9-2.8c-0.6-2.4-0.7-4.2-0.9-6.9c-0.3-9.7,1.2-19.6,4-28.9c0.9-2.9-1.5-5.8-4.4-5.8
						c-8.6-0.2-17.5,1.8-25.8,3.7C312.8,1360.6,315.3,1369.5,321,1368.2L321,1368.2z"/>
				</g>
				<g>
					<path class="st4" d="M346.9,1333.8c0.6-1.8,0.7-3.9,0.8-5.8c0.2-4.5,0.1-9.5-1.4-13.7c-2.6-7.1-9.2-11.5-16.7-11.1
						c-8.5,0.4-14.7,5.5-20.1,11.7c-6.7,7.8-11.8,16.7-15.6,26.2c-5.3,13.5-7.7,28.3-5.6,42.7c2,14.1,10.4,27.2,25.5,29
						c25.9,3.3,32.7-29.3,32.4-48.6c-0.1-5.9-9.3-5.9-9.2,0c0.1,8.2-0.6,16.4-3.4,24.2c-2.5,7-7.1,14.2-15,15.3
						c-11.8,1.7-18.9-9-21-19.1c-2.1-10.2-1-21.3,1.8-31.3c2.2-7.9,5.3-15.5,9.6-22.4c3.7-6.1,8.6-13.4,15-16.8
						c4.1-2.2,10-2.7,12.8,1.7c2,3.1,1.8,7.7,1.7,11.2c-0.1,2.1,0.1,2.7-0.5,4.4C336.1,1337,345,1339.3,346.9,1333.8L346.9,1333.8z"
						/>
				</g>
			</g>
		</g>
	</g>
</g>
<g id="grid" class="st91">
</g>
</svg>
