<?xml version="1.0" encoding="utf-8"?>
<!-- Generator: Adobe Illustrator 18.1.1, SVG Export Plug-In . SVG Version: 6.00 Build 0)  -->
<svg version="1.1" xmlns="http://www.w3.org/2000/svg" xmlns:xlink="http://www.w3.org/1999/xlink" x="0px" y="0px"
	 viewBox="0 0 1366 1535.9" style="enable-background:new 0 0 1366 1535.9;" xml:space="preserve">
<style type="text/css">
	.st0{fill:url(#SVGID_1_);}
	.st1{fill:#47B58D;}
	.st2{fill:#1E845A;}
	.st3{fill:none;stroke:#A17644;stroke-width:1.572;stroke-miterlimit:10;}
	.st4{fill:#2AD19D;}
	.st5{fill:#79E2BC;}
	.st6{fill:none;stroke:#79E2BC;stroke-width:2;stroke-miterlimit:10;}
	.st7{fill:none;stroke:#A17644;stroke-width:1.828;stroke-miterlimit:10;}
	.st8{fill:none;stroke:#A17644;stroke-width:3.4825;stroke-miterlimit:10;}
	.st9{fill:none;stroke:#A17644;stroke-width:4.1651;stroke-miterlimit:10;}
	.st10{fill:none;stroke:#A17644;stroke-width:2.8014;stroke-miterlimit:10;}
	.st11{fill:none;}
	.st12{fill:#3E9B75;}
	.st13{fill:#89D7E6;}
	.st14{fill:#FFFFFF;}
	.st15{fill:#34B188;}
	.st16{fill:#FDE49C;}
	.st17{fill:#FDEF6E;}
	.st18{fill:none;stroke:#A17644;stroke-width:2;stroke-miterlimit:10;}
	.st19{fill:none;stroke:#A17644;stroke-width:3;stroke-miterlimit:10;}
	.st20{fill:none;stroke:#A17644;stroke-width:4;stroke-miterlimit:10;}
	.st21{fill:none;stroke:#A17644;stroke-width:3.4344;stroke-miterlimit:10;}
	.st22{fill:#F46B83;}
	.st23{fill:#BC4D65;}
	.st24{fill:#933850;}
	.st25{fill:none;stroke:#79E2BC;stroke-miterlimit:10;}
	.st26{fill:none;stroke:#FFFFFF;stroke-width:2;stroke-miterlimit:10;}
	.st27{opacity:0.35;fill:#FFFFFF;}
	.st28{fill:none;stroke:#FFFFFF;stroke-width:8;stroke-linecap:round;stroke-miterlimit:10;}
	.st29{fill:#3B8C6B;}
	.st30{opacity:0.3;}
	.st31{fill-rule:evenodd;clip-rule:evenodd;fill:#F46B83;}
	.st32{fill:#58BD98;}
	.st33{opacity:0.2;}
	.st34{fill:#FFFFFF;stroke:#F46B83;stroke-width:6;stroke-miterlimit:10;}
	.st35{fill:none;stroke:#F46B83;stroke-width:8;stroke-miterlimit:10;}
	.st36{fill:#3A5D87;}
	.st37{fill:#527EBB;}
	.st38{fill:#D82908;}
	.st39{fill:#E85749;}
	.st40{fill:none;stroke:#CDEBE0;stroke-width:3;stroke-linecap:round;stroke-miterlimit:10;}
	.st41{fill:#1A9169;}
	.st42{fill:#CDEBE0;}
	.st43{fill:#1F9973;}
	.st44{fill:#6D6E70;}
	.st45{fill:#EFEFEF;}
	.st46{fill:none;stroke:#E0E1E2;stroke-width:11;stroke-miterlimit:10;}
	.st47{opacity:0.3;fill-rule:evenodd;clip-rule:evenodd;fill:#F56980;}
	.st48{fill:#F56980;}
	.st49{fill-rule:evenodd;clip-rule:evenodd;fill:#FFFFFF;}
	.st50{fill:none;stroke:#F7ADC1;stroke-width:12;stroke-miterlimit:10;}
	.st51{fill:none;stroke:#2AD19D;stroke-width:12;stroke-miterlimit:10;}
	.st52{fill:#F7EA31;}
	.st53{fill:#F36D85;}
	.st54{fill:#E0E1E2;}
	.st55{opacity:0.3;fill:#2AD19D;}
	.st56{clip-path:url(#SVGID_3_);}
	.st57{clip-path:url(#SVGID_5_);}
	.st58{clip-path:url(#SVGID_7_);}
	.st59{fill-rule:evenodd;clip-rule:evenodd;fill:#F56980;}
	.st60{opacity:0.3;fill:#F36D85;}
	.st61{opacity:0.3;fill:#F46B83;}
	.st62{fill:#24A45A;}
	.st63{fill:#808184;}
</style>
<g id="Layer_1">
	<linearGradient id="SVGID_1_" gradientUnits="userSpaceOnUse" x1="683.0001" y1="226.1435" x2="683.0001" y2="724.6664">
		<stop  offset="0" style="stop-color:#55D3D4"/>
		<stop  offset="0.1117" style="stop-color:#64D7D8"/>
		<stop  offset="0.5165" style="stop-color:#94E6E7"/>
		<stop  offset="0.8254" style="stop-color:#B2F0F1"/>
		<stop  offset="1" style="stop-color:#BDF3F4"/>
	</linearGradient>
	<polygon class="st0" points="0,0 0,769.1 0,784 0,1536.1 1366,1536.1 1366,784 1366,769.1 1366,0 	"/>
	<rect x="411.3" y="1277.7" class="st13" width="47.8" height="92.9"/>
	<rect x="319.2" y="1333.4" class="st13" width="113.2" height="46.9"/>
	<rect x="319.2" y="1315.5" class="st13" width="51.4" height="46.9"/>
	<rect x="278.1" y="1292.8" class="st13" width="33" height="91"/>
	<rect x="282.8" y="1278.7" class="st13" width="23.7" height="91"/>
	<rect x="196.5" y="1340.6" class="st13" width="71.1" height="63.1"/>
	<rect x="167.5" y="1332.9" class="st13" width="25.2" height="77.6"/>
	<rect x="183.5" y="1328.4" class="st13" width="9.2" height="9.9"/>
	<rect x="100.8" y="1366.6" class="st13" width="55.8" height="65.9"/>
	<rect x="-0.9" y="1402.6" class="st13" width="112.8" height="84"/>
	<rect x="1253.2" y="1402.6" class="st13" width="112.8" height="84"/>
	<line class="st13" x1="156.6" y1="1365.6" x2="156.6" y2="1431.5"/>
	<rect x="917.1" y="1252.5" class="st13" width="34.5" height="117.3"/>
	<rect x="921.9" y="1244.1" class="st13" width="29.7" height="117.3"/>
	<rect x="929.1" y="1233.5" class="st13" width="22.4" height="117.3"/>
	<rect x="975.6" y="1316.8" class="st13" width="69" height="75.1"/>
	<polygon class="st13" points="1091.1,1393.5 1055.9,1393.5 1055.9,1303 1091.1,1295.6 	"/>
	<rect x="1101.1" y="1340.9" class="st13" width="106.5" height="73.2"/>
	<rect x="1193.7" y="1366.6" class="st13" width="78.8" height="53.6"/>
	<g>
		<path class="st13" d="M587.8,1201h32.7c0-2.4,0-4.4,0-4.4s0.1-1.5-1.3-2.3c-1.1-0.6-7.7-3.4-10.4-4.5c-0.7-0.3-0.7-0.3-0.9-0.6
			c-0.2-0.3-0.3-0.9-0.3-0.9l-2.7-50.2c0,0-0.1-1.5-0.9-1.5s-0.9,1.5-0.9,1.5l-2.7,49.7c0,0-0.1,0.8-0.2,1.1c-0.2,0.3-0.3,0.5-1,0.8
			c-2.7,1.1-9.2,3.9-10.3,4.5c-1.4,0.8-1.3,2.3-1.3,2.3S587.8,1198.5,587.8,1201z"/>
		<path class="st13" d="M587.8,1206.4c0,1.5,0,2.7,0,3c0,1.3,1.2,1.8,1.2,1.8l9.3,6c0,0,0.5,0.3,0.6,0.7c0.1,0.4,0.1,1,0.1,1
			l-10,156.5l15.2-1l15.2,1l-10.1-156.9c0,0-0.1-0.5,0.1-0.8c0.2-0.4,0.4-0.5,0.4-0.5l9.6-6.2c0,0,1.2-0.5,1.2-1.8c0-0.4,0-1.5,0-3
			H587.8z"/>
	</g>
	<path class="st14" d="M462.7,1075.7c-0.5,0-0.9,0.1-1.4,0.2c-0.5-4.2-4-7.5-8.3-7.5c-0.8,0-1.6,0.1-2.4,0.3c-0.4-2-2.3-3.6-4.4-3.6
		c-0.6,0-1.3,0.1-1.8,0.4c-1.8-1.9-4.4-3-7.2-3c-5.6,0-10.1,4.5-10.1,10.1c0,1,0.1,2,0.4,2.9c-0.1,0-0.3,0-0.4,0
		c-2.9,0-5.2,2.3-5.2,5.2c0,2.9,2.3,5.2,5.2,5.2v0.1h35.7v-0.2c2.8,0,5.1-2.3,5.1-5.1C467.8,1077.9,465.5,1075.7,462.7,1075.7z"/>
	<path class="st14" d="M1073.9,1007.6c1.3,0,2.6,0.2,3.9,0.5c1.3-11.7,11.2-20.8,23.2-20.8c2.3,0,4.5,0.3,6.6,1
		c1.2-5.7,6.3-9.9,12.3-9.9c1.8,0,3.5,0.4,5.1,1.1c5.1-5.2,12.2-8.4,20.1-8.4c15.6,0,28.3,12.7,28.3,28.3c0,2.8-0.4,5.5-1.2,8
		c0.4,0,0.8-0.1,1.2-0.1c8,0,14.4,6.4,14.4,14.4c0,8-6.4,14.4-14.4,14.4v0.2h-99.4v-0.4c-7.8,0-14.1-6.3-14.1-14.1
		C1059.8,1013.9,1066.1,1007.6,1073.9,1007.6z"/>
	<rect x="545.2" y="1260.3" class="st13" width="39.5" height="101.9"/>
	<polygon class="st13" points="899.3,1380.3 804.7,1363.6 804.7,1292.8 899.3,1292.8 	"/>
	<rect x="466.4" y="1311.2" class="st13" width="40.3" height="77.3"/>
	<polygon class="st13" points="537.9,1375.7 498.6,1375.7 498.6,1246.7 537.9,1233.2 	"/>
	<polygon class="st13" points="760.6,1259.1 729.4,1245.5 729.4,1350.7 760.6,1350.7 	"/>
	<polygon class="st13" points="782.8,1276 782.8,1279.2 767.2,1279.2 767.2,1359.6 796.4,1359.6 796.4,1298.5 796.4,1279.2 
		796.4,1276 	"/>
	<path class="st13" d="M673.1,1299.6c-27.1,0-49,15.4-49,28.8v28.8h98.1v-28.8C722.1,1315,700.2,1299.6,673.1,1299.6z"/>
	<rect x="751.2" y="1313.6" class="st13" width="40.3" height="74.9"/>
	<rect x="786.3" y="1337.2" class="st13" width="40.3" height="22.4"/>
	<path class="st15" d="M1366,1536.1H0v-108.3c0,0,379.6-84.5,682.8-84.5s683.2,84.5,683.2,84.5V1536.1z"/>
	<path class="st16" d="M822.2,1537.2l231.9-1.1c-72.1,0.3-391.1-37.1-441.3-71.7c-12.5-8.6-14.9-21.2-2.7-33.1
		c7.6-7.3,21.8-12,31.5-15.1c29.8-9.4,63.5-17.6,92.8-28.4c12-4.4,39.7-15.5,34.7-29c-4.1-11-24.1-13.7-24.1-13.7s-3.6-0.7-8.1-1
		c-4-0.2-8.6-0.2-12.6-0.3c6,0.2,22.4,5.1,25.5,10.7c6.2,11.2-50.4,23.4-56.3,24.8c-33.6,7.8-71.5,14.1-105,22.1
		c-6.4,1.5-12.9,3.1-19.3,4.7c-27.2,6.9-76.5,23.3-76.5,56.3c0,26.2,14.6,55.2,41.5,73.7L822.2,1537.2z"/>
	<circle class="st17" cx="861.3" cy="881" r="37.6"/>
	<g>
		<circle class="st14" cx="944" cy="925.8" r="9.6"/>
		<circle class="st14" cx="831.8" cy="929.8" r="5.5"/>
		<circle class="st14" cx="927.8" cy="913.3" r="12.5"/>
		<circle class="st14" cx="907.3" cy="900.6" r="19.8"/>
		<circle class="st14" cx="885.3" cy="907.5" r="13.7"/>
		<circle class="st14" cx="871.6" cy="913.5" r="11.7"/>
		<circle class="st14" cx="853.3" cy="919.7" r="10.9"/>
		<circle class="st14" cx="840" cy="925.2" r="5.5"/>
		<polygon class="st14" points="944,935.4 831.8,935.4 841.4,921.6 877,916.2 916.7,907.5 946.2,929.2 		"/>
	</g>
	<rect x="802.6" y="1460.1" class="st2" width="20.8" height="2.9"/>
	<ellipse class="st2" cx="802" cy="1461.6" rx="8" ry="1.5"/>
	<rect x="782.9" y="1362.8" class="st2" width="7.5" height="1.9"/>
	<ellipse class="st2" cx="782.7" cy="1363.8" rx="2.1" ry="1"/>
	<rect x="843.8" y="1385.9" class="st2" width="11.1" height="1.8"/>
	<ellipse class="st2" cx="843.5" cy="1386.9" rx="3.1" ry="0.9"/>
	<g>
		<line class="st18" x1="789.8" y1="1338.9" x2="789.8" y2="1364.7"/>
		<path class="st4" d="M789.8,1355.4c0,0-5.2,0.1-5.2-6.3c0-5.1,5.2-16.6,5.2-16.6s5.2,11.5,5.2,16.6
			C795,1355.4,789.8,1355.4,789.8,1355.4z"/>
		<path class="st5" d="M789.8,1332.5v22.9c0,0,5.2,0.1,5.2-6.3C795,1344,789.8,1332.5,789.8,1332.5z"/>
	</g>
	<g>
		<rect x="613.7" y="1359.6" class="st2" width="10.5" height="2.7"/>
		<ellipse class="st2" cx="613.5" cy="1361" rx="2.9" ry="1.4"/>
		<g>
			<line class="st19" x1="623.2" y1="1325.9" x2="623.2" y2="1362.3"/>
			<path class="st4" d="M623.2,1349.1c0,0-7.4,0.1-7.4-8.8c0-7.2,7.4-23.5,7.4-23.5s7.4,16.3,7.4,23.5
				C630.5,1349.1,623.2,1349.1,623.2,1349.1z"/>
			<path class="st5" d="M623.2,1316.8v32.3c0,0,7.4,0.1,7.4-8.8C630.5,1333,623.2,1316.8,623.2,1316.8z"/>
		</g>
	</g>
	<rect x="393.6" y="1380.5" class="st2" width="9.4" height="2.7"/>
	<ellipse class="st2" cx="393.6" cy="1381.8" rx="2.9" ry="1.4"/>
	<g>
		<line class="st19" x1="403.9" y1="1346.8" x2="403.9" y2="1383.2"/>
		<path class="st4" d="M403.9,1369.9c0,0-7.4,0.1-7.4-8.8c0-7.2,7.4-23.5,7.4-23.5s7.4,16.3,7.4,23.5
			C411.3,1370,403.9,1369.9,403.9,1369.9z"/>
		<path class="st5" d="M403.9,1337.6v32.3c0,0,7.4,0.1,7.4-8.8C411.3,1353.9,403.9,1337.6,403.9,1337.6z"/>
	</g>
	<path class="st14" d="M616.7,876.9c-0.9,0-1.7,0.1-2.5,0.4c0.4-1.2,0.7-2.5,0.7-3.8c0-6.2-5.1-11.3-11.3-11.3
		c-0.9,0-1.8,0.1-2.7,0.3c0-0.1,0-0.3,0-0.4c0-11.1-9-20.2-20.2-20.2c-0.7,0-1.3,0-2,0.1c0.2-1.4,0.3-2.9,0.3-4.4
		c0-17.4-14.1-31.6-31.6-31.6c-17.4,0-31.6,14.1-31.6,31.6c0,1.4,0.1,2.7,0.3,4.1c-3.6-2.2-7.8-3.5-12.4-3.5
		c-13.2,0-23.9,10.7-23.9,23.9c0,2.6,0.4,5.2,1.2,7.6c-1.1-0.3-2.3-0.5-3.5-0.5c-6.5,0-11.8,5.3-11.8,11.8c0,6.5,5.3,11.8,11.8,11.8
		h139.1c4.4,0,8-3.6,8-8C624.7,880.5,621.1,876.9,616.7,876.9z"/>
	<rect x="579" y="1387.9" class="st2" width="17.8" height="2.7"/>
	<g>
		<line class="st20" x1="596.9" y1="1332.5" x2="596.9" y2="1390.6"/>
		<path class="st4" d="M596.9,1370.6c0,0-12.1,0.1-12.1-14.5c0-11.8,12.1-38.5,12.1-38.5s12.1,26.7,12.1,38.5
			C608.9,1370.7,596.9,1370.6,596.9,1370.6z"/>
		<path class="st5" d="M596.9,1317.6v53c0,0,12.1,0.1,12.1-14.5C608.9,1344.3,596.9,1317.6,596.9,1317.6z"/>
	</g>
	<ellipse class="st2" cx="579" cy="1389.2" rx="3.4" ry="1.4"/>
	<rect x="481.3" y="1410.6" class="st2" width="17.8" height="2.7"/>
	<ellipse class="st2" cx="480.9" cy="1412" rx="3.4" ry="1.4"/>
	<rect x="171.3" y="1452.1" class="st2" width="32.3" height="4.2"/>
	<g>
		<line class="st20" x1="203.7" y1="1364.6" x2="203.7" y2="1456.4"/>
		<path class="st4" d="M203.7,1424.8c0,0-19.1,0.2-19.1-22.9c0-18.7,19.1-60.9,19.1-60.9s19.1,42.2,19.1,60.9
			C222.7,1424.9,203.7,1424.8,203.7,1424.8z"/>
		<path class="st5" d="M203.7,1340.9v83.8c0,0,19.1,0.2,19.1-22.9C222.7,1383.1,203.7,1340.9,203.7,1340.9z"/>
	</g>
	<ellipse class="st2" cx="170.6" cy="1454.3" rx="6.1" ry="2.1"/>
	<g>
		<line class="st21" x1="497.4" y1="1373.8" x2="497.4" y2="1413.3"/>
		<path class="st4" d="M497.4,1389c0,0-15.9,0.2-15.9-19.2c0-15.6,15.9-50.9,15.9-50.9s15.9,35.2,15.9,50.9
			C513.4,1389.2,497.4,1389,497.4,1389z"/>
		<path class="st5" d="M497.4,1319v70c0,0,15.9,0.2,15.9-19.2C513.4,1354.3,497.4,1319,497.4,1319z"/>
	</g>
	<g>
		<line class="st20" x1="822.2" y1="1411.3" x2="822.2" y2="1463"/>
		<path class="st4" d="M822.2,1428.6c0,0-18,0.2-18-21.7c0-17.7,18-57.5,18-57.5s18,39.8,18,57.5
			C840.2,1428.8,822.2,1428.6,822.2,1428.6z"/>
		<path class="st5" d="M822.2,1349.4v79.2c0,0,18,0.2,18-21.7C840.2,1389.3,822.2,1349.4,822.2,1349.4z"/>
	</g>
	<rect x="322" y="1447.6" class="st2" width="25" height="3.4"/>
	<ellipse class="st2" cx="321.6" cy="1449.3" rx="5.7" ry="1.7"/>
	<g>
		<line class="st20" x1="347" y1="1414.1" x2="347" y2="1451"/>
		<path class="st4" d="M347,1426.4c0,0-12.9,0.1-12.9-15.5c0-12.6,12.9-41.1,12.9-41.1s12.9,28.4,12.9,41.1
			C359.9,1426.5,347,1426.4,347,1426.4z"/>
		<path class="st5" d="M347,1369.9v56.5c0,0,12.9,0.1,12.9-15.5C359.9,1398.4,347,1369.9,347,1369.9z"/>
	</g>
	<g>
		<line class="st20" x1="854.2" y1="1351.9" x2="854.2" y2="1387.8"/>
		<path class="st4" d="M854.2,1374.7c0,0-7.2,0.1-7.2-8.7c0-7.1,7.2-23.1,7.2-23.1s7.2,16,7.2,23.1
			C861.4,1374.8,854.2,1374.7,854.2,1374.7z"/>
		<path class="st5" d="M854.2,1342.9v31.8c0,0,7.2,0.1,7.2-8.7C861.4,1358.9,854.2,1342.9,854.2,1342.9z"/>
	</g>
	<g>
		<rect x="843.4" y="1484.9" class="st2" width="38.2" height="3.1"/>
		<path class="st2" d="M863.3,1486.5c0,0.9-16.6,1.6-20.4,1.6c-3.8,0-6.9-0.7-6.9-1.6c0-0.9,3.1-1.6,6.9-1.6
			C846.7,1484.9,863.3,1485.6,863.3,1486.5z"/>
		<g>
			<line class="st20" x1="880.6" y1="1427.8" x2="880.6" y2="1488.1"/>
			<path class="st4" d="M880.6,1450.5c0,0-23.7,0.2-23.7-28.5c0-23.2,23.7-75.6,23.7-75.6s23.7,52.4,23.7,75.6
				C904.3,1450.8,880.6,1450.5,880.6,1450.5z"/>
			<path class="st5" d="M880.6,1346.4v104.1c0,0,23.7,0.2,23.7-28.5C904.3,1398.8,880.6,1346.4,880.6,1346.4z"/>
		</g>
	</g>
	<line class="st20" x1="1113.8" y1="1465.9" x2="1113.8" y2="1536.1"/>
	<path class="st4" d="M1113.8,1497.5c0,0-30.9,0.3-30.9-37.1c0-30.3,30.9-98.6,30.9-98.6s30.9,68.3,30.9,98.6
		C1144.6,1497.8,1113.8,1497.5,1113.8,1497.5z"/>
	<path class="st5" d="M1113.8,1361.8v135.7c0,0,30.9,0.3,30.9-37.1C1144.6,1430.1,1113.8,1361.8,1113.8,1361.8z"/>
	<g>
		<rect x="1231.1" y="1511" class="st2" width="56.3" height="4.6"/>
		<path class="st2" d="M1260.4,1513.3c0,1.3-24.4,2.3-30,2.3s-10.1-1-10.1-2.3s4.5-2.3,10.1-2.3S1260.4,1512,1260.4,1513.3z"/>
		<g>
			<line class="st20" x1="1286" y1="1426.9" x2="1286" y2="1515.5"/>
			<path class="st4" d="M1286,1460.3c0,0-34.9,0.3-34.9-41.9c0-34.2,34.9-111.3,34.9-111.3s34.9,77.1,34.9,111.3
				C1320.8,1460.6,1286,1460.3,1286,1460.3z"/>
			<path class="st5" d="M1286,1307.1v153.2c0,0,34.9,0.3,34.9-41.9C1320.8,1384.2,1286,1307.1,1286,1307.1z"/>
		</g>
	</g>
	<rect x="32.8" y="1513.9" class="st2" width="79.1" height="4.8"/>
	<path class="st2" d="M63.1,1516.3c0,1.3-25.3,2.4-31.1,2.4s-10.5-1.1-10.5-2.4s4.7-2.4,10.5-2.4S63.1,1514.9,63.1,1516.3z"/>
	<g>
		<line class="st20" x1="110.4" y1="1426.7" x2="110.4" y2="1518.6"/>
		<path class="st4" d="M110.4,1461.4c0,0-36.1,0.3-36.1-43.4c0-35.4,36.1-115.4,36.1-115.4s36.1,79.9,36.1,115.4
			C146.5,1461.7,110.4,1461.4,110.4,1461.4z"/>
		<path class="st5" d="M110.4,1302.5v158.8c0,0,36.1,0.3,36.1-43.4C146.5,1382.5,110.4,1302.5,110.4,1302.5z"/>
	</g>
	<g>
		<rect x="1165.1" y="1442.4" class="st2" width="25.9" height="2.1"/>
		<path class="st2" d="M1178.6,1443.5c0,0.6-11.3,1.1-13.8,1.1c-2.6,0-4.7-0.5-4.7-1.1s2.1-1.1,4.7-1.1
			C1167.3,1442.4,1178.6,1442.9,1178.6,1443.5z"/>
		<g>
			<line class="st20" x1="1190.3" y1="1403.7" x2="1190.3" y2="1444.6"/>
			<path class="st4" d="M1190.3,1419.1c0,0-16.1,0.2-16.1-19.3c0-15.8,16.1-51.3,16.1-51.3s16.1,35.5,16.1,51.3
				C1206.4,1419.3,1190.3,1419.1,1190.3,1419.1z"/>
			<path class="st5" d="M1190.3,1348.5v70.6c0,0,16.1,0.2,16.1-19.3C1206.4,1384,1190.3,1348.5,1190.3,1348.5z"/>
		</g>
	</g>
	<g>
		<rect x="998.4" y="1417.8" class="st2" width="18.7" height="1.5"/>
		<path class="st2" d="M1008.1,1418.5c0,0.4-8.1,0.8-10,0.8c-1.9,0-3.4-0.3-3.4-0.8s1.5-0.8,3.4-0.8
			C1000,1417.8,1008.1,1418.1,1008.1,1418.5z"/>
		<g>
			<line class="st20" x1="1016.6" y1="1389.9" x2="1016.6" y2="1419.3"/>
			<path class="st4" d="M1016.6,1401c0,0-11.6,0.1-11.6-13.9c0-11.4,11.6-37,11.6-37s11.6,25.6,11.6,37
				C1028.2,1401.1,1016.6,1401,1016.6,1401z"/>
			<path class="st5" d="M1016.6,1350.1v50.9c0,0,11.6,0.1,11.6-13.9C1028.2,1375.7,1016.6,1350.1,1016.6,1350.1z"/>
		</g>
	</g>
	<g>
		<path class="st14" d="M605.3,325.1c-1,0-1.8-0.3-2.4-1c-0.6-0.7-0.9-1.5-0.9-2.6v-0.2c0-0.7,0.1-1.4,0.4-2c0.3-0.6,0.7-1,1.2-1.4
			c0.5-0.3,1-0.5,1.6-0.5c1,0,1.7,0.3,2.2,1s0.8,1.5,0.8,2.7v0.5h-5c0,0.7,0.2,1.3,0.6,1.8c0.4,0.4,0.9,0.7,1.6,0.7
			c0.4,0,0.8-0.1,1.1-0.3c0.3-0.2,0.6-0.4,0.8-0.7l0.8,0.6C607.5,324.6,606.5,325.1,605.3,325.1z M605.1,318.5
			c-0.5,0-0.9,0.2-1.3,0.6c-0.3,0.4-0.6,0.9-0.6,1.6h3.7v-0.1c0-0.6-0.2-1.1-0.5-1.5C606.1,318.6,605.7,318.5,605.1,318.5z"/>
		<path class="st14" d="M613,320.2l1.6-2.7h1.5l-2.4,3.7l2.5,3.7h-1.5l-1.7-2.8l-1.7,2.8h-1.5l2.5-3.7l-2.4-3.7h1.5L613,320.2z"/>
		<path class="st14" d="M624.5,321.3c0,1.1-0.3,2-0.8,2.7c-0.5,0.7-1.2,1-2.1,1c-0.9,0-1.6-0.3-2.1-0.9v3.6h-1.3v-10.2h1.2l0.1,0.8
			c0.5-0.6,1.2-1,2.1-1c0.9,0,1.6,0.3,2.1,1c0.5,0.7,0.8,1.6,0.8,2.8V321.3z M623.3,321.2c0-0.8-0.2-1.5-0.5-2s-0.8-0.7-1.5-0.7
			c-0.8,0-1.3,0.3-1.7,1v3.5c0.4,0.7,1,1,1.7,1c0.6,0,1.1-0.2,1.4-0.7C623.1,322.8,623.3,322.1,623.3,321.2z"/>
		<path class="st14" d="M630,325.1c-1,0-1.8-0.3-2.4-1c-0.6-0.7-0.9-1.5-0.9-2.6v-0.2c0-0.7,0.1-1.4,0.4-2c0.3-0.6,0.7-1,1.2-1.4
			c0.5-0.3,1-0.5,1.6-0.5c1,0,1.7,0.3,2.2,1s0.8,1.5,0.8,2.7v0.5h-5c0,0.7,0.2,1.3,0.6,1.8c0.4,0.4,0.9,0.7,1.6,0.7
			c0.4,0,0.8-0.1,1.1-0.3c0.3-0.2,0.6-0.4,0.8-0.7l0.8,0.6C632.2,324.6,631.3,325.1,630,325.1z M629.9,318.5c-0.5,0-0.9,0.2-1.3,0.6
			c-0.3,0.4-0.6,0.9-0.6,1.6h3.7v-0.1c0-0.6-0.2-1.1-0.5-1.5C630.8,318.6,630.4,318.5,629.9,318.5z"/>
		<path class="st14" d="M638.8,318.7c-0.2,0-0.4,0-0.6,0c-0.8,0-1.4,0.4-1.7,1.1v5.2h-1.3v-7.4h1.2l0,0.9c0.4-0.7,1-1,1.8-1
			c0.2,0,0.4,0,0.6,0.1V318.7z"/>
		<path class="st14" d="M640.8,315.6c0-0.2,0.1-0.4,0.2-0.5c0.1-0.1,0.3-0.2,0.6-0.2s0.4,0.1,0.6,0.2c0.1,0.1,0.2,0.3,0.2,0.5
			s-0.1,0.4-0.2,0.5c-0.1,0.1-0.3,0.2-0.6,0.2s-0.4-0.1-0.6-0.2C640.9,316,640.8,315.8,640.8,315.6z M642.2,324.9h-1.3v-7.4h1.3
			V324.9z"/>
		<path class="st14" d="M648.1,325.1c-1,0-1.8-0.3-2.4-1c-0.6-0.7-0.9-1.5-0.9-2.6v-0.2c0-0.7,0.1-1.4,0.4-2c0.3-0.6,0.7-1,1.2-1.4
			c0.5-0.3,1-0.5,1.6-0.5c1,0,1.7,0.3,2.2,1s0.8,1.5,0.8,2.7v0.5h-5c0,0.7,0.2,1.3,0.6,1.8c0.4,0.4,0.9,0.7,1.6,0.7
			c0.4,0,0.8-0.1,1.1-0.3c0.3-0.2,0.6-0.4,0.8-0.7l0.8,0.6C650.3,324.6,649.3,325.1,648.1,325.1z M647.9,318.5
			c-0.5,0-0.9,0.2-1.3,0.6c-0.3,0.4-0.6,0.9-0.6,1.6h3.7v-0.1c0-0.6-0.2-1.1-0.5-1.5C648.9,318.6,648.5,318.5,647.9,318.5z"/>
		<path class="st14" d="M654.5,317.5l0,0.9c0.6-0.7,1.3-1.1,2.2-1.1c1.6,0,2.4,0.9,2.4,2.6v4.9h-1.3V320c0-0.5-0.1-0.9-0.4-1.2
			s-0.6-0.4-1.1-0.4c-0.4,0-0.8,0.1-1.1,0.3c-0.3,0.2-0.6,0.5-0.7,0.9v5.3h-1.3v-7.4H654.5z"/>
		<path class="st14" d="M664.8,324c0.5,0,0.8-0.1,1.2-0.4c0.3-0.3,0.5-0.6,0.6-1h1.2c0,0.4-0.2,0.8-0.4,1.2
			c-0.3,0.4-0.6,0.7-1.1,0.9c-0.4,0.2-0.9,0.3-1.4,0.3c-1,0-1.8-0.3-2.4-1c-0.6-0.7-0.9-1.6-0.9-2.8v-0.2c0-0.7,0.1-1.4,0.4-1.9
			c0.3-0.6,0.6-1,1.1-1.3c0.5-0.3,1.1-0.5,1.8-0.5c0.8,0,1.5,0.2,2.1,0.7c0.5,0.5,0.8,1.1,0.9,1.9h-1.2c0-0.5-0.2-0.9-0.5-1.2
			c-0.3-0.3-0.7-0.5-1.2-0.5c-0.6,0-1.1,0.2-1.5,0.7c-0.4,0.5-0.5,1.1-0.5,2v0.2c0,0.9,0.2,1.5,0.5,2
			C663.7,323.8,664.2,324,664.8,324z"/>
		<path class="st14" d="M673.1,325.1c-1,0-1.8-0.3-2.4-1c-0.6-0.7-0.9-1.5-0.9-2.6v-0.2c0-0.7,0.1-1.4,0.4-2c0.3-0.6,0.7-1,1.2-1.4
			c0.5-0.3,1-0.5,1.6-0.5c1,0,1.7,0.3,2.2,1s0.8,1.5,0.8,2.7v0.5h-5c0,0.7,0.2,1.3,0.6,1.8c0.4,0.4,0.9,0.7,1.6,0.7
			c0.4,0,0.8-0.1,1.1-0.3c0.3-0.2,0.6-0.4,0.8-0.7l0.8,0.6C675.3,324.6,674.3,325.1,673.1,325.1z M672.9,318.5
			c-0.5,0-0.9,0.2-1.3,0.6c-0.3,0.4-0.6,0.9-0.6,1.6h3.7v-0.1c0-0.6-0.2-1.1-0.5-1.5C673.9,318.6,673.5,318.5,672.9,318.5z"/>
		<path class="st14" d="M682.3,321.2c0-1.1,0.3-2,0.8-2.7c0.5-0.7,1.2-1,2.1-1c0.9,0,1.6,0.3,2.1,0.9v-3.9h1.3v10.5h-1.2l-0.1-0.8
			c-0.5,0.6-1.2,0.9-2.1,0.9c-0.9,0-1.6-0.4-2.1-1.1S682.3,322.4,682.3,321.2L682.3,321.2z M683.5,321.3c0,0.8,0.2,1.5,0.5,2
			c0.3,0.5,0.8,0.7,1.4,0.7c0.8,0,1.4-0.4,1.8-1.1v-3.4c-0.4-0.7-1-1-1.7-1c-0.6,0-1.1,0.2-1.4,0.7
			C683.7,319.7,683.5,320.4,683.5,321.3z"/>
		<path class="st14" d="M694.4,325.1c-1,0-1.8-0.3-2.4-1c-0.6-0.7-0.9-1.5-0.9-2.6v-0.2c0-0.7,0.1-1.4,0.4-2c0.3-0.6,0.7-1,1.2-1.4
			c0.5-0.3,1-0.5,1.6-0.5c1,0,1.7,0.3,2.2,1s0.8,1.5,0.8,2.7v0.5h-5c0,0.7,0.2,1.3,0.6,1.8c0.4,0.4,0.9,0.7,1.6,0.7
			c0.4,0,0.8-0.1,1.1-0.3c0.3-0.2,0.6-0.4,0.8-0.7l0.8,0.6C696.6,324.6,695.6,325.1,694.4,325.1z M694.2,318.5
			c-0.5,0-0.9,0.2-1.3,0.6c-0.3,0.4-0.6,0.9-0.6,1.6h3.7v-0.1c0-0.6-0.2-1.1-0.5-1.5C695.2,318.6,694.8,318.5,694.2,318.5z"/>
		<path class="st14" d="M703.9,323c0-0.3-0.1-0.6-0.4-0.8c-0.3-0.2-0.7-0.4-1.3-0.5c-0.6-0.1-1.1-0.3-1.5-0.5
			c-0.4-0.2-0.7-0.4-0.8-0.7c-0.2-0.3-0.3-0.6-0.3-0.9c0-0.6,0.3-1.1,0.8-1.5c0.5-0.4,1.2-0.6,2-0.6c0.8,0,1.5,0.2,2,0.6
			c0.5,0.4,0.8,1,0.8,1.7h-1.3c0-0.3-0.1-0.6-0.4-0.9c-0.3-0.3-0.7-0.4-1.1-0.4c-0.5,0-0.8,0.1-1.1,0.3s-0.4,0.5-0.4,0.8
			c0,0.3,0.1,0.5,0.4,0.7s0.7,0.3,1.3,0.4c0.6,0.1,1.1,0.3,1.5,0.5s0.7,0.4,0.9,0.7c0.2,0.3,0.3,0.6,0.3,1c0,0.7-0.3,1.2-0.8,1.6
			c-0.5,0.4-1.2,0.6-2.1,0.6c-0.6,0-1.1-0.1-1.6-0.3s-0.8-0.5-1.1-0.9c-0.3-0.4-0.4-0.8-0.4-1.2h1.3c0,0.4,0.2,0.8,0.5,1
			c0.3,0.2,0.7,0.4,1.3,0.4c0.5,0,0.9-0.1,1.2-0.3C703.7,323.6,703.9,323.3,703.9,323z"/>
		<path class="st14" d="M707.6,315.6c0-0.2,0.1-0.4,0.2-0.5c0.1-0.1,0.3-0.2,0.6-0.2s0.4,0.1,0.6,0.2s0.2,0.3,0.2,0.5
			s-0.1,0.4-0.2,0.5s-0.3,0.2-0.6,0.2s-0.4-0.1-0.6-0.2C707.7,316,707.6,315.8,707.6,315.6z M709,324.9h-1.3v-7.4h1.3V324.9z"/>
		<path class="st14" d="M711.6,321.2c0-1.2,0.3-2.1,0.8-2.8c0.5-0.7,1.2-1,2.1-1c0.9,0,1.6,0.3,2.1,1l0.1-0.8h1.2v7.2
			c0,1-0.3,1.7-0.9,2.3c-0.6,0.6-1.3,0.8-2.3,0.8c-0.5,0-1.1-0.1-1.6-0.3s-0.9-0.5-1.2-0.9l0.7-0.8c0.5,0.7,1.2,1,2,1
			c0.6,0,1.1-0.2,1.4-0.5c0.3-0.3,0.5-0.8,0.5-1.5v-0.6c-0.5,0.6-1.2,0.9-2.1,0.9c-0.9,0-1.6-0.3-2.1-1
			C711.8,323.3,711.6,322.4,711.6,321.2z M712.8,321.3c0,0.8,0.2,1.5,0.5,2c0.3,0.5,0.8,0.7,1.4,0.7c0.8,0,1.4-0.4,1.8-1.1v-3.4
			c-0.4-0.7-1-1.1-1.7-1.1c-0.6,0-1.1,0.2-1.4,0.7S712.8,320.4,712.8,321.3z"/>
		<path class="st14" d="M721.8,317.5l0,0.9c0.6-0.7,1.3-1.1,2.2-1.1c1.6,0,2.4,0.9,2.4,2.6v4.9h-1.3V320c0-0.5-0.1-0.9-0.4-1.2
			c-0.2-0.3-0.6-0.4-1.1-0.4c-0.4,0-0.8,0.1-1.1,0.3s-0.6,0.5-0.7,0.9v5.3h-1.3v-7.4H721.8z"/>
		<path class="st14" d="M732.2,325.1c-1,0-1.8-0.3-2.4-1c-0.6-0.7-0.9-1.5-0.9-2.6v-0.2c0-0.7,0.1-1.4,0.4-2c0.3-0.6,0.7-1,1.2-1.4
			c0.5-0.3,1-0.5,1.6-0.5c1,0,1.7,0.3,2.2,1s0.8,1.5,0.8,2.7v0.5h-5c0,0.7,0.2,1.3,0.6,1.8c0.4,0.4,0.9,0.7,1.6,0.7
			c0.4,0,0.8-0.1,1.1-0.3s0.6-0.4,0.8-0.7l0.8,0.6C734.4,324.6,733.4,325.1,732.2,325.1z M732,318.5c-0.5,0-0.9,0.2-1.3,0.6
			c-0.3,0.4-0.6,0.9-0.6,1.6h3.7v-0.1c0-0.6-0.2-1.1-0.5-1.5C733,318.6,732.6,318.5,732,318.5z"/>
		<path class="st14" d="M737.1,321.2c0-1.1,0.3-2,0.8-2.7c0.5-0.7,1.2-1,2.1-1c0.9,0,1.6,0.3,2.1,0.9v-3.9h1.3v10.5h-1.2l-0.1-0.8
			c-0.5,0.6-1.2,0.9-2.1,0.9c-0.9,0-1.6-0.4-2.1-1.1C737.4,323.3,737.1,322.4,737.1,321.2L737.1,321.2z M738.4,321.3
			c0,0.8,0.2,1.5,0.5,2s0.8,0.7,1.4,0.7c0.8,0,1.4-0.4,1.8-1.1v-3.4c-0.4-0.7-1-1-1.7-1c-0.6,0-1.1,0.2-1.4,0.7
			S738.4,320.4,738.4,321.3z"/>
		<path class="st14" d="M756.7,321.3c0,1.1-0.3,2-0.8,2.7c-0.5,0.7-1.2,1-2.1,1c-0.9,0-1.7-0.3-2.2-1l-0.1,0.9h-1.2v-10.5h1.3v3.9
			c0.5-0.6,1.2-1,2.1-1s1.6,0.3,2.1,1c0.5,0.7,0.8,1.6,0.8,2.8V321.3z M755.4,321.2c0-0.9-0.2-1.5-0.5-2s-0.8-0.7-1.4-0.7
			c-0.8,0-1.4,0.4-1.8,1.2v3.2c0.4,0.8,1,1.2,1.8,1.2c0.6,0,1.1-0.2,1.4-0.7S755.4,322.1,755.4,321.2z"/>
		<path class="st14" d="M761.5,323.1l1.7-5.5h1.4l-3,8.5c-0.5,1.2-1.2,1.8-2.2,1.8l-0.2,0l-0.5-0.1v-1l0.3,0c0.4,0,0.8-0.1,1-0.3
			c0.2-0.2,0.4-0.5,0.6-1l0.3-0.8l-2.6-7.3h1.4L761.5,323.1z"/>
	</g>
	<g>
		
			<ellipse transform="matrix(-0.103 0.9947 -0.9947 -0.103 2082.7922 491.3541)" class="st22" cx="819.8" cy="1184.8" rx="19.1" ry="15.9"/>
		
			<ellipse transform="matrix(-0.9783 -0.2074 0.2074 -0.9783 1316.2961 2548.6028)" class="st22" cx="791.7" cy="1205.3" rx="19.1" ry="15.9"/>
		
			<ellipse transform="matrix(-6.587160e-02 0.9978 -0.9978 -6.587160e-02 2087.1472 492.9717)" class="st22" cx="812.8" cy="1223.4" rx="12.2" ry="10.1"/>
		
			<ellipse transform="matrix(-0.9699 -0.2436 0.2436 -0.9699 1340.1985 2587.4629)" class="st22" cx="830.1" cy="1210.9" rx="12.2" ry="10.1"/>
		
			<rect x="804" y="1198.5" transform="matrix(0.5886 0.8084 -0.8084 0.5886 1311.6105 -162.3202)" class="st22" width="22.6" height="18.2"/>
		
			<ellipse transform="matrix(-0.103 0.9947 -0.9947 -0.103 2086.0842 495.9207)" class="st23" cx="819.4" cy="1188.6" rx="12.2" ry="8.2"/>
		
			<ellipse transform="matrix(0.9783 0.2074 -0.2074 0.9783 267.4962 -138.5441)" class="st23" cx="794.6" cy="1206.7" rx="12.2" ry="8.2"/>
		
			<ellipse transform="matrix(0.103 -0.9947 0.9947 0.103 -487.8617 1905.7576)" class="st23" cx="812.7" cy="1223.4" rx="7.1" ry="4.8"/>
		
			<ellipse transform="matrix(0.9783 0.2074 -0.2074 0.9783 269.0826 -145.84)" class="st23" cx="830.2" cy="1210.6" rx="7.1" ry="4.8"/>
		<path class="st24" d="M825.8,1223.1L825.8,1223.1c-1.4,1-3.4,0.7-4.4-0.7l-16.8-23c-1-1.4-0.7-3.4,0.7-4.4l0,0
			c1.4-1,3.4-0.7,4.4,0.7l16.8,23C827.5,1220.1,827.2,1222.1,825.8,1223.1z"/>
	</g>
	<path class="st25" d="M709.5,1361.7l0-0.5c0-2-1.6-3.6-3.6-3.6c-2,0-3.6,1.6-3.6,3.6c0-2-1.6-3.6-3.6-3.6c-2,0-3.6,1.6-3.6,3.6"/>
	<path class="st25" d="M958.5,1408.7l0-0.5c0-2-1.6-3.6-3.6-3.6c-2,0-3.6,1.6-3.6,3.6c0-2-1.6-3.6-3.6-3.6c-2,0-3.6,1.6-3.6,3.6"/>
	<path class="st25" d="M161.1,1482.1l0-0.5c0-2-1.6-3.6-3.6-3.6c-2,0-3.6,1.6-3.6,3.6c0-2-1.6-3.6-3.6-3.6s-3.6,1.6-3.6,3.6"/>
	<path class="st25" d="M267.6,1408.3l0-0.5c0-2-1.6-3.6-3.6-3.6s-3.6,1.6-3.6,3.6c0-2-1.6-3.6-3.6-3.6s-3.6,1.6-3.6,3.6"/>
	<path class="st25" d="M785,1495.6l0-0.5c0-2-1.6-3.6-3.6-3.6c-2,0-3.6,1.6-3.6,3.6c0-2-1.6-3.6-3.6-3.6s-3.6,1.6-3.6,3.6
		c0-2-1.6-3.6-3.6-3.6s-3.6,1.6-3.6,3.6l0,0.5"/>
	<path class="st25" d="M716.8,1420.4l0-0.5c0-2-1.6-3.6-3.6-3.6s-3.6,1.6-3.6,3.6c0-2-1.6-3.6-3.6-3.6c-2,0-3.6,1.6-3.6,3.6
		c0-2-1.6-3.6-3.6-3.6s-3.6,1.6-3.6,3.6l0,0.5"/>
	<path class="st25" d="M951.3,1468l0-0.5c0-2-1.6-3.6-3.6-3.6s-3.6,1.6-3.6,3.6c0-2-1.6-3.6-3.6-3.6s-3.6,1.6-3.6,3.6
		c0-2-1.6-3.6-3.6-3.6s-3.6,1.6-3.6,3.6l0,0.5"/>
	<path class="st25" d="M370.8,1504.6l0-0.5c0-2-1.6-3.6-3.6-3.6s-3.6,1.6-3.6,3.6c0-2-1.6-3.6-3.6-3.6s-3.6,1.6-3.6,3.6
		c0-2-1.6-3.6-3.6-3.6s-3.6,1.6-3.6,3.6l0,0.5"/>
	<path class="st25" d="M786.2,1396.2c0-2-1.6-3.6-3.6-3.6s-3.6,1.6-3.6,3.6l0,0.5"/>
	<path class="st25" d="M792.7,1393.4c0-2-1.6-3.6-3.6-3.6c-2,0-3.6,1.6-3.6,3.6l0,0.5"/>
	<path class="st25" d="M1073.9,1403.9c0-2-1.6-3.6-3.6-3.6c-2,0-3.6,1.6-3.6,3.6l0,0.5"/>
	<path class="st25" d="M1080.3,1401.1c0-2-1.6-3.6-3.6-3.6c-2,0-3.6,1.6-3.6,3.6l0,0.5"/>
	<path class="st25" d="M562.6,1378c0-2,1.6-3.6,3.6-3.6s3.6,1.6,3.6,3.6l0,0.5"/>
	<path class="st25" d="M555.7,1375.9c0-2,1.6-3.6,3.6-3.6s3.6,1.6,3.6,3.6l0,0.5"/>
	<path class="st25" d="M649.1,1359.9c0-2-1.6-3.6-3.6-3.6s-3.6,1.6-3.6,3.6l0,0.5"/>
	<path class="st25" d="M53.5,1464.9c0-2-1.6-3.6-3.6-3.6c-2,0-3.6,1.6-3.6,3.6l0,0.5"/>
	<path class="st25" d="M59.7,1467.8c0-2-1.6-3.6-3.6-3.6c-2,0-3.6,1.6-3.6,3.6l0,0.5"/>
	<path class="st25" d="M663,1358.3l0-0.5c0-2-1.6-3.6-3.6-3.6s-3.6,1.6-3.6,3.6c0-2-1.6-3.6-3.6-3.6s-3.6,1.6-3.6,3.6"/>
	<path class="st25" d="M1050.8,1503.1c0-2-1.6-3.6-3.6-3.6c-2,0-3.6,1.6-3.6,3.6l0,0.5"/>
	<path class="st25" d="M1064.6,1501.5l0-0.5c0-2-1.6-3.6-3.6-3.6c-2,0-3.6,1.6-3.6,3.6c0-2-1.6-3.6-3.6-3.6c-2,0-3.6,1.6-3.6,3.6"/>
	<g>
		<line class="st20" x1="443.2" y1="1406.2" x2="443.2" y2="1536.1"/>
		<path class="st4" d="M443.2,1506.8c0,0-31.9,0.3-31.9-38.3c0-31.3,31.9-101.8,31.9-101.8s31.9,70.5,31.9,101.8
			C475.1,1507.1,443.2,1506.8,443.2,1506.8z"/>
		<path class="st5" d="M443.2,1366.6v140.2c0,0,31.9,0.3,31.9-38.3C475.1,1437.2,443.2,1366.6,443.2,1366.6z"/>
	</g>
	<rect x="575.5" y="356.1" class="st26" width="215" height="46.7"/>
	<g>
		<g>
			<g>
				<g>
					<g>
						<g>
							<path class="st14" d="M617.8,375h1.3c1.2,0,2,0.5,2,1.9c0,1.5-1.2,2-2.4,2h-1V375z M616.1,385.2h1.7v-4.9h0.9
								c1.6,0,1.8,0.7,2.3,2.4l0.7,2.5h1.5l-0.7-3.2c-0.2-1.2-0.4-2.2-2-2.5v0c1.2-0.3,2.3-0.9,2.3-2.7c0-2.2-1.6-3-3.4-3h-3.3
								V385.2z"/>
							<path class="st14" d="M630.7,373.7h1.7v11.5h-1.7V373.7z"/>
							<path class="st14" d="M642.2,375h-2.9v-1.3h7.4v1.3h-2.9v10.1h-1.7V375z"/>
							<path class="st14" d="M653.8,373.7h1.7v11.5h-1.7V373.7z"/>
							<path class="st14" d="M682.1,375.2L682.1,375.2l1.6,5.3h-3.3L682.1,375.2z M677.2,385.2h1.8l1.1-3.3h4.1l1.1,3.3h1.8
								l-3.9-11.5h-2L677.2,385.2z"/>
							<path class="st14" d="M694.2,373.7h1.7v10.1h4.4v1.3h-6.1V373.7z"/>
						</g>
						<g>
							<path class="st14" d="M709.2,373.7h2.3l3.3,9.4h0l3.3-9.4h2.3v11.5h-1.5v-9.5h0l-3.3,9.5H714l-3.3-9.5h0v9.5h-1.5V373.7z"/>
							<path class="st14" d="M732.4,375.2L732.4,375.2l1.6,5.3h-3.3L732.4,375.2z M727.5,385.2h1.8l1.1-3.3h4.1l1.1,3.3h1.8
								l-3.9-11.5h-2L727.5,385.2z"/>
							<path class="st14" d="M748.7,378.9c1.1,0.6,2.4,1.3,2.4,3.1c0,2.2-1.8,3.3-4.1,3.3c-1.4,0-2.6-0.3-2.9-0.4v-1.7
								c0.7,0.4,1.8,0.8,3,0.8c1.1,0,2.2-0.4,2.2-1.7c0-1.2-1-1.7-1.9-2.2l-1-0.6c-1.1-0.6-2.5-1.3-2.5-3c0-2,1.7-3,3.8-3
								c1.1,0,2.2,0.2,2.6,0.3v1.6c-0.2-0.1-1.5-0.6-2.7-0.6c-1.1,0-1.9,0.5-1.9,1.5c0,0.9,1,1.4,1.9,1.9L748.7,378.9z"/>
							<path class="st14" d="M762.7,378.9c1.1,0.6,2.4,1.3,2.4,3.1c0,2.2-1.8,3.3-4.1,3.3c-1.4,0-2.6-0.3-2.9-0.4v-1.7
								c0.7,0.4,1.8,0.8,3,0.8c1.1,0,2.2-0.4,2.2-1.7c0-1.2-1-1.7-1.9-2.2l-1-0.6c-1.1-0.6-2.5-1.3-2.5-3c0-2,1.7-3,3.8-3
								c1.1,0,2.2,0.2,2.6,0.3v1.6c-0.2-0.1-1.5-0.6-2.7-0.6c-1.1,0-1.9,0.5-1.9,1.5c0,0.9,1,1.4,1.9,1.9L762.7,378.9z"/>
						</g>
					</g>
				</g>
			</g>
			<path class="st14" d="M605.8,374.8c1.4,0,2.4,0.7,2.7,0.9v-1.5c-0.5-0.2-1.7-0.7-3-0.7c-2.5,0-4.5,1.5-4.6,5.9h0
				c0,4.4,2.1,5.9,4.6,5.9c1.3,0,2.5-0.5,3-0.7v-1.5c-0.3,0.2-1.3,0.9-2.7,0.9c-2.3,0-3-1.9-3.1-4.6h0
				C602.8,376.7,603.6,374.8,605.8,374.8z"/>
			<path class="st14" d="M668.1,374.8c1.4,0,2.4,0.7,2.7,0.9v-1.5c-0.5-0.2-1.7-0.7-3-0.7c-2.5,0-4.5,1.5-4.6,5.9h0
				c0,4.4,2.1,5.9,4.6,5.9c1.3,0,2.5-0.5,3-0.7v-1.5c-0.3,0.2-1.3,0.9-2.7,0.9c-2.3,0-3-1.9-3.1-4.6h0
				C665.1,376.7,665.9,374.8,668.1,374.8z"/>
		</g>
	</g>
	<path class="st14" d="M353.8,947.3c-0.7,0-1.4,0.1-2.1,0.2c-2.9-5.1-8.3-8.5-14.5-8.5c-1.3,0-2.5,0.2-3.7,0.4
		c-1.4-15.4-14.3-27.4-30-27.4c-0.2,0-0.4,0-0.6,0c-6.1-18.3-23.2-31.4-43.5-31.4c-25.3,0-45.9,20.5-45.9,45.9
		c0,2.4,0.2,4.7,0.6,6.9c-0.6-0.1-1.3-0.1-2-0.1c-12.3,0-22.2,10-22.2,22.2c0,12.3,10,22.2,22.2,22.2l141.8-5.4
		c6.9,0,12.5-5.6,12.5-12.5C366.4,952.9,360.8,947.3,353.8,947.3z"/>
	<path class="st14" d="M1253.7,936.3c0.3,0,0.6,0,0.8,0.1c1.1-2,3.3-3.3,5.7-3.3c0.5,0,1,0.1,1.5,0.2c0.5-6.1,5.6-10.8,11.8-10.8
		c0.1,0,0.1,0,0.2,0c2.4-7.2,9.1-12.4,17.1-12.4c10,0,18.1,8.1,18.1,18.1c0,0.9-0.1,1.8-0.2,2.7c0.3,0,0.5,0,0.8,0
		c4.8,0,8.8,3.9,8.8,8.8s-3.9,8.8-8.8,8.8l-55.8-2.1c-2.7,0-4.9-2.2-4.9-4.9C1248.8,938.6,1251,936.3,1253.7,936.3z"/>
	<g>
		<circle class="st14" cx="76.1" cy="1052.5" r="25.1"/>
		<circle class="st14" cx="98.7" cy="1041.5" r="9.2"/>
		<circle class="st14" cx="113.2" cy="1053.7" r="15.3"/>
		<circle class="st14" cx="129.7" cy="1068.2" r="8.9"/>
		<circle class="st14" cx="54.3" cy="1065.5" r="11"/>
		<polygon class="st14" points="129.7,1077.1 54.3,1077.1 78.9,1052.8 108.7,1049.5 		"/>
	</g>
	<rect x="975.6" y="1311.6" class="st13" width="25.9" height="7.5"/>
	<g>
		<path class="st63" d="M578.4,1061.2h-2l-0.3-1.4c-0.2-0.2-0.5-0.3-0.8-0.4c-0.3-0.1-0.7-0.2-1-0.2c-0.5,0-1,0.1-1.3,0.4
			c-0.3,0.2-0.5,0.5-0.5,0.9c0,0.3,0.1,0.6,0.4,0.9c0.3,0.2,0.9,0.4,1.8,0.6c1.4,0.3,2.4,0.7,3.1,1.2c0.7,0.5,1,1.3,1,2.2
			c0,1-0.4,1.8-1.3,2.5c-0.9,0.6-2,1-3.5,1c-0.9,0-1.7-0.1-2.4-0.4c-0.7-0.3-1.4-0.6-1.9-1.1l0-2.5h2.1l0.4,1.5
			c0.2,0.2,0.4,0.3,0.7,0.3c0.3,0.1,0.6,0.1,1,0.1c0.6,0,1.1-0.1,1.4-0.3c0.3-0.2,0.5-0.5,0.5-0.9c0-0.3-0.2-0.6-0.5-0.9
			s-0.9-0.5-1.8-0.6c-1.3-0.3-2.3-0.7-3-1.2c-0.7-0.5-1-1.3-1-2.2c0-0.9,0.4-1.8,1.2-2.4c0.8-0.7,1.9-1,3.3-1c0.9,0,1.7,0.1,2.5,0.4
			c0.8,0.2,1.4,0.5,1.8,0.9L578.4,1061.2z"/>
		<path class="st63" d="M585.6,1068.8c-1.6,0-2.9-0.5-3.9-1.6c-1-1-1.5-2.4-1.5-4v-0.4c0-1.7,0.5-3.1,1.4-4.1
			c0.9-1.1,2.2-1.6,3.7-1.6c1.5,0,2.7,0.5,3.5,1.4c0.8,0.9,1.3,2.2,1.3,3.7v1.7h-6.7l0,0.1c0.1,0.7,0.3,1.4,0.7,1.8
			c0.4,0.5,1,0.7,1.8,0.7c0.7,0,1.2-0.1,1.7-0.2c0.4-0.1,0.9-0.3,1.5-0.6l0.8,1.9c-0.5,0.4-1.1,0.7-1.8,0.9
			S586.5,1068.8,585.6,1068.8z M585.3,1059.4c-0.6,0-1,0.2-1.3,0.6s-0.5,1-0.6,1.7l0,0.1h3.7v-0.3c0-0.6-0.2-1.2-0.5-1.6
			S585.9,1059.4,585.3,1059.4z"/>
		<path class="st63" d="M597,1068.8c-1.6,0-2.9-0.5-3.9-1.6c-1-1-1.5-2.4-1.5-4v-0.4c0-1.7,0.5-3.1,1.4-4.1c0.9-1.1,2.2-1.6,3.7-1.6
			c1.5,0,2.7,0.5,3.5,1.4c0.8,0.9,1.3,2.2,1.3,3.7v1.7h-6.7l0,0.1c0.1,0.7,0.3,1.4,0.7,1.8c0.4,0.5,1,0.7,1.8,0.7
			c0.7,0,1.2-0.1,1.7-0.2c0.4-0.1,0.9-0.3,1.5-0.6l0.8,1.9c-0.5,0.4-1.1,0.7-1.8,0.9S597.9,1068.8,597,1068.8z M596.7,1059.4
			c-0.6,0-1,0.2-1.3,0.6s-0.5,1-0.6,1.7l0,0.1h3.7v-0.3c0-0.6-0.2-1.2-0.5-1.6S597.3,1059.4,596.7,1059.4z"/>
		<path class="st63" d="M612.7,1054.5v2.8h2v2.1h-2v5.8c0,0.4,0.1,0.8,0.3,0.9c0.2,0.2,0.4,0.3,0.7,0.3c0.2,0,0.4,0,0.5,0
			c0.2,0,0.3,0,0.5-0.1l0.3,2.2c-0.3,0.1-0.7,0.2-1,0.2c-0.3,0.1-0.7,0.1-1.1,0.1c-1.1,0-1.9-0.3-2.4-0.9c-0.6-0.6-0.9-1.5-0.9-2.7
			v-5.8H608v-2.1h1.7v-2.8H612.7z"/>
		<path class="st63" d="M616,1066.8l1.5-0.3v-12l-1.6-0.3v-1.8h4.7v6.4c0.4-0.5,0.8-0.9,1.3-1.2c0.5-0.3,1.1-0.4,1.7-0.4
			c1.2,0,2.1,0.4,2.8,1.2c0.7,0.8,1,2,1,3.6v4.6l1.5,0.3v1.8H623v-1.8l1.3-0.3v-4.6c0-0.9-0.2-1.5-0.5-1.9c-0.3-0.4-0.8-0.5-1.4-0.5
			c-0.4,0-0.8,0.1-1.1,0.2c-0.3,0.2-0.6,0.4-0.8,0.6v6.1l1.3,0.3v1.8H616V1066.8z"/>
		<path class="st63" d="M635.1,1068.8c-1.6,0-2.9-0.5-3.9-1.6c-1-1-1.5-2.4-1.5-4v-0.4c0-1.7,0.5-3.1,1.4-4.1
			c0.9-1.1,2.2-1.6,3.7-1.6c1.5,0,2.7,0.5,3.5,1.4c0.8,0.9,1.3,2.2,1.3,3.7v1.7h-6.7l0,0.1c0.1,0.7,0.3,1.4,0.7,1.8
			c0.4,0.5,1,0.7,1.8,0.7c0.7,0,1.2-0.1,1.7-0.2c0.4-0.1,0.9-0.3,1.5-0.6l0.8,1.9c-0.5,0.4-1.1,0.7-1.8,0.9S636,1068.8,635.1,1068.8
			z M634.8,1059.4c-0.6,0-1,0.2-1.3,0.6s-0.5,1-0.6,1.7l0,0.1h3.7v-0.3c0-0.6-0.2-1.2-0.5-1.6S635.4,1059.4,634.8,1059.4z"/>
		<path class="st63" d="M651.6,1066.5c0.5,0,1-0.2,1.3-0.5c0.3-0.3,0.5-0.7,0.5-1.3h2.8l0,0.1c0,1.1-0.4,2.1-1.3,2.9
			c-0.9,0.8-2,1.2-3.3,1.2c-1.7,0-3-0.5-3.9-1.6c-0.9-1.1-1.4-2.4-1.4-4.1v-0.3c0-1.7,0.5-3,1.4-4.1s2.3-1.6,4-1.6
			c0.9,0,1.7,0.1,2.5,0.4s1.3,0.7,1.8,1.1l0,3h-2.5l-0.5-1.8c-0.2-0.1-0.3-0.2-0.6-0.3c-0.2-0.1-0.5-0.1-0.8-0.1
			c-0.9,0-1.5,0.3-1.8,0.9c-0.4,0.6-0.5,1.4-0.5,2.4v0.3c0,1,0.2,1.8,0.5,2.4C650.2,1066.2,650.8,1066.5,651.6,1066.5z"/>
		<path class="st63" d="M657.5,1066.8l1.5-0.3v-7l-1.6-0.3v-1.8h4.7v9.2l1.5,0.3v1.8h-6V1066.8z M662,1054.6h-3v-2.3h3V1054.6z"/>
		<path class="st63" d="M669,1054.5v2.8h2v2.1h-2v5.8c0,0.4,0.1,0.8,0.3,0.9c0.2,0.2,0.4,0.3,0.7,0.3c0.2,0,0.4,0,0.5,0
			c0.2,0,0.3,0,0.5-0.1l0.3,2.2c-0.3,0.1-0.7,0.2-1,0.2c-0.3,0.1-0.7,0.1-1.1,0.1c-1.1,0-1.9-0.3-2.4-0.9c-0.6-0.6-0.9-1.5-0.9-2.7
			v-5.8h-1.7v-2.1h1.7v-2.8H669z"/>
		<path class="st63" d="M684.1,1059.1l-1.1,0.2l-4.2,11c-0.3,0.8-0.8,1.5-1.3,2s-1.4,0.8-2.5,0.8c-0.3,0-0.5,0-0.7-0.1
			c-0.2,0-0.5-0.1-0.8-0.2l0.4-2.2c0.1,0,0.2,0,0.3,0c0.1,0,0.2,0,0.3,0c0.5,0,0.9-0.1,1.2-0.4s0.5-0.6,0.6-0.9l0.3-0.9l-3.6-9.3
			l-1.1-0.2v-1.8h5.5v1.8l-1.3,0.2l1.5,4.5l0.2,0.8l0.1,0l1.8-5.3l-1.3-0.2v-1.8h5.5V1059.1z"/>
		<path class="st63" d="M697.7,1067.2c-0.4,0.5-0.8,0.9-1.3,1.2c-0.5,0.3-1,0.4-1.7,0.4c-1.4,0-2.5-0.5-3.2-1.5
			c-0.8-1-1.2-2.4-1.2-4v-0.2c0-1.8,0.4-3.2,1.2-4.3c0.8-1.1,1.9-1.6,3.3-1.6c0.6,0,1.1,0.1,1.5,0.4s0.8,0.6,1.2,1v-4.1l-1.6-0.3
			v-1.8h1.6h3v14.1l1.5,0.3v1.8h-4.1L697.7,1067.2z M693.4,1063.3c0,1,0.2,1.8,0.5,2.3s0.9,0.9,1.6,0.9c0.4,0,0.8-0.1,1.2-0.3
			s0.6-0.4,0.8-0.8v-4.8c-0.2-0.4-0.5-0.6-0.8-0.8c-0.3-0.2-0.7-0.3-1.1-0.3c-0.7,0-1.3,0.3-1.6,1c-0.3,0.7-0.5,1.5-0.5,2.6V1063.3z
			"/>
		<path class="st63" d="M702.9,1066.8l1.5-0.3v-7l-1.6-0.3v-1.8h4.7v9.2l1.5,0.3v1.8h-6V1066.8z M707.4,1054.6h-3v-2.3h3V1054.6z"/>
		<path class="st63" d="M710,1066.8l1.5-0.3v-7h-1.7v-2.1h1.7v-1.3c0-1.3,0.4-2.2,1.1-2.9c0.7-0.7,1.8-1,3.1-1c0.3,0,0.5,0,0.8,0.1
			c0.3,0,0.6,0.1,0.9,0.2l-0.3,2.3c-0.2,0-0.3-0.1-0.5-0.1c-0.2,0-0.3,0-0.5,0c-0.5,0-0.9,0.1-1.1,0.4c-0.3,0.3-0.4,0.7-0.4,1.2v1.3
			h2.2v2.1h-2.2v7l1.5,0.3v1.8h-6V1066.8z"/>
		<path class="st63" d="M718,1066.8l1.5-0.3v-7h-1.7v-2.1h1.7v-1.3c0-1.3,0.4-2.2,1.1-2.9c0.7-0.7,1.8-1,3.1-1c0.3,0,0.5,0,0.8,0.1
			c0.3,0,0.6,0.1,0.9,0.2l-0.3,2.3c-0.2,0-0.3-0.1-0.5-0.1c-0.2,0-0.3,0-0.5,0c-0.5,0-0.9,0.1-1.1,0.4c-0.3,0.3-0.4,0.7-0.4,1.2v1.3
			h2.2v2.1h-2.2v7l1.5,0.3v1.8h-6V1066.8z"/>
		<path class="st63" d="M730.9,1068.8c-1.6,0-2.9-0.5-3.9-1.6c-1-1-1.5-2.4-1.5-4v-0.4c0-1.7,0.5-3.1,1.4-4.1
			c0.9-1.1,2.2-1.6,3.7-1.6c1.5,0,2.7,0.5,3.5,1.4c0.8,0.9,1.3,2.2,1.3,3.7v1.7h-6.7l0,0.1c0.1,0.7,0.3,1.4,0.7,1.8
			c0.4,0.5,1,0.7,1.8,0.7c0.7,0,1.2-0.1,1.7-0.2c0.4-0.1,0.9-0.3,1.5-0.6l0.8,1.9c-0.5,0.4-1.1,0.7-1.8,0.9
			S731.9,1068.8,730.9,1068.8z M730.7,1059.4c-0.6,0-1,0.2-1.3,0.6s-0.5,1-0.6,1.7l0,0.1h3.7v-0.3c0-0.6-0.2-1.2-0.5-1.6
			S731.3,1059.4,730.7,1059.4z"/>
		<path class="st63" d="M737.2,1066.8l1.5-0.3v-7l-1.6-0.3v-1.8h4.5l0.1,1.6c0.3-0.6,0.6-1,1-1.4c0.4-0.3,0.9-0.5,1.5-0.5
			c0.2,0,0.3,0,0.5,0c0.2,0,0.3,0.1,0.4,0.1l-0.3,2.8l-1.3,0c-0.4,0-0.8,0.1-1.1,0.3c-0.3,0.2-0.5,0.4-0.7,0.7v5.5l1.5,0.3v1.8h-6
			V1066.8z"/>
		<path class="st63" d="M751.1,1068.8c-1.6,0-2.9-0.5-3.9-1.6c-1-1-1.5-2.4-1.5-4v-0.4c0-1.7,0.5-3.1,1.4-4.1
			c0.9-1.1,2.2-1.6,3.7-1.6c1.5,0,2.7,0.5,3.5,1.4c0.8,0.9,1.3,2.2,1.3,3.7v1.7h-6.7l0,0.1c0.1,0.7,0.3,1.4,0.7,1.8
			c0.4,0.5,1,0.7,1.8,0.7c0.7,0,1.2-0.1,1.7-0.2c0.4-0.1,0.9-0.3,1.5-0.6l0.8,1.9c-0.5,0.4-1.1,0.7-1.8,0.9S752,1068.8,751.1,1068.8
			z M750.9,1059.4c-0.6,0-1,0.2-1.3,0.6s-0.5,1-0.6,1.7l0,0.1h3.7v-0.3c0-0.6-0.2-1.2-0.5-1.6S751.5,1059.4,750.9,1059.4z"/>
		<path class="st63" d="M756.9,1066.8l1.5-0.3v-7l-1.6-0.3v-1.8h4.5l0.1,1.6c0.4-0.6,0.8-1,1.4-1.3c0.5-0.3,1.2-0.5,1.8-0.5
			c1.1,0,2,0.4,2.7,1.1s1,1.8,1,3.4v4.9l1.5,0.3v1.8h-5.8v-1.8l1.3-0.3v-4.9c0-0.8-0.2-1.3-0.5-1.6c-0.3-0.3-0.8-0.5-1.4-0.5
			c-0.4,0-0.8,0.1-1.1,0.2c-0.3,0.2-0.6,0.4-0.8,0.7v6.1l1.2,0.3v1.8h-5.7V1066.8z"/>
		<path class="st63" d="M775.2,1054.5v2.8h2v2.1h-2v5.8c0,0.4,0.1,0.8,0.3,0.9c0.2,0.2,0.4,0.3,0.7,0.3c0.2,0,0.4,0,0.5,0
			c0.2,0,0.3,0,0.5-0.1l0.3,2.2c-0.3,0.1-0.7,0.2-1,0.2c-0.3,0.1-0.7,0.1-1.1,0.1c-1.1,0-1.9-0.3-2.4-0.9c-0.6-0.6-0.9-1.5-0.9-2.7
			v-5.8h-1.7v-2.1h1.7v-2.8H775.2z"/>
		<path class="st63" d="M778.3,1054.1v-1.8h4.7v14.1l1.5,0.3v1.8h-6v-1.8l1.5-0.3v-12L778.3,1054.1z"/>
		<path class="st63" d="M797.2,1059.1l-1.1,0.2l-4.2,11c-0.3,0.8-0.8,1.5-1.3,2s-1.4,0.8-2.5,0.8c-0.3,0-0.5,0-0.7-0.1
			c-0.2,0-0.5-0.1-0.8-0.2l0.4-2.2c0.1,0,0.2,0,0.3,0c0.1,0,0.2,0,0.3,0c0.5,0,0.9-0.1,1.2-0.4s0.5-0.6,0.6-0.9l0.3-0.9l-3.6-9.3
			l-1.1-0.2v-1.8h5.5v1.8l-1.3,0.2l1.5,4.5l0.2,0.8l0.1,0l1.8-5.3l-1.3-0.2v-1.8h5.5V1059.1z"/>
	</g>
	<g id="Layer_4_2_">
		<g>
			<g>
				<path class="st4" d="M540.3,996.4c6.1-1.3,12.4-2.8,18.6-2.6c-1.2-1.6-2.3-3.1-3.5-4.6c-2.5,8.4-4,17.9-3.4,26.6
					c0.3,4.8,1.4,10.3,5.2,13.7c3.8,3.5,9.7,3.9,14.1,1.2c4.4-2.6,7.1-7.4,9-12c2.3-5.3,3.8-10.9,4.8-16.5c0.7-3.9,1.6-8.1,1.5-12
					c-0.1-5.2-8.2-11.7-13.1-8.1c-2,1.5-3.2,4.7-3.8,6.9c-0.9,3.2-0.9,7.1,1.6,9.6c2.8,2.8,7.6,2.9,11.3,3.2
					c4.5,0.3,9.2,0.4,13.7-0.5c-1.4-1.8-2.7-3.6-4.2-5.4c-3.1,5.7-5.3,11.4-6.1,17.9c-0.8,6.1-1.1,13.6,5.1,17
					c4.7,2.6,10.4,0.8,14.9-1.3c4.4-2.1,8.2-5.2,11.6-8.6c4.5-4.5,9.2-10.3,10.4-16.8c1.1-5.7-1.8-11-7.8-11.7
					c-12.3-1.7-18.6,13.6-16.6,23.6c2.4,12.2,14.5,17.4,25.9,15.8c6.3-0.9,11.2-3.8,15.7-8.1c2.7-2.5,5.1-5.3,7.6-8
					c2.2-2.3,4.4-4.8,5.7-7.7c3-6.5,0.2-14.1-7.3-15.3c-6.7-1.1-12.7,3.4-15.6,9.2c-2.7,5.6-3.8,12.7-1.5,18.6
					c2.3,5.8,7.2,10.4,13.5,11.3c18.4,2.7,26.5-17.5,27.7-32.4c0.1-1,0.1-2,0.1-2.9c-0.2-4.7-7.3-4.7-7.3,0c0,10.8-0.7,21.7-1,32.5
					c-0.1,4.7,7.2,4.7,7.3,0c0.2-5.9,0.6-11.9,2-17.7c0.5-2.3,1.4-4.5,2.3-6.7c0.7-1.7,1.7-4,3.3-4.9c0.8-0.5,1.6-0.5,2.5-0.4
					c-0.5,0,0.3,0.1,0.4,0.1c0.6,0.2-0.3-0.2,0.4,0.2c0.6,0.3,0.1,0,0.2,0.1c0.2,0.1,0.7,0.8,0.2,0.2c0.1,0.2,0.3,0.5,0.4,0.8
					c-0.3-0.7,0,0.1,0.1,0.4c0.1,0.3,0.1,0.6,0.2,0.9c0,0.1,0-0.3,0,0.4c0,0.8,0.1,1.6,0,2.4c0,1.8-0.2,3.6-0.4,5.3
					c-0.7,5.9-3.1,14.8,1.8,19.6c3,3,7.9,3.1,11.7,1.8c5.6-2,9.1-7,11.6-12.1c6.5-13.2,11.4-27.7,13.2-42.3
					c0.8-6.6,1.3-14.6-1.5-20.9c-2.2-5.1-7.9-6.2-11.4-1.9c-2.6,3.1-4,7.1-5.2,10.9c-2.1,6.4-3.1,13-3.7,19.6
					c-1,10.5-1.1,21.7,1.3,32c1,4.4,2.7,9,6,12.2c3.7,3.6,9.3,4.7,13.6,1.4c4.5-3.5,7.1-9.5,9.5-14.5c2.5-5.1,5-11.5,10.5-14.1
					c2.8-1.3,6-1.6,9-1c4.6,0.7,6.7-6.1,2-7.1c-15.5-3.1-28.6,10.1-27.4,25.4c0.3,3.5,1.1,7,3.5,9.7c2.6,3,6.8,3.8,10.6,2.8
					c3.4-0.9,7-3.1,9.1-6c1.5-2.1,2.3-4.6,3-7c1.8-6,2.6-12.1,4.2-18.1c-2.3-0.6-4.7-1.3-7.1-2c-1.5,5.9-2.6,11.9-3.5,17.9
					c-0.4,3-1,5.7,0.3,8.6c1.4,3.1,4.2,5.7,7.5,6.7c7.8,2.3,12.1-4.5,15-10.6c1.8-3.7,2.9-7.2,3.4-11.3c0.5-4.1,0.5-8.2,1.1-12.2
					c-2.4-0.3-4.8-0.6-7.2-1c0,10.8-0.5,21.6-0.3,32.3c0,4,6.5,5.2,7.2,1c1.4-7.8,2-16.1,5-23.5c0.6-1.5,2.5-6.2,5.1-5.5
					c1,0.2,0.7,1.7,0.7,2.6c0,2.7-0.2,5.3-0.4,8c-0.3,4.6-1.2,10.1,0.4,14.6c1.5,4.1,5.5,6.9,9.9,7.1c8.2,0.4,15.6-6.9,21-12.1
					c5.9-5.6,13.5-14.5,8.6-23c-2.2-3.8-6.7-5.6-10.9-4.6c-4.3,1-7.7,4.5-10,8c-4.4,6.8-5.9,16.8-0.6,23.5c5,6.3,13.8,8.1,21.5,7.4
					c9.1-0.8,17.6-4.8,22.6-12.6c4.4-6.8,7-16.4,4.3-24.3c-1.6-4.5-8.7-2.5-7.1,2c1.9,5.4,0.2,11.7-2.3,16.6
					c-3.1,5.8-8.1,9.1-14.5,10.5c-5.6,1.2-13.2,1-17.7-3.2c-4.8-4.5-2.6-12.5,0.9-17.2c1.4-1.8,4.9-5.5,7.2-3.1
					c2.3,2.3,0,6.3-1.4,8.4c-2.1,3.1-4.9,5.7-7.7,8.2c-2.5,2.3-5.1,4.5-8.1,6.3c-2.2,1.3-5.3,2.7-7.5,0.9c-1.3-1-1.4-2.6-1.4-4.2
					c0-2.2,0-4.4,0.2-6.6c0.4-6.3,3.2-18.1-5.2-20.5c-7.7-2.2-12.6,5.6-14.8,11.6c-2.6,7.2-3.2,15-4.6,22.5c2.4,0.3,4.8,0.6,7.2,1
					c-0.2-10.8,0.3-21.6,0.3-32.3c0-4-6.6-5.2-7.2-1c-1,6.5-0.2,13.6-2.8,19.8c-0.9,2.3-2.1,4.7-3.4,6.8c-1,1.7-2.2,3.2-4.3,2.5
					c-4.5-1.5-2.6-6.3-2.1-9.7c0.8-4.8,1.7-9.6,2.9-14.4c1.1-4.6-5.9-6.5-7.1-2c-1.4,5.3-2.2,10.7-3.6,15.9
					c-0.6,2.4-1.3,4.9-2.5,6.9c-0.2,0.4-0.2,0.4,0,0c-0.2,0.2-0.4,0.4-0.6,0.6c-0.6,0.5-1.3,1-2,1.5c-1.3,0.7-3,1.6-4.5,1.1
					c-2.4-0.7-2.7-4.6-2.7-6.7c0-3,0.4-6.1,1.8-8.8c3.1-6,9.6-9.7,16.4-8.4c0.6-2.3,1.3-4.7,2-7.1c-6.5-1.1-13.2,0-18.4,4.2
					c-4.5,3.7-6.9,9.1-9.4,14.3c-1.1,2.3-2.3,4.5-3.5,6.6c-1,1.9-2.5,5.3-4.7,6.2c-2.8,1.1-5.1-3-6-5.2c-3.2-7.5-3.2-16.5-3.1-24.7
					c0.1-10.7,1.3-22,5.4-31.9c0.6-1.4,1.4-3.1,2.3-4.1c0.1-0.1,0.2-0.2,0.3-0.3c0.3-0.3,0.4-0.3,0.1-0.1c0,0-1.1,0.1-1,0.1
					c-0.7,0.4,0-0.5-0.2,0.1c-0.1,0.3,0.6,2.3,0.7,2.7c1.3,6.2,0.7,12.9-0.4,19.1c-1.2,6.9-3.2,13.6-5.5,20.2
					c-2.2,6.1-4.5,12.5-7.8,18c-1.1,1.8-2.4,3.6-4.2,4.8c-1,0.6-2.1,1.1-3.2,1.3c-0.5,0-1,0-1.5,0c-0.6,0,0.1,0.1-0.7-0.1
					c-0.7-0.2-0.1,0,0,0c-0.2-0.1-0.5-0.3-0.7-0.4c0.7,0.4,0.1,0.1,0-0.1c0.5,0.8,0,0,0-0.1c-0.4-0.8,0.2,0.7-0.1-0.1
					c-0.1-0.3-0.1-0.6-0.2-0.9c0-0.1-0.2-1.1-0.1-0.3c0-0.3,0-0.7-0.1-1c-0.3-6.5,2-12.8,1.5-19.3c-0.3-3.7-1.5-7.3-4.8-9.3
					c-4.3-2.5-10-1.6-13.3,2c-3.5,3.7-5.6,9.5-6.7,14.4c-1.5,6.3-2,12.9-2.2,19.3c2.4,0,4.9,0,7.3,0c0.3-10.8,1-21.7,1-32.5
					c-2.4,0-4.9,0-7.3,0c0.2,4.3-0.6,7.7-2,12.2c-1.5,5.1-4,10.7-8.1,13.8c-5.3,4-13.3,2.9-16.6-3.5c-2-3.9-1.4-8.9,0.2-12.8
					c1.4-3.2,5.2-8,9.3-6c6.2,3.1-12.2,19.7-15,21.6c-5.8,3.9-15.8,4.5-21.4-0.2c-5.8-4.8-5.6-14.8-0.3-19.9
					c1.2-1.2,5.2-3.6,6.5-1.2c0.6,1.2-0.3,3.3-0.7,4.5c-0.9,2.3-2.3,4.5-3.9,6.5c-2.8,3.5-6.3,7-9.7,9.3c-2.9,1.9-6.8,4.2-10.3,4
					c-4.7-0.3-3.4-7-3-10.2c0.6-5.4,2.6-10.2,5.2-14.9c1.6-2.9-1-6-4.2-5.4c-2.9,0.5-5.9,0.5-8.9,0.4c-2.8-0.1-5.9-0.1-8.7-1
					c-0.1,0-0.6-0.4-0.3-0.2c0.2,0.3-0.1-0.3-0.1-0.6c0-0.2,0.2-1.4,0.4-2.2c0.3-0.9,0.4-1.3,0.8-2c0.1-0.3,0.4-0.6,0.5-1
					c0.4-0.9-0.1-0.1-0.8,0.3c-1.1,0.7-0.9,0-0.4,0.5c0.3,0.3,1,0.5,1.4,0.8c0.2,0.2,0.7,0.9,1,0.9c0.5,0.1-0.4-0.4,0-0.7
					c-0.2,0.1-0.1,2.6-0.1,2.9c-0.3,3.7-0.8,6.8-1.7,10.7c-0.9,4.3-2.1,8.7-3.8,12.7c-0.8,1.9-1.8,3.8-3,5.5c-0.7,1-2,2.3-3,2.9
					c-1,0.6-0.5,0.4-1.7,0.6c-0.7,0.1,0.3,0-0.4,0c-0.1,0-1.5,0-0.9,0c-1.1-0.1-1.2-0.2-1.8-0.5c-0.1-0.1-0.3-0.1-0.4-0.2
					c-0.5-0.3,0.4,0.3,0,0c-0.3-0.2-0.6-0.5-0.8-0.8c0.4,0.5-0.2-0.3-0.3-0.5c-0.2-0.3-0.4-0.7-0.6-1.1c-0.1-0.3-0.5-1.3-0.7-2.2
					c-0.5-1.9-0.6-3.4-0.7-5.5c-0.2-7.7,0.9-15.6,3.2-23.1c0.7-2.3-1.2-4.6-3.5-4.6c-6.8-0.1-13.9,1.5-20.6,2.9
					C533.7,990.4,535.7,997.4,540.3,996.4L540.3,996.4z"/>
			</g>
			<g>
				<path class="st4" d="M560.8,968.9c0.5-1.5,0.5-3.1,0.6-4.6c0.2-3.6,0.1-7.6-1.1-11c-2.1-5.7-7.3-9.1-13.4-8.9
					c-6.8,0.3-11.7,4.4-16,9.3c-5.4,6.2-9.4,13.3-12.4,20.9c-4.2,10.8-6.2,22.6-4.5,34c1.6,11.3,8.3,21.7,20.4,23.1
					c20.7,2.6,26.1-23.3,25.9-38.7c0-4.7-7.4-4.7-7.3,0c0.1,6.6-0.5,13.1-2.7,19.3c-2,5.6-5.6,11.3-12,12.2
					c-9.4,1.3-15.1-7.2-16.7-15.2c-1.7-8.1-0.8-17,1.4-25c1.8-6.3,4.3-12.3,7.7-17.9c2.9-4.8,6.8-10.7,12-13.4
					c3.3-1.8,8-2.2,10.2,1.3c1.6,2.5,1.4,6.1,1.3,9c0,1.7,0,2.2-0.4,3.5C552.3,971.5,559.4,973.4,560.8,968.9L560.8,968.9z"/>
			</g>
		</g>
	</g>
</g>
<g id="Layer_2">
</g>
</svg>
